<svg id="facebook" xmlns="http://www.w3.org/2000/svg" width="45.227" height="45.227" viewBox="0 0 45.227 45.227">
  <path id="路径_68" data-name="路径 68" d="M165.428,132.92h0a3.474,3.474,0,0,0-3.474-3.441H158.77v-4.83a2.442,2.442,0,0,1,2.442-2.442h1.167a3.124,3.124,0,0,0,3.124-3.124h0a3.124,3.124,0,0,0-3.124-3.124h-2.873a7.684,7.684,0,0,0-7.684,7.684v5.836h-2.262a3.474,3.474,0,0,0-3.474,3.474h0a3.474,3.474,0,0,0,3.474,3.474h2.262V149.66h6.949V136.428h3.185A3.474,3.474,0,0,0,165.428,132.92Z" transform="translate(-133.18 -105.716)" fill="#91c499"/>
  <g id="组_98" data-name="组 98" transform="translate(0 0)">
    <path id="路径_69" data-name="路径 69" d="M145.529,137.7H138.58a1.283,1.283,0,0,1-1.283-1.283V124.472h-.98a4.757,4.757,0,0,1,0-9.515h.98V110.4a8.977,8.977,0,0,1,8.967-8.967h2.873a4.407,4.407,0,0,1,0,8.815H147.97a1.16,1.16,0,0,0-1.159,1.159v3.547h1.9a4.772,4.772,0,0,1,4.757,4.711,4.757,4.757,0,0,1-4.757,4.8h-1.9v11.949A1.283,1.283,0,0,1,145.529,137.7Zm-5.666-2.566h4.383V123.189a1.283,1.283,0,0,1,1.283-1.283h3.185a2.192,2.192,0,0,0,2.191-2.213,2.2,2.2,0,0,0-2.191-2.17h-3.185a1.283,1.283,0,0,1-1.283-1.283v-4.83a3.729,3.729,0,0,1,3.725-3.725h1.167a1.842,1.842,0,1,0,0-3.683h-2.873a6.409,6.409,0,0,0-6.4,6.4v5.836a1.283,1.283,0,0,1-1.283,1.283h-2.263a2.191,2.191,0,0,0,0,4.383h2.263a1.283,1.283,0,0,1,1.283,1.283v11.949Z" transform="translate(-119.939 -92.477)" fill="#595959"/>
    <path id="路径_70" data-name="路径 70" d="M220.392,45.227h-3.336a1.283,1.283,0,0,1,0-2.566h3.336a4.465,4.465,0,0,0,4.46-4.46V7.026a4.465,4.465,0,0,0-4.46-4.46H201.127a1.283,1.283,0,0,1,0-2.566h19.265a7.034,7.034,0,0,1,7.026,7.026V38.2A7.034,7.034,0,0,1,220.392,45.227Z" transform="translate(-182.191 0)" fill="#595959"/>
    <path id="路径_71" data-name="路径 71" d="M25.59,45.227H7.026A7.034,7.034,0,0,1,0,38.2V7.026A7.034,7.034,0,0,1,7.026,0H9.913a1.283,1.283,0,1,1,0,2.566H7.026a4.465,4.465,0,0,0-4.46,4.46V38.2a4.465,4.465,0,0,0,4.46,4.46H25.59a1.283,1.283,0,1,1,0,2.566Z" transform="translate(0 0)" fill="#595959"/>
  </g>
</svg>
