<svg id="instagram" xmlns="http://www.w3.org/2000/svg" width="45.227" height="45.227" viewBox="0 0 45.227 45.227">
  <g id="组_93" data-name="组 93">
    <path id="路径_45" data-name="路径 45" d="M220.392,45.228h-3.336a1.283,1.283,0,1,1,0-2.566h3.336a4.465,4.465,0,0,0,4.46-4.46V7.027a4.465,4.465,0,0,0-4.46-4.46H201.127a1.283,1.283,0,0,1,0-2.566h19.266a7.034,7.034,0,0,1,7.026,7.026V38.2A7.034,7.034,0,0,1,220.392,45.228Z" transform="translate(-182.191 -0.001)" fill="#595959"/>
    <path id="路径_46" data-name="路径 46" d="M25.59,45.228H7.026A7.034,7.034,0,0,1,0,38.2V7.027A7.034,7.034,0,0,1,7.026,0H9.913a1.283,1.283,0,1,1,0,2.566H7.026a4.465,4.465,0,0,0-4.46,4.46V38.2a4.465,4.465,0,0,0,4.46,4.46H25.59a1.283,1.283,0,1,1,0,2.566Z" transform="translate(0 -0.001)" fill="#595959"/>
  </g>
  <path id="路径_47" data-name="路径 47" d="M124.8,102.056H106.5a4.447,4.447,0,0,0-4.447,4.447v18.3a4.447,4.447,0,0,0,4.447,4.447h18.3a4.447,4.447,0,0,0,4.447-4.447V106.5A4.447,4.447,0,0,0,124.8,102.056Zm-9.151,20.2a6.606,6.606,0,1,1,6.606-6.606A6.606,6.606,0,0,1,115.653,122.26Z" transform="translate(-93.039 -93.041)" fill="#91c499"/>
  <g id="组_94" data-name="组 94" transform="translate(7.732 7.732)">
    <path id="路径_48" data-name="路径 48" d="M111.566,117.3h-18.3a5.737,5.737,0,0,1-5.73-5.73v-18.3a5.737,5.737,0,0,1,5.73-5.73h18.3a5.737,5.737,0,0,1,5.73,5.73v18.3A5.737,5.737,0,0,1,111.566,117.3Zm-18.3-27.2A3.168,3.168,0,0,0,90.1,93.262v18.3a3.168,3.168,0,0,0,3.165,3.164h18.3a3.168,3.168,0,0,0,3.164-3.164v-18.3a3.168,3.168,0,0,0-3.164-3.164h-18.3Zm9.151,20.2a7.889,7.889,0,1,1,7.889-7.889A7.9,7.9,0,0,1,102.415,110.3Zm0-13.211a5.323,5.323,0,1,0,5.323,5.323A5.329,5.329,0,0,0,102.415,97.091Z" transform="translate(-87.533 -87.532)" fill="#595959"/>
    <ellipse id="椭圆_10" data-name="椭圆 10" cx="1.806" cy="1.806" rx="1.806" ry="1.806" transform="translate(21.061 4.993)" fill="#595959"/>
  </g>
</svg>
