<svg id="组_101" data-name="组 101" xmlns="http://www.w3.org/2000/svg" width="45.227" height="45.227" viewBox="0 0 45.227 45.227">
  <g id="instagram" transform="translate(0 0)">
    <g id="组_93" data-name="组 93" transform="translate(0 0)">
      <path id="路径_45" data-name="路径 45" d="M220.392,45.228h-3.336a1.283,1.283,0,1,1,0-2.566h3.336a4.465,4.465,0,0,0,4.46-4.46V7.027a4.465,4.465,0,0,0-4.46-4.46H201.127a1.283,1.283,0,0,1,0-2.566h19.266a7.034,7.034,0,0,1,7.026,7.026V38.2A7.034,7.034,0,0,1,220.392,45.228Z" transform="translate(-182.191 -0.001)" fill="#595959"/>
      <path id="路径_46" data-name="路径 46" d="M25.59,45.228H7.026A7.034,7.034,0,0,1,0,38.2V7.027A7.034,7.034,0,0,1,7.026,0H9.913a1.283,1.283,0,1,1,0,2.566H7.026a4.465,4.465,0,0,0-4.46,4.46V38.2a4.465,4.465,0,0,0,4.46,4.46H25.59a1.283,1.283,0,1,1,0,2.566Z" transform="translate(0 -0.001)" fill="#595959"/>
    </g>
  </g>
  <g id="组_100" data-name="组 100" transform="translate(10.243 14.632)">
    <path id="路径_72" data-name="路径 72" d="M1398.6,7696.768h-17.752v-15.732h24.512v15.732h-2.4" transform="translate(-1380.851 -7681.035)" fill="none" stroke="#595959" stroke-linecap="round" stroke-linejoin="round" stroke-width="2"/>
    <path id="路径_74" data-name="路径 74" d="M1418.544,7681.24l-11.876,8.593-12.513-8.8Z" transform="translate(-1393.946 -7681.035)" fill="#91c499" stroke="#595959" stroke-linecap="round" stroke-linejoin="round" stroke-width="2"/>
  </g>
</svg>
