<svg xmlns="http://www.w3.org/2000/svg" width="267" height="268" viewBox="0 0 267 268">
  <g id="组_144" data-name="组 144" transform="translate(-0.224 0.135)">
    <ellipse id="椭圆_2" data-name="椭圆 2" cx="133.5" cy="134" rx="133.5" ry="134" transform="translate(0.224 -0.135)" fill="#fff"/>
    <g id="组_128" data-name="组 128" transform="translate(38.092 38.963)">
      <path id="路径_132" data-name="路径 132" d="M-53.66,835.835a16.074,16.074,0,0,1-4.331-.6,2.3,2.3,0,0,1-1.593-2.829,2.3,2.3,0,0,1,2.828-1.594,12.221,12.221,0,0,0,10.831-2.417c5.91-4.486,10.038-13.626,10.038-22.226,0-13.542-7.445-24.56-16.6-24.56q-.415,0-.822.03a2.29,2.29,0,0,1-2.453-2.126,2.293,2.293,0,0,1,2.125-2.451q.572-.043,1.149-.042c11.682,0,21.186,13.077,21.186,29.15,0,10.1-4.764,20.5-11.853,25.882A17.279,17.279,0,0,1-53.66,835.835Z" transform="translate(223.093 -691.561)" fill="#231815"/>
      <path id="路径_133" data-name="路径 133" d="M-215.305,835.835a17.274,17.274,0,0,1-10.51-3.787c-7.09-5.381-11.853-15.782-11.853-25.882,0-16.073,9.5-29.15,21.186-29.15.385,0,.768.014,1.149.042a2.294,2.294,0,0,1,2.126,2.451,2.276,2.276,0,0,1-2.453,2.126q-.409-.029-.822-.03c-9.152,0-16.6,11.018-16.6,24.56,0,8.6,4.128,17.74,10.038,22.226a12.22,12.22,0,0,0,10.831,2.417,2.3,2.3,0,0,1,2.828,1.594,2.3,2.3,0,0,1-1.594,2.829A16.074,16.074,0,0,1-215.305,835.835Z" transform="translate(237.668 -691.561)" fill="#231815"/>
      <path id="路径_134" data-name="路径 134" d="M-45.736,819.907a2.288,2.288,0,0,1-1.508-.566l-6.868-5.983a2.3,2.3,0,0,1-.223-3.239A2.3,2.3,0,0,1-51.1,809.9l6.869,5.984A2.3,2.3,0,0,1-44,819.119,2.29,2.29,0,0,1-45.736,819.907Z" transform="translate(222.702 -694.208)" fill="#231815"/>
      <path id="路径_135" data-name="路径 135" d="M-222.6,819.907a2.287,2.287,0,0,1-1.732-.788,2.3,2.3,0,0,1,.223-3.238l6.868-5.984a2.3,2.3,0,0,1,3.239.222,2.3,2.3,0,0,1-.223,3.239l-6.869,5.983A2.283,2.283,0,0,1-222.6,819.907Z" transform="translate(236.622 -694.207)" fill="#231815"/>
      <circle id="椭圆_25" data-name="椭圆 25" cx="5.79" cy="5.79" r="5.79" transform="translate(54.523 83.159)" fill="#231815"/>
      <circle id="椭圆_26" data-name="椭圆 26" cx="4.053" cy="4.053" r="4.053" transform="translate(41.061 87.792)" fill="#231815"/>
      <g id="组_126" data-name="组 126" transform="translate(31.585 120.49)">
        <circle id="椭圆_27" data-name="椭圆 27" cx="22.779" cy="22.779" r="22.779" fill="#ea5f3e" opacity="0.33"/>
        <circle id="椭圆_28" data-name="椭圆 28" cx="22.779" cy="22.779" r="22.779" transform="translate(83.082)" fill="#ea5f3e" opacity="0.33"/>
      </g>
      <path id="路径_136" data-name="路径 136" d="M-140.958,877.192a77.362,77.362,0,0,1-77.275-77.274,77.362,77.362,0,0,1,77.275-77.275,77.362,77.362,0,0,1,77.274,77.275A77.362,77.362,0,0,1-140.958,877.192Zm0-149.959a72.767,72.767,0,0,0-72.685,72.685A72.766,72.766,0,0,0-140.958,872.6a72.766,72.766,0,0,0,72.684-72.684A72.766,72.766,0,0,0-140.958,727.234Z" transform="translate(236.077 -687.109)" fill="#231815"/>
      <g id="组_127" data-name="组 127" transform="translate(0 0)">
        <path id="路径_137" data-name="路径 137" d="M-179.778,745.422c4.748-4.591,13.927-8.569,15.193,0s2.215,26.32,10.761,33.665,20.89,12.548,28.8,12.241,0-13.159,0-13.159,13.61,10.4,28.171,10.712,16.7.459,23.105-1.836,8.071-6.656,7.122-8.722,2.373,4.591,6.884,7.574a34.744,34.744,0,0,0,8.427,4.132s9.626-27.773-3.759-54.4S-82.291,703.5-88.938,698.9s-14.559-7.345-21.839-4.285-3.927.612-3.927.612-16.647-11.324-41.335-8.263S-183.893,703.5-183.893,703.5s-10.128-2.754-19.307,2.448-31.968,34.583-31.968,62.432,6.329,29.38,9.812,32.134,8.467-1.989,8.467-1.989a62.733,62.733,0,0,0,5.46,3.9c2.611,1.607,10.682-.229,5.459-6.656s-9.97-17.444-.237-37.184,14.8-17.282,18.041-16.526A61.915,61.915,0,0,1-179.778,745.422Z" transform="translate(237.463 -684.145)" fill="#2a2827"/>
        <path id="路径_138" data-name="路径 138" d="M-209.24,805.052a7.013,7.013,0,0,1-3.6-.88c-1.53-.941-3.112-2.089-4.221-2.925-2.658,1.892-6.667,3.435-9.927.859-.3-.236-.621-.461-.958-.7-5.125-3.6-9.726-8.859-9.726-33.237,0-28.4,23.012-58.692,33.131-64.429,7.443-4.22,15.348-3.667,18.995-3.084,2.013-4.261,8.692-13.652,29.015-16.173,24.459-3.024,41.124,7.464,42.793,8.566.49-.187,1.1-.432,1.862-.752,7.115-2.993,15.427-1.432,24.034,4.512.888.612,1.922,1.25,3.118,1.987,7.371,4.541,19.706,12.142,31.5,35.6,13.662,27.179,4.282,55.01,3.876,56.18a2.3,2.3,0,0,1-2.814,1.452,36.954,36.954,0,0,1-9.049-4.42,21.579,21.579,0,0,1-4.41-4.092c-1.117,1.733-3.308,3.965-7.555,5.486-6.54,2.341-8.924,2.292-22.158,2.008l-1.77-.038c-8.893-.186-17.326-3.862-22.886-6.951.654,2.326.868,4.757-.115,6.6-.648,1.214-2.047,2.685-5.032,2.8-8.594.321-21.376-5.049-30.388-12.795-8.017-6.89-9.817-21.41-11.006-31.018-.185-1.494-.354-2.862-.53-4.052-.365-2.468-1.4-2.819-1.739-2.934-2.116-.724-6.419,1.185-9.588,4.248a2.3,2.3,0,0,1-2.589.421,57.393,57.393,0,0,0-7.916-3.2c-.175-.041-.358-.087-.545-.134-2.429-.611-6.495-1.637-14.916,15.44-7.18,14.561-7.193,25.919-.039,34.721,3.7,4.554,1.908,7.545.965,8.62A7.811,7.811,0,0,1-209.24,805.052Zm-7.851-9.03a2.288,2.288,0,0,1,1.437.5,60.777,60.777,0,0,0,5.223,3.736,3.856,3.856,0,0,0,3.552-.556c.428-.488-.313-1.758-1.077-2.7-8.4-10.34-8.571-23.308-.514-39.646,9.285-18.832,15.046-19.149,20.155-17.861l.465.115a49.98,49.98,0,0,1,7.464,2.88c3.746-3.137,9.048-5.59,13.065-4.224,1.837.625,4.162,2.28,4.8,6.61.18,1.22.354,2.626.544,4.159,1.1,8.907,2.771,22.366,9.443,28.1,8.087,6.949,19.786,11.972,27.218,11.689.365-.015,1-.082,1.159-.375.734-1.373-1.005-6-3.026-9.289a2.3,2.3,0,0,1,.418-2.9,2.3,2.3,0,0,1,2.931-.123c.13.1,13.213,9.955,26.826,10.242l1.772.038c12.8.272,14.772.314,20.512-1.741,4.025-1.441,5.269-3.523,5.618-4.35a1.89,1.89,0,0,0,.192-1.252c-.99-2.154.375-3.116.816-3.359.7-.387,2.071-.747,3.338,1.2.8,1.232,3.238,4.979,6.082,6.86a35.321,35.321,0,0,0,5.65,3.035c1.855-7.015,6.328-29.219-4.3-50.357-11.2-22.291-22.4-29.185-29.8-33.749-1.2-.739-2.332-1.438-3.319-2.119-5.057-3.492-12.569-7.033-19.645-4.056-3.818,1.6-6.341,2.667-7.574.484a2.409,2.409,0,0,1-.321-1.145,64.113,64.113,0,0,0-37.973-6.828c-22.838,2.831-25.873,14.654-25.9,14.773a2.3,2.3,0,0,1-1.06,1.446,2.3,2.3,0,0,1-1.777.243c-.087-.023-9.367-2.421-17.573,2.23-9.144,5.184-30.8,34.14-30.8,60.436,0,24.013,4.68,27.3,7.776,29.482.411.288.8.565,1.165.852,1.575,1.249,4.712-1.148,5.466-1.857A2.3,2.3,0,0,1-217.091,796.023Z" transform="translate(237.668 -683.94)" fill="#231815"/>
      </g>
      <path id="路径_139" data-name="路径 139" d="M-90.341,815.287c-12.488,0-17.732-5.549-18.289-6.182l6.2-5.459-.069-.076c.138.142,3.471,3.454,12.155,3.454,9.036,0,11.928-3.189,11.956-3.221a1.089,1.089,0,0,0-.1.135l6.67,4.875C-72.3,809.476-76.937,815.287-90.341,815.287Z" transform="translate(227.102 -693.736)" fill="#231815" stroke="#707070" stroke-linecap="round" stroke-linejoin="round" stroke-width="1"/>
      <path id="路径_140" data-name="路径 140" d="M-179.032,815.287c-12.487,0-17.732-5.549-18.288-6.182l6.2-5.459-.069-.076c.138.142,3.471,3.454,12.154,3.454,9.036,0,11.928-3.19,11.957-3.221a1.181,1.181,0,0,0-.1.135l6.671,4.875C-160.993,809.476-165.628,815.287-179.032,815.287Z" transform="translate(234.364 -693.736)" fill="#231815" stroke="#707070" stroke-linecap="round" stroke-linejoin="round" stroke-width="1"/>
      <path id="路径_141" data-name="路径 141" d="M-135.138,825.488c-7.951,0-11.2-3.361-11.547-3.743a1.836,1.836,0,0,1,.137-2.593,1.837,1.837,0,0,1,2.576.117c.136.141,2.57,2.546,8.834,2.546,6.621,0,8.72-2.412,8.741-2.438a1.811,1.811,0,0,1,2.554-.351,1.856,1.856,0,0,1,.356,2.589C-123.782,822.013-126.624,825.488-135.138,825.488Z" transform="translate(230.257 -694.971)" fill="#231815"/>
    </g>
  </g>
</svg>
