<svg id="组_99" data-name="组 99" xmlns="http://www.w3.org/2000/svg" width="45.227" height="45.227" viewBox="0 0 45.227 45.227">
  <g id="instagram" transform="translate(0 0)">
    <g id="组_93" data-name="组 93" transform="translate(0 0)">
      <path id="路径_45" data-name="路径 45" d="M220.392,45.228h-3.336a1.283,1.283,0,1,1,0-2.566h3.336a4.465,4.465,0,0,0,4.46-4.46V7.027a4.465,4.465,0,0,0-4.46-4.46H201.127a1.283,1.283,0,0,1,0-2.566h19.266a7.034,7.034,0,0,1,7.026,7.026V38.2A7.034,7.034,0,0,1,220.392,45.228Z" transform="translate(-182.191 -0.001)" fill="#595959"/>
      <path id="路径_46" data-name="路径 46" d="M25.59,45.228H7.026A7.034,7.034,0,0,1,0,38.2V7.027A7.034,7.034,0,0,1,7.026,0H9.913a1.283,1.283,0,1,1,0,2.566H7.026a4.465,4.465,0,0,0-4.46,4.46V38.2a4.465,4.465,0,0,0,4.46,4.46H25.59a1.283,1.283,0,1,1,0,2.566Z" transform="translate(0 -0.001)" fill="#595959"/>
    </g>
  </g>
  <g id="telephone-1" transform="translate(9.594 8.875)">
    <path id="路径_64" data-name="路径 64" d="M44.514,21.787V20.181c-.106-.031-.218-.068-.335-.1a22.539,22.539,0,0,0-5.356-.729,22.6,22.6,0,0,0-5.365.727c-.114.031-.178.062-.283.092l.045,1.461v.156a2.161,2.161,0,0,1-2.161,2.161H28.706a2.161,2.161,0,0,1-2.161-2.178l.005-.632a5.037,5.037,0,0,1,.385-1.394,5.18,5.18,0,0,1,.676-1.126c2.083-2.656,5.332-3.74,11.209-3.741,8.124,0,11.092,3.58,11.218,3.738a5.159,5.159,0,0,1,.676,1.128,5.011,5.011,0,0,1,.382,1.394l.005.632a2.161,2.161,0,0,1-2.161,2.179H46.676A2.161,2.161,0,0,1,44.514,21.787Z" transform="translate(-25.749 -14.081)" fill="#91c499" stroke="#707070" stroke-width="0.5"/>
    <g id="组_97" data-name="组 97" transform="translate(0)">
      <path id="路径_65" data-name="路径 65" d="M34.863,10.663H32.6a2.961,2.961,0,0,1-2.957-2.957V6.7a22.047,22.047,0,0,0-4.895-.633,22.138,22.138,0,0,0-4.833.613l.026.847c0,.008,0,.016,0,.025v.156a2.961,2.961,0,0,1-2.957,2.957H14.629a2.957,2.957,0,0,1-2.957-2.981l.005-.632a.8.8,0,0,1,.006-.09,5.873,5.873,0,0,1,.445-1.616l0-.008a5.953,5.953,0,0,1,.778-1.293C15.163,1.173,18.591,0,24.743,0a19.489,19.489,0,0,1,8.973,1.9,9.141,9.141,0,0,1,2.866,2.138,5.959,5.959,0,0,1,.782,1.3A5.821,5.821,0,0,1,37.81,6.96a.824.824,0,0,1,.006.088l.005.632a2.957,2.957,0,0,1-2.957,2.982ZM24.747,4.473a23.187,23.187,0,0,1,5.576.76c.072.02.146.043.218.065l.122.037a.8.8,0,0,1,.571.764V7.706A1.367,1.367,0,0,0,32.6,9.071h2.264a1.365,1.365,0,0,0,1.365-1.377l0-.586a4.208,4.208,0,0,0-.316-1.128,4.375,4.375,0,0,0-.572-.954A7.79,7.79,0,0,0,32.978,3.31a17.873,17.873,0,0,0-8.236-1.718c-5.6,0-8.669,1-10.583,3.436l-.005.007a4.374,4.374,0,0,0-.57.951,4.268,4.268,0,0,0-.317,1.125l0,.585a1.365,1.365,0,0,0,1.365,1.376h2.354a1.367,1.367,0,0,0,1.365-1.365V7.562L18.3,6.113a.8.8,0,0,1,.575-.789c.032-.009.058-.019.085-.028.052-.018.117-.041.2-.065A23.2,23.2,0,0,1,24.747,4.473Z" transform="translate(-11.672)" fill="#595959" stroke="#595959" stroke-width="0.5"/>
      <path id="路径_66" data-name="路径 66" d="M64.807,186.283H46.283a2.071,2.071,0,0,1-2.066-2.225l.79-10.641a2.059,2.059,0,0,1,1.755-1.895l4.3-.738.519-1.516a2.071,2.071,0,0,1,1.96-1.4h4a2.071,2.071,0,0,1,1.96,1.4l.519,1.516,4.3.738a2.059,2.059,0,0,1,1.755,1.895l.79,10.641a2.071,2.071,0,0,1-2.066,2.225ZM53.542,169.46a.479.479,0,0,0-.453.324l-.672,1.963a.8.8,0,0,1-.619.527l-4.776.819-.02,0a.476.476,0,0,0-.409.439l-.79,10.642a.479.479,0,0,0,.478.515H64.807a.479.479,0,0,0,.478-.515l-.79-10.642a.476.476,0,0,0-.409-.439l-.02,0-4.776-.819a.8.8,0,0,1-.619-.527L58,169.784a.479.479,0,0,0-.453-.324H53.542Z" transform="translate(-42.471 -158.885)" fill="#595959" stroke="#595959" stroke-width="0.5"/>
      <path id="路径_67" data-name="路径 67" d="M171,276.448a4.805,4.805,0,1,1,0-9.611.8.8,0,1,1,0,1.592,3.213,3.213,0,1,0,3.213,3.213,3.177,3.177,0,0,0-.7-2.008.8.8,0,1,1,1.242-1A4.806,4.806,0,0,1,171,276.448Z" transform="translate(-157.928 -252.558)" fill="#595959" stroke="#595959" stroke-width="0.5"/>
    </g>
  </g>
</svg>
