<svg xmlns="http://www.w3.org/2000/svg" width="270" height="270" viewBox="0 0 270 270">
  <g id="组_143" data-name="组 143" transform="translate(4.58 -0.054)">
    <circle id="椭圆_3" data-name="椭圆 3" cx="135" cy="135" r="135" transform="translate(-4.58 0.054)" fill="#fff"/>
    <g id="组_112" data-name="组 112" transform="translate(36.325 20.809)">
      <path id="路径_114" data-name="路径 114" d="M-109.687,543.377" transform="translate(219.699 -446.664)" fill="none" stroke="#231815" stroke-linecap="round" stroke-linejoin="round" stroke-width="5"/>
      <g id="组_112-2" data-name="组 112" transform="translate(36.285 119.357)">
        <circle id="椭圆_17" data-name="椭圆 17" cx="22.614" cy="22.614" r="22.614" fill="#ea5f3e" opacity="0.33"/>
        <circle id="椭圆_18" data-name="椭圆 18" cx="22.614" cy="22.614" r="22.614" transform="translate(82.48)" fill="#ea5f3e" opacity="0.33"/>
      </g>
      <g id="组_115" data-name="组 115" transform="translate(54.969 66.309)" opacity="0.9">
        <g id="组_113" data-name="组 113" transform="translate(0 0)">
          <ellipse id="椭圆_19" data-name="椭圆 19" cx="7.226" cy="5.31" rx="7.226" ry="5.31" transform="translate(0 2.989) rotate(-11.936)" fill="#1a0e0e"/>
          <path id="路径_115" data-name="路径 115" d="M-157.5,526.051a9.035,9.035,0,0,1-3.728-.768,5.665,5.665,0,0,1-3.413-3.939,5.672,5.672,0,0,1,1.526-4.985,9.665,9.665,0,0,1,5.218-2.889,9.655,9.655,0,0,1,5.939.533,5.665,5.665,0,0,1,3.413,3.939,5.67,5.67,0,0,1-1.526,4.984,9.667,9.667,0,0,1-5.217,2.89A10.772,10.772,0,0,1-157.5,526.051Zm1.82-10.817a8.7,8.7,0,0,0-1.8.193,7.651,7.651,0,0,0-4.138,2.264,3.728,3.728,0,0,0-1.062,3.24,3.729,3.729,0,0,0,2.282,2.532,7.658,7.658,0,0,0,4.7.4,7.651,7.651,0,0,0,4.138-2.266,3.726,3.726,0,0,0,1.062-3.239h0a3.729,3.729,0,0,0-2.282-2.532A7.051,7.051,0,0,0-155.685,515.234Z" transform="translate(164.765 -512.954)" fill="#1b0f0f"/>
        </g>
        <g id="组_114" data-name="组 114" transform="translate(69.291 0)">
          <ellipse id="椭圆_20" data-name="椭圆 20" cx="5.31" cy="7.226" rx="5.31" ry="7.226" transform="translate(0 10.39) rotate(-78.064)" fill="#1a0e0e"/>
          <path id="路径_116" data-name="路径 116" d="M-86.354,526.051a10.709,10.709,0,0,1-2.214-.235c-4.436-.938-7.461-4.47-6.743-7.874h0A5.668,5.668,0,0,1-91.9,514a9.657,9.657,0,0,1,5.94-.533,9.659,9.659,0,0,1,5.217,2.889,5.669,5.669,0,0,1,1.526,4.985,5.663,5.663,0,0,1-3.413,3.939A9.031,9.031,0,0,1-86.354,526.051Zm-7-7.7c-.491,2.326,1.842,4.794,5.2,5.5a7.654,7.654,0,0,0,4.7-.4,3.727,3.727,0,0,0,2.282-2.532,3.73,3.73,0,0,0-1.061-3.24,7.658,7.658,0,0,0-4.138-2.264,7.641,7.641,0,0,0-4.7.4,3.733,3.733,0,0,0-2.283,2.532Z" transform="translate(95.43 -512.954)" fill="#1b0f0f"/>
        </g>
      </g>
      <path id="路径_117" data-name="路径 117" d="M-121.9,625.685a83.507,83.507,0,0,1-47.166-14.494,2.5,2.5,0,0,1-.661-3.471,2.5,2.5,0,0,1,3.472-.66A78.531,78.531,0,0,0-121.9,620.688a78.543,78.543,0,0,0,44.251-13.557,2.5,2.5,0,0,1,3.47.666,2.5,2.5,0,0,1-.666,3.471A83.523,83.523,0,0,1-121.9,625.685Z" transform="translate(219.738 -446.705)" fill="#231815"/>
      <g id="组_118" data-name="组 118" transform="translate(0 0)">
        <g id="组_117" data-name="组 117">
          <g id="组_116" data-name="组 116">
            <path id="路径_118" data-name="路径 118" d="M-96.348,506.173S-68.7,524.161-64.7,530.49s6.662,15.324,7,20.654,2.1,19.987-5.115,30.647-12.777,5.662-13.991,21.319,10.777,15.99,10.777,15.99-14.657-2.665-15.323,16.989,27.187,15.49,33.581,14.158,22.951-8.188,22.216-27.162-11.825-14.179-11.825-25.238S-19.4,508.172-58.83,473.819l-4.454-3.825a91.121,91.121,0,0,0-58.2-20.893c-22.747,0-44.157,7.711-60.163,21.449l-4.56,4c-40.724,37.622-19.214,112.24-19.214,123.3s-11.091,6.263-11.825,25.238,15.823,25.829,22.216,27.162,34.248,5.5,33.581-14.158S-176.772,619.1-176.772,619.1s11.992-.333,10.777-15.99-6.78-10.66-13.991-21.319-5.447-25.318-5.115-30.647,3-14.324,7-20.654,31.647-24.317,31.647-24.317,4.752-3.415,5.778-4.164" transform="translate(219.768 -446.604)" fill="#724b42"/>
            <path id="路径_119" data-name="路径 119" d="M-60.37,654.044c-6.325,0-13.463-1.079-18.216-5.08-3.684-3.1-5.456-7.461-5.271-12.962.255-7.505,2.461-12.986,6.559-16.289A14.056,14.056,0,0,1-74.58,618c-.3-.278-.6-.578-.891-.9-3.014-3.349-4.3-8.119-3.834-14.179.788-10.157,3.432-12.751,7.693-15.814a24.012,24.012,0,0,0,6.72-6.712c6.157-9.1,5.236-21.617,4.793-27.633-.04-.542-.076-1.029-.1-1.459-.306-4.911-2.864-13.538-6.614-19.475-2.718-4.3-19.966-16.445-30.9-23.557a2.5,2.5,0,0,1-.733-3.457,2.5,2.5,0,0,1,3.457-.732c2.877,1.872,28.227,18.478,32.4,25.078,4.335,6.864,7.035,16.372,7.377,21.832.025.413.06.883.1,1.4.484,6.577,1.49,20.262-5.637,30.8A28.7,28.7,0,0,1-68.7,591.16c-3.2,2.3-4.962,3.567-5.627,12.142-.357,4.609.491,8.108,2.519,10.4a9.1,9.1,0,0,0,5.243,2.824c.566.043.914.1.972.114a2.5,2.5,0,0,1,2.038,2.717,2.5,2.5,0,0,1-2.554,2.239,9.4,9.4,0,0,1-1-.1,10.466,10.466,0,0,0-7.1,2.144c-2.886,2.358-4.452,6.575-4.654,12.532-.134,3.943,1.008,6.878,3.494,8.969,6.24,5.253,19.959,4.143,27.081,2.658.857-.179,21-4.613,20.229-24.62-.371-9.588-3.428-12.192-6.384-14.711-2.551-2.174-5.443-4.637-5.443-10.625,0-1.846.423-5.139,1.008-9.7,3.237-25.2,10.816-84.211-21.6-112.446l-4.44-3.814A89.1,89.1,0,0,0-121.485,451.6c-22.086,0-42.874,7.4-58.536,20.847l-4.54,3.979c-32.987,30.475-23.725,86.795-19.769,110.843a85.9,85.9,0,0,1,1.407,10.576c0,5.988-2.892,8.451-5.443,10.625-2.957,2.518-6.013,5.123-6.385,14.711-.774,20.007,19.371,24.441,20.23,24.62,7.122,1.484,20.84,2.593,27.081-2.658,2.484-2.092,3.627-5.026,3.493-8.969-.2-5.957-1.768-10.174-4.654-12.532a10.467,10.467,0,0,0-7.109-2.144,9.317,9.317,0,0,1-.993.1,2.5,2.5,0,0,1-2.553-2.239,2.5,2.5,0,0,1,2.038-2.717c.058-.011.412-.071.983-.115a9.1,9.1,0,0,0,5.231-2.823c2.029-2.292,2.876-5.791,2.518-10.4-.665-8.575-2.427-9.842-5.626-12.142a28.718,28.718,0,0,1-7.943-7.97c-7.127-10.537-6.121-24.222-5.636-30.8.038-.52.072-.99.1-1.4.342-5.462,3.043-14.969,7.377-21.832,4.146-6.564,29.244-23.026,32.347-25.046.494-.355,4.752-3.415,5.716-4.12a2.5,2.5,0,0,1,3.491.546,2.5,2.5,0,0,1-.545,3.492c-1.029.75-5.793,4.174-5.793,4.174-.031.023-.064.044-.1.066-10.93,7.111-28.178,19.254-30.9,23.557-3.749,5.936-6.307,14.565-6.614,19.475-.027.429-.063.917-.1,1.458-.443,6.016-1.363,18.533,4.792,27.634A24.039,24.039,0,0,0-171.2,587.1c4.261,3.063,6.9,5.655,7.693,15.814.47,6.06-.819,10.83-3.833,14.179-.291.323-.59.623-.892.9a14.028,14.028,0,0,1,2.718,1.718c4.1,3.3,6.3,8.784,6.558,16.289.187,5.5-1.586,9.861-5.27,12.962-9.293,7.821-27.718,4.479-31.317,3.727-9.342-1.948-24.952-10.4-24.2-29.7.456-11.777,4.895-15.56,8.137-18.321,2.3-1.959,3.687-3.141,3.687-6.822a89.792,89.792,0,0,0-1.34-9.765c-4.086-24.843-13.655-83.023,21.357-115.367l4.608-4.041c16.586-14.238,38.531-22.069,61.81-22.069A94.137,94.137,0,0,1-61.7,468.066l4.491,3.856c34.439,30,26.622,90.87,23.283,116.863-.541,4.209-.967,7.533-.967,9.06,0,3.681,1.388,4.863,3.687,6.822,3.242,2.761,7.681,6.544,8.138,18.321.748,19.308-14.862,27.756-24.2,29.7A67.86,67.86,0,0,1-60.37,654.044Z" transform="translate(219.77 -446.602)" fill="#231815"/>
          </g>
        </g>
        <path id="路径_120" data-name="路径 120" d="M-61.733,538.505a2.5,2.5,0,0,1-2.355-1.667c-1.859-5.256-7.494-19.575-9.388-23.126a2.5,2.5,0,0,1,1.029-3.381,2.5,2.5,0,0,1,3.38,1.028c2.179,4.085,7.924,18.82,9.69,23.814a2.5,2.5,0,0,1-1.523,3.189A2.5,2.5,0,0,1-61.733,538.505Z" transform="translate(219.676 -446.643)" fill="#231815"/>
        <path id="路径_121" data-name="路径 121" d="M-181.272,538.505a2.511,2.511,0,0,1-.833-.143,2.5,2.5,0,0,1-1.522-3.189c1.766-4.994,7.511-19.728,9.69-23.814a2.5,2.5,0,0,1,3.38-1.028,2.5,2.5,0,0,1,1.029,3.381c-1.894,3.551-7.529,17.87-9.388,23.126A2.5,2.5,0,0,1-181.272,538.505Z" transform="translate(219.747 -446.643)" fill="#231815"/>
      </g>
      <g id="组_119" data-name="组 119" transform="translate(77.517 43.747)">
        <path id="路径_122" data-name="路径 122" d="M-137.938,492.877a77.435,77.435,0,0,0-.284,31.486,7.663,7.663,0,0,0,8.886,6.036,58.062,58.062,0,0,1,10.08-1,54.8,54.8,0,0,1,9.668.906,7.679,7.679,0,0,0,8.932-5.979,98.8,98.8,0,0,0,1.776-14.558c.492-9.262-1.769-14.971-1.769-14.971" transform="translate(142.202 -490.379)" fill="#724b42"/>
        <path id="路径_123" data-name="路径 123" d="M-130.684,533.016a10.226,10.226,0,0,1-9.99-8.166,79.837,79.837,0,0,1,.295-32.511,2.5,2.5,0,0,1,2.976-1.9,2.5,2.5,0,0,1,1.9,2.975,74.822,74.822,0,0,0-.275,30.46,5.2,5.2,0,0,0,5.993,4.067,59.764,59.764,0,0,1,10.524-1.037,57.033,57.033,0,0,1,10.112.946,5.162,5.162,0,0,0,6.04-4.021,96.776,96.776,0,0,0,1.728-14.191c.453-8.524-1.579-13.872-1.6-13.926a2.5,2.5,0,0,1,1.416-3.233,2.491,2.491,0,0,1,3.233,1.4c.1.254,2.455,6.327,1.941,16.023a101.712,101.712,0,0,1-1.823,14.928,10.126,10.126,0,0,1-11.824,7.935,52.107,52.107,0,0,0-9.223-.867,54.791,54.791,0,0,0-9.636.958A10.133,10.133,0,0,1-130.684,533.016Z" transform="translate(142.203 -490.377)" fill="#231815"/>
      </g>
      <path id="路径_124" data-name="路径 124" d="M-131.224,550.995" transform="translate(219.713 -446.669)" fill="none" stroke="#231815" stroke-linecap="round" stroke-linejoin="round" stroke-width="5"/>
      <path id="路径_125" data-name="路径 125" d="M-121.927,583.613c-9.839,0-14.985-6.067-15.3-18.035a3.627,3.627,0,0,1,1.047-2.643,3.971,3.971,0,0,1,2.836-1.182h22.648A4.146,4.146,0,0,1-107.713,563a3.764,3.764,0,0,1,1.067,2.772C-107.109,577.612-112.251,583.613-121.927,583.613ZM-133.22,565.75c.313,9.587,3.8,13.866,11.293,13.866s10.871-4.147,11.282-13.861a.223.223,0,0,0-.047,0Z" transform="translate(219.717 -446.676)"/>
      <g id="组_122" data-name="组 122" transform="translate(120.73 80.271)">
        <g id="组_121" data-name="组 121" transform="translate(0 5.185)">
          <path id="路径_126" data-name="路径 126" d="M-62.676,558.871l-.1,0a2.5,2.5,0,0,1-2.4-2.6c.519-13.147-8.016-17.188-11.709-18.315-6.888-2.1-14.718-.207-17.453,4.224a2.5,2.5,0,0,1-3.438.815,2.5,2.5,0,0,1-.814-3.439c3.915-6.347,14.09-9.15,23.163-6.38,10,3.051,15.7,11.758,15.244,23.291A2.5,2.5,0,0,1-62.676,558.871Z" transform="translate(98.962 -532.113)" fill="#231815"/>
          <g id="组_120" data-name="组 120" transform="translate(0.872 3.377)">
            <ellipse id="椭圆_21" data-name="椭圆 21" cx="13.772" cy="12.607" rx="13.772" ry="12.607" transform="translate(1.873 29.437) rotate(-87.326)" fill="#231815"/>
            <path id="路径_127" data-name="路径 127" d="M-83.068,568.029q-.336,0-.673-.016a14.48,14.48,0,0,1-10.52-5.342,16.842,16.842,0,0,1-3.81-11.617,16.841,16.841,0,0,1,4.876-11.209,14.475,14.475,0,0,1,10.972-4.337c8.32.388,14.747,8,14.329,16.957a16.833,16.833,0,0,1-4.876,11.21A14.513,14.513,0,0,1-83.068,568.029Zm.181-27.539a9.582,9.582,0,0,0-6.784,2.9,11.857,11.857,0,0,0-3.409,7.9h0a11.86,11.86,0,0,0,2.658,8.184,9.541,9.541,0,0,0,6.913,3.549,9.511,9.511,0,0,0,7.215-2.889,11.852,11.852,0,0,0,3.409-7.9c.29-6.21-4-11.473-9.572-11.734C-82.6,540.493-82.743,540.49-82.887,540.49Zm-12.688,10.683h0Z" transform="translate(98.09 -535.493)" fill="#231815"/>
          </g>
          <circle id="椭圆_22" data-name="椭圆 22" cx="3.935" cy="3.935" r="3.935" transform="translate(10.424 7.009)" fill="#fff"/>
        </g>
        <path id="路径_128" data-name="路径 128" d="M-75.881,535.948a2.505,2.505,0,0,1-.541-.059,2.5,2.5,0,0,1-1.9-2.979l.889-4.026a2.5,2.5,0,0,1,2.978-1.9,2.5,2.5,0,0,1,1.9,2.979l-.889,4.025A2.5,2.5,0,0,1-75.881,535.948Z" transform="translate(98.948 -526.924)" fill="#231815"/>
      </g>
      <g id="组_125" data-name="组 125" transform="translate(37.785 81.925)">
        <g id="组_124" data-name="组 124" transform="translate(0 3.533)">
          <path id="路径_129" data-name="路径 129" d="M-179.44,558.871a2.5,2.5,0,0,1-2.5-2.4c-.456-11.533,5.244-20.24,15.244-23.291,9.074-2.765,19.248.034,23.163,6.38a2.5,2.5,0,0,1-.814,3.439,2.5,2.5,0,0,1-3.438-.816c-2.734-4.43-10.562-6.323-17.453-4.224-3.694,1.127-12.228,5.169-11.708,18.315a2.5,2.5,0,0,1-2.4,2.6Z" transform="translate(181.96 -532.115)" fill="#231815"/>
          <g id="组_123" data-name="组 123" transform="translate(7.718 3.374)">
            <ellipse id="椭圆_23" data-name="椭圆 23" cx="12.607" cy="13.772" rx="12.607" ry="13.772" transform="translate(1.872 3.1) rotate(-2.674)" fill="#231815"/>
            <path id="路径_130" data-name="路径 130" d="M-159.045,568.029a14.512,14.512,0,0,1-10.3-4.353,16.833,16.833,0,0,1-4.876-11.21,16.836,16.836,0,0,1,3.81-11.615,14.484,14.484,0,0,1,10.519-5.342,14.463,14.463,0,0,1,10.972,4.337,16.842,16.842,0,0,1,4.876,11.21h0a16.841,16.841,0,0,1-3.81,11.616,14.479,14.479,0,0,1-10.52,5.341Q-158.709,568.029-159.045,568.029Zm-.18-27.539c-.144,0-.287,0-.431.01a9.544,9.544,0,0,0-6.914,3.549,11.851,11.851,0,0,0-2.658,8.184,11.852,11.852,0,0,0,3.409,7.9,9.531,9.531,0,0,0,7.214,2.889,9.541,9.541,0,0,0,6.914-3.549,11.856,11.856,0,0,0,2.658-8.185h0a11.853,11.853,0,0,0-3.41-7.9A9.582,9.582,0,0,0-159.225,540.49Z" transform="translate(174.238 -535.492)" fill="#231815"/>
          </g>
          <circle id="椭圆_24" data-name="椭圆 24" cx="3.935" cy="3.935" r="3.935" transform="translate(20.51 7.007)" fill="#fff"/>
        </g>
        <path id="路径_131" data-name="路径 131" d="M-168.846,537.357a2.5,2.5,0,0,1-2.293-1.5l-1.644-3.779a2.5,2.5,0,0,1,1.3-3.288,2.5,2.5,0,0,1,3.287,1.3l1.644,3.78a2.5,2.5,0,0,1-1.294,3.288A2.5,2.5,0,0,1-168.846,537.357Z" transform="translate(181.955 -528.58)" fill="#231815"/>
      </g>
    </g>
  </g>
</svg>
