<svg xmlns="http://www.w3.org/2000/svg" width="262" height="261" viewBox="0 0 262 261">
  <g id="组_142" data-name="组 142" transform="translate(2.134 -0.456)">
    <ellipse id="椭圆_5" data-name="椭圆 5" cx="131" cy="130.5" rx="131" ry="130.5" transform="translate(-2.134 0.456)" fill="#fff"/>
    <g id="组_87" data-name="组 87" transform="translate(47.085 42.977)">
      <g id="组_78" data-name="组 78" transform="translate(25.934 106.083)">
        <circle id="椭圆_6" data-name="椭圆 6" cx="20.748" cy="20.748" r="20.748" fill="#ea5f3e" opacity="0.33"/>
        <circle id="椭圆_7" data-name="椭圆 7" cx="20.748" cy="20.748" r="20.748" transform="translate(75.674)" fill="#ea5f3e" opacity="0.33"/>
      </g>
      <path id="路径_108" data-name="路径 108" d="M187.8,390.234c-13.332,13.088-32.873,20.323-53.029,20.323-22.928,0-44.647-8.85-57.144-26.061" transform="translate(-50.565 -246.627)" fill="none" stroke="#231815" stroke-linecap="round" stroke-linejoin="round" stroke-width="5"/>
      <g id="组_81" data-name="组 81" transform="translate(0 0)">
        <path id="路径_101" data-name="路径 101" d="M76.472,345.925" transform="translate(-53.328 -271.806)" fill="none" stroke="#231815" stroke-linecap="round" stroke-linejoin="round" stroke-width="2"/>
        <g id="组_79" data-name="组 79">
          <path id="路径_102" data-name="路径 102" d="M89.461,373.192c8.427-4.626,30.659-11.062,56.883-11.062,23.791,0,44.217,6.31,54.375,10.117a12.7,12.7,0,0,1,8.1,10.137c.788,5.559,1.747,14.2,2.21,25.6.862,21.275-12.651,35.937-17.826,42.836s-17.392,16.962-13.511,21.849c5.653,7.12,18.973-5.175,18.973-5.175s-2.586,5.175,3.164,5.175,29.324-13.225,26.448-56.06-8.838-56.687-8.838-56.687a75.274,75.274,0,0,0-145.989-.815s.258-.975-.776,3.093c-1.387,5.454-6.555,21.071-8.793,54.408-2.874,42.835,20.7,56.06,26.45,56.06s3.162-5.175,3.162-5.175,13.322,12.295,18.975,5.175c3.881-4.887-8.338-14.95-13.513-21.849S80.268,429.26,81.131,407.985c.462-11.4,1.42-20.036,2.208-25.595a12.772,12.772,0,0,1,4.311-7.9S88.973,373.46,89.461,373.192Z" transform="translate(-61.964 -300.948)" fill="#2a2827"/>
          <path id="路径_103" data-name="路径 103" d="M185.076,477.235c-.229,0-.457-.008-.683-.027a7.279,7.279,0,0,1-5.337-2.824c-3.727-4.694,2.416-11.435,8.358-17.954,1.947-2.138,3.788-4.156,5.126-5.939.54-.721,1.171-1.526,1.865-2.412,5.723-7.3,16.373-20.89,15.626-39.352-.468-11.547-1.452-20.2-2.2-25.434a11.035,11.035,0,0,0-7.03-8.807c-9.978-3.737-30.234-10.009-53.788-10.009-26.446,0-48.433,6.658-56.078,10.856-.222.122-1,.693-1.588,1.149a11.059,11.059,0,0,0-3.681,6.816c-.744,5.235-1.727,13.9-2.195,25.429-.748,18.461,9.9,32.051,15.626,39.352.694.887,1.325,1.691,1.865,2.412,1.338,1.783,3.179,3.8,5.126,5.941,5.942,6.518,12.086,13.26,8.358,17.953a7.28,7.28,0,0,1-5.338,2.824c-4.435.34-9.646-2.816-12.9-5.223a4,4,0,0,1-.415.907c-.87,1.41-2.483,2.125-4.791,2.125-3.105,0-8.947-2.675-14.441-8.551-7.229-7.731-15.472-22.56-13.677-49.294,2-29.749,6.376-45.691,8.244-52.5.239-.872.442-1.606.6-2.212.467-1.835.668-2.632.748-2.955a1.338,1.338,0,0,1,.028-.142,76.947,76.947,0,0,1,149.2.706c.663,1.626,6.168,16.2,8.914,57.1,1.8,26.734-6.448,41.563-13.677,49.294-5.5,5.875-11.338,8.551-14.441,8.551-2.309,0-3.921-.714-4.793-2.125a3.994,3.994,0,0,1-.413-.907C194.206,474.27,189.367,477.233,185.076,477.235ZM94.174,466.5a1.66,1.66,0,0,1,1.128.442c2.225,2.049,9,7.284,13.558,6.933a4.008,4.008,0,0,0,2.973-1.569c1.956-2.463-3.92-8.91-8.211-13.618-2-2.2-3.9-4.274-5.33-6.187-.527-.7-1.143-1.489-1.824-2.357-5.988-7.639-17.131-21.857-16.333-41.55.472-11.672,1.471-20.452,2.223-25.764a14.451,14.451,0,0,1,4.877-8.934,22.425,22.425,0,0,1,2.095-1.494h0c8.251-4.53,30.423-11.269,57.687-11.269,24.082,0,44.772,6.406,54.962,10.222a14.38,14.38,0,0,1,9.17,11.47c.753,5.305,1.752,14.081,2.225,25.769.8,19.693-10.346,33.911-16.333,41.55-.681.868-1.3,1.653-1.825,2.357-1.432,1.912-3.326,3.987-5.328,6.185-4.291,4.708-10.167,11.155-8.211,13.62a4,4,0,0,0,2.971,1.569c4.572.355,11.334-4.883,13.558-6.933a1.673,1.673,0,0,1,2.632,1.977,2.987,2.987,0,0,0-.279,2.217c.211.336.937.537,1.946.537,1.628,0,6.7-1.83,12-7.49,6.777-7.247,14.5-21.248,12.783-46.785-2.812-41.881-8.649-56-8.708-56.142a1.757,1.757,0,0,1-.087-.261,73.6,73.6,0,0,0-142.733-.84h0l-.005.022-.005.023h0a1.648,1.648,0,0,1-.085.219c-.137.7-.371,1.624-.689,2.869-.157.624-.365,1.378-.611,2.273-1.844,6.71-6.16,22.423-8.134,51.836-1.715,25.536,6.006,39.537,12.783,46.785,5.292,5.66,10.367,7.49,12,7.49,1.007,0,1.735-.2,1.944-.537a3,3,0,0,0-.283-2.225,1.677,1.677,0,0,1,1.507-2.411Z" transform="translate(-62.638 -301.621)" fill="#231815"/>
        </g>
        <g id="组_80" data-name="组 80" transform="translate(19.886 31.191)">
          <path id="路径_104" data-name="路径 104" d="M126.054,352.808a1.674,1.674,0,0,1-1.452-2.5c.052-.1,2.687-4.964,1.982-13.636a93.813,93.813,0,0,0-2.148-14.312,1.673,1.673,0,1,1,3.239-.84,95.175,95.175,0,0,1,2.243,14.881c.8,9.834-2.279,15.336-2.411,15.565A1.672,1.672,0,0,1,126.054,352.808Z" transform="translate(-40.971 -320.265)" fill="#1b0f0f"/>
          <path id="路径_105" data-name="路径 105" d="M104.661,352.8a1.666,1.666,0,0,1-1.449-.838c-.13-.229-3.209-5.732-2.411-15.565a95.429,95.429,0,0,1,2.243-14.881,1.673,1.673,0,0,1,3.239.84,94.335,94.335,0,0,0-2.148,14.312c-.708,8.716,1.957,13.59,1.984,13.638a1.675,1.675,0,0,1-1.459,2.494Z" transform="translate(-56.93 -320.265)" fill="#1b0f0f"/>
          <path id="路径_106" data-name="路径 106" d="M152.9,359.56a1.678,1.678,0,0,1-1.663-1.5,61.391,61.391,0,0,0-1.72-8.151c-1.24-4.679-3.231-11.165-3.251-11.229a1.673,1.673,0,0,1,3.2-.984c.02.065,2.031,6.612,3.286,11.356a63.512,63.512,0,0,1,1.815,8.663,1.672,1.672,0,0,1-1.491,1.834A1.57,1.57,0,0,1,152.9,359.56Z" transform="translate(-26.292 -309.329)" fill="#1b0f0f"/>
          <path id="路径_107" data-name="路径 107" d="M76.2,359.56a1.571,1.571,0,0,1-.176-.01,1.673,1.673,0,0,1-1.491-1.834,63.341,63.341,0,0,1,1.813-8.663c1.256-4.745,3.266-11.291,3.286-11.356a1.673,1.673,0,0,1,3.2.984c-.02.064-2.011,6.55-3.249,11.229a61.407,61.407,0,0,0-1.72,8.151A1.678,1.678,0,0,1,76.2,359.56Z" transform="translate(-74.525 -309.329)" fill="#1b0f0f"/>
        </g>
      </g>
      <g id="组_82" data-name="组 82" transform="translate(107.691 76.547)">
        <path id="路径_109" data-name="路径 109" d="M127.009,352.646s5.551-6.52,14.125-5.056c15.216,2.6,17.974,14.57,17.974,14.57" transform="translate(-127.009 -347.376)" fill="none" stroke="#231815" stroke-linecap="round" stroke-linejoin="round" stroke-width="5"/>
        <ellipse id="椭圆_8" data-name="椭圆 8" cx="11.788" cy="12.559" rx="11.788" ry="12.559" transform="translate(0.592 3.865)" fill="#231815" stroke="#231815" stroke-linecap="round" stroke-linejoin="round" stroke-width="5"/>
        <circle id="椭圆_9" data-name="椭圆 9" cx="4.078" cy="4.078" r="4.078" transform="translate(6.83 5.269)" fill="#fff"/>
      </g>
      <g id="组_83" data-name="组 83" transform="translate(29.061 76.547)">
        <path id="路径_110" data-name="路径 110" d="M112.108,352.646s-5.551-6.52-14.125-5.056c-15.214,2.6-17.974,14.57-17.974,14.57" transform="translate(-80.009 -347.376)" fill="none" stroke="#231815" stroke-linecap="round" stroke-linejoin="round" stroke-width="5"/>
        <ellipse id="椭圆_10" data-name="椭圆 10" cx="11.788" cy="12.559" rx="11.788" ry="12.559" transform="translate(7.933 3.865)" fill="#231815" stroke="#231815" stroke-linecap="round" stroke-linejoin="round" stroke-width="5"/>
        <circle id="椭圆_11" data-name="椭圆 11" cx="4.078" cy="4.078" r="4.078" transform="translate(17.114 5.269)" fill="#fff"/>
      </g>
      <g id="组_84" data-name="组 84" transform="translate(19.68 66.823)">
        <circle id="椭圆_12" data-name="椭圆 12" cx="26.495" cy="26.495" r="26.495" stroke-width="5" stroke="#000" stroke-linecap="round" stroke-linejoin="round" fill="none"/>
        <circle id="椭圆_13" data-name="椭圆 13" cx="26.495" cy="26.495" r="26.495" transform="translate(77.566)" stroke-width="5" stroke="#000" stroke-linecap="round" stroke-linejoin="round" fill="none"/>
        <path id="路径_111" data-name="路径 111" d="M106.076,358.105l3.64-.806a40.046,40.046,0,0,1,17.3,0l3.64.806" transform="translate(-53.086 -331.61)" fill="none" stroke="#000" stroke-linecap="round" stroke-linejoin="round" stroke-width="5"/>
      </g>
      <g id="组_85" data-name="组 85" transform="translate(71.74 114.587)">
        <path id="路径_112" data-name="路径 112" d="M105.52,374.646a17.937,17.937,0,0,0,7.3-1.549c3.953-1.718,4.775-2.983,4.775-2.983" transform="translate(-105.52 -370.114)" fill="none" stroke="#000" stroke-linecap="round" stroke-linejoin="round" stroke-width="4"/>
        <path id="路径_113" data-name="路径 113" d="M125.214,374.446a17.918,17.918,0,0,1-7.336-1.379c-3.993-1.628-4.843-2.872-4.843-2.872" transform="translate(-100.463 -370.059)" fill="none" stroke="#000" stroke-linecap="round" stroke-linejoin="round" stroke-width="4"/>
      </g>
      <g id="组_86" data-name="组 86" transform="translate(47.046 50.994)" opacity="0.7">
        <ellipse id="椭圆_14" data-name="椭圆 14" cx="6.63" cy="4.872" rx="6.63" ry="4.872" transform="translate(0 2.742) rotate(-11.936)" fill="#1a0e0e" stroke="#1b0f0f" stroke-linecap="round" stroke-linejoin="round" stroke-width="2"/>
        <ellipse id="椭圆_15" data-name="椭圆 15" cx="4.872" cy="6.63" rx="4.872" ry="6.63" transform="translate(63.573 9.533) rotate(-78.064)" fill="#1a0e0e" stroke="#1b0f0f" stroke-linecap="round" stroke-linejoin="round" stroke-width="2"/>
      </g>
    </g>
  </g>
</svg>
