<svg xmlns="http://www.w3.org/2000/svg" width="84" height="95.363" viewBox="0 0 84 95.363">
  <g id="组_65" data-name="组 65" transform="translate(-4.515)">
    <g id="film-editor" transform="translate(21.227 0)">
      <path id="路径_43" data-name="路径 43" d="M93.19,0A1.256,1.256,0,0,0,92,1.312v4.03H87.767V1.312a1.2,1.2,0,1,0-2.381,0V13.04H74.557v-9.1A3.772,3.772,0,0,0,70.986,0h-3.72a3.772,3.772,0,0,0-3.572,3.937v9.1H52.865V1.312a1.2,1.2,0,1,0-2.381,0v4.03H46.252V1.312a1.2,1.2,0,1,0-2.381,0V65.88a1.2,1.2,0,1,0,2.381,0V61.85h4.232v4.03a1.2,1.2,0,1,0,2.381,0V54.152h11.5a1.319,1.319,0,0,0,0-2.625h-11.5V15.665H63.694V38.994a1.483,1.483,0,0,0,.086.484,1.1,1.1,0,0,0,.118.252l4.237,7.005a1.132,1.132,0,0,0,1.981,0l4.237-7.005a1.445,1.445,0,0,0,.2-.736V15.665H85.386V51.528h-11.5a1.319,1.319,0,0,0,0,2.625h11.5V65.88a1.2,1.2,0,1,0,2.381,0V61.85H92v4.03a1.2,1.2,0,1,0,2.381,0V1.312A1.256,1.256,0,0,0,93.19,0ZM46.252,51.528V46.455h4.232v5.073Zm4.232-30.79H46.252V15.665h4.232Zm0,7.7H46.252V23.362h4.232Zm0,7.7H46.252V31.06h4.232Zm0,7.7H46.252V38.757h4.232Zm0-35.863V13.04H46.252V7.967ZM46.252,59.225V54.152h4.232v5.073ZM66.075,10.483h6.1v27.2h-6.1Zm0-6.546a1.257,1.257,0,0,1,1.191-1.312h3.72a1.257,1.257,0,0,1,1.191,1.312V7.858h-6.1Zm3.051,39.7-2.017-3.335h4.034ZM92,15.665v5.073H87.767V15.665H92Zm0,12.77H87.767V23.362H92Zm0,7.7H87.767V31.06H92Zm0,7.7H87.767V38.757H92Zm-4.232,2.625H92v5.073H87.767ZM92,7.967V13.04H87.767V7.967ZM87.767,59.225V54.152H92v5.073Z" transform="translate(-43.871)" fill="#808f85" fill-rule="evenodd"/>
      <path id="路径_44" data-name="路径 44" d="M247.192,392.637a1.319,1.319,0,1,0,1.191,1.312A1.258,1.258,0,0,0,247.192,392.637Z" transform="translate(-221.937 -341.109)" fill="#808f85" fill-rule="evenodd"/>
    </g>
    <text id="Film_Editing" data-name="Film Editing" transform="translate(46.515 91.363)" fill="#808f85" font-size="18" font-family="GillSansMT, Gill Sans MT"><tspan x="-41.981" y="0">Film Editing</tspan></text>
    <g id="film-editor-2" data-name="film-editor" transform="translate(21.227 0)">
      <path id="路径_43-2" data-name="路径 43" d="M93.19,0A1.256,1.256,0,0,0,92,1.312v4.03H87.767V1.312a1.2,1.2,0,1,0-2.381,0V13.04H74.557v-9.1A3.772,3.772,0,0,0,70.986,0h-3.72a3.772,3.772,0,0,0-3.572,3.937v9.1H52.865V1.312a1.2,1.2,0,1,0-2.381,0v4.03H46.252V1.312a1.2,1.2,0,1,0-2.381,0V65.88a1.2,1.2,0,1,0,2.381,0V61.85h4.232v4.03a1.2,1.2,0,1,0,2.381,0V54.152h11.5a1.319,1.319,0,0,0,0-2.625h-11.5V15.665H63.694V38.994a1.483,1.483,0,0,0,.086.484,1.1,1.1,0,0,0,.118.252l4.237,7.005a1.132,1.132,0,0,0,1.981,0l4.237-7.005a1.445,1.445,0,0,0,.2-.736V15.665H85.386V51.528h-11.5a1.319,1.319,0,0,0,0,2.625h11.5V65.88a1.2,1.2,0,1,0,2.381,0V61.85H92v4.03a1.2,1.2,0,1,0,2.381,0V1.312A1.256,1.256,0,0,0,93.19,0ZM46.252,51.528V46.455h4.232v5.073Zm4.232-30.79H46.252V15.665h4.232Zm0,7.7H46.252V23.362h4.232Zm0,7.7H46.252V31.06h4.232Zm0,7.7H46.252V38.757h4.232Zm0-35.863V13.04H46.252V7.967ZM46.252,59.225V54.152h4.232v5.073ZM66.075,10.483h6.1v27.2h-6.1Zm0-6.546a1.257,1.257,0,0,1,1.191-1.312h3.72a1.257,1.257,0,0,1,1.191,1.312V7.858h-6.1Zm3.051,39.7-2.017-3.335h4.034ZM92,15.665v5.073H87.767V15.665H92Zm0,12.77H87.767V23.362H92Zm0,7.7H87.767V31.06H92Zm0,7.7H87.767V38.757H92Zm-4.232,2.625H92v5.073H87.767ZM92,7.967V13.04H87.767V7.967ZM87.767,59.225V54.152H92v5.073Z" transform="translate(-43.871)" fill="#808f85" fill-rule="evenodd"/>
      <path id="路径_44-2" data-name="路径 44" d="M247.192,392.637a1.319,1.319,0,1,0,1.191,1.312A1.258,1.258,0,0,0,247.192,392.637Z" transform="translate(-221.937 -341.109)" fill="#808f85" fill-rule="evenodd"/>
      <path id="路径_75" data-name="路径 75" d="M93.19,0A1.256,1.256,0,0,0,92,1.312v4.03H87.767V1.312a1.2,1.2,0,1,0-2.381,0V13.04H74.557v-9.1A3.772,3.772,0,0,0,70.986,0h-3.72a3.772,3.772,0,0,0-3.572,3.937v9.1H52.865V1.312a1.2,1.2,0,1,0-2.381,0v4.03H46.252V1.312a1.2,1.2,0,1,0-2.381,0V65.88a1.2,1.2,0,1,0,2.381,0V61.85h4.232v4.03a1.2,1.2,0,1,0,2.381,0V54.152h11.5a1.319,1.319,0,0,0,0-2.625h-11.5V15.665H63.694V38.994a1.483,1.483,0,0,0,.086.484,1.1,1.1,0,0,0,.118.252l4.237,7.005a1.132,1.132,0,0,0,1.981,0l4.237-7.005a1.445,1.445,0,0,0,.2-.736V15.665H85.386V51.528h-11.5a1.319,1.319,0,0,0,0,2.625h11.5V65.88a1.2,1.2,0,1,0,2.381,0V61.85H92v4.03a1.2,1.2,0,1,0,2.381,0V1.312A1.256,1.256,0,0,0,93.19,0ZM46.252,51.528V46.455h4.232v5.073Zm4.232-30.79H46.252V15.665h4.232Zm0,7.7H46.252V23.362h4.232Zm0,7.7H46.252V31.06h4.232Zm0,7.7H46.252V38.757h4.232Zm0-35.863V13.04H46.252V7.967ZM46.252,59.225V54.152h4.232v5.073ZM66.075,10.483h6.1v27.2h-6.1Zm0-6.546a1.257,1.257,0,0,1,1.191-1.312h3.72a1.257,1.257,0,0,1,1.191,1.312V7.858h-6.1Zm3.051,39.7-2.017-3.335h4.034ZM92,15.665v5.073H87.767V15.665H92Zm0,12.77H87.767V23.362H92Zm0,7.7H87.767V31.06H92Zm0,7.7H87.767V38.757H92Zm-4.232,2.625H92v5.073H87.767ZM92,7.967V13.04H87.767V7.967ZM87.767,59.225V54.152H92v5.073Z" transform="translate(-43.871)" fill="#808f85" fill-rule="evenodd"/>
    </g>
  </g>
</svg>
