<svg xmlns="http://www.w3.org/2000/svg" width="114" height="88" viewBox="0 0 114 88">
  <g id="组_285" data-name="组 285" transform="translate(-216 -1633)">
    <g id="computer" transform="translate(246.227 1633)">
      <path id="路径_31" data-name="路径 31" d="M307.081,346a1.2,1.2,0,1,0,1.081,1.192A1.141,1.141,0,0,0,307.081,346Zm0,0" transform="translate(-272.919 -304.768)" fill="#808f85"/>
      <path id="路径_32" data-name="路径 32" d="M49.945,0H5.405A5.709,5.709,0,0,0,0,5.958V42.424a5.709,5.709,0,0,0,5.405,5.958H22.27v5.482H21.189a5.131,5.131,0,0,0-3.822,1.746,6.24,6.24,0,0,0-1.584,4.213,1.14,1.14,0,0,0,1.081,1.192H38.486a1.14,1.14,0,0,0,1.081-1.192,5.709,5.709,0,0,0-5.405-5.958H33.081V48.382H49.945a5.709,5.709,0,0,0,5.405-5.958V5.958A5.709,5.709,0,0,0,49.945,0ZM5.405,2.383h44.54a3.425,3.425,0,0,1,3.243,3.575V36.465H48.215V9.057a1.14,1.14,0,0,0-1.081-1.192H38.486A1.14,1.14,0,0,0,37.4,9.057V36.465H31.994c-.011-1.233-.041-2.448-.087-3.626a84.24,84.24,0,0,0-.845-9.534,6.359,6.359,0,0,0,1.476-7.772L28.791,8.378a1.033,1.033,0,0,0-1.872,0L23.17,15.533a6.389,6.389,0,0,0,1.19,7.52,83.113,83.113,0,0,0-.911,9.784c-.049,1.191-.079,2.407-.091,3.629H17.946V18.59a1.287,1.287,0,0,0-.107-.514c0-.006,0-.013-.007-.019L13.507,8.524a1.039,1.039,0,0,0-1.934,0L7.249,18.057l-.007.019a1.285,1.285,0,0,0-.107.514V36.465H2.162V5.958A3.425,3.425,0,0,1,5.405,2.383ZM39.567,36.465V10.248h6.486v2.383H44.972a1.2,1.2,0,0,0,0,2.383h1.081V18.59H44.972a1.2,1.2,0,0,0,0,2.383h1.081v3.575H44.972a1.2,1.2,0,0,0,0,2.383h1.081V31.7H44.972a1.2,1.2,0,0,0,0,2.383h1.081v2.383Zm-11.712-12a4.933,4.933,0,0,0,1.166-.143c.2,1.417.5,3.926.67,7.375H25.667c.183-3.447.492-5.995.7-7.46a4.945,4.945,0,0,0,1.483.228Zm0-2.383c-2.471,0-4.064-2.964-2.812-5.359l2.812-5.366,2.81,5.366c1.247,2.385-.324,5.359-2.81,5.359Zm-2.287,12h4.218c.023.783.038,1.579.046,2.383H25.519C25.527,35.666,25.544,34.87,25.568,34.082ZM13.621,36.465V19.782h2.162V36.465Zm-4.324,0V19.782h2.162V36.465ZM9.965,17.4l2.575-5.677L15.115,17.4ZM37.219,58.63H18.13a3.632,3.632,0,0,1,.766-1.336,3.079,3.079,0,0,1,2.293-1.047H34.162a3.286,3.286,0,0,1,3.058,2.383Zm-6.3-4.767H24.432V48.382h6.486ZM49.945,46H5.405a3.425,3.425,0,0,1-3.243-3.575V38.849H53.188v3.575A3.425,3.425,0,0,1,49.945,46Zm0,0" transform="translate(0 0)" fill="#808f85"/>
      <path id="路径_33" data-name="路径 33" d="M213.567,346h-6.486a1.2,1.2,0,0,0,0,2.383h6.486a1.2,1.2,0,0,0,0-2.383Zm0,0" transform="translate(-183.73 -304.768)" fill="#808f85"/>
    </g>
    <text id="Graphic_Design" data-name="Graphic Design" transform="translate(273 1717)" fill="#808f85" font-size="18" font-family="GillSansMT, Gill Sans MT"><tspan x="-56.32" y="0">Graphic Design</tspan></text>
  </g>
</svg>
