<svg xmlns="http://www.w3.org/2000/svg" width="78" height="98.844" viewBox="0 0 78 98.844">
  <g id="组_63" data-name="组 63" transform="translate(-2.991)">
    <g id="wacom" transform="translate(11.592 0)">
      <g id="组_49" data-name="组 49" transform="translate(33.454 15.223)">
        <g id="组_48" data-name="组 48">
          <path id="路径_37" data-name="路径 37" d="M283.032,116.385a1.114,1.114,0,0,0-1.683,0,1.408,1.408,0,0,0,0,1.856,1.113,1.113,0,0,0,1.683,0,1.408,1.408,0,0,0,0-1.856Z" transform="translate(-281 -116)" fill="#808f85"/>
        </g>
      </g>
      <g id="组_51" data-name="组 51" transform="translate(0 15.223)">
        <g id="组_50" data-name="组 50">
          <path id="路径_38" data-name="路径 38" d="M57.384,116h-.952a1.319,1.319,0,0,0,0,2.625h.952a1.257,1.257,0,0,1,1.191,1.312v44.095a1.257,1.257,0,0,1-1.191,1.312H3.572a1.257,1.257,0,0,1-1.191-1.312V119.937a1.257,1.257,0,0,1,1.191-1.312H29.585a1.319,1.319,0,0,0,0-2.625H3.572A3.772,3.772,0,0,0,0,119.937v44.095a3.772,3.772,0,0,0,3.572,3.937H57.384a3.772,3.772,0,0,0,3.572-3.937V119.937A3.772,3.772,0,0,0,57.384,116Z" transform="translate(0 -116)" fill="#808f85"/>
        </g>
      </g>
      <g id="组_53" data-name="组 53" transform="translate(48.098 36.746)">
        <g id="组_52" data-name="组 52">
          <path id="路径_39" data-name="路径 39" d="M408.048,280a4.483,4.483,0,1,0,4.048,4.462A4.275,4.275,0,0,0,408.048,280Zm0,6.3a1.846,1.846,0,1,1,1.667-1.837A1.76,1.76,0,0,1,408.048,286.3Z" transform="translate(-404 -280)" fill="#808f85"/>
        </g>
      </g>
      <g id="组_55" data-name="组 55" transform="translate(48.098 21.522)">
        <g id="组_54" data-name="组 54">
          <path id="路径_40" data-name="路径 40" d="M410.905,164h-5.715A1.256,1.256,0,0,0,404,165.312v9.974a1.256,1.256,0,0,0,1.191,1.312h5.715a1.256,1.256,0,0,0,1.191-1.312v-9.974A1.256,1.256,0,0,0,410.905,164Zm-1.191,9.974h-3.333v-7.349h3.333Z" transform="translate(-404 -164)" fill="#808f85"/>
        </g>
      </g>
      <g id="组_57" data-name="组 57" transform="translate(48.098 48.294)">
        <g id="组_56" data-name="组 56">
          <path id="路径_41" data-name="路径 41" d="M410.905,368h-5.715A1.256,1.256,0,0,0,404,369.312v9.974a1.256,1.256,0,0,0,1.191,1.312h5.715a1.256,1.256,0,0,0,1.191-1.312v-9.974A1.256,1.256,0,0,0,410.905,368Zm-1.191,9.974h-3.333v-7.349h3.333Z" transform="translate(-404 -368)" fill="#808f85"/>
        </g>
      </g>
      <g id="组_59" data-name="组 59" transform="translate(5.715)">
        <g id="组_58" data-name="组 58">
          <path id="路径_42" data-name="路径 42" d="M102.81,4.6,98.987.384a1.114,1.114,0,0,0-1.684,0L92.63,5.536h0l-15.5,17.089h0l-3.561,3.926a4.633,4.633,0,0,0-.71,5l-1.349,1.487a22.457,22.457,0,0,0-7.945-1.448,15.3,15.3,0,0,0-13.18,8.045V25.2H71.334a1.319,1.319,0,0,0,0-2.625H49.191A1.256,1.256,0,0,0,48,23.885V58.531a1.256,1.256,0,0,0,1.191,1.312H86.811A1.256,1.256,0,0,0,88,58.531V29.309a1.2,1.2,0,1,0-2.381,0V46.893a27.087,27.087,0,0,0-4.774-7.418A24.571,24.571,0,0,0,73.906,34.1l.632-.7a3.588,3.588,0,0,0,1.78.474,3.7,3.7,0,0,0,2.753-1.257L82.632,28.7h0l15.5-17.089h0l4.673-5.151A1.409,1.409,0,0,0,102.81,4.6ZM50.381,57.218V55.91c.18.234.368.463.567.683s.407.427.62.625Zm35.207,0H63.178a7.789,7.789,0,0,0,1.573-4.739,4.839,4.839,0,0,0-4.582-5.051,3.473,3.473,0,0,0-3.288,3.625,1.2,1.2,0,1,0,2.381,0,.958.958,0,0,1,.907-1,2.324,2.324,0,0,1,2.2,2.426,4.54,4.54,0,0,1-4.3,4.739c-4.24,0-7.69-3.8-7.69-8.477,0-8.011,5.912-14.528,13.179-14.528C75.325,34.213,84.968,44.417,85.589,57.218Zm-8.2-26.452a1.415,1.415,0,0,1-2.139,0,1.79,1.79,0,0,1,0-2.358l2.72-3,2.139,2.358Zm4.4-4.854-2.139-2.358L93.472,8.32l2.139,2.358Zm15.5-17.09L95.156,6.464l2.99-3.3,2.139,2.358Z" transform="translate(-48 0)" fill="#808f85"/>
        </g>
      </g>
    </g>
    <text id="Illustration" transform="translate(41.991 94.844)" fill="#808f85" font-size="18" font-family="GillSansMT, Gill Sans MT"><tspan x="-38.997" y="0">Illustration</tspan></text>
  </g>
</svg>
