<svg xmlns="http://www.w3.org/2000/svg" width="584.355" height="335.468" viewBox="0 0 584.355 335.468">
  <g id="组_161" data-name="组 161" transform="translate(-25.427 -303.906)">
    <g id="Group_72" data-name="Group 72" transform="translate(579.396 581.468)">
      <path id="Path_88" data-name="Path 88" d="M530.917,585.743a2.2,2.2,0,0,1-1.656-3.651c3.943-4.513,6.344-7.882,6.367-7.915a2.2,2.2,0,0,1,3.59,2.549c-.1.144-2.556,3.585-6.643,8.264A2.205,2.205,0,0,1,530.917,585.743Z" transform="translate(-528.716 -554.346)"/>
      <g id="Group_70" data-name="Group 70" transform="translate(0.607)">
        <path id="Path_89" data-name="Path 89" d="M536.832,576.213s3.259-1.277,3.943-8.824a9.76,9.76,0,0,0-5.466-9.814,11.9,11.9,0,0,0-4.449,7.5C529.883,573.79,536.832,576.213,536.832,576.213Z" transform="translate(-529.117 -555.924)"/>
        <path id="Path_90" data-name="Path 90" d="M536.982,578.015a1.692,1.692,0,0,1-.544-.092c-2.832-.991-7.956-4.953-7.069-12.878a13.527,13.527,0,0,1,5.121-8.654,1.648,1.648,0,0,1,1.626-.179,11.394,11.394,0,0,1,6.454,11.478c-.755,8.322-4.555,10.043-4.986,10.211A1.633,1.633,0,0,1,536.982,578.015Zm-1.321-18.281a9.807,9.807,0,0,0-3.016,5.678c-.647,5.787,2.632,8.245,4.147,9.06.731-.717,2.078-2.613,2.483-7.082a8,8,0,0,0-3.609-7.656Z" transform="translate(-529.267 -556.075)"/>
      </g>
      <g id="Group_71" data-name="Group 71" transform="translate(8.448 15.959)">
        <path id="Path_91" data-name="Path 91" d="M537.893,578.139s1.277,3.259,8.824,3.943a9.76,9.76,0,0,0,9.813-5.465,11.9,11.9,0,0,0-7.5-4.451C540.316,571.191,537.893,578.139,537.893,578.139Z" transform="translate(-536.24 -570.423)"/>
        <path id="Path_92" data-name="Path 92" d="M547.89,583.931c-.381,0-.771-.018-1.172-.054-8.322-.754-10.044-4.555-10.212-4.985a1.648,1.648,0,0,1-.022-1.146c.991-2.833,4.953-7.962,12.878-7.069a13.514,13.514,0,0,1,8.653,5.119,1.652,1.652,0,0,1,.179,1.628A11.384,11.384,0,0,1,547.89,583.931Zm-7.947-5.816c.721.732,2.622,2.07,7.074,2.473a7.983,7.983,0,0,0,7.655-3.615,9.81,9.81,0,0,0-5.677-3.016c-5.728-.643-8.214,2.639-9.051,4.157Zm-1.9.175" transform="translate(-536.391 -570.574)"/>
      </g>
    </g>
    <g id="组_139" data-name="组 139" transform="translate(25.427 303.906)">
      <g id="组_138" data-name="组 138" transform="translate(35.325 235.324)">
        <path id="路径_144" data-name="路径 144" d="M113.2,543.075l-8.143,37.667q-2.97,13.69-4.891,18.764a29.18,29.18,0,0,1-5.622,9.2,23.345,23.345,0,0,1-13.588,7.38q-8.7,1.517-15.077-3t-7.905-13.305a28.508,28.508,0,0,1,5-21.779,34.586,34.586,0,0,1,10.158-9.5,36.008,36.008,0,0,1,13.116-5.215,8.766,8.766,0,0,1,5.472.555,4.59,4.59,0,0,1,2.665,3.467,4.839,4.839,0,0,1-1.433,4.457q-1.045,1.075-4.569,2.07-8.121,2.179-12.586,6.058a19.625,19.625,0,0,0-5.49,7.755,16.54,16.54,0,0,0-.947,8.962,10.608,10.608,0,0,0,3.7,6.876,8.6,8.6,0,0,0,7.066,1.531,11.327,11.327,0,0,0,7.914-5.8q2.965-4.935,5.463-16.461l8.144-37.667-8.043,1.4q-5.691.991-6.4-3.051a5.153,5.153,0,0,1,1.278-4.62,9.171,9.171,0,0,1,5.341-2.525l27.1-4.718,1.073-.187,3,.156a3.574,3.574,0,0,1,2.321,3.081,5.153,5.153,0,0,1-1.278,4.621,9.176,9.176,0,0,1-5.339,2.524Z" transform="translate(-57.521 -516.324)" fill="#040000"/>
        <path id="路径_145" data-name="路径 145" d="M134.856,556.681q4.024-2.972,6.843-3.366a9.685,9.685,0,0,1,6.84,1.305,7.236,7.236,0,0,1,3.341,5.3,12.171,12.171,0,0,1-.363,4.658l-2.834,11.471,4.767-.667q5.226-.73,5.74,2.961a4.717,4.717,0,0,1-1.294,4.2,8.4,8.4,0,0,1-4.965,2.131l-8.333,1.166a6.762,6.762,0,0,1-4.669-.891,4.714,4.714,0,0,1-2.321-3.458,10.677,10.677,0,0,1,.42-3.948l2.505-9.9a8.264,8.264,0,0,0,.327-2.795q-.33-2.363-3.481-1.922-4.228.591-6.122,8.211l-3.05,12.051q-1.438,5.739-5.751,6.342a4.235,4.235,0,0,1-3.052-.674,3.41,3.41,0,0,1-1.567-2.443,7.71,7.71,0,0,1,.239-2.823l.3-1.183,11.818-47.01q1.564-6.053,5.669-6.626a4.184,4.184,0,0,1,3.082.733,3.67,3.67,0,0,1,1.609,2.586,11.71,11.71,0,0,1-.528,4.09Z" transform="translate(-51.452 -516.593)" fill="#040000"/>
        <path id="路径_146" data-name="路径 146" d="M165.927,568.5q.353,3.119,5.054,2.588l12.354-1.4q5.242-.593,5.661,3.109a4.717,4.717,0,0,1-1.4,4.161,8.411,8.411,0,0,1-5.019,2L170.8,580.289q-6.573.745-10.371-2.112t-4.506-9.1a19.753,19.753,0,0,1,3.861-14.467,17.182,17.182,0,0,1,12.257-7.286,13.033,13.033,0,0,1,9.079,1.858,9.49,9.49,0,0,1,4.157,7.135,9.06,9.06,0,0,1-3.635,8.838q-2.364,1.828-7.4,2.4Zm1.14-7.8,4.576-.517q4.451-.5,4.1-2.446-.373-2.189-3.119-1.88Q168.8,556.29,167.068,560.7Z" transform="translate(-47.627 -514.732)" fill="#040000"/>
        <path id="路径_147" data-name="路径 147" d="M241.5,548.14l4.142,4.611,2.379,2.538q6.923,7.545,7.467,16.4a22.208,22.208,0,0,1-4.757,15.433q-7.227,9.378-19.8,10.15-9.736.6-16.33-5.017a20.424,20.424,0,0,1-7.169-14.974q-.7-11.448,8.522-19.691,4.89-4.367,9.237-4.635a5.256,5.256,0,0,1,3.757,1.07,4.329,4.329,0,0,1,1.626,3.256q.168,2.757-2.966,4.963l-3.217,2.253a14.606,14.606,0,0,0-4.5,5.31,12.351,12.351,0,0,0-1.533,6.469,10.937,10.937,0,0,0,3.868,8.005A11.853,11.853,0,0,0,230.965,587a13.535,13.535,0,0,0,9.682-4.894,13.928,13.928,0,0,0,3.6-10.351,13.3,13.3,0,0,0-2.123-6.58,64.344,64.344,0,0,0-7.968-8.865A38.7,38.7,0,0,1,228,548.968l-11.282.693q-5.767.353-6.01-3.616a5.3,5.3,0,0,1,1.753-4.574,9.143,9.143,0,0,1,5.607-1.917l7.146-.438a19.538,19.538,0,0,1,6.723-14.151,24.982,24.982,0,0,1,15.8-6.4q7.062-.434,11.75,3.179a12.771,12.771,0,0,1,5.069,9.8,14.038,14.038,0,0,1-6.286,13.053q-3.859,2.754-12.591,3.289Zm-5.628-9.68,10.03-.615q8.481-.522,8.179-5.452a3.581,3.581,0,0,0-1.923-2.985,8.15,8.15,0,0,0-4.69-.887,13.318,13.318,0,0,0-8.04,3.3Q235.9,534.852,235.87,538.46Z" transform="translate(-42.431 -517.62)" fill="#040000"/>
        <path id="路径_148" data-name="路径 148" d="M277.72,545.284q4.357-2.458,7.2-2.505a9.684,9.684,0,0,1,6.63,2.13,7.24,7.24,0,0,1,2.669,5.672,12.182,12.182,0,0,1-.93,4.578L289.078,566.2l4.814-.08q5.273-.087,5.335,3.638a4.717,4.717,0,0,1-1.8,4.008,8.416,8.416,0,0,1-5.188,1.51l-8.413.139a6.76,6.76,0,0,1-4.525-1.453,4.716,4.716,0,0,1-1.884-3.717,10.734,10.734,0,0,1,.9-3.867l3.7-9.523a8.272,8.272,0,0,0,.667-2.733q-.04-2.386-3.221-2.333-4.27.071-7.08,7.4l-4.5,11.588q-2.128,5.521-6.481,5.593a4.244,4.244,0,0,1-2.949-1.04,3.411,3.411,0,0,1-1.257-2.617,7.7,7.7,0,0,1,.582-2.773l.44-1.138,17.466-45.215q2.292-5.817,6.435-5.884a4.171,4.171,0,0,1,2.97,1.1,3.668,3.668,0,0,1,1.281,2.764,11.679,11.679,0,0,1-1.023,3.994Z" transform="translate(-37.414 -517.702)" fill="#040000"/>
        <path id="路径_149" data-name="路径 149" d="M306.713,560.952q-.051,3.139,4.68,3.215l12.431.2q5.275.084,5.215,3.81a4.721,4.721,0,0,1-1.927,3.947,8.422,8.422,0,0,1-5.235,1.339l-11.846-.191q-6.614-.106-10.015-3.427t-3.3-9.6A19.745,19.745,0,0,1,302.4,546.4a17.183,17.183,0,0,1,13.092-5.651,13.033,13.033,0,0,1,8.765,3.008,9.492,9.492,0,0,1,3.207,7.609,9.063,9.063,0,0,1-4.74,8.3q-2.579,1.509-7.643,1.426Zm2.132-7.587,4.6.075q4.478.071,4.384-1.9-.089-2.219-2.852-2.265Q311.129,549.214,308.845,553.365Z" transform="translate(-33.435 -515.382)" fill="#040000"/>
        <path id="路径_150" data-name="路径 150" d="M337.568,570.667l-12.056,26.39q-2.493,5.467-6.844,5.282a4.066,4.066,0,0,1-2.818-1.229,3.5,3.5,0,0,1-1.08-2.707,12.077,12.077,0,0,1,1.213-3.888l22.266-48.836a5.442,5.442,0,0,1,5.514-3.537,4.725,4.725,0,0,1,4.077,2.686,9.471,9.471,0,0,1,7.282-2.791,8.7,8.7,0,0,1,6.95,3.626,13.5,13.5,0,0,1,2.326,8.877q-.437,10.291-7.11,16.5a11.639,11.639,0,0,1-4.432,2.745,19.012,19.012,0,0,1-6.224.532,19.7,19.7,0,0,1-5.851-.834A8.252,8.252,0,0,1,337.568,570.667Zm3.792-8.387a6.319,6.319,0,0,0,1.885,2.468,6.231,6.231,0,0,0,2.967.671,5.494,5.494,0,0,0,4.737-2.021,15.109,15.109,0,0,0,3.778-9.058q.172-4.057-3.676-4.22-4.225-.18-6.273,4.636c-.155.357-.278.658-.373.906Z" transform="translate(-31.617 -515.253)" fill="#040000"/>
        <path id="路径_151" data-name="路径 151" d="M383.005,548.549q4.555-2.066,7.394-1.861a9.684,9.684,0,0,1,6.417,2.707,7.234,7.234,0,0,1,2.157,5.884,12.189,12.189,0,0,1-1.329,4.479l-5.171,10.625,4.8.346q5.262.378,4.995,4.094a4.722,4.722,0,0,1-2.143,3.834,8.407,8.407,0,0,1-5.3,1.047l-8.394-.6a6.76,6.76,0,0,1-4.379-1.846,4.717,4.717,0,0,1-1.549-3.868,10.7,10.7,0,0,1,1.237-3.773l4.519-9.161a8.272,8.272,0,0,0,.9-2.663q.172-2.381-3-2.609-4.26-.306-7.7,6.75l-5.5,11.148q-2.609,5.31-6.95,5a4.247,4.247,0,0,1-2.845-1.3,3.419,3.419,0,0,1-1.021-2.719,7.743,7.743,0,0,1,.824-2.711l.54-1.094,21.383-43.5q2.794-5.592,6.928-5.294a4.177,4.177,0,0,1,2.862,1.359,3.678,3.678,0,0,1,1.032,2.866,11.734,11.734,0,0,1-1.371,3.889Z" transform="translate(-27.049 -517.325)" fill="#040000"/>
        <path id="路径_152" data-name="路径 152" d="M410.231,566.665q-.312,3.125,4.394,3.6L427,571.5q5.249.525,4.877,4.233a4.719,4.719,0,0,1-2.25,3.771,8.412,8.412,0,0,1-5.327.9l-11.79-1.18q-6.583-.659-9.693-4.252t-2.485-9.841a19.754,19.754,0,0,1,6.823-13.328,17.188,17.188,0,0,1,13.519-4.537,13.033,13.033,0,0,1,8.483,3.732,9.485,9.485,0,0,1,2.559,7.85,9.061,9.061,0,0,1-5.417,7.872q-2.694,1.288-7.736.783Zm2.759-7.381,4.581.459q4.458.446,4.528-1.524.1-2.219-2.653-2.5Q415.614,555.338,412.991,559.283Z" transform="translate(-23.012 -514.735)" fill="#040000"/>
        <path id="路径_153" data-name="路径 153" d="M442.658,560.133l-1.851,3.312q-2.5,4.412-5.569,4.025a4.517,4.517,0,0,1-2.974-1.513,3.624,3.624,0,0,1-.9-2.939,10.528,10.528,0,0,1,1.321-3.125l6.151-11q2.232-3.981,5.346-3.589a3.531,3.531,0,0,1,3.415,3.382l.17,1.33a1.8,1.8,0,0,0,.591,1.341,7.162,7.162,0,0,0,2.419.557l9.72,1.222q5.44.683,4.961,4.506-.662,5.275-7.558,4.408l-.508.358q-7.4,5.483-7.833,8.931t3.389,3.928l5.234.657q5.273.664,4.816,4.319a4.764,4.764,0,0,1-2.35,3.756,8.415,8.415,0,0,1-5.349.762l-8.141-1.024a8.879,8.879,0,0,1-6.431-3.719,10.627,10.627,0,0,1-1.7-7.767,12.3,12.3,0,0,1,2.122-5.472,34.986,34.986,0,0,1,5.83-6.1Z" transform="translate(-19.879 -514.926)" fill="#040000"/>
        <path id="路径_154" data-name="路径 154" d="M490.446,582.174l4.716.726q5.255.812,4.687,4.494a4.7,4.7,0,0,1-2.468,3.643,8.436,8.436,0,0,1-5.347.615l-5.586-.862a5.081,5.081,0,0,1-4.308-3.375,8.035,8.035,0,0,1-6.077,1.773l-5.255-.809a9.384,9.384,0,0,1-6.86-4.277,12.38,12.38,0,0,1-1.463-8.782,21.784,21.784,0,0,1,7.655-13.518q6.421-5.533,13.208-4.486a9.951,9.951,0,0,1,7.431,4.83L503.5,540.938q3.251-5.43,7.471-4.778a4.365,4.365,0,0,1,2.845,1.6,3.693,3.693,0,0,1,.811,2.985,8.27,8.27,0,0,1-1.068,2.8l-.668,1.04Zm-15.175-2.129,1.572.242a3.679,3.679,0,0,0,4.117-1.7l4.283-7.175a6.323,6.323,0,0,0,.911-2.063,2.672,2.672,0,0,0-.73-2.272,4.044,4.044,0,0,0-2.493-1.275q-3.228-.5-6.576,2.673a12.586,12.586,0,0,0-3.992,7.347Q471.795,579.511,475.271,580.045Z" transform="translate(-16.763 -515.851)" fill="#040000"/>
        <path id="路径_155" data-name="路径 155" d="M514.215,573.253,513.089,575q-2.553,3.75-5.889,3.144a4.543,4.543,0,0,1-2.814-1.724,3.569,3.569,0,0,1-.85-2.941,9.426,9.426,0,0,1,1.89-3.614l7.5-10.128q2.744-3.629,5.75-3.083a4.015,4.015,0,0,1,2.569,1.551,3.316,3.316,0,0,1,.7,2.7,10.82,10.82,0,0,1-.538,1.561,9.181,9.181,0,0,0-.456,1.577,9.32,9.32,0,0,0,.971,5.664l1.757,3.681q2.68,5.635,1.835,10.289a11.369,11.369,0,0,1-5.446,7.968,14.109,14.109,0,0,1-10.271,1.73l-8.61-1.562q-5.23-.949-4.573-4.575a4.757,4.757,0,0,1,2.569-3.6,8.339,8.339,0,0,1,5.365-.494l4.778.867q5.726,1.04,6.481-3.12a8.175,8.175,0,0,0-.421-3.779Z" transform="translate(-13.313 -513.787)" fill="#040000"/>
      </g>
      <g id="Group_72-2" data-name="Group 72" transform="translate(269.668)">
        <path id="Path_88-2" data-name="Path 88" d="M294.873,345.81a3.442,3.442,0,0,1-5.574-2.867c.453-9.357.128-15.817.124-15.88a3.442,3.442,0,0,1,6.874-.36c.014.276.347,6.874-.122,16.574A3.442,3.442,0,0,1,294.873,345.81Z" transform="translate(-268.525 -301.939)"/>
        <g id="Group_70-2" data-name="Group 70">
          <path id="Path_89-2" data-name="Path 89" d="M293.26,327.987s2.756-4.727-3.73-14.641a15.26,15.26,0,0,0-16.222-6.724,18.588,18.588,0,0,0,1.827,13.512C282.392,331.761,293.26,327.987,293.26,327.987Z" transform="translate(-270.189 -303.67)"/>
          <path id="Path_90-2" data-name="Path 90" d="M295.1,330.248a2.6,2.6,0,0,1-.756.415c-4.432,1.533-14.558,1.649-21.161-8.924a21.148,21.148,0,0,1-2.121-15.575,2.579,2.579,0,0,1,1.818-1.8,17.809,17.809,0,0,1,19.049,7.8c7.15,10.932,4.163,16.728,3.8,17.354A2.532,2.532,0,0,1,295.1,330.248Zm-19.359-21.125a15.328,15.328,0,0,0,1.814,9.886c4.822,7.721,11.226,7.552,13.874,7.08.2-1.587.011-5.22-3.828-11.09a12.512,12.512,0,0,0-11.853-5.882Z" transform="translate(-270.425 -303.906)"/>
        </g>
        <g id="Group_71-2" data-name="Group 71" transform="translate(25.343 3.673)">
          <path id="Path_91-2" data-name="Path 91" d="M296.4,330.075s4.727,2.755,14.641-3.731a15.255,15.255,0,0,0,6.723-16.22,18.593,18.593,0,0,0-13.512,1.825C292.631,319.209,296.4,330.075,296.4,330.075Z" transform="translate(-293.211 -307.007)"/>
          <path id="Path_92-2" data-name="Path 92" d="M314.184,327.671c-.467.37-.961.725-1.489,1.071-10.931,7.152-16.73,4.164-17.354,3.8a2.577,2.577,0,0,1-1.138-1.384c-1.535-4.434-1.657-14.566,8.923-21.16a21.137,21.137,0,0,1,15.573-2.122,2.579,2.579,0,0,1,1.8,1.821A17.794,17.794,0,0,1,314.184,327.671Zm-15.383.583c1.594.2,5.222-.007,11.07-3.834a12.475,12.475,0,0,0,5.875-11.859,15.34,15.34,0,0,0-9.885,1.813c-7.644,4.77-7.507,11.206-7.059,13.879Zm-2.161,2.059" transform="translate(-293.45 -307.243)"/>
        </g>
      </g>
      <g id="Group_75" data-name="Group 75" transform="translate(0 277.564)">
        <path id="Path_93" data-name="Path 93" d="M51.832,585.739a2.2,2.2,0,0,1-1.659-.753c-4.088-4.679-6.54-8.12-6.643-8.264a2.2,2.2,0,0,1,3.589-2.549c.024.033,2.438,3.412,6.369,7.915a2.2,2.2,0,0,1-1.651,3.651Z" transform="translate(-23.644 -554.346)"/>
        <g id="Group_73" data-name="Group 73" transform="translate(16.419)">
          <path id="Path_94" data-name="Path 94" d="M45.842,576.211s-3.259-1.277-3.943-8.824a9.762,9.762,0,0,1,5.465-9.814,11.9,11.9,0,0,1,4.45,7.5C52.789,573.788,45.842,576.211,45.842,576.211Z" transform="translate(-40.193 -555.927)"/>
          <path id="Path_95" data-name="Path 95" d="M45.993,578.013a1.634,1.634,0,0,1-.6-.11c-.43-.168-4.231-1.889-4.985-10.211a11.4,11.4,0,0,1,6.453-11.478,1.652,1.652,0,0,1,1.628.179,13.529,13.529,0,0,1,5.119,8.654c.887,7.925-4.237,11.888-7.07,12.878A1.662,1.662,0,0,1,45.993,578.013Zm1.321-18.284a8.005,8.005,0,0,0-3.62,7.659c.4,4.451,1.742,6.351,2.475,7.073,1.517-.835,4.8-3.332,4.155-9.051A9.7,9.7,0,0,0,47.314,559.729Z" transform="translate(-40.344 -556.077)"/>
        </g>
        <g id="Group_74" data-name="Group 74" transform="translate(0 15.954)">
          <path id="Path_96" data-name="Path 96" d="M45.565,578.137s-1.277,3.259-8.824,3.943a9.763,9.763,0,0,1-9.814-5.465,11.9,11.9,0,0,1,7.5-4.45C43.142,571.189,45.565,578.137,45.565,578.137Z" transform="translate(-25.276 -570.421)"/>
          <path id="Path_97" data-name="Path 97" d="M35.87,583.929a11.383,11.383,0,0,1-10.307-6.506,1.652,1.652,0,0,1,.179-1.628,13.532,13.532,0,0,1,8.654-5.119c7.933-.9,11.888,4.237,12.878,7.069a1.649,1.649,0,0,1-.022,1.146c-.168.43-1.888,4.231-10.211,4.985C36.641,583.911,36.251,583.929,35.87,583.929Zm-6.787-6.962a7.989,7.989,0,0,0,7.66,3.619c4.451-.4,6.351-1.741,7.073-2.473-.837-1.518-3.333-4.8-9.052-4.157A9.719,9.719,0,0,0,29.083,576.967Z" transform="translate(-25.427 -570.572)"/>
        </g>
      </g>
      <g id="Group_72-3" data-name="Group 72" transform="translate(428.555 236.865)">
        <path id="Path_88-3" data-name="Path 88" d="M423.164,544.352a1.477,1.477,0,0,1-1.709-2.077c1.768-3.613,2.737-6.215,2.746-6.24a1.478,1.478,0,1,1,2.772,1.026c-.041.111-1.031,2.769-2.864,6.514A1.477,1.477,0,0,1,423.164,544.352Z" transform="translate(-414.118 -517.494)"/>
        <g id="Group_70-3" data-name="Group 70">
          <path id="Path_89-3" data-name="Path 89" d="M425,538.2s2.816-2.08,1.516-9.545a9.76,9.76,0,0,0-7.828-8.057,11.893,11.893,0,0,0-2.348,8.4C417.659,537.669,425,538.2,425,538.2Z" transform="translate(-414.625 -518.951)"/>
          <path id="Path_90-3" data-name="Path 90" d="M425.577,539.95a1.683,1.683,0,0,1-.549.052c-2.993-.221-8.97-2.717-10.172-10.6a13.531,13.531,0,0,1,2.7-9.687,1.65,1.65,0,0,1,1.523-.6,11.394,11.394,0,0,1,9.215,9.408c1.432,8.232-1.79,10.88-2.163,11.156A1.635,1.635,0,0,1,425.577,539.95Zm-6.025-17.311a9.808,9.808,0,0,0-1.436,6.266c.878,5.757,4.683,7.279,6.358,7.672.521-.882,1.329-3.063.559-7.484a8,8,0,0,0-5.475-6.457Z" transform="translate(-414.776 -519.102)"/>
        </g>
        <g id="Group_71-3" data-name="Group 71" transform="translate(11.318 11.689)">
          <path id="Path_91-3" data-name="Path 91" d="M426.56,539.942s2.079,2.816,9.545,1.516a9.758,9.758,0,0,0,8.056-7.827,11.9,11.9,0,0,0-8.4-2.349C427.094,532.6,426.56,539.942,426.56,539.942Z" transform="translate(-424.907 -529.571)"/>
          <path id="Path_92-3" data-name="Path 92" d="M437.684,542.983c-.368.1-.748.183-1.146.252-8.233,1.434-10.883-1.789-11.157-2.161a1.651,1.651,0,0,1-.319-1.1c.22-2.994,2.714-8.976,10.6-10.172a13.519,13.519,0,0,1,9.685,2.7,1.654,1.654,0,0,1,.6,1.526A11.383,11.383,0,0,1,437.684,542.983Zm-9.185-3.552c.886.52,3.07,1.318,7.474.55a7.978,7.978,0,0,0,6.453-5.479,9.814,9.814,0,0,0-6.265-1.438c-5.7.867-7.247,4.682-7.661,6.366Zm-1.79.663" transform="translate(-425.058 -529.721)"/>
        </g>
      </g>
      <g id="Group_72-4" data-name="Group 72" transform="translate(133.044 236.748)">
        <path id="Path_88-4" data-name="Path 88" d="M166.767,543.469c-1.833-3.746-2.823-6.4-2.864-6.514a1.478,1.478,0,0,1,2.772-1.026c.009.025.977,2.627,2.746,6.239a1.478,1.478,0,1,1-2.654,1.3Z" transform="translate(-144.536 -517.388)"/>
        <g id="Group_70-4" data-name="Group 70" transform="translate(18.341)">
          <path id="Path_89-4" data-name="Path 89" d="M174.979,528.9a11.894,11.894,0,0,0-2.348-8.4,9.763,9.763,0,0,0-7.828,8.057c-1.3,7.466,1.516,9.545,1.516,9.545S173.658,537.564,174.979,528.9Z" transform="translate(-162.812 -518.845)"/>
          <path id="Path_90-4" data-name="Path 90" d="M165.49,539.577c-.373-.275-3.595-2.923-2.163-11.157a11.393,11.393,0,0,1,9.215-9.406,1.649,1.649,0,0,1,1.523.6,13.528,13.528,0,0,1,2.7,9.686c-1.2,7.883-7.18,10.38-10.172,10.6a1.643,1.643,0,0,1-1.1-.318Zm6.571-17.045a8,8,0,0,0-5.475,6.456c-.769,4.42.039,6.6.558,7.484,1.675-.393,5.48-1.914,6.359-7.671a9.812,9.812,0,0,0-1.436-6.268Z" transform="translate(-162.963 -518.996)"/>
        </g>
        <g id="Group_71-4" data-name="Group 71" transform="translate(0 11.688)">
          <path id="Path_91-4" data-name="Path 91" d="M156.2,531.176a11.892,11.892,0,0,0-8.4,2.349,9.758,9.758,0,0,0,8.056,7.826c7.466,1.3,9.545-1.515,9.545-1.515S164.865,532.5,156.2,531.176Z" transform="translate(-146.149 -529.464)"/>
          <path id="Path_92-4" data-name="Path 92" d="M146.318,533.918a1.647,1.647,0,0,1,.6-1.526,13.52,13.52,0,0,1,9.685-2.7c7.885,1.2,10.378,7.179,10.6,10.172a1.649,1.649,0,0,1-.319,1.1c-.274.372-2.923,3.595-11.157,2.162-.4-.069-.778-.154-1.146-.253A11.382,11.382,0,0,1,146.318,533.918Zm17.444,5.407c-.414-1.683-1.963-5.5-7.661-6.365a9.806,9.806,0,0,0-6.265,1.438,7.981,7.981,0,0,0,6.453,5.479c4.4.767,6.588-.032,7.474-.552Zm1.791.663" transform="translate(-146.3 -529.614)"/>
        </g>
      </g>
      <path id="路径_156" data-name="路径 156" d="M48.368,562.765c-12.137-17.839-12.779-30.324-7.3-46.7,4.269-12.761,28.922-24.723,28.922-24.723s-8.93-12.993-3.852-33.075c6.6-26.122,21.464-45.644,50.816-50.274s37.424,0,37.424,0-3.891-22.977,22.562-35.059c26.372-12.045,43.48,1.485,43.48,1.485s14.572-36.174,47.439-36.174c33.438,0,50.7,17.978,50.7,17.978s18.714-20.925,48.931-15.776c32.3,5.5,46.718,33.69,46.718,33.69s17.108-13.529,43.48-1.484c26.453,12.082,22.562,35.059,22.562,35.059s8.071-4.631,37.424,0,44.212,24.153,50.816,50.273c5.078,20.082-3.852,33.075-3.852,33.075s24.653,11.961,28.921,24.724c5.476,16.372,4.833,28.857-7.3,46.7" transform="translate(-24.185 -300.448)" fill="none" stroke="#000" stroke-linecap="round" stroke-linejoin="round" stroke-width="22"/>
      <path id="路径_157" data-name="路径 157" d="M257.2,379.913" transform="translate(-2.089 -296.253)" fill="none" stroke="#000" stroke-linecap="round" stroke-linejoin="round" stroke-width="15"/>
      <path id="路径_158" data-name="路径 158" d="M388.772,424.975c-3-4.337-8.325-9.7-17.784-15.28a36.089,36.089,0,0,0-10.414-4.2,30.912,30.912,0,0,1-36.6,8.787,37.183,37.183,0,0,1-59.728,0,30.912,30.912,0,0,1-36.6-8.791A36.1,36.1,0,0,0,217.24,409.7c-9.46,5.581-14.787,10.943-17.784,15.28a10.4,10.4,0,0,0,3.937,15.255c6.7,3.272,17.339,5.8,30.42-.288a83.16,83.16,0,0,0,7.61,35.455c15.572,32.591,42.736,38.667,54.393,38.667,12.419,0,37.934-6.265,53.331-38.667,3.922-8.254,5.64-22.236,5.226-35.474,13.1,6.118,23.759,3.584,30.462.308A10.4,10.4,0,0,0,388.772,424.975Zm-87.446,70.1L297.078,502a3.411,3.411,0,0,1-.762.852v8.525a2.2,2.2,0,1,1-4.4,0v-8.525a3.394,3.394,0,0,1-.763-.852l-4.249-6.93a3.477,3.477,0,0,1,2.964-5.293h8.5A3.477,3.477,0,0,1,301.326,495.072Z" transform="translate(-8.09 -293.678)" fill="#040000"/>
    </g>
  </g>
</svg>
