<svg xmlns="http://www.w3.org/2000/svg" width="84" height="86" viewBox="0 0 84 86">
  <g id="组_67" data-name="组 67" transform="translate(-3.515)">
    <g id="camera" transform="translate(21.541 0)">
      <g id="组_36" data-name="组 36" transform="translate(46.669 15.748)">
        <g id="组_35" data-name="组 35">
          <path id="路径_25" data-name="路径 25" d="M393.191,166a1.319,1.319,0,1,0,1.191,1.312A1.256,1.256,0,0,0,393.191,166Z" transform="translate(-392 -166)" fill="#808f85"/>
        </g>
      </g>
      <g id="组_38" data-name="组 38">
        <g id="组_37" data-name="组 37">
          <path id="路径_26" data-name="路径 26" d="M57.384,56.5H44.309l-3.775-8.322A3.535,3.535,0,0,0,37.34,46H23.615a3.534,3.534,0,0,0-3.195,2.177L16.646,56.5h-2.36V55.186a3.772,3.772,0,0,0-3.572-3.937H8.334a3.772,3.772,0,0,0-3.572,3.937V56.5H3.572A3.772,3.772,0,0,0,0,60.436V97.181a3.772,3.772,0,0,0,3.572,3.937H57.384a3.772,3.772,0,0,0,3.572-3.937V60.436A3.772,3.772,0,0,0,57.384,56.5ZM22.551,49.351a1.178,1.178,0,0,1,1.065-.726H37.34a1.179,1.179,0,0,1,1.065.726L41.647,56.5H19.308ZM7.143,55.186a1.257,1.257,0,0,1,1.191-1.312h2.381a1.257,1.257,0,0,1,1.191,1.312V56.5H7.143ZM2.381,69.609H17.435a18.573,18.573,0,0,0,0,18.386H2.381Zm28.1-5.236c7.159,0,13.1,6.394,13.1,14.436s-5.929,14.436-13.1,14.436-13.1-6.41-13.1-14.436S23.309,64.373,30.478,64.373Zm28.1,32.809a1.257,1.257,0,0,1-1.191,1.312H3.572a1.257,1.257,0,0,1-1.191-1.312V90.62H19.314a14.832,14.832,0,0,0,11.164,5.249A14.832,14.832,0,0,0,41.642,90.62H58.574Zm0-9.186H43.52a18.548,18.548,0,0,0,0-18.373H58.574Zm0-21H41.642a14.832,14.832,0,0,0-11.164-5.249A14.832,14.832,0,0,0,19.313,67H2.381V60.436a1.257,1.257,0,0,1,1.191-1.312H57.384a1.257,1.257,0,0,1,1.191,1.312Z" transform="translate(0 -46)" fill="#808f85"/>
        </g>
      </g>
      <g id="组_40" data-name="组 40" transform="translate(25.716 5.249)">
        <g id="组_39" data-name="组 39">
          <path id="路径_27" data-name="路径 27" d="M224.334,86h-7.143a1.319,1.319,0,0,0,0,2.625h7.143a1.319,1.319,0,0,0,0-2.625Z" transform="translate(-216 -86)" fill="#808f85"/>
        </g>
      </g>
      <g id="组_42" data-name="组 42" transform="translate(19.763 20.998)">
        <g id="组_41" data-name="组 41">
          <path id="路径_28" data-name="路径 28" d="M176.715,206C170.807,206,166,211.3,166,217.811s4.807,11.811,10.715,11.811,10.715-5.3,10.715-11.811S182.623,206,176.715,206Zm0,21c-4.6,0-8.334-4.121-8.334-9.186s3.738-9.186,8.334-9.186,8.334,4.121,8.334,9.186S181.31,227,176.715,227Z" transform="translate(-166 -206)" fill="#808f85"/>
        </g>
      </g>
      <g id="组_44" data-name="组 44" transform="translate(24.525 26.247)">
        <g id="组_43" data-name="组 43">
          <path id="路径_29" data-name="路径 29" d="M211.953,246c-3.282,0-5.953,2.944-5.953,6.562a1.2,1.2,0,1,0,2.381,0,3.772,3.772,0,0,1,3.572-3.937,1.319,1.319,0,0,0,0-2.625Z" transform="translate(-206 -246)" fill="#808f85"/>
        </g>
      </g>
      <g id="组_46" data-name="组 46" transform="translate(51.431 15.748)">
        <g id="组_45" data-name="组 45">
          <path id="路径_30" data-name="路径 30" d="M435.572,166h-2.381a1.319,1.319,0,0,0,0,2.625h2.381a1.319,1.319,0,0,0,0-2.625Z" transform="translate(-432 -166)" fill="#808f85"/>
        </g>
      </g>
    </g>
    <text id="Photography" transform="translate(45.515 82)" fill="#808f85" font-size="16" font-family="GillSansMT, Gill Sans MT"><tspan x="-41.07" y="0">Photography</tspan></text>
  </g>
</svg>
