<svg xmlns="http://www.w3.org/2000/svg" width="72" height="88.412" viewBox="0 0 72 88.412">
  <g id="组_64" data-name="组 64" transform="translate(-1.826)">
    <g id="layers_1_" data-name="layers (1)" transform="translate(7.996)">
      <path id="路径_34" data-name="路径 34" d="M60.95,27.334a1.347,1.347,0,0,0-.632-1.282L49.166,19.608l10.95-3.73a1.291,1.291,0,0,0,.834-1.134,1.346,1.346,0,0,0-.632-1.282L38.144.649a1.092,1.092,0,0,0-.9-.092l-36.4,12.4A1.292,1.292,0,0,0,0,14.093a1.348,1.348,0,0,0,.633,1.283L8.293,19.8a39.528,39.528,0,0,0,3.695,1.884L.833,25.551A1.292,1.292,0,0,0,0,26.686a1.346,1.346,0,0,0,.633,1.279l11.151,6.444L.838,38.139A1.291,1.291,0,0,0,0,39.273a1.347,1.347,0,0,0,.633,1.282L22.81,53.368a1.1,1.1,0,0,0,.552.15,1.08,1.08,0,0,0,.352-.058l13.576-4.625a1.341,1.341,0,0,0,.786-1.641,1.175,1.175,0,0,0-1.489-.866L23.48,50.792,4.3,39.708l10.48-3.571,8.031,4.641a1.1,1.1,0,0,0,.552.15,1.081,1.081,0,0,0,.352-.059l16.73-5.7.011,0L45.94,33.3,56.656,39.49,45.7,43.223a1.341,1.341,0,0,0-.786,1.641,1.21,1.21,0,0,0,1.137.925,1.084,1.084,0,0,0,.352-.059l13.714-4.672a1.291,1.291,0,0,0,.834-1.134,1.347,1.347,0,0,0-.632-1.282L49.166,32.2l10.95-3.73a1.291,1.291,0,0,0,.834-1.134ZM48.868,22.4,39.476,32.752,27.6,36.8,40.526,22.552l5.413-1.844Zm-30.8-1.288A13.4,13.4,0,0,0,25.194,16.9a14.624,14.624,0,0,0,5.763,5.246,34.659,34.659,0,0,1-12.886-1.037Zm5.336,3.639-7.981,8.8-4.98-2.877,6.51-7.176a37.493,37.493,0,0,0,6.451,1.256Zm3.187.2c.243,0,.485.009.727.009a36.937,36.937,0,0,0,8.451-.981L26.593,34.1a1.323,1.323,0,0,0-.228.354L23.14,38.005l-5.5-3.181ZM4.3,14.527l33.175-11.3L56.656,14.31,45.7,18.041h0l-7.031,2.4q-1.307.446-2.628.785l-2.5-.806a12.207,12.207,0,0,1-7.142-6.33,1.19,1.19,0,0,0-.947-.678,1.144,1.144,0,0,0-1.035.5,11.079,11.079,0,0,1-9.058,4.868h-3.5q-1.244-.6-2.46-1.3Zm8.778,9.531-4.84,5.334L4.281,27.107ZM45.7,30.63l0,0-1.35.46,6.727-7.416L56.656,26.9Zm0,0" transform="translate(0.001 -0.499)" fill="#808f85"/>
      <path id="路径_35" data-name="路径 35" d="M339.671,337.449a1.146,1.146,0,0,0-.842.384,1.409,1.409,0,0,0,0,1.856,1.115,1.115,0,0,0,1.684,0,1.411,1.411,0,0,0,0-1.856A1.146,1.146,0,0,0,339.671,337.449Zm0,0" transform="translate(-310.339 -293.23)" fill="#808f85"/>
    </g>
    <text id="UI_Design" data-name="UI Design" transform="translate(37.826 84.412)" fill="#808f85" font-size="18" font-family="GillSansMT, Gill Sans MT"><tspan x="-35.96" y="0">UI Design</tspan></text>
  </g>
</svg>
