<svg xmlns="http://www.w3.org/2000/svg" width="188" height="195" viewBox="0 0 188 195">
  <g id="Group_65" data-name="Group 65" transform="translate(-1385 -1212)">
    <g id="film-editor" transform="translate(1422.183 1212)">
      <path id="Path_43" data-name="Path 43" d="M153.2,0a2.639,2.639,0,0,0-2.639,2.639v8.1h-9.381v-8.1a2.639,2.639,0,1,0-5.278,0V26.223h-24V7.917A7.926,7.926,0,0,0,103.979,0H95.731a7.926,7.926,0,0,0-7.917,7.917V26.223H63.808V2.639a2.639,2.639,0,1,0-5.278,0v8.1H49.149v-8.1a2.639,2.639,0,1,0-5.278,0V132.485a2.639,2.639,0,0,0,5.278,0v-8.1H58.53v8.1a2.639,2.639,0,0,0,5.278,0V108.9H89.3a2.639,2.639,0,0,0,0-5.278H63.809V31.5H87.814V78.417a2.736,2.736,0,0,0,.192.973,2.133,2.133,0,0,0,.262.507l9.391,14.087a2.639,2.639,0,0,0,4.392,0L111.442,79.9a2.711,2.711,0,0,0,.419-1.064,2.612,2.612,0,0,0,.035-.416V31.5h24v72.121h-25.49a2.639,2.639,0,1,0,0,5.278H135.9v23.584a2.639,2.639,0,0,0,5.278,0v-8.1h9.381v8.1a2.639,2.639,0,0,0,5.278,0V2.639A2.639,2.639,0,0,0,153.2,0ZM49.149,103.623v-10.2H58.53v10.2ZM58.53,41.7H49.149V31.5H58.53Zm0,15.48H49.149v-10.2H58.53Zm0,15.48H49.149v-10.2H58.53Zm0,15.48H49.149v-10.2H58.53Zm0-72.121v10.2H49.149v-10.2ZM49.149,119.1V108.9H58.53v10.2ZM93.092,21.081h13.526v54.7H93.092Zm0-13.164a2.642,2.642,0,0,1,2.639-2.639h8.247a2.642,2.642,0,0,1,2.639,2.639V15.8H93.092Zm6.763,79.844-4.471-6.706h8.942ZM150.561,31.5V41.7h-9.381V31.5h9.381Zm0,25.681h-9.381v-10.2h9.381Zm0,15.48h-9.381v-10.2h9.381Zm0,15.48h-9.381v-10.2h9.381Zm-9.381,5.278h9.381v10.2h-9.381Zm9.381-77.4v10.2h-9.381v-10.2ZM141.179,119.1V108.9h9.381v10.2Z" transform="translate(-43.871)" fill="#808f85" fill-rule="evenodd"/>
      <path id="Path_44" data-name="Path 44" d="M248.64,392.637a2.639,2.639,0,1,0,2.639,2.639A2.644,2.644,0,0,0,248.64,392.637Z" transform="translate(-192.656 -289.014)" fill="#808f85" fill-rule="evenodd"/>
    </g>
    <text id="Film_Editing" data-name="Film Editing" transform="translate(1479 1398)" fill="#808f85" font-size="40" font-family="GillSansMT, Gill Sans MT"><tspan x="-93.291" y="0">Film Editing</tspan></text>
    <g id="film-editor-2" data-name="film-editor" transform="translate(1422.183 1212)">
      <path id="Path_43-2" data-name="Path 43" d="M153.2,0a2.639,2.639,0,0,0-2.639,2.639v8.1h-9.381v-8.1a2.639,2.639,0,1,0-5.278,0V26.223h-24V7.917A7.926,7.926,0,0,0,103.979,0H95.731a7.926,7.926,0,0,0-7.917,7.917V26.223H63.808V2.639a2.639,2.639,0,1,0-5.278,0v8.1H49.149v-8.1a2.639,2.639,0,1,0-5.278,0V132.485a2.639,2.639,0,0,0,5.278,0v-8.1H58.53v8.1a2.639,2.639,0,0,0,5.278,0V108.9H89.3a2.639,2.639,0,0,0,0-5.278H63.809V31.5H87.814V78.417a2.736,2.736,0,0,0,.192.973,2.133,2.133,0,0,0,.262.507l9.391,14.087a2.639,2.639,0,0,0,4.392,0L111.442,79.9a2.711,2.711,0,0,0,.419-1.064,2.612,2.612,0,0,0,.035-.416V31.5h24v72.121h-25.49a2.639,2.639,0,1,0,0,5.278H135.9v23.584a2.639,2.639,0,0,0,5.278,0v-8.1h9.381v8.1a2.639,2.639,0,0,0,5.278,0V2.639A2.639,2.639,0,0,0,153.2,0ZM49.149,103.623v-10.2H58.53v10.2ZM58.53,41.7H49.149V31.5H58.53Zm0,15.48H49.149v-10.2H58.53Zm0,15.48H49.149v-10.2H58.53Zm0,15.48H49.149v-10.2H58.53Zm0-72.121v10.2H49.149v-10.2ZM49.149,119.1V108.9H58.53v10.2ZM93.092,21.081h13.526v54.7H93.092Zm0-13.164a2.642,2.642,0,0,1,2.639-2.639h8.247a2.642,2.642,0,0,1,2.639,2.639V15.8H93.092Zm6.763,79.844-4.471-6.706h8.942ZM150.561,31.5V41.7h-9.381V31.5h9.381Zm0,25.681h-9.381v-10.2h9.381Zm0,15.48h-9.381v-10.2h9.381Zm0,15.48h-9.381v-10.2h9.381Zm-9.381,5.278h9.381v10.2h-9.381Zm9.381-77.4v10.2h-9.381v-10.2ZM141.179,119.1V108.9h9.381v10.2Z" transform="translate(-43.871)" fill="#808f85" fill-rule="evenodd"/>
      <path id="Path_44-2" data-name="Path 44" d="M248.64,392.637a2.639,2.639,0,1,0,2.639,2.639A2.644,2.644,0,0,0,248.64,392.637Z" transform="translate(-192.656 -289.014)" fill="#808f85" fill-rule="evenodd"/>
      <path id="Path_75" data-name="Path 75" d="M153.2,0a2.639,2.639,0,0,0-2.639,2.639v8.1h-9.381v-8.1a2.639,2.639,0,1,0-5.278,0V26.223h-24V7.917A7.926,7.926,0,0,0,103.979,0H95.731a7.926,7.926,0,0,0-7.917,7.917V26.223H63.808V2.639a2.639,2.639,0,1,0-5.278,0v8.1H49.149v-8.1a2.639,2.639,0,1,0-5.278,0V132.485a2.639,2.639,0,0,0,5.278,0v-8.1H58.53v8.1a2.639,2.639,0,0,0,5.278,0V108.9H89.3a2.639,2.639,0,0,0,0-5.278H63.809V31.5H87.814V78.417a2.736,2.736,0,0,0,.192.973,2.133,2.133,0,0,0,.262.507l9.391,14.087a2.639,2.639,0,0,0,4.392,0L111.442,79.9a2.711,2.711,0,0,0,.419-1.064,2.612,2.612,0,0,0,.035-.416V31.5h24v72.121h-25.49a2.639,2.639,0,1,0,0,5.278H135.9v23.584a2.639,2.639,0,0,0,5.278,0v-8.1h9.381v8.1a2.639,2.639,0,0,0,5.278,0V2.639A2.639,2.639,0,0,0,153.2,0ZM49.149,103.623v-10.2H58.53v10.2ZM58.53,41.7H49.149V31.5H58.53Zm0,15.48H49.149v-10.2H58.53Zm0,15.48H49.149v-10.2H58.53Zm0,15.48H49.149v-10.2H58.53Zm0-72.121v10.2H49.149v-10.2ZM49.149,119.1V108.9H58.53v10.2ZM93.092,21.081h13.526v54.7H93.092Zm0-13.164a2.642,2.642,0,0,1,2.639-2.639h8.247a2.642,2.642,0,0,1,2.639,2.639V15.8H93.092Zm6.763,79.844-4.471-6.706h8.942ZM150.561,31.5V41.7h-9.381V31.5h9.381Zm0,25.681h-9.381v-10.2h9.381Zm0,15.48h-9.381v-10.2h9.381Zm0,15.48h-9.381v-10.2h9.381Zm-9.381,5.278h9.381v10.2h-9.381Zm9.381-77.4v10.2h-9.381v-10.2ZM141.179,119.1V108.9h9.381v10.2Z" transform="translate(-43.871)" fill="#808f85" fill-rule="evenodd"/>
    </g>
  </g>
</svg>
