<svg xmlns="http://www.w3.org/2000/svg" width="252" height="183" viewBox="0 0 252 183">
  <g id="Group_150" data-name="Group 150" transform="translate(-590 -2665)">
    <g id="computer" transform="translate(656.188 2665)">
      <path id="Path_31" data-name="Path 31" d="M308.4,346a2.4,2.4,0,1,0,2.4,2.4A2.4,2.4,0,0,0,308.4,346Zm0,0" transform="translate(-232.668 -263.082)" fill="#808f85"/>
      <path id="Path_32" data-name="Path 32" d="M110.717,0H11.982A12,12,0,0,0,0,11.982V85.315A12,12,0,0,0,11.982,97.3H49.367v11.024h-2.4A11.985,11.985,0,0,0,34.989,120.3a2.4,2.4,0,0,0,2.4,2.4h47.93a2.4,2.4,0,0,0,2.4-2.4,12,12,0,0,0-11.982-11.982h-2.4V97.3h37.385A12,12,0,0,0,122.7,85.315V11.982A12,12,0,0,0,110.717,0ZM11.982,4.793h98.735a7.2,7.2,0,0,1,7.189,7.189v61.35H106.883V18.213a2.4,2.4,0,0,0-2.4-2.4H85.315a2.4,2.4,0,0,0-2.4,2.4V73.332h-12c-.025-2.479-.09-4.922-.193-7.292a154.141,154.141,0,0,0-1.872-19.174,11.984,11.984,0,0,0,3.272-15.63L63.823,16.849a2.4,2.4,0,0,0-4.151,0l-8.31,14.387A11.981,11.981,0,0,0,54,46.36a152.126,152.126,0,0,0-2.02,19.675c-.108,2.4-.176,4.841-.2,7.3h-12V37.385a2.384,2.384,0,0,0-.237-1.034c-.007-.012-.01-.025-.016-.037L29.943,17.141a2.4,2.4,0,0,0-4.287,0L16.069,36.313c-.006.012-.009.025-.015.037a2.382,2.382,0,0,0-.238,1.034V73.332H4.793V11.982a7.2,7.2,0,0,1,7.189-7.189ZM87.711,73.332V20.61H102.09V25.4h-2.4a2.4,2.4,0,0,0,0,4.793h2.4v7.189h-2.4a2.4,2.4,0,0,0,0,4.793h2.4v7.189h-2.4a2.4,2.4,0,0,0,0,4.793h2.4v9.586h-2.4a2.4,2.4,0,0,0,0,4.793h2.4v4.793ZM61.748,49.2a12,12,0,0,0,2.586-.287c.445,2.85,1.1,7.894,1.485,14.832H56.9c.405-6.933,1.09-12.055,1.562-15a12,12,0,0,0,3.288.458Zm0-4.793a7.2,7.2,0,0,1-6.234-10.777l6.234-10.792,6.23,10.791a7.194,7.194,0,0,1-6.23,10.778Zm-5.07,24.13h9.351c.051,1.575.085,3.176.1,4.793H56.57C56.588,71.726,56.624,70.124,56.678,68.539ZM30.2,73.332V39.781h4.793V73.332Zm-9.586,0V39.781H25.4V73.332Zm1.481-38.344L27.8,23.572l5.708,11.417Zm60.416,82.918H40.189a7.2,7.2,0,0,1,6.781-4.793H75.728a7.2,7.2,0,0,1,6.778,4.793Zm-13.968-9.586H54.16V97.3H68.539ZM110.717,92.5H11.982a7.2,7.2,0,0,1-7.189-7.189V78.125H117.906v7.189A7.2,7.2,0,0,1,110.717,92.5Zm0,0" transform="translate(0 0)" fill="#808f85"/>
      <path id="Path_33" data-name="Path 33" d="M222.775,346H208.4a2.4,2.4,0,0,0,0,4.793h14.379a2.4,2.4,0,0,0,0-4.793Zm0,0" transform="translate(-156.633 -263.082)" fill="#808f85"/>
    </g>
    <text id="Graphic_Design" data-name="Graphic Design" transform="translate(716 2839)" fill="#808f85" font-size="40" font-family="GillSansMT, Gill Sans MT"><tspan x="-125.156" y="0">Graphic Design</tspan></text>
  </g>
</svg>
