<svg xmlns="http://www.w3.org/2000/svg" width="174" height="202" viewBox="0 0 174 202">
  <g id="Group_63" data-name="Group 63" transform="translate(-367 -1205)">
    <g id="wacom" transform="translate(386.703 1205)">
      <g id="Group_49" data-name="Group 49" transform="translate(74.16 30.614)">
        <g id="Group_48" data-name="Group 48">
          <path id="Path_37" data-name="Path 37" d="M285.505,116.773a2.637,2.637,0,1,0,.773,1.866A2.659,2.659,0,0,0,285.505,116.773Z" transform="translate(-281 -116)" fill="#808f85"/>
        </g>
      </g>
      <g id="Group_51" data-name="Group 51" transform="translate(0 30.614)">
        <g id="Group_50" data-name="Group 50">
          <path id="Path_38" data-name="Path 38" d="M127.207,116H125.1a2.639,2.639,0,1,0,0,5.278h2.111a2.642,2.642,0,0,1,2.639,2.639v88.675a2.642,2.642,0,0,1-2.639,2.639H7.917a2.642,2.642,0,0,1-2.639-2.639V123.917a2.642,2.642,0,0,1,2.639-2.639H65.583a2.639,2.639,0,0,0,0-5.278H7.917A7.926,7.926,0,0,0,0,123.917v88.675a7.926,7.926,0,0,0,7.917,7.917H127.207a7.926,7.926,0,0,0,7.917-7.917V123.917A7.926,7.926,0,0,0,127.207,116Z" transform="translate(0 -116)" fill="#808f85"/>
        </g>
      </g>
      <g id="Group_53" data-name="Group 53" transform="translate(106.621 73.896)">
        <g id="Group_52" data-name="Group 52">
          <path id="Path_39" data-name="Path 39" d="M412.973,280a8.973,8.973,0,1,0,8.973,8.973A8.983,8.983,0,0,0,412.973,280Zm0,12.668a3.695,3.695,0,1,1,3.695-3.695A3.7,3.7,0,0,1,412.973,292.668Z" transform="translate(-404 -280)" fill="#808f85"/>
        </g>
      </g>
      <g id="Group_55" data-name="Group 55" transform="translate(106.621 43.282)">
        <g id="Group_54" data-name="Group 54">
          <path id="Path_40" data-name="Path 40" d="M419.307,164H406.639A2.639,2.639,0,0,0,404,166.639V186.7a2.639,2.639,0,0,0,2.639,2.639h12.668a2.639,2.639,0,0,0,2.639-2.639V166.639A2.639,2.639,0,0,0,419.307,164Zm-2.639,20.057h-7.39V169.278h7.39Z" transform="translate(-404 -164)" fill="#808f85"/>
        </g>
      </g>
      <g id="Group_57" data-name="Group 57" transform="translate(106.621 97.121)">
        <g id="Group_56" data-name="Group 56">
          <path id="Path_41" data-name="Path 41" d="M419.307,368H406.639A2.639,2.639,0,0,0,404,370.639V390.7a2.639,2.639,0,0,0,2.639,2.639h12.668a2.639,2.639,0,0,0,2.639-2.639V370.639A2.639,2.639,0,0,0,419.307,368Zm-2.639,20.057h-7.39V373.278h7.39Z" transform="translate(-404 -368)" fill="#808f85"/>
        </g>
      </g>
      <g id="Group_59" data-name="Group 59" transform="translate(12.668)">
        <g id="Group_58" data-name="Group 58">
          <path id="Path_42" data-name="Path 42" d="M169.5,9.247,161.028.773a2.64,2.64,0,0,0-3.733,0l-10.36,10.36h0L112.568,45.5h0l-7.9,7.9A8.646,8.646,0,0,0,103.1,63.445l-2.991,2.991a54.33,54.33,0,0,0-17.612-2.912A34.5,34.5,0,0,0,53.278,79.7V50.672H99.727a2.639,2.639,0,1,0,0-5.278H50.639A2.639,2.639,0,0,0,48,48.032v69.673a2.639,2.639,0,0,0,2.639,2.639h83.4a2.639,2.639,0,0,0,2.639-2.639V58.941a2.639,2.639,0,0,0-5.278,0V94.3a54.554,54.554,0,0,0-25.97-25.722l1.4-1.4a8.638,8.638,0,0,0,10.05-1.575l7.895-7.895h0L159.14,23.341h0L169.5,12.98A2.64,2.64,0,0,0,169.5,9.247ZM53.278,115.067v-2.631c.4.471.816.932,1.258,1.373s.9.858,1.373,1.258H53.278Zm78.047,0H81.647a14.738,14.738,0,0,0,3.486-9.53A10.169,10.169,0,0,0,74.976,95.38a7.3,7.3,0,0,0-7.289,7.29,2.639,2.639,0,1,0,5.278,0,2.013,2.013,0,0,1,2.011-2.011,4.884,4.884,0,0,1,4.879,4.879,9.541,9.541,0,0,1-9.529,9.53A17.067,17.067,0,0,1,53.278,98.019,29.249,29.249,0,0,1,82.494,68.8,48.964,48.964,0,0,1,131.325,115.067Zm-18.18-53.195A3.353,3.353,0,0,1,108.4,57.13l6.03-6.03,4.742,4.742Zm9.762-9.762-4.742-4.742L148.8,16.732l4.742,4.742Zm34.368-34.368L152.533,13l6.628-6.628,4.742,4.742Z" transform="translate(-48)" fill="#808f85"/>
        </g>
      </g>
    </g>
    <text id="Illustration" transform="translate(454 1398)" fill="#808f85" font-size="40" font-family="GillSansMT, Gill Sans MT"><tspan x="-86.66" y="0">Illustration</tspan></text>
  </g>
</svg>
