<svg xmlns="http://www.w3.org/2000/svg" width="428.926" height="60.82" viewBox="0 0 428.926 60.82">
  <g id="组_112" data-name="组 112" transform="translate(-746 -69)">
    <g id="组_69" data-name="组 69" transform="translate(662.14 -589.174)">
      <path id="路径_76" data-name="路径 76" d="M161.48,665.586l-10.136,24.99a108.072,108.072,0,0,1-5.625,12.349,20.4,20.4,0,0,1-4.981,5.669,16.34,16.34,0,0,1-10.254,3.457,13.516,13.516,0,0,1-10.034-3.882,13.749,13.749,0,0,1-3.852-10.122,19.943,19.943,0,0,1,6.064-14.414,24.165,24.165,0,0,1,8.145-5.332,25.171,25.171,0,0,1,9.668-2.022,6.129,6.129,0,0,1,3.706,1.04,3.214,3.214,0,0,1,1.421,2.71,3.391,3.391,0,0,1-1.524,2.9,7.761,7.761,0,0,1-3.4.879,21.982,21.982,0,0,0-9.4,2.666,13.713,13.713,0,0,0-4.716,4.687,11.57,11.57,0,0,0-1.729,6.065,7.421,7.421,0,0,0,1.729,5.185,6.012,6.012,0,0,0,4.687,1.9,7.929,7.929,0,0,0,6.152-3.046q2.637-3.048,5.743-10.694l10.136-24.99h-5.713q-4.042,0-4.043-2.871a3.606,3.606,0,0,1,1.436-3.032,6.415,6.415,0,0,1,3.984-1.1h20.01l2.051.469a2.5,2.5,0,0,1,1.23,2.4,3.608,3.608,0,0,1-1.435,3.032,6.416,6.416,0,0,1-3.985,1.1Z"/>
      <path id="路径_77" data-name="路径 77" d="M178.619,677.422a11.345,11.345,0,0,1,5.068-1.67,6.777,6.777,0,0,1,4.615,1.567,5.066,5.066,0,0,1,1.8,4,8.534,8.534,0,0,1-.7,3.194l-3.076,7.676h3.369q3.692,0,3.692,2.607a3.3,3.3,0,0,1-1.3,2.783,5.89,5.89,0,0,1-3.647,1h-5.889a4.73,4.73,0,0,1-3.149-1.069,3.3,3.3,0,0,1-1.275-2.622,7.459,7.459,0,0,1,.674-2.7l2.7-6.622a5.776,5.776,0,0,0,.5-1.9q0-1.669-2.226-1.67-2.988,0-5.039,5.1l-3.282,8.056q-1.552,3.839-4.6,3.838a2.968,2.968,0,0,1-2.051-.761,2.389,2.389,0,0,1-.85-1.846,5.409,5.409,0,0,1,.44-1.934l.322-.791,12.744-31.435q1.671-4.044,4.571-4.043a2.924,2.924,0,0,1,2.065.8,2.57,2.57,0,0,1,.864,1.949,8.2,8.2,0,0,1-.761,2.783Z"/>
      <path id="路径_78" data-name="路径 78" d="M201.529,689.99q0,2.2,3.311,2.2h8.7q3.691,0,3.691,2.607a3.305,3.305,0,0,1-1.3,2.783,5.891,5.891,0,0,1-3.648,1H203.99q-4.629,0-7.046-2.285t-2.417-6.68a13.818,13.818,0,0,1,3.824-9.755,12.019,12.019,0,0,1,9.1-4.1,9.116,9.116,0,0,1,6.167,2.007,6.638,6.638,0,0,1,2.329,5.288,6.339,6.339,0,0,1-3.222,5.859,10.463,10.463,0,0,1-5.332,1.084Zm1.407-5.332h3.222q3.135,0,3.047-1.377-.089-1.553-2.021-1.552Q204.487,681.729,202.936,684.658Z"/>
      <path id="路径_79" data-name="路径 79" d="M259.039,678.564l2.7,3.4,1.553,1.875a18.425,18.425,0,0,1,4.512,11.777,15.535,15.535,0,0,1-3.985,10.576,18.03,18.03,0,0,1-14.267,6.241,15.474,15.474,0,0,1-11.192-4.2,14.3,14.3,0,0,1-4.365-10.767q0-8.028,6.8-13.389,3.6-2.841,6.65-2.842a3.678,3.678,0,0,1,2.579.909,3.025,3.025,0,0,1,1,2.343q0,1.934-2.285,3.34l-2.344,1.436a10.224,10.224,0,0,0-3.369,3.515,8.641,8.641,0,0,0-1.348,4.454,7.647,7.647,0,0,0,2.358,5.756,8.287,8.287,0,0,0,5.992,2.271,9.47,9.47,0,0,0,6.972-3,9.748,9.748,0,0,0,2.959-7.075,9.306,9.306,0,0,0-1.2-4.688,44.943,44.943,0,0,0-5.185-6.533,27.156,27.156,0,0,1-3.985-5.391h-7.91q-4.043,0-4.043-2.783a3.712,3.712,0,0,1,1.421-3.12,6.409,6.409,0,0,1,4-1.1h5.01a13.671,13.671,0,0,1,5.3-9.595,17.479,17.479,0,0,1,11.309-3.794,11.825,11.825,0,0,1,8.071,2.724,8.938,8.938,0,0,1,3.12,7.061,9.822,9.822,0,0,1-4.951,8.848q-2.812,1.758-8.935,1.757Zm-3.516-7h7.032q5.947,0,5.947-3.458a2.5,2.5,0,0,0-1.216-2.167,5.7,5.7,0,0,0-3.237-.821,9.31,9.31,0,0,0-5.757,1.963A6.174,6.174,0,0,0,255.523,671.563Z"/>
      <path id="路径_80" data-name="路径 80" d="M287.486,677.422a11.348,11.348,0,0,1,5.069-1.67,6.775,6.775,0,0,1,4.614,1.567,5.066,5.066,0,0,1,1.8,4,8.551,8.551,0,0,1-.7,3.194l-3.077,7.676h3.37q3.69,0,3.691,2.607a3.3,3.3,0,0,1-1.3,2.783,5.89,5.89,0,0,1-3.647,1h-5.889a4.73,4.73,0,0,1-3.149-1.069,3.3,3.3,0,0,1-1.275-2.622,7.481,7.481,0,0,1,.674-2.7l2.7-6.622a5.776,5.776,0,0,0,.5-1.9q0-1.669-2.226-1.67-2.988,0-5.039,5.1l-3.281,8.056q-1.554,3.839-4.6,3.838a2.969,2.969,0,0,1-2.051-.761,2.391,2.391,0,0,1-.849-1.846,5.405,5.405,0,0,1,.439-1.934l.322-.791,12.744-31.435q1.671-4.044,4.571-4.043a2.922,2.922,0,0,1,2.065.8,2.57,2.57,0,0,1,.864,1.949,8.177,8.177,0,0,1-.761,2.783Z"/>
      <path id="路径_81" data-name="路径 81" d="M310.4,689.99q0,2.2,3.311,2.2h8.7q3.691,0,3.692,2.607a3.3,3.3,0,0,1-1.3,2.783,5.891,5.891,0,0,1-3.648,1h-8.291q-4.629,0-7.045-2.285t-2.417-6.68a13.818,13.818,0,0,1,3.823-9.755,12.021,12.021,0,0,1,9.1-4.1,9.116,9.116,0,0,1,6.167,2.007,6.639,6.639,0,0,1,2.33,5.288,6.34,6.34,0,0,1-3.223,5.859,10.461,10.461,0,0,1-5.332,1.084Zm1.407-5.332h3.222q3.135,0,3.047-1.377-.087-1.553-2.021-1.552Q313.355,681.729,311.8,684.658Z"/>
      <path id="路径_82" data-name="路径 82" d="M333.57,696.289,325.924,715.1q-1.583,3.9-4.629,3.9a2.847,2.847,0,0,1-2.007-.776,2.453,2.453,0,0,1-.835-1.861,8.421,8.421,0,0,1,.733-2.753l14.121-34.8a3.807,3.807,0,0,1,3.75-2.637,3.306,3.306,0,0,1,2.929,1.758,6.635,6.635,0,0,1,5.01-2.168,6.084,6.084,0,0,1,4.966,2.329,9.442,9.442,0,0,1,1.89,6.138,16.013,16.013,0,0,1-4.483,11.748,8.15,8.15,0,0,1-3.017,2.051,13.351,13.351,0,0,1-4.336.556,13.814,13.814,0,0,1-4.117-.41A5.765,5.765,0,0,1,333.57,696.289Zm2.4-5.976a4.429,4.429,0,0,0,1.391,1.669,4.364,4.364,0,0,0,2.1.381,3.844,3.844,0,0,0,3.252-1.552,10.576,10.576,0,0,0,2.373-6.446q0-2.841-2.7-2.842-2.96,0-4.248,3.428-.147.381-.235.645Z"/>
      <path id="路径_83" data-name="路径 83" d="M367.5,677.422a11.345,11.345,0,0,1,5.068-1.67,6.777,6.777,0,0,1,4.615,1.567,5.065,5.065,0,0,1,1.8,4,8.531,8.531,0,0,1-.7,3.194l-3.076,7.676h3.369q3.691,0,3.692,2.607a3.3,3.3,0,0,1-1.3,2.783,5.89,5.89,0,0,1-3.647,1h-5.889a4.735,4.735,0,0,1-3.15-1.069A3.3,3.3,0,0,1,367,694.883a7.48,7.48,0,0,1,.674-2.7l2.7-6.622a5.776,5.776,0,0,0,.5-1.9q0-1.669-2.226-1.67-2.99,0-5.039,5.1l-3.282,8.056q-1.553,3.839-4.6,3.838a2.968,2.968,0,0,1-2.051-.761,2.392,2.392,0,0,1-.85-1.846,5.409,5.409,0,0,1,.44-1.934l.322-.791,12.744-31.435q1.67-4.044,4.571-4.043a2.924,2.924,0,0,1,2.065.8,2.57,2.57,0,0,1,.864,1.949,8.185,8.185,0,0,1-.762,2.783Z"/>
      <path id="路径_84" data-name="路径 84" d="M390.406,689.99q0,2.2,3.311,2.2h8.7q3.691,0,3.691,2.607a3.3,3.3,0,0,1-1.3,2.783,5.891,5.891,0,0,1-3.648,1h-8.291q-4.629,0-7.046-2.285t-2.417-6.68a13.818,13.818,0,0,1,3.824-9.755,12.019,12.019,0,0,1,9.1-4.1,9.118,9.118,0,0,1,6.167,2.007,6.638,6.638,0,0,1,2.329,5.288,6.339,6.339,0,0,1-3.222,5.859,10.461,10.461,0,0,1-5.332,1.084Zm1.406-5.332h3.223q3.135,0,3.047-1.377-.088-1.553-2.021-1.552Q393.366,681.729,391.812,684.658Z"/>
      <path id="路径_85" data-name="路径 85" d="M414.547,682.578l-1,2.461q-1.348,3.282-3.516,3.281a3.158,3.158,0,0,1-2.2-.791,2.533,2.533,0,0,1-.879-1.963,7.354,7.354,0,0,1,.645-2.285l3.31-8.174q1.2-2.958,3.4-2.959a2.471,2.471,0,0,1,2.667,2.051l.234.908a1.262,1.262,0,0,0,.527.879,4.991,4.991,0,0,0,1.729.176h6.855q3.838,0,3.838,2.7,0,3.722-4.863,3.721l-.322.293q-4.659,4.454-4.659,6.885t2.7,2.432H426.7q3.722,0,3.721,2.578a3.333,3.333,0,0,1-1.3,2.812,5.89,5.89,0,0,1-3.647,1h-5.743a6.218,6.218,0,0,1-4.79-2.021,7.441,7.441,0,0,1-1.86-5.244,8.6,8.6,0,0,1,1-3.985,24.5,24.5,0,0,1,3.516-4.746Z"/>
      <path id="路径_86" data-name="路径 86" d="M451.842,692.188h3.34q3.72,0,3.72,2.607a3.288,3.288,0,0,1-1.318,2.783,5.9,5.9,0,0,1-3.633,1H450a3.558,3.558,0,0,1-3.34-1.875,5.627,5.627,0,0,1-4.013,1.875h-3.721a6.566,6.566,0,0,1-5.2-2.226,8.666,8.666,0,0,1-1.949-5.918,15.245,15.245,0,0,1,3.853-10.166q3.852-4.512,8.657-4.512a6.963,6.963,0,0,1,5.654,2.549l6.534-16.026q1.67-4.1,4.658-4.1a3.051,3.051,0,0,1,2.139.8,2.58,2.58,0,0,1,.878,1.978,5.791,5.791,0,0,1-.439,2.051l-.352.791Zm-10.723.146h1.113a2.575,2.575,0,0,0,2.666-1.611l2.2-5.42a4.442,4.442,0,0,0,.41-1.524,1.871,1.871,0,0,0-.747-1.494,2.83,2.83,0,0,0-1.861-.615q-2.285,0-4.262,2.549a8.8,8.8,0,0,0-1.978,5.508Q438.658,692.334,441.119,692.334Z"/>
      <path id="路径_87" data-name="路径 87" d="M469.83,684.16l-.557,1.348q-1.289,2.9-3.662,2.9a3.178,3.178,0,0,1-2.153-.835,2.494,2.494,0,0,1-.952-1.919,6.591,6.591,0,0,1,.849-2.724l3.9-7.91q1.436-2.843,3.574-2.842a2.815,2.815,0,0,1,1.963.747,2.32,2.32,0,0,1,.82,1.772,7.7,7.7,0,0,1-.175,1.143,6.4,6.4,0,0,0-.118,1.142,6.531,6.531,0,0,0,1.377,3.78l1.67,2.314a11.82,11.82,0,0,1,2.549,6.856,7.954,7.954,0,0,1-2.754,6.167,9.875,9.875,0,0,1-6.855,2.475H463.18q-3.721,0-3.721-2.578a3.329,3.329,0,0,1,1.318-2.8,5.839,5.839,0,0,1,3.633-1.01h3.4q4.071,0,4.072-2.959a5.707,5.707,0,0,0-.762-2.549Z"/>
    </g>
    <g id="组_72" data-name="组 72" transform="translate(662.14 -589.174)">
      <path id="路径_88" data-name="路径 88" d="M487.178,698.016a2,2,0,0,1-1.505-3.317c3.582-4.1,5.764-7.161,5.785-7.191a2,2,0,1,1,3.262,2.316c-.093.131-2.322,3.257-6.035,7.508A2,2,0,0,1,487.178,698.016Z"/>
      <g id="组_70" data-name="组 70">
        <path id="路径_89" data-name="路径 89" d="M492.739,687.924s2.961-1.16,3.582-8.017a8.868,8.868,0,0,0-4.966-8.916,10.806,10.806,0,0,0-4.042,6.816C486.426,685.723,492.739,687.924,492.739,687.924Z"/>
        <path id="路径_90" data-name="路径 90" d="M492.738,689.424a1.5,1.5,0,0,1-.494-.084c-2.573-.9-7.228-4.5-6.422-11.7a12.291,12.291,0,0,1,4.652-7.862,1.5,1.5,0,0,1,1.477-.163,10.351,10.351,0,0,1,5.864,10.428c-.686,7.561-4.138,9.124-4.53,9.277A1.476,1.476,0,0,1,492.738,689.424Zm-1.2-16.609a8.908,8.908,0,0,0-2.74,5.159c-.588,5.258,2.391,7.491,3.768,8.231.664-.651,1.888-2.374,2.256-6.434A7.271,7.271,0,0,0,491.543,672.815Z"/>
      </g>
      <g id="组_71" data-name="组 71">
        <path id="路径_91" data-name="路径 91" d="M494.355,691s1.16,2.961,8.017,3.582a8.866,8.866,0,0,0,8.915-4.965,10.805,10.805,0,0,0-6.815-4.043C496.556,684.688,494.355,691,494.355,691Z"/>
        <path id="路径_92" data-name="路径 92" d="M503.3,696.125c-.346,0-.7-.016-1.065-.049-7.561-.685-9.125-4.138-9.278-4.529a1.5,1.5,0,0,1-.02-1.041c.9-2.574,4.5-7.234,11.7-6.422a12.284,12.284,0,0,1,7.861,4.651,1.5,1.5,0,0,1,.163,1.479A10.341,10.341,0,0,1,503.3,696.125Zm-7.22-5.284c.655.665,2.382,1.881,6.427,2.247a7.25,7.25,0,0,0,6.955-3.284,8.916,8.916,0,0,0-5.158-2.74C499.1,686.48,496.841,689.462,496.081,690.841Zm-1.727.159h0Z"/>
      </g>
    </g>
    <g id="组_75" data-name="组 75" transform="translate(662.14 -589.174)">
      <path id="路径_93" data-name="路径 93" d="M109.47,699.016a2,2,0,0,1-1.507-.684c-3.714-4.251-5.942-7.377-6.035-7.508a2,2,0,0,1,3.261-2.316c.022.03,2.215,3.1,5.786,7.191a2,2,0,0,1-1.5,3.317Z"/>
      <g id="组_73" data-name="组 73">
        <path id="路径_94" data-name="路径 94" d="M103.909,688.924s-2.961-1.16-3.582-8.017a8.868,8.868,0,0,1,4.965-8.916,10.809,10.809,0,0,1,4.043,6.816C110.221,686.723,103.909,688.924,103.909,688.924Z"/>
        <path id="路径_95" data-name="路径 95" d="M103.909,690.424a1.476,1.476,0,0,1-.547-.1c-.391-.153-3.844-1.716-4.529-9.277a10.352,10.352,0,0,1,5.863-10.428,1.5,1.5,0,0,1,1.479.163,12.3,12.3,0,0,1,4.651,7.862c.806,7.2-3.849,10.8-6.423,11.7A1.5,1.5,0,0,1,103.909,690.424Zm1.2-16.611a7.271,7.271,0,0,0-3.289,6.958c.367,4.044,1.583,5.77,2.249,6.426,1.378-.759,4.357-3.027,3.775-8.223A8.818,8.818,0,0,0,105.109,673.813Z"/>
      </g>
      <g id="组_74" data-name="组 74">
        <path id="路径_96" data-name="路径 96" d="M102.293,692s-1.16,2.961-8.017,3.582a8.868,8.868,0,0,1-8.916-4.965,10.809,10.809,0,0,1,6.816-4.043C100.092,685.688,102.293,692,102.293,692Z"/>
        <path id="路径_97" data-name="路径 97" d="M93.348,697.125a10.341,10.341,0,0,1-9.364-5.911,1.5,1.5,0,0,1,.163-1.479,12.292,12.292,0,0,1,7.862-4.651c7.207-.814,10.8,3.849,11.7,6.422a1.5,1.5,0,0,1-.02,1.041c-.153.391-1.715,3.844-9.277,4.529Q93.866,697.126,93.348,697.125ZM87.182,690.8a7.257,7.257,0,0,0,6.959,3.288c4.044-.366,5.77-1.582,6.426-2.247-.76-1.379-3.028-4.36-8.224-3.777A8.827,8.827,0,0,0,87.182,690.8Z"/>
      </g>
    </g>
  </g>
</svg>
