<svg xmlns="http://www.w3.org/2000/svg" width="160" height="181.022" viewBox="0 0 160 181.022">
  <g id="Group_64" data-name="Group 64" transform="translate(-891 -1098.182)">
    <g id="layers_1_" data-name="layers (1)" transform="translate(904.474 1098.183)">
      <path id="Path_34" data-name="Path 34" d="M135.112,54.465a2.638,2.638,0,0,0-1.4-2.578L108.991,38.928l24.273-7.5a2.639,2.639,0,0,0,.446-4.859L84.558.8A2.64,2.64,0,0,0,82.553.617L1.859,25.556a2.64,2.64,0,0,0-.445,4.86l16.971,8.9q4.019,2.106,8.191,3.79L1.847,50.879a2.639,2.639,0,0,0-.434,4.855l24.72,12.959-24.274,7.5a2.639,2.639,0,0,0-.445,4.859L50.566,106.82a2.642,2.642,0,0,0,2,.184l30.1-9.3a2.639,2.639,0,0,0-1.559-5.043l-29.055,8.98L9.53,79.349l23.233-7.181,17.8,9.333a2.629,2.629,0,0,0,2,.184L89.657,70.222l.025-.007,12.157-3.758,23.755,12.453L101.3,86.417a2.639,2.639,0,1,0,1.558,5.043l30.4-9.4a2.639,2.639,0,0,0,.446-4.859L108.99,64.247l24.274-7.5a2.639,2.639,0,0,0,1.848-2.28ZM108.33,44.541,87.511,65.36,61.191,73.5,89.839,44.847l12-3.709ZM40.06,41.95A30.455,30.455,0,0,0,55.85,33.486,31.513,31.513,0,0,0,68.626,44.036,84.417,84.417,0,0,1,40.06,41.95Zm11.829,7.317L34.2,66.959l-11.04-5.787L37.588,46.742a90.7,90.7,0,0,0,14.3,2.526Zm7.066.4c.538.009,1.075.019,1.612.019A89.889,89.889,0,0,0,79.3,47.713L58.951,68.062a2.646,2.646,0,0,0-.505.711L51.3,75.924l-12.2-6.4ZM9.529,28.71,83.072,5.982l42.522,22.29-24.277,7.5-.007,0L85.724,40.594q-2.9.9-5.827,1.579l-5.537-1.621a26.388,26.388,0,0,1-15.833-12.73,2.639,2.639,0,0,0-4.394-.358,25.329,25.329,0,0,1-20.079,9.791H26.288q-2.757-1.211-5.453-2.619ZM28.988,47.877,18.259,58.6l-8.769-4.6Zm72.33,13.216-.01,0-2.993.925,14.913-14.913,12.366,6.482Zm0,0" transform="translate(0.001 -0.499)" fill="#808f85"/>
      <path id="Path_35" data-name="Path 35" d="M341.119,337.449a2.636,2.636,0,1,0,1.868.773A2.66,2.66,0,0,0,341.119,337.449Zm0,0" transform="translate(-276.097 -248.523)" fill="#808f85"/>
    </g>
    <text id="UI_Design" data-name="UI Design" transform="translate(971 1270.204)" fill="#808f85" font-size="40" font-family="GillSansMT, Gill Sans MT"><tspan x="-79.912" y="0">UI Design</tspan></text>
  </g>
</svg>
