<svg xmlns="http://www.w3.org/2000/svg" width="357" height="357" viewBox="0 0 357 357">
  <g id="组_132" data-name="组 132" transform="translate(1797 -4093)">
    <circle id="椭圆_5" data-name="椭圆 5" cx="178.5" cy="178.5" r="178.5" transform="translate(-1797 4093)" fill="#fff"/>
    <g id="组_87" data-name="组 87" transform="translate(-1733.222 4151.563)">
      <g id="组_78" data-name="组 78" transform="translate(35.454 145.023)">
        <circle id="椭圆_6" data-name="椭圆 6" cx="28.364" cy="28.364" r="28.364" fill="#ea5f3e" opacity="0.33"/>
        <circle id="椭圆_7" data-name="椭圆 7" cx="28.364" cy="28.364" r="28.364" transform="translate(103.451)" fill="#ea5f3e" opacity="0.33"/>
      </g>
      <path id="路径_108" data-name="路径 108" d="M228.244,392.34c-18.226,17.892-44.939,27.783-72.494,27.783-31.344,0-61.036-12.1-78.12-35.628" transform="translate(-40.63 -196.019)" fill="none" stroke="#231815" stroke-linecap="round" stroke-linejoin="round" stroke-width="10"/>
      <g id="组_81" data-name="组 81" transform="translate(0 0)">
        <path id="路径_101" data-name="路径 101" d="M76.472,345.925" transform="translate(-44.833 -244.598)" fill="none" stroke="#231815" stroke-linecap="round" stroke-linejoin="round" stroke-width="2"/>
        <g id="组_79" data-name="组 79">
          <path id="路径_102" data-name="路径 102" d="M98.939,399.1c11.52-6.324,41.913-15.122,77.763-15.122,32.525,0,60.447,8.627,74.335,13.83a17.361,17.361,0,0,1,11.074,13.857c1.077,7.6,2.388,19.408,3.021,35,1.178,29.085-17.295,49.129-24.369,58.561s-23.776,23.189-18.47,29.869c7.728,9.734,25.938-7.074,25.938-7.074s-3.536,7.074,4.325,7.074,40.088-18.079,36.156-76.638-12.083-77.5-12.083-77.5a102.9,102.9,0,0,0-199.577-1.114s.352-1.333-1.061,4.229c-1.9,7.456-8.961,28.806-12.021,74.38-3.929,58.558,28.3,76.638,36.159,76.638s4.323-7.074,4.323-7.074,18.212,16.808,25.94,7.074c5.306-6.681-11.4-20.437-18.473-29.869s-25.547-29.476-24.367-58.561c.631-15.584,1.942-27.39,3.019-34.99a17.46,17.46,0,0,1,5.894-10.8S98.272,399.463,98.939,399.1Z" transform="translate(-61.349 -300.334)" fill="#2a2827"/>
          <path id="路径_103" data-name="路径 103" d="M230.02,541.7c-.313,0-.624-.011-.933-.037a9.952,9.952,0,0,1-7.3-3.861c-5.1-6.417,3.3-15.632,11.426-24.545,2.662-2.923,5.178-5.681,7.008-8.119.739-.986,1.6-2.086,2.55-3.3,7.824-9.981,22.384-28.559,21.361-53.8-.64-15.785-1.985-27.621-3-34.77a15.086,15.086,0,0,0-9.61-12.039c-13.64-5.109-41.332-13.684-73.532-13.684-36.154,0-66.211,9.1-76.663,14.841-.3.167-1.368.947-2.17,1.571a15.119,15.119,0,0,0-5.032,9.318c-1.018,7.156-2.36,19-3,34.764-1.022,25.238,13.537,43.816,21.361,53.8.949,1.212,1.811,2.312,2.55,3.3,1.83,2.438,4.345,5.2,7.008,8.121,8.124,8.91,16.522,18.127,11.426,24.543a9.952,9.952,0,0,1-7.3,3.861c-6.063.464-13.187-3.849-17.638-7.14a5.469,5.469,0,0,1-.567,1.24c-1.189,1.928-3.394,2.9-6.55,2.9-4.245,0-12.231-3.657-19.742-11.689-9.882-10.569-21.151-30.841-18.7-67.389,2.728-40.669,8.716-62.462,11.271-71.766.327-1.192.6-2.2.814-3.023.638-2.509.913-3.6,1.022-4.039a1.831,1.831,0,0,1,.039-.194,105.192,105.192,0,0,1,203.973.965c.906,2.223,8.432,22.146,12.186,78.058,2.454,36.548-8.814,56.82-18.7,67.389-7.513,8.032-15.5,11.689-19.742,11.689-3.156,0-5.361-.977-6.552-2.9a5.46,5.46,0,0,1-.565-1.24C242.5,537.645,235.886,541.7,230.02,541.7ZM105.749,527.019a2.269,2.269,0,0,1,1.541.6c3.042,2.8,12.309,9.958,18.534,9.478a5.48,5.48,0,0,0,4.064-2.145c2.674-3.367-5.359-12.181-11.225-18.617-2.738-3.005-5.327-5.843-7.287-8.458-.72-.963-1.562-2.036-2.493-3.222-8.185-10.443-23.42-29.881-22.329-56.8.645-15.957,2.01-27.96,3.04-35.221a19.755,19.755,0,0,1,6.667-12.213,30.666,30.666,0,0,1,2.863-2.042h0c11.28-6.193,41.59-15.406,78.863-15.406,32.923,0,61.207,8.757,75.137,13.974a19.659,19.659,0,0,1,12.536,15.68c1.029,7.252,2.395,19.25,3.042,35.228,1.091,26.921-14.143,46.359-22.329,56.8-.931,1.187-1.772,2.26-2.5,3.222-1.958,2.614-4.547,5.45-7.284,8.455-5.866,6.436-13.9,15.25-11.225,18.619a5.475,5.475,0,0,0,4.062,2.145c6.251.485,15.495-6.676,18.534-9.478a2.288,2.288,0,0,1,3.6,2.7c-.416.853-.784,2.39-.382,3.03.288.46,1.281.734,2.66.734,2.225,0,9.164-2.5,16.4-10.239,9.265-9.908,19.818-29.048,17.476-63.958-3.845-57.255-11.824-76.56-11.9-76.75a2.4,2.4,0,0,1-.119-.357,100.619,100.619,0,0,0-195.127-1.148h0l-.007.03-.007.032h0a2.258,2.258,0,0,1-.117.3c-.188.954-.508,2.221-.942,3.922-.215.853-.5,1.884-.835,3.108-2.52,9.174-8.421,30.654-11.12,70.863-2.344,34.91,8.211,54.05,17.476,63.958,7.234,7.737,14.173,10.239,16.4,10.239,1.377,0,2.372-.275,2.658-.734.4-.64.034-2.177-.387-3.042a2.293,2.293,0,0,1,2.061-3.3Z" transform="translate(-62.638 -301.621)" fill="#231815"/>
        </g>
        <g id="组_80" data-name="组 80" transform="translate(27.186 42.64)">
          <path id="路径_104" data-name="路径 104" d="M126.668,364.753a2.289,2.289,0,0,1-1.985-3.417c.071-.13,3.673-6.786,2.71-18.642a128.247,128.247,0,0,0-2.937-19.566,2.287,2.287,0,1,1,4.428-1.148,130.118,130.118,0,0,1,3.067,20.344c1.093,13.443-3.115,20.966-3.3,21.279A2.285,2.285,0,0,1,126.668,364.753Z" transform="translate(-10.353 -320.264)" fill="#1b0f0f"/>
          <path id="路径_105" data-name="路径 105" d="M106.126,364.749a2.277,2.277,0,0,1-1.981-1.146c-.178-.313-4.387-7.836-3.3-21.279a130.45,130.45,0,0,1,3.067-20.344,2.287,2.287,0,0,1,4.428,1.148,128.967,128.967,0,0,0-2.937,19.566c-.967,11.916,2.676,18.578,2.712,18.644a2.29,2.29,0,0,1-1.994,3.41Z" transform="translate(-40.875 -320.265)" fill="#1b0f0f"/>
          <path id="路径_106" data-name="路径 106" d="M155.365,368.019a2.293,2.293,0,0,1-2.273-2.049,83.936,83.936,0,0,0-2.351-11.143c-1.695-6.4-4.416-15.264-4.444-15.351a2.287,2.287,0,0,1,4.373-1.345c.027.089,2.777,9.039,4.492,15.525a86.827,86.827,0,0,1,2.481,11.842,2.286,2.286,0,0,1-2.038,2.507A2.149,2.149,0,0,1,155.365,368.019Z" transform="translate(17.721 -299.35)" fill="#1b0f0f"/>
          <path id="路径_107" data-name="路径 107" d="M76.815,368.019a2.15,2.15,0,0,1-.24-.014,2.288,2.288,0,0,1-2.038-2.507,86.594,86.594,0,0,1,2.479-11.842c1.718-6.486,4.464-15.436,4.492-15.525a2.287,2.287,0,0,1,4.373,1.345c-.027.087-2.749,8.954-4.442,15.351a83.952,83.952,0,0,0-2.351,11.143A2.293,2.293,0,0,1,76.815,368.019Z" transform="translate(-74.525 -299.35)" fill="#1b0f0f"/>
        </g>
      </g>
      <g id="组_82" data-name="组 82" transform="translate(147.222 104.645)">
        <path id="路径_109" data-name="路径 109" d="M127.009,354.58s7.589-8.913,19.31-6.912c20.8,3.552,24.572,19.918,24.572,19.918" transform="translate(-127.009 -347.376)" fill="none" stroke="#231815" stroke-linecap="round" stroke-linejoin="round" stroke-width="10"/>
        <ellipse id="椭圆_8" data-name="椭圆 8" cx="16.114" cy="17.169" rx="16.114" ry="17.169" transform="translate(0.81 5.284)" fill="#231815" stroke="#231815" stroke-linecap="round" stroke-linejoin="round" stroke-width="10"/>
        <circle id="椭圆_9" data-name="椭圆 9" cx="5.575" cy="5.575" r="5.575" transform="translate(9.337 7.203)" fill="#fff"/>
      </g>
      <g id="组_83" data-name="组 83" transform="translate(39.729 104.645)">
        <path id="路径_110" data-name="路径 110" d="M123.891,354.58s-7.589-8.913-19.31-6.912c-20.8,3.552-24.572,19.918-24.572,19.918" transform="translate(-80.009 -347.376)" fill="none" stroke="#231815" stroke-linecap="round" stroke-linejoin="round" stroke-width="10"/>
        <ellipse id="椭圆_10" data-name="椭圆 10" cx="16.114" cy="17.169" rx="16.114" ry="17.169" transform="translate(10.844 5.284)" fill="#231815" stroke="#231815" stroke-linecap="round" stroke-linejoin="round" stroke-width="10"/>
        <circle id="椭圆_11" data-name="椭圆 11" cx="5.575" cy="5.575" r="5.575" transform="translate(23.396 7.203)" fill="#fff"/>
      </g>
      <g id="组_84" data-name="组 84" transform="translate(26.905 91.352)">
        <circle id="椭圆_12" data-name="椭圆 12" cx="36.221" cy="36.221" r="36.221" stroke-width="10" stroke="#000" stroke-linecap="round" stroke-linejoin="round" fill="none"/>
        <circle id="椭圆_13" data-name="椭圆 13" cx="36.221" cy="36.221" r="36.221" transform="translate(106.038)" stroke-width="10" stroke="#000" stroke-linecap="round" stroke-linejoin="round" fill="none"/>
        <path id="路径_111" data-name="路径 111" d="M106.076,358.748l4.977-1.1a54.746,54.746,0,0,1,23.644,0l4.977,1.1" transform="translate(-33.634 -322.527)" fill="none" stroke="#000" stroke-linecap="round" stroke-linejoin="round" stroke-width="10"/>
      </g>
      <g id="组_85" data-name="组 85" transform="translate(98.074 156.649)">
        <path id="路径_112" data-name="路径 112" d="M105.52,376.31a24.521,24.521,0,0,0,9.983-2.118c5.4-2.349,6.527-4.078,6.527-4.078" transform="translate(-105.52 -370.114)" fill="none" stroke="#000" stroke-linecap="round" stroke-linejoin="round" stroke-width="8"/>
        <path id="路径_113" data-name="路径 113" d="M129.685,376.006a24.5,24.5,0,0,1-10.029-1.885c-5.459-2.225-6.621-3.927-6.621-3.927" transform="translate(-95.848 -370.01)" fill="none" stroke="#000" stroke-linecap="round" stroke-linejoin="round" stroke-width="8"/>
      </g>
      <g id="组_86" data-name="组 86" transform="translate(64.316 69.712)" opacity="0.7">
        <ellipse id="椭圆_14" data-name="椭圆 14" cx="9.063" cy="6.66" rx="9.063" ry="6.66" transform="translate(0 3.749) rotate(-11.936)" fill="#1a0e0e" stroke="#1b0f0f" stroke-linecap="round" stroke-linejoin="round" stroke-width="2"/>
        <ellipse id="椭圆_15" data-name="椭圆 15" cx="6.66" cy="9.063" rx="6.66" ry="9.063" transform="translate(86.909 13.032) rotate(-78.064)" fill="#1a0e0e" stroke="#1b0f0f" stroke-linecap="round" stroke-linejoin="round" stroke-width="2"/>
      </g>
    </g>
  </g>
</svg>
