<svg xmlns="http://www.w3.org/2000/svg" width="90" height="90" viewBox="0 0 90 90">
  <g id="组_191" data-name="组 191" transform="translate(-0.079 -0.052)">
    <circle id="椭圆_2" data-name="椭圆 2" cx="45" cy="45" r="45" transform="translate(0.079 0.052)" fill="#fff"/>
    <g id="组_128" data-name="组 128" transform="translate(12.47 12.924)">
      <path id="路径_132" data-name="路径 132" d="M-57.658,796.7a5.377,5.377,0,0,1-1.449-.2.768.768,0,0,1-.533-.947.769.769,0,0,1,.946-.533,4.09,4.09,0,0,0,3.625-.809,9.8,9.8,0,0,0,3.359-7.438c0-4.532-2.492-8.219-5.554-8.219q-.139,0-.275.01a.766.766,0,0,1-.821-.712.767.767,0,0,1,.711-.82q.191-.014.385-.014c3.91,0,7.09,4.376,7.09,9.756a11.265,11.265,0,0,1-3.967,8.662A5.782,5.782,0,0,1-57.658,796.7Z" transform="translate(114.362 -748.417)" fill="#231815"/>
      <path id="路径_133" data-name="路径 133" d="M-230.184,796.7a5.78,5.78,0,0,1-3.517-1.267,11.264,11.264,0,0,1-3.967-8.662c0-5.379,3.181-9.756,7.09-9.756.129,0,.257,0,.384.014a.768.768,0,0,1,.712.82.762.762,0,0,1-.821.712q-.137-.01-.275-.01c-3.063,0-5.554,3.687-5.554,8.219a9.8,9.8,0,0,0,3.359,7.438,4.09,4.09,0,0,0,3.625.809.769.769,0,0,1,.946.533.769.769,0,0,1-.533.947A5.377,5.377,0,0,1-230.184,796.7Z" transform="translate(237.668 -748.417)" fill="#231815"/>
      <path id="路径_134" data-name="路径 134" d="M-51.833,812.871a.765.765,0,0,1-.5-.189l-2.3-2a.768.768,0,0,1-.075-1.084.768.768,0,0,1,1.084-.074l2.3,2a.768.768,0,0,1,.075,1.084A.766.766,0,0,1-51.833,812.871Z" transform="translate(111.058 -770.803)" fill="#231815"/>
      <path id="路径_135" data-name="路径 135" d="M-224.131,812.87a.765.765,0,0,1-.58-.264.768.768,0,0,1,.075-1.084l2.3-2a.768.768,0,0,1,1.084.074.769.769,0,0,1-.075,1.084l-2.3,2A.764.764,0,0,1-224.131,812.87Z" transform="translate(228.823 -770.803)" fill="#231815"/>
      <circle id="椭圆_25" data-name="椭圆 25" cx="1.938" cy="1.938" r="1.938" transform="translate(18.247 27.831)" fill="#231815"/>
      <circle id="椭圆_26" data-name="椭圆 26" cx="1.357" cy="1.357" r="1.357" transform="translate(13.742 29.381)" fill="#231815"/>
      <g id="组_126" data-name="组 126" transform="translate(10.57 40.324)">
        <circle id="椭圆_27" data-name="椭圆 27" cx="7.623" cy="7.623" r="7.623" fill="#ea5f3e" opacity="0.33"/>
        <circle id="椭圆_28" data-name="椭圆 28" cx="7.623" cy="7.623" r="7.623" transform="translate(27.805)" fill="#ea5f3e" opacity="0.33"/>
      </g>
      <path id="路径_136" data-name="路径 136" d="M-192.371,774.366A25.891,25.891,0,0,1-218.233,748.5a25.89,25.89,0,0,1,25.862-25.862A25.89,25.89,0,0,1-166.51,748.5,25.891,25.891,0,0,1-192.371,774.366Zm0-50.187A24.353,24.353,0,0,0-216.7,748.5a24.353,24.353,0,0,0,24.325,24.325A24.352,24.352,0,0,0-168.047,748.5,24.353,24.353,0,0,0-192.371,724.179Z" transform="translate(224.205 -710.751)" fill="#231815"/>
      <g id="组_127" data-name="组 127" transform="translate(0 0)">
        <path id="路径_137" data-name="路径 137" d="M-216.631,706.182c1.589-1.536,4.661-2.868,5.085,0s.741,8.808,3.6,11.266,6.991,4.2,9.639,4.1,0-4.4,0-4.4,4.555,3.482,9.428,3.585,5.588.154,7.733-.614,2.7-2.228,2.383-2.919a12.852,12.852,0,0,0,2.3,2.535,11.627,11.627,0,0,0,2.82,1.383s3.221-9.295-1.258-18.205-9.11-10.754-11.334-12.291-4.873-2.458-7.309-1.434-1.314.2-1.314.2a21.517,21.517,0,0,0-13.834-2.765c-8.262,1.024-9.322,5.531-9.322,5.531a9.386,9.386,0,0,0-6.461.819c-3.072,1.741-10.7,11.574-10.7,20.894s2.118,9.833,3.284,10.754,2.834-.666,2.834-.666a20.992,20.992,0,0,0,1.827,1.306c.874.538,3.575-.077,1.827-2.228s-3.337-5.838-.079-12.444,4.952-5.784,6.038-5.531A20.729,20.729,0,0,1-216.631,706.182Z" transform="translate(235.936 -685.675)" fill="#2a2827"/>
        <path id="路径_138" data-name="路径 138" d="M-228.154,724.472a2.347,2.347,0,0,1-1.2-.295c-.512-.315-1.042-.7-1.413-.979a2.741,2.741,0,0,1-3.322.287c-.1-.079-.208-.154-.32-.234-1.715-1.206-3.255-2.965-3.255-11.123,0-9.506,7.7-19.643,11.088-21.562a9.964,9.964,0,0,1,6.357-1.032c.674-1.426,2.909-4.569,9.71-5.412a22.224,22.224,0,0,1,14.322,2.867c.164-.063.369-.145.623-.252,2.381-1,5.163-.479,8.043,1.51.3.2.643.418,1.043.665,2.467,1.52,6.6,4.064,10.541,11.913,4.572,9.1,1.433,18.41,1.3,18.8a.769.769,0,0,1-.942.486,12.365,12.365,0,0,1-3.028-1.479,7.221,7.221,0,0,1-1.476-1.369,4.791,4.791,0,0,1-2.528,1.836c-2.189.784-2.987.767-7.416.672l-.592-.013a17.181,17.181,0,0,1-7.659-2.326,3.05,3.05,0,0,1-.038,2.208,1.839,1.839,0,0,1-1.684.937c-2.876.107-7.154-1.69-10.17-4.282-2.683-2.306-3.285-7.165-3.684-10.381-.062-.5-.119-.958-.177-1.356-.122-.826-.468-.943-.582-.982-.708-.242-2.148.4-3.209,1.422a.769.769,0,0,1-.867.141,19.208,19.208,0,0,0-2.649-1.071l-.183-.045c-.813-.2-2.174-.548-4.992,5.167-2.4,4.873-2.407,8.674-.013,11.62,1.238,1.524.639,2.525.323,2.885A2.614,2.614,0,0,1-228.154,724.472Zm-2.627-3.022a.766.766,0,0,1,.481.169,20.325,20.325,0,0,0,1.748,1.25,1.291,1.291,0,0,0,1.189-.186c.143-.163-.1-.589-.36-.9-2.812-3.46-2.868-7.8-.172-13.268,3.107-6.3,5.035-6.409,6.745-5.978l.155.038a16.727,16.727,0,0,1,2.5.964c1.254-1.05,3.028-1.871,4.372-1.414a2.476,2.476,0,0,1,1.607,2.212c.06.408.119.879.182,1.392.369,2.981.927,7.485,3.16,9.4,2.706,2.326,6.622,4.007,9.109,3.912.122-.005.336-.027.388-.126.246-.459-.336-2.007-1.013-3.109a.769.769,0,0,1,.14-.972.769.769,0,0,1,.981-.041c.044.034,4.422,3.332,8.978,3.428l.593.013c4.285.091,4.944.105,6.865-.583a2.948,2.948,0,0,0,1.88-1.456.632.632,0,0,0,.064-.419.784.784,0,0,1,.273-1.124c.235-.13.693-.25,1.117.4a8.42,8.42,0,0,0,2.035,2.3,11.813,11.813,0,0,0,1.891,1.016c.621-2.347,2.118-9.779-1.439-16.853-3.75-7.46-7.5-9.767-9.974-11.295-.4-.247-.78-.481-1.111-.709-1.692-1.169-4.206-2.354-6.575-1.358-1.278.537-2.122.893-2.535.162a.806.806,0,0,1-.108-.383,21.457,21.457,0,0,0-12.708-2.285c-7.643.948-8.659,4.9-8.669,4.944a.768.768,0,0,1-.355.484.768.768,0,0,1-.595.081,8.682,8.682,0,0,0-5.881.746c-3.06,1.735-10.309,11.426-10.309,20.226,0,8.036,1.566,9.138,2.6,9.867.138.1.268.189.39.285.527.418,1.577-.384,1.829-.622A.771.771,0,0,1-230.782,721.45Z" transform="translate(237.668 -683.94)" fill="#231815"/>
      </g>
      <path id="路径_141" data-name="路径 141" d="M-143.134,820.941c-2.661,0-3.749-1.125-3.864-1.253a.614.614,0,0,1,.046-.868.615.615,0,0,1,.862.039,4.156,4.156,0,0,0,2.957.852c2.216,0,2.918-.807,2.925-.816a.606.606,0,0,1,.855-.117.621.621,0,0,1,.119.866C-139.334,819.778-140.285,820.941-143.134,820.941Z" transform="translate(174.967 -777.261)" fill="#231815"/>
      <g id="组_133" data-name="组 133" transform="translate(13.782 38.004)">
        <path id="路径_142" data-name="路径 142" d="M111.013,195.183a6.836,6.836,0,0,0,4.7,1.493,6.669,6.669,0,0,0,4.657-1.493" transform="translate(-111.013 -195.183)" fill="none" stroke="#231815" stroke-linecap="round" stroke-width="3"/>
        <path id="路径_143" data-name="路径 143" d="M111.013,195.183a6.836,6.836,0,0,0,4.7,1.493,6.669,6.669,0,0,0,4.657-1.493" transform="translate(-83.956 -195.183)" fill="none" stroke="#231815" stroke-linecap="round" stroke-width="3"/>
      </g>
    </g>
  </g>
</svg>
