<svg xmlns="http://www.w3.org/2000/svg" width="81" height="80" viewBox="0 0 81 80">
  <g id="组_175" data-name="组 175" transform="translate(-0.204 0.236)">
    <ellipse id="椭圆_2" data-name="椭圆 2" cx="40.5" cy="40" rx="40.5" ry="40" transform="translate(0.204 -0.236)" fill="#fff"/>
    <g id="组_128" data-name="组 128" transform="translate(11.217 11.983)">
      <path id="路径_132" data-name="路径 132" d="M-57.857,794.754a4.844,4.844,0,0,1-1.306-.182.692.692,0,0,1-.48-.853.693.693,0,0,1,.853-.481,3.685,3.685,0,0,0,3.266-.729,8.833,8.833,0,0,0,3.027-6.7c0-4.084-2.245-7.407-5-7.407q-.125,0-.248.009a.691.691,0,0,1-.74-.641.691.691,0,0,1,.641-.739q.172-.013.347-.013c3.523,0,6.389,3.944,6.389,8.791a10.151,10.151,0,0,1-3.575,7.805A5.211,5.211,0,0,1-57.857,794.754Z" transform="translate(108.953 -751.245)" fill="#231815"/>
      <path id="路径_133" data-name="路径 133" d="M-230.924,794.754a5.209,5.209,0,0,1-3.169-1.142,10.15,10.15,0,0,1-3.574-7.805c0-4.847,2.866-8.791,6.389-8.791.116,0,.232,0,.346.013a.692.692,0,0,1,.641.739.687.687,0,0,1-.74.641q-.123-.009-.248-.009c-2.76,0-5,3.323-5,7.407a8.833,8.833,0,0,0,3.027,6.7,3.685,3.685,0,0,0,3.266.729.693.693,0,0,1,.853.481.693.693,0,0,1-.481.853A4.844,4.844,0,0,1-230.924,794.754Z" transform="translate(237.668 -751.245)" fill="#231815"/>
      <path id="路径_134" data-name="路径 134" d="M-52.136,812.521a.689.689,0,0,1-.455-.171l-2.071-1.8a.692.692,0,0,1-.067-.977.692.692,0,0,1,.977-.067l2.072,1.8a.692.692,0,0,1,.067.977A.691.691,0,0,1-52.136,812.521Z" transform="translate(105.505 -774.613)" fill="#231815"/>
      <path id="路径_135" data-name="路径 135" d="M-224.208,812.52a.689.689,0,0,1-.522-.238.692.692,0,0,1,.067-.976l2.071-1.8a.692.692,0,0,1,.977.067.693.693,0,0,1-.067.977l-2.072,1.8A.688.688,0,0,1-224.208,812.52Z" transform="translate(228.435 -774.613)" fill="#231815"/>
      <circle id="椭圆_25" data-name="椭圆 25" cx="1.746" cy="1.746" r="1.746" transform="translate(16.443 25.079)" fill="#231815"/>
      <circle id="椭圆_26" data-name="椭圆 26" cx="1.222" cy="1.222" r="1.222" transform="translate(12.383 26.476)" fill="#231815"/>
      <g id="组_126" data-name="组 126" transform="translate(9.525 36.337)">
        <circle id="椭圆_27" data-name="椭圆 27" cx="6.87" cy="6.87" r="6.87" fill="#ea5f3e" opacity="0.33"/>
        <circle id="椭圆_28" data-name="椭圆 28" cx="6.87" cy="6.87" r="6.87" transform="translate(25.055)" fill="#ea5f3e" opacity="0.33"/>
      </g>
      <path id="路径_136" data-name="路径 136" d="M-194.929,769.251a23.33,23.33,0,0,1-23.3-23.3,23.33,23.33,0,0,1,23.3-23.3,23.33,23.33,0,0,1,23.3,23.3A23.33,23.33,0,0,1-194.929,769.251Zm0-45.224a21.945,21.945,0,0,0-21.92,21.92,21.945,21.945,0,0,0,21.92,21.92,21.944,21.944,0,0,0,21.919-21.92A21.945,21.945,0,0,0-194.929,724.028Z" transform="translate(223.614 -711.927)" fill="#231815"/>
      <g id="组_127" data-name="组 127" transform="translate(0 0)">
        <path id="路径_137" data-name="路径 137" d="M-218.464,704.23c1.432-1.384,4.2-2.584,4.582,0s.668,7.937,3.245,10.152,6.3,3.784,8.686,3.692,0-3.969,0-3.969,4.1,3.138,8.5,3.23,5.035.138,6.968-.554,2.434-2.007,2.148-2.63a11.578,11.578,0,0,0,2.076,2.284,10.481,10.481,0,0,0,2.541,1.246s2.9-8.376-1.134-16.405-8.209-9.691-10.214-11.075-4.391-2.215-6.586-1.292-1.184.185-1.184.185A19.388,19.388,0,0,0-211.3,686.6c-7.445.923-8.4,4.984-8.4,4.984a8.457,8.457,0,0,0-5.822.738c-2.768,1.569-9.641,10.429-9.641,18.828s1.909,8.86,2.959,9.691,2.553-.6,2.553-.6a18.924,18.924,0,0,0,1.647,1.177c.787.485,3.222-.069,1.646-2.007s-3.007-5.261-.071-11.214,4.462-5.212,5.441-4.984A18.674,18.674,0,0,1-218.464,704.23Z" transform="translate(235.86 -685.751)" fill="#2a2827"/>
        <path id="路径_138" data-name="路径 138" d="M-229.095,720.464a2.114,2.114,0,0,1-1.085-.266c-.461-.284-.939-.63-1.273-.882a2.47,2.47,0,0,1-2.994.259c-.09-.071-.187-.139-.289-.21-1.546-1.087-2.933-2.672-2.933-10.023,0-8.566,6.94-17.7,9.991-19.43a8.978,8.978,0,0,1,5.728-.93c.607-1.285,2.621-4.117,8.75-4.877a20.028,20.028,0,0,1,12.905,2.583c.148-.056.332-.13.562-.227,2.146-.9,4.652-.432,7.248,1.361.268.185.579.377.94.6,2.223,1.369,5.943,3.662,9.5,10.735,4.12,8.2,1.291,16.59,1.169,16.943a.693.693,0,0,1-.849.438,11.143,11.143,0,0,1-2.729-1.333,6.505,6.505,0,0,1-1.33-1.234,4.316,4.316,0,0,1-2.278,1.654c-1.972.706-2.691.691-6.682.605l-.534-.011a15.482,15.482,0,0,1-6.9-2.1,2.748,2.748,0,0,1-.035,1.99,1.657,1.657,0,0,1-1.518.845c-2.592.1-6.446-1.523-9.164-3.859-2.418-2.078-2.96-6.456-3.319-9.354-.056-.45-.107-.863-.16-1.222-.11-.744-.422-.85-.524-.885-.638-.218-1.936.357-2.891,1.281a.693.693,0,0,1-.781.127,17.3,17.3,0,0,0-2.387-.965l-.164-.04c-.733-.184-1.959-.494-4.5,4.656-2.165,4.391-2.169,7.817-.012,10.471,1.116,1.373.575,2.275.291,2.6A2.356,2.356,0,0,1-229.095,720.464Zm-2.368-2.723a.69.69,0,0,1,.433.152,18.353,18.353,0,0,0,1.575,1.127,1.163,1.163,0,0,0,1.071-.168c.129-.147-.094-.53-.325-.814-2.534-3.118-2.585-7.029-.155-11.956,2.8-5.679,4.538-5.775,6.078-5.386l.14.035a15.08,15.08,0,0,1,2.251.869c1.13-.946,2.729-1.686,3.94-1.274a2.231,2.231,0,0,1,1.448,1.994c.054.368.107.792.164,1.254.333,2.686.836,6.745,2.848,8.474,2.439,2.1,5.967,3.61,8.208,3.525.11,0,.3-.025.349-.113.221-.414-.3-1.809-.913-2.8a.693.693,0,0,1,.126-.876.692.692,0,0,1,.884-.037c.039.03,3.985,3,8.09,3.089l.534.011c3.862.082,4.455.095,6.186-.525a2.656,2.656,0,0,0,1.694-1.312.57.57,0,0,0,.058-.378.707.707,0,0,1,.246-1.013c.212-.117.625-.225,1.007.362a7.591,7.591,0,0,0,1.834,2.069,10.657,10.657,0,0,0,1.7.915c.559-2.115,1.908-8.812-1.3-15.186-3.379-6.722-6.754-8.8-8.988-10.178-.362-.223-.7-.434-1-.639-1.525-1.053-3.79-2.121-5.924-1.223-1.152.484-1.912.8-2.284.146a.727.727,0,0,1-.1-.345,19.334,19.334,0,0,0-11.452-2.059c-6.887.854-7.8,4.419-7.811,4.455a.693.693,0,0,1-.32.436.692.692,0,0,1-.536.073,7.824,7.824,0,0,0-5.3.673c-2.758,1.563-9.29,10.3-9.29,18.226,0,7.242,1.411,8.234,2.345,8.891.124.087.242.17.351.257.475.377,1.421-.346,1.648-.56A.7.7,0,0,1-231.463,717.741Z" transform="translate(237.668 -683.94)" fill="#231815"/>
      </g>
      <path id="路径_139" data-name="路径 139" d="M-103.115,807.1c-3.766,0-5.347-1.673-5.515-1.864l1.871-1.646-.021-.023c.042.043,1.047,1.042,3.666,1.042,2.725,0,3.6-.962,3.606-.971a.327.327,0,0,0-.031.041l2.012,1.47C-97.675,805.351-99.072,807.1-103.115,807.1Z" transform="translate(144.358 -770.447)" fill="#231815"/>
      <path id="路径_140" data-name="路径 140" d="M-191.8,807.1c-3.766,0-5.347-1.673-5.515-1.864l1.871-1.646-.021-.023c.042.043,1.047,1.042,3.665,1.042,2.725,0,3.6-.962,3.606-.971a.356.356,0,0,0-.032.041l2.012,1.47C-186.365,805.351-187.762,807.1-191.8,807.1Z" transform="translate(208.492 -770.447)" fill="#231815"/>
      <path id="路径_141" data-name="路径 141" d="M-143.532,820.715a4.633,4.633,0,0,1-3.482-1.129.554.554,0,0,1,.041-.782.554.554,0,0,1,.777.036,3.744,3.744,0,0,0,2.664.768c2,0,2.63-.727,2.636-.735a.546.546,0,0,1,.77-.106.559.559,0,0,1,.107.781C-140.107,819.667-140.964,820.715-143.532,820.715Z" transform="translate(172.217 -781.354)" fill="#231815"/>
    </g>
  </g>
</svg>
