<svg xmlns="http://www.w3.org/2000/svg" width="300" height="108" viewBox="0 0 300 108">
  <g id="组_291" data-name="组 291" transform="translate(-10 -381)">
    <rect id="矩形_64" data-name="矩形 64" width="300" height="108" rx="10" transform="translate(10 381)" fill="rgba(255,255,255,0.5)"/>
    <g id="组_276" data-name="组 276">
      <g id="组_90" data-name="组 90" transform="translate(36.047 396.883)">
        <text id="SKILLS" transform="translate(13.109 6)" fill="#808f85" font-size="11" font-family="SegoeUI, Segoe UI" letter-spacing="0.098em"><tspan x="-18.371" y="0">SKILLS</tspan></text>
        <line id="直线_27" data-name="直线 27" x2="37.453" transform="translate(-6 9.444)" fill="none" stroke="#808f85" stroke-linecap="round" stroke-width="1"/>
      </g>
      <g id="组_275" data-name="组 275">
        <text id="GRAPHIC_DESIGN" data-name="GRAPHIC DESIGN" transform="translate(73 466)" fill="#808f85" font-size="6" font-family="SegoeUI-Semilight, Segoe UI" font-weight="300"><tspan x="-22.898" y="0">GRAPHIC DESIGN</tspan></text>
        <g id="组_91" data-name="组 91" transform="translate(117.096 461.453)">
          <g id="椭圆_16" data-name="椭圆 16" transform="translate(-0.096 -0.452)" fill="#b0dab7" stroke="#707070" stroke-width="1">
            <circle cx="3" cy="3" r="3" stroke="none"/>
            <circle cx="3" cy="3" r="2.5" fill="none"/>
          </g>
          <g id="椭圆_16-2" data-name="椭圆 16" transform="translate(9.904 -0.452)" fill="#b0dab7" stroke="#707070" stroke-width="1">
            <circle cx="3" cy="3" r="3" stroke="none"/>
            <circle cx="3" cy="3" r="2.5" fill="none"/>
          </g>
          <g id="椭圆_16-3" data-name="椭圆 16" transform="translate(19.904 -0.452)" fill="#b0dab7" stroke="#707070" stroke-width="1">
            <circle cx="3" cy="3" r="3" stroke="none"/>
            <circle cx="3" cy="3" r="2.5" fill="none"/>
          </g>
          <g id="椭圆_16-4" data-name="椭圆 16" transform="translate(29.904 -0.452)" fill="none" stroke="#707070" stroke-width="1">
            <circle cx="3" cy="3" r="3" stroke="none"/>
            <circle cx="3" cy="3" r="2.5" fill="none"/>
          </g>
          <g id="椭圆_16-5" data-name="椭圆 16" transform="translate(39.904 -0.452)" fill="rgba(255,255,255,0)" stroke="#707070" stroke-width="1">
            <circle cx="3" cy="3" r="3" stroke="none"/>
            <circle cx="3" cy="3" r="2.5" fill="none"/>
          </g>
        </g>
        <text id="WEBSITE_DESIGN" data-name="WEBSITE DESIGN" transform="translate(210 426)" fill="#808f85" font-size="6" font-family="SegoeUI-Semilight, Segoe UI" font-weight="300"><tspan x="-22.166" y="0">WEBSITE DESIGN</tspan></text>
        <g id="组_91-2" data-name="组 91" transform="translate(240.344 421.236)">
          <g id="椭圆_16-6" data-name="椭圆 16" transform="translate(-0.344 -0.236)" fill="#b0dab7" stroke="#707070" stroke-width="1">
            <circle cx="3" cy="3" r="3" stroke="none"/>
            <circle cx="3" cy="3" r="2.5" fill="none"/>
          </g>
          <g id="椭圆_16-7" data-name="椭圆 16" transform="translate(9.656 -0.236)" fill="#b0dab7" stroke="#707070" stroke-width="1">
            <circle cx="3" cy="3" r="3" stroke="none"/>
            <circle cx="3" cy="3" r="2.5" fill="none"/>
          </g>
          <g id="椭圆_16-8" data-name="椭圆 16" transform="translate(19.656 -0.236)" fill="#b0dab7" stroke="#707070" stroke-width="1">
            <circle cx="3" cy="3" r="3" stroke="none"/>
            <circle cx="3" cy="3" r="2.5" fill="none"/>
          </g>
          <g id="椭圆_16-9" data-name="椭圆 16" transform="translate(29.656 -0.236)" fill="#b0dab7" stroke="#707070" stroke-width="1">
            <circle cx="3" cy="3" r="3" stroke="none"/>
            <circle cx="3" cy="3" r="2.5" fill="none"/>
          </g>
          <g id="椭圆_16-10" data-name="椭圆 16" transform="translate(39.656 -0.236)" fill="rgba(255,255,255,0)" stroke="#707070" stroke-width="1">
            <circle cx="3" cy="3" r="3" stroke="none"/>
            <circle cx="3" cy="3" r="2.5" fill="none"/>
          </g>
        </g>
        <text id="UI_UX_DESIGN" data-name="UI/UX DESIGN" transform="translate(210 446)" fill="#808f85" font-size="6" font-family="SegoeUI-Semilight, Segoe UI" font-weight="300"><tspan x="-18.501" y="0">UI/UX DESIGN</tspan></text>
        <g id="组_91-3" data-name="组 91" transform="translate(240.344 441.344)">
          <g id="椭圆_16-11" data-name="椭圆 16" transform="translate(-0.344 -0.344)" fill="#b0dab7" stroke="#707070" stroke-width="1">
            <circle cx="3" cy="3" r="3" stroke="none"/>
            <circle cx="3" cy="3" r="2.5" fill="none"/>
          </g>
          <g id="椭圆_16-12" data-name="椭圆 16" transform="translate(9.656 -0.344)" fill="#b0dab7" stroke="#707070" stroke-width="1">
            <circle cx="3" cy="3" r="3" stroke="none"/>
            <circle cx="3" cy="3" r="2.5" fill="none"/>
          </g>
          <g id="椭圆_16-13" data-name="椭圆 16" transform="translate(19.656 -0.344)" fill="#b0dab7" stroke="#707070" stroke-width="1">
            <circle cx="3" cy="3" r="3" stroke="none"/>
            <circle cx="3" cy="3" r="2.5" fill="none"/>
          </g>
          <g id="椭圆_16-14" data-name="椭圆 16" transform="translate(29.656 -0.344)" fill="none" stroke="#707070" stroke-width="1">
            <circle cx="3" cy="3" r="3" stroke="none"/>
            <circle cx="3" cy="3" r="2.5" fill="none"/>
          </g>
          <g id="椭圆_16-15" data-name="椭圆 16" transform="translate(39.656 -0.344)" fill="none" stroke="#707070" stroke-width="1">
            <circle cx="3" cy="3" r="3" stroke="none"/>
            <circle cx="3" cy="3" r="2.5" fill="none"/>
          </g>
        </g>
        <g id="组_91-4" data-name="组 91" transform="translate(117.096 421.236)">
          <g id="椭圆_16-16" data-name="椭圆 16" transform="translate(-0.096 -0.236)" fill="#b0dab7" stroke="#707070" stroke-width="1">
            <circle cx="3" cy="3" r="3" stroke="none"/>
            <circle cx="3" cy="3" r="2.5" fill="none"/>
          </g>
          <g id="椭圆_16-17" data-name="椭圆 16" transform="translate(9.904 -0.236)" fill="#b0dab7" stroke="#707070" stroke-width="1">
            <circle cx="3" cy="3" r="3" stroke="none"/>
            <circle cx="3" cy="3" r="2.5" fill="none"/>
          </g>
          <g id="椭圆_16-18" data-name="椭圆 16" transform="translate(19.904 -0.236)" fill="#b0dab7" stroke="#707070" stroke-width="1">
            <circle cx="3" cy="3" r="3" stroke="none"/>
            <circle cx="3" cy="3" r="2.5" fill="none"/>
          </g>
          <g id="椭圆_16-19" data-name="椭圆 16" transform="translate(29.904 -0.236)" fill="#b0dab7" stroke="#707070" stroke-width="1">
            <circle cx="3" cy="3" r="3" stroke="none"/>
            <circle cx="3" cy="3" r="2.5" fill="none"/>
          </g>
          <g id="椭圆_16-20" data-name="椭圆 16" transform="translate(39.904 -0.236)" fill="none" stroke="#707070" stroke-width="1">
            <circle cx="3" cy="3" r="3" stroke="none"/>
            <circle cx="3" cy="3" r="2.5" fill="none"/>
          </g>
        </g>
        <text id="TRADITIONAL_ILLUSTRATION" data-name="TRADITIONAL ILLUSTRATION" transform="translate(73 426)" fill="#808f85" font-size="6" font-family="SegoeUI-Semilight, Segoe UI" font-weight="300"><tspan x="-37.627" y="0">TRADITIONAL ILLUSTRATION</tspan></text>
        <text id="PHOTOGRAPHY" transform="translate(73 446)" fill="#808f85" font-size="6" font-family="SegoeUI-Semilight, Segoe UI" font-weight="300"><tspan x="-20.606" y="0">PHOTOGRAPHY</tspan></text>
        <g id="组_91-5" data-name="组 91" transform="translate(117.096 441.344)">
          <g id="椭圆_16-21" data-name="椭圆 16" transform="translate(-0.096 -0.344)" fill="#b0dab7" stroke="#707070" stroke-width="1">
            <circle cx="3" cy="3" r="3" stroke="none"/>
            <circle cx="3" cy="3" r="2.5" fill="none"/>
          </g>
          <g id="椭圆_16-22" data-name="椭圆 16" transform="translate(9.904 -0.344)" fill="#b0dab7" stroke="#707070" stroke-width="1">
            <circle cx="3" cy="3" r="3" stroke="none"/>
            <circle cx="3" cy="3" r="2.5" fill="none"/>
          </g>
          <g id="椭圆_16-23" data-name="椭圆 16" transform="translate(19.904 -0.344)" fill="#b0dab7" stroke="#707070" stroke-width="1">
            <circle cx="3" cy="3" r="3" stroke="none"/>
            <circle cx="3" cy="3" r="2.5" fill="none"/>
          </g>
          <g id="椭圆_16-24" data-name="椭圆 16" transform="translate(29.904 -0.344)" fill="#b0dab7" stroke="#707070" stroke-width="1">
            <circle cx="3" cy="3" r="3" stroke="none"/>
            <circle cx="3" cy="3" r="2.5" fill="none"/>
          </g>
          <g id="椭圆_16-25" data-name="椭圆 16" transform="translate(39.904 -0.344)" fill="none" stroke="#707070" stroke-width="1">
            <circle cx="3" cy="3" r="3" stroke="none"/>
            <circle cx="3" cy="3" r="2.5" fill="none"/>
          </g>
        </g>
      </g>
    </g>
  </g>
</svg>
