<svg xmlns="http://www.w3.org/2000/svg" width="300" height="108" viewBox="0 0 300 108">
  <g id="组_289" data-name="组 289" transform="translate(-10 -644)">
    <rect id="矩形_65" data-name="矩形 65" width="300" height="108" rx="10" transform="translate(10 644)" fill="rgba(255,255,255,0.5)"/>
    <g id="组_277" data-name="组 277" transform="translate(35.047 657.883)">
      <text id="SKILLS" transform="translate(13.109 6)" fill="#808f85" font-size="11" font-family="SegoeUI, Segoe UI" letter-spacing="0.098em"><tspan x="-18.371" y="0">SKILLS</tspan></text>
      <line id="直线_27" data-name="直线 27" x2="37.453" transform="translate(-6 9.444)" fill="none" stroke="#808f85" stroke-linecap="round" stroke-width="1"/>
    </g>
    <g id="组_278" data-name="组 278" transform="translate(-1 261)">
      <text id="PACKAGING_DESIGN" data-name="PACKAGING DESIGN" transform="translate(73 466)" fill="#808f85" font-size="6" font-family="SegoeUI-Semilight, Segoe UI" font-weight="300"><tspan x="-26.562" y="0">PACKAGING DESIGN</tspan></text>
      <g id="组_91" data-name="组 91" transform="translate(117.096 461.453)">
        <g id="椭圆_16" data-name="椭圆 16" transform="translate(-0.096 -0.452)" fill="#b0dab7" stroke="#707070" stroke-width="1">
          <circle cx="3" cy="3" r="3" stroke="none"/>
          <circle cx="3" cy="3" r="2.5" fill="none"/>
        </g>
        <g id="椭圆_16-2" data-name="椭圆 16" transform="translate(9.904 -0.452)" fill="#b0dab7" stroke="#707070" stroke-width="1">
          <circle cx="3" cy="3" r="3" stroke="none"/>
          <circle cx="3" cy="3" r="2.5" fill="none"/>
        </g>
        <g id="椭圆_16-3" data-name="椭圆 16" transform="translate(19.904 -0.452)" fill="#b0dab7" stroke="#707070" stroke-width="1">
          <circle cx="3" cy="3" r="3" stroke="none"/>
          <circle cx="3" cy="3" r="2.5" fill="none"/>
        </g>
        <g id="椭圆_16-4" data-name="椭圆 16" transform="translate(29.904 -0.452)" fill="none" stroke="#707070" stroke-width="1">
          <circle cx="3" cy="3" r="3" stroke="none"/>
          <circle cx="3" cy="3" r="2.5" fill="none"/>
        </g>
        <g id="椭圆_16-5" data-name="椭圆 16" transform="translate(39.904 -0.452)" fill="rgba(255,255,255,0)" stroke="#707070" stroke-width="1">
          <circle cx="3" cy="3" r="3" stroke="none"/>
          <circle cx="3" cy="3" r="2.5" fill="none"/>
        </g>
      </g>
      <text id="FILM_EDITING" data-name="FILM EDITING" transform="translate(210 426)" fill="#808f85" font-size="6" font-family="SegoeUI-Semilight, Segoe UI" font-weight="300"><tspan x="-17.804" y="0">FILM EDITING</tspan></text>
      <g id="组_91-2" data-name="组 91" transform="translate(240.344 421.236)">
        <g id="椭圆_16-6" data-name="椭圆 16" transform="translate(-0.344 -0.236)" fill="#b0dab7" stroke="#707070" stroke-width="1">
          <circle cx="3" cy="3" r="3" stroke="none"/>
          <circle cx="3" cy="3" r="2.5" fill="none"/>
        </g>
        <g id="椭圆_16-7" data-name="椭圆 16" transform="translate(9.656 -0.236)" fill="#b0dab7" stroke="#707070" stroke-width="1">
          <circle cx="3" cy="3" r="3" stroke="none"/>
          <circle cx="3" cy="3" r="2.5" fill="none"/>
        </g>
        <g id="椭圆_16-8" data-name="椭圆 16" transform="translate(19.656 -0.236)" fill="#b0dab7" stroke="#707070" stroke-width="1">
          <circle cx="3" cy="3" r="3" stroke="none"/>
          <circle cx="3" cy="3" r="2.5" fill="none"/>
        </g>
        <g id="椭圆_16-9" data-name="椭圆 16" transform="translate(29.656 -0.236)" fill="#b0dab7" stroke="#707070" stroke-width="1">
          <circle cx="3" cy="3" r="3" stroke="none"/>
          <circle cx="3" cy="3" r="2.5" fill="none"/>
        </g>
        <g id="椭圆_16-10" data-name="椭圆 16" transform="translate(39.656 -0.236)" fill="rgba(255,255,255,0)" stroke="#707070" stroke-width="1">
          <circle cx="3" cy="3" r="3" stroke="none"/>
          <circle cx="3" cy="3" r="2.5" fill="none"/>
        </g>
      </g>
      <text id="UI_UX_DESIGN" data-name="UI/UX DESIGN" transform="translate(210 466)" fill="#808f85" font-size="6" font-family="SegoeUI-Semilight, Segoe UI" font-weight="300"><tspan x="-18.501" y="0">UI/UX DESIGN</tspan></text>
      <text id="DIGITAL_DESIGN" data-name="DIGITAL DESIGN" transform="translate(210 446)" fill="#808f85" font-size="6" font-family="SegoeUI-Semilight, Segoe UI" font-weight="300"><tspan x="-21.097" y="0">DIGITAL DESIGN</tspan></text>
      <g id="组_91-3" data-name="组 91" transform="translate(240.344 461.344)">
        <g id="椭圆_16-11" data-name="椭圆 16" transform="translate(-0.344 -0.344)" fill="#b0dab7" stroke="#707070" stroke-width="1">
          <circle cx="3" cy="3" r="3" stroke="none"/>
          <circle cx="3" cy="3" r="2.5" fill="none"/>
        </g>
        <g id="椭圆_16-12" data-name="椭圆 16" transform="translate(9.656 -0.344)" fill="#b0dab7" stroke="#707070" stroke-width="1">
          <circle cx="3" cy="3" r="3" stroke="none"/>
          <circle cx="3" cy="3" r="2.5" fill="none"/>
        </g>
        <g id="椭圆_16-13" data-name="椭圆 16" transform="translate(19.656 -0.344)" fill="#b0dab7" stroke="#707070" stroke-width="1">
          <circle cx="3" cy="3" r="3" stroke="none"/>
          <circle cx="3" cy="3" r="2.5" fill="none"/>
        </g>
        <g id="椭圆_16-14" data-name="椭圆 16" transform="translate(29.656 -0.344)" fill="none" stroke="#707070" stroke-width="1">
          <circle cx="3" cy="3" r="3" stroke="none"/>
          <circle cx="3" cy="3" r="2.5" fill="none"/>
        </g>
        <g id="椭圆_16-15" data-name="椭圆 16" transform="translate(39.656 -0.344)" fill="none" stroke="#707070" stroke-width="1">
          <circle cx="3" cy="3" r="3" stroke="none"/>
          <circle cx="3" cy="3" r="2.5" fill="none"/>
        </g>
      </g>
      <g id="组_281" data-name="组 281" transform="translate(240.344 441.344)">
        <g id="椭圆_16-16" data-name="椭圆 16" transform="translate(-0.344 -0.344)" fill="#b0dab7" stroke="#707070" stroke-width="1">
          <circle cx="3" cy="3" r="3" stroke="none"/>
          <circle cx="3" cy="3" r="2.5" fill="none"/>
        </g>
        <g id="椭圆_16-17" data-name="椭圆 16" transform="translate(9.656 -0.344)" fill="#b0dab7" stroke="#707070" stroke-width="1">
          <circle cx="3" cy="3" r="3" stroke="none"/>
          <circle cx="3" cy="3" r="2.5" fill="none"/>
        </g>
        <g id="椭圆_16-18" data-name="椭圆 16" transform="translate(19.656 -0.344)" fill="#b0dab7" stroke="#707070" stroke-width="1">
          <circle cx="3" cy="3" r="3" stroke="none"/>
          <circle cx="3" cy="3" r="2.5" fill="none"/>
        </g>
        <g id="椭圆_16-19" data-name="椭圆 16" transform="translate(29.656 -0.344)" fill="none" stroke="#707070" stroke-width="1">
          <circle cx="3" cy="3" r="3" stroke="none"/>
          <circle cx="3" cy="3" r="2.5" fill="none"/>
        </g>
        <g id="椭圆_16-20" data-name="椭圆 16" transform="translate(39.656 -0.344)" fill="none" stroke="#707070" stroke-width="1">
          <circle cx="3" cy="3" r="3" stroke="none"/>
          <circle cx="3" cy="3" r="2.5" fill="none"/>
        </g>
      </g>
      <g id="组_91-4" data-name="组 91" transform="translate(117.096 421.236)">
        <g id="椭圆_16-21" data-name="椭圆 16" transform="translate(-0.096 -0.236)" fill="#b0dab7" stroke="#707070" stroke-width="1">
          <circle cx="3" cy="3" r="3" stroke="none"/>
          <circle cx="3" cy="3" r="2.5" fill="none"/>
        </g>
        <g id="椭圆_16-22" data-name="椭圆 16" transform="translate(9.904 -0.236)" fill="#b0dab7" stroke="#707070" stroke-width="1">
          <circle cx="3" cy="3" r="3" stroke="none"/>
          <circle cx="3" cy="3" r="2.5" fill="none"/>
        </g>
        <g id="椭圆_16-23" data-name="椭圆 16" transform="translate(19.904 -0.236)" fill="#b0dab7" stroke="#707070" stroke-width="1">
          <circle cx="3" cy="3" r="3" stroke="none"/>
          <circle cx="3" cy="3" r="2.5" fill="none"/>
        </g>
        <g id="椭圆_16-24" data-name="椭圆 16" transform="translate(29.904 -0.236)" fill="#b0dab7" stroke="#707070" stroke-width="1">
          <circle cx="3" cy="3" r="3" stroke="none"/>
          <circle cx="3" cy="3" r="2.5" fill="none"/>
        </g>
        <g id="椭圆_16-25" data-name="椭圆 16" transform="translate(39.904 -0.236)" fill="none" stroke="#707070" stroke-width="1">
          <circle cx="3" cy="3" r="3" stroke="none"/>
          <circle cx="3" cy="3" r="2.5" fill="none"/>
        </g>
      </g>
      <text id="TRADITIONAL_ILLUSTRATION" data-name="TRADITIONAL ILLUSTRATION" transform="translate(73 426)" fill="#808f85" font-size="6" font-family="SegoeUI-Semilight, Segoe UI" font-weight="300"><tspan x="-37.627" y="0">TRADITIONAL ILLUSTRATION</tspan></text>
      <text id="PHOTOGRAPHY" transform="translate(73 446)" fill="#808f85" font-size="6" font-family="SegoeUI-Semilight, Segoe UI" font-weight="300"><tspan x="-20.606" y="0">PHOTOGRAPHY</tspan></text>
      <g id="组_91-5" data-name="组 91" transform="translate(117.096 441.344)">
        <g id="椭圆_16-26" data-name="椭圆 16" transform="translate(-0.096 -0.344)" fill="#b0dab7" stroke="#707070" stroke-width="1">
          <circle cx="3" cy="3" r="3" stroke="none"/>
          <circle cx="3" cy="3" r="2.5" fill="none"/>
        </g>
        <g id="椭圆_16-27" data-name="椭圆 16" transform="translate(9.904 -0.344)" fill="#b0dab7" stroke="#707070" stroke-width="1">
          <circle cx="3" cy="3" r="3" stroke="none"/>
          <circle cx="3" cy="3" r="2.5" fill="none"/>
        </g>
        <g id="椭圆_16-28" data-name="椭圆 16" transform="translate(19.904 -0.344)" fill="#b0dab7" stroke="#707070" stroke-width="1">
          <circle cx="3" cy="3" r="3" stroke="none"/>
          <circle cx="3" cy="3" r="2.5" fill="none"/>
        </g>
        <g id="椭圆_16-29" data-name="椭圆 16" transform="translate(29.904 -0.344)" fill="#b0dab7" stroke="#707070" stroke-width="1">
          <circle cx="3" cy="3" r="3" stroke="none"/>
          <circle cx="3" cy="3" r="2.5" fill="none"/>
        </g>
        <g id="椭圆_16-30" data-name="椭圆 16" transform="translate(39.904 -0.344)" fill="none" stroke="#707070" stroke-width="1">
          <circle cx="3" cy="3" r="3" stroke="none"/>
          <circle cx="3" cy="3" r="2.5" fill="none"/>
        </g>
      </g>
    </g>
  </g>
</svg>
