<svg xmlns="http://www.w3.org/2000/svg" width="80" height="80" viewBox="0 0 80 80">
  <g id="组_178" data-name="组 178" transform="translate(-0.185 -0.025)">
    <circle id="椭圆_3" data-name="椭圆 3" cx="40" cy="40" r="40" transform="translate(0.185 0.025)" fill="#fff"/>
    <g id="组_112" data-name="组 112" transform="translate(11.166 6.045)">
      <path id="路径_114" data-name="路径 114" d="M-109.687,543.377" transform="translate(142.615 -514.43)" fill="none" stroke="#231815" stroke-linecap="round" stroke-linejoin="round" stroke-width="5"/>
      <g id="组_112-2" data-name="组 112" transform="translate(10.86 35.725)">
        <circle id="椭圆_17" data-name="椭圆 17" cx="6.768" cy="6.768" r="6.768" fill="#ea5f3e" opacity="0.33"/>
        <circle id="椭圆_18" data-name="椭圆 18" cx="6.768" cy="6.768" r="6.768" transform="translate(24.687)" fill="#ea5f3e" opacity="0.33"/>
      </g>
      <g id="组_115" data-name="组 115" transform="translate(16.453 19.847)" opacity="0.9">
        <g id="组_113" data-name="组 113" transform="translate(0 0)">
          <ellipse id="椭圆_19" data-name="椭圆 19" cx="2.163" cy="1.589" rx="2.163" ry="1.589" transform="translate(0 0.895) rotate(-11.936)" fill="#1a0e0e"/>
          <path id="路径_115" data-name="路径 115" d="M-162.584,517.072a2.707,2.707,0,0,1-1.116-.23,1.7,1.7,0,0,1-1.021-1.179,1.7,1.7,0,0,1,.457-1.492,2.892,2.892,0,0,1,1.562-.865,2.89,2.89,0,0,1,1.778.159,1.7,1.7,0,0,1,1.021,1.179,1.7,1.7,0,0,1-.457,1.492,2.893,2.893,0,0,1-1.561.865A3.231,3.231,0,0,1-162.584,517.072Zm.545-3.238a2.6,2.6,0,0,0-.54.058,2.291,2.291,0,0,0-1.239.678,1.116,1.116,0,0,0-.318.97,1.116,1.116,0,0,0,.683.758,2.292,2.292,0,0,0,1.407.119,2.29,2.29,0,0,0,1.239-.678,1.115,1.115,0,0,0,.318-.969h0a1.116,1.116,0,0,0-.683-.758A2.111,2.111,0,0,0-162.039,513.834Z" transform="translate(164.757 -513.152)" fill="#1b0f0f"/>
        </g>
        <g id="组_114" data-name="组 114" transform="translate(20.739 0)">
          <ellipse id="椭圆_20" data-name="椭圆 20" cx="1.589" cy="2.163" rx="1.589" ry="2.163" transform="translate(0 3.11) rotate(-78.064)" fill="#1a0e0e"/>
          <path id="路径_116" data-name="路径 116" d="M-92.7,517.072a3.209,3.209,0,0,1-.663-.07,2.236,2.236,0,0,1-2.018-2.357h0a1.7,1.7,0,0,1,1.021-1.179,2.891,2.891,0,0,1,1.778-.159,2.89,2.89,0,0,1,1.561.865,1.7,1.7,0,0,1,.457,1.492,1.7,1.7,0,0,1-1.021,1.179A2.706,2.706,0,0,1-92.7,517.072Zm-2.1-2.3c-.147.7.551,1.435,1.557,1.648a2.291,2.291,0,0,0,1.407-.119,1.116,1.116,0,0,0,.683-.758,1.116,1.116,0,0,0-.318-.97,2.293,2.293,0,0,0-1.239-.678,2.288,2.288,0,0,0-1.407.119,1.117,1.117,0,0,0-.683.758Z" transform="translate(95.42 -513.152)" fill="#1b0f0f"/>
        </g>
      </g>
      <path id="路径_117" data-name="路径 117" d="M-155.717,612.331a25,25,0,0,1-14.117-4.338.748.748,0,0,1-.2-1.039.748.748,0,0,1,1.039-.2,23.5,23.5,0,0,0,13.276,4.079,23.509,23.509,0,0,0,13.245-4.058.748.748,0,0,1,1.039.2.748.748,0,0,1-.2,1.039A25,25,0,0,1-155.717,612.331Z" transform="translate(185 -558.761)" fill="#231815"/>
      <g id="组_118" data-name="组 118" transform="translate(0 0)">
        <g id="组_117" data-name="组 117">
          <g id="组_116" data-name="组 116">
            <path id="路径_118" data-name="路径 118" d="M-181.077,466.183s8.276,5.384,9.472,7.278a15.163,15.163,0,0,1,2.094,6.182c.1,1.6.628,5.982-1.531,9.173s-3.824,1.695-4.188,6.381,3.226,4.786,3.226,4.786-4.387-.8-4.586,5.085,8.137,4.636,10.051,4.238,6.869-2.451,6.649-8.13-3.539-4.244-3.539-7.554,5.384-26.841-6.418-37.123l-1.333-1.145A27.273,27.273,0,0,0-188.6,449.1a27.613,27.613,0,0,0-18.007,6.42l-1.365,1.2c-12.189,11.261-5.751,33.595-5.751,36.9s-3.32,1.875-3.539,7.554,4.736,7.731,6.649,8.13,10.251,1.645,10.051-4.238-4.586-5.085-4.586-5.085,3.589-.1,3.226-4.786-2.029-3.191-4.188-6.381-1.63-7.578-1.531-9.173a15.163,15.163,0,0,1,2.094-6.182c1.2-1.894,9.472-7.278,9.472-7.278s1.422-1.022,1.729-1.246" transform="translate(218.018 -448.353)" fill="#724b42"/>
            <path id="路径_119" data-name="路径 119" d="M-172.06,508.691a8.583,8.583,0,0,1-5.452-1.52,4.6,4.6,0,0,1-1.578-3.88c.076-2.246.737-3.887,1.963-4.875a4.208,4.208,0,0,1,.814-.514c-.091-.083-.18-.173-.267-.269a5.479,5.479,0,0,1-1.147-4.244c.236-3.04,1.027-3.816,2.3-4.733a7.187,7.187,0,0,0,2.011-2.009c1.843-2.724,1.567-6.47,1.435-8.271-.012-.162-.023-.308-.031-.437a14.485,14.485,0,0,0-1.98-5.829c-.814-1.288-5.976-4.922-9.247-7.051a.748.748,0,0,1-.219-1.035.748.748,0,0,1,1.035-.219c.861.56,8.448,5.531,9.7,7.506a15.967,15.967,0,0,1,2.208,6.534c.007.124.018.264.03.42.145,1.969.446,6.065-1.687,9.218a8.591,8.591,0,0,1-2.377,2.386c-.957.688-1.485,1.067-1.684,3.634a4.1,4.1,0,0,0,.754,3.113,2.722,2.722,0,0,0,1.569.845c.169.013.274.031.291.034a.748.748,0,0,1,.61.813.748.748,0,0,1-.765.67,2.794,2.794,0,0,1-.3-.03,3.132,3.132,0,0,0-2.125.642,4.861,4.861,0,0,0-1.393,3.751,3.135,3.135,0,0,0,1.046,2.685c1.868,1.572,5.974,1.24,8.105.8.257-.054,6.287-1.381,6.055-7.369-.111-2.87-1.026-3.649-1.911-4.4a3.71,3.71,0,0,1-1.629-3.18c0-.552.127-1.538.3-2.9.969-7.542,3.237-25.2-6.464-33.656l-1.329-1.141a26.669,26.669,0,0,0-16.932-6.073,26.817,26.817,0,0,0-17.52,6.24l-1.359,1.191c-9.873,9.122-7.1,25.978-5.917,33.176a25.709,25.709,0,0,1,.421,3.165,3.711,3.711,0,0,1-1.629,3.18c-.885.754-1.8,1.533-1.911,4.4-.232,5.988,5.8,7.315,6.055,7.369,2.132.444,6.237.776,8.105-.8a3.136,3.136,0,0,0,1.045-2.685,4.861,4.861,0,0,0-1.393-3.751,3.133,3.133,0,0,0-2.128-.642,2.764,2.764,0,0,1-.3.03.748.748,0,0,1-.764-.67.748.748,0,0,1,.61-.813c.017,0,.123-.021.294-.034a2.725,2.725,0,0,0,1.566-.845,4.1,4.1,0,0,0,.754-3.113c-.2-2.567-.727-2.946-1.684-3.634a8.6,8.6,0,0,1-2.377-2.386c-2.133-3.154-1.832-7.25-1.687-9.219.011-.156.022-.3.029-.42a15.968,15.968,0,0,1,2.208-6.534c1.241-1.965,8.753-6.892,9.682-7.5.148-.106,1.422-1.022,1.711-1.233a.748.748,0,0,1,1.045.163.748.748,0,0,1-.163,1.045c-.308.225-1.734,1.249-1.734,1.249l-.029.02c-3.271,2.128-8.434,5.763-9.247,7.051a14.491,14.491,0,0,0-1.98,5.829c-.008.128-.019.275-.031.436-.133,1.8-.408,5.547,1.434,8.271a7.2,7.2,0,0,0,2.012,2.009c1.275.917,2.067,1.693,2.3,4.733a5.48,5.48,0,0,1-1.147,4.244c-.087.1-.176.186-.267.269a4.2,4.2,0,0,1,.814.514c1.226.989,1.887,2.629,1.963,4.875a4.6,4.6,0,0,1-1.577,3.88c-2.781,2.341-8.3,1.341-9.373,1.115-2.8-.583-7.468-3.112-7.244-8.891.136-3.525,1.465-4.657,2.435-5.484a2.268,2.268,0,0,0,1.1-2.042,26.878,26.878,0,0,0-.4-2.923c-1.223-7.436-4.087-24.85,6.392-34.53l1.379-1.21a28.315,28.315,0,0,1,18.5-6.605,28.176,28.176,0,0,1,17.9,6.424l1.344,1.154c10.308,8.98,7.968,27.2,6.969,34.978-.162,1.26-.29,2.255-.29,2.712a2.268,2.268,0,0,0,1.1,2.042c.97.827,2.3,1.959,2.436,5.484.224,5.779-4.448,8.308-7.244,8.891A20.319,20.319,0,0,1-172.06,508.691Z" transform="translate(219.77 -446.602)" fill="#231815"/>
          </g>
        </g>
        <path id="路径_120" data-name="路径 120" d="M-70.167,518.559a.748.748,0,0,1-.705-.5c-.556-1.573-2.243-5.859-2.81-6.922a.748.748,0,0,1,.308-1.012.748.748,0,0,1,1.012.308c.652,1.223,2.372,5.633,2.9,7.128a.748.748,0,0,1-.456.954A.748.748,0,0,1-70.167,518.559Z" transform="translate(117.441 -491.063)" fill="#231815"/>
        <path id="路径_121" data-name="路径 121" d="M-183.023,518.559a.751.751,0,0,1-.249-.043.748.748,0,0,1-.456-.954c.529-1.495,2.248-5.9,2.9-7.128a.748.748,0,0,1,1.012-.308.748.748,0,0,1,.308,1.012c-.567,1.063-2.254,5.349-2.81,6.922A.748.748,0,0,1-183.023,518.559Z" transform="translate(194.539 -491.063)" fill="#231815"/>
      </g>
      <g id="组_119" data-name="组 119" transform="translate(23.201 13.094)">
        <path id="路径_122" data-name="路径 122" d="M-139.174,492.877a23.177,23.177,0,0,0-.085,9.424,2.294,2.294,0,0,0,2.66,1.807,17.38,17.38,0,0,1,3.017-.3,16.4,16.4,0,0,1,2.894.271,2.3,2.3,0,0,0,2.673-1.79,29.567,29.567,0,0,0,.532-4.358,11.553,11.553,0,0,0-.529-4.481" transform="translate(140.45 -492.129)" fill="#724b42"/>
        <path id="路径_123" data-name="路径 123" d="M-138.756,503.139a3.061,3.061,0,0,1-2.99-2.444,23.9,23.9,0,0,1,.088-9.731.747.747,0,0,1,.891-.57.747.747,0,0,1,.57.89,22.4,22.4,0,0,0-.082,9.117,1.557,1.557,0,0,0,1.794,1.217,17.888,17.888,0,0,1,3.15-.31,17.069,17.069,0,0,1,3.027.283,1.545,1.545,0,0,0,1.808-1.2,28.968,28.968,0,0,0,.517-4.247,11.03,11.03,0,0,0-.479-4.168.749.749,0,0,1,.424-.968.746.746,0,0,1,.968.42,12.246,12.246,0,0,1,.581,4.8,30.442,30.442,0,0,1-.546,4.468,3.031,3.031,0,0,1-3.539,2.375,15.592,15.592,0,0,0-2.761-.259,16.4,16.4,0,0,0-2.884.287A3.037,3.037,0,0,1-138.756,503.139Z" transform="translate(142.203 -490.377)" fill="#231815"/>
      </g>
      <path id="路径_124" data-name="路径 124" d="M-131.224,550.995" transform="translate(157.709 -519.769)" fill="none" stroke="#231815" stroke-linecap="round" stroke-linejoin="round" stroke-width="5"/>
      <path id="路径_125" data-name="路径 125" d="M-132.646,568.3c-2.945,0-4.485-1.816-4.579-5.4a1.086,1.086,0,0,1,.313-.791,1.189,1.189,0,0,1,.849-.354h6.779a1.241,1.241,0,0,1,.892.374,1.127,1.127,0,0,1,.319.83C-128.211,566.5-129.75,568.3-132.646,568.3Zm-3.38-5.347c.094,2.87,1.138,4.15,3.38,4.15s3.254-1.241,3.377-4.149l-.014,0Z" transform="translate(161.916 -527.309)"/>
      <g id="组_122" data-name="组 122" transform="translate(36.136 24.026)">
        <g id="组_121" data-name="组 121" transform="translate(0 1.552)">
          <path id="路径_126" data-name="路径 126" d="M-88.1,540.122h-.03a.748.748,0,0,1-.718-.777c.155-3.935-2.4-5.144-3.5-5.482-2.062-.629-4.405-.062-5.224,1.264a.748.748,0,0,1-1.029.244.748.748,0,0,1-.244-1.029c1.172-1.9,4.217-2.739,6.933-1.91,2.993.913,4.7,3.519,4.563,6.971A.748.748,0,0,1-88.1,540.122Z" transform="translate(98.962 -532.113)" fill="#231815"/>
          <g id="组_120" data-name="组 120" transform="translate(0.261 1.011)">
            <ellipse id="椭圆_21" data-name="椭圆 21" cx="4.122" cy="3.773" rx="4.122" ry="3.773" transform="translate(0.56 8.811) rotate(-87.326)" fill="#231815"/>
            <path id="路径_127" data-name="路径 127" d="M-93.593,545.231c-.067,0-.134,0-.2,0a4.334,4.334,0,0,1-3.149-1.6,5.041,5.041,0,0,1-1.14-3.477,5.041,5.041,0,0,1,1.459-3.355,4.332,4.332,0,0,1,3.284-1.3,4.71,4.71,0,0,1,4.289,5.075,5.038,5.038,0,0,1-1.459,3.355A4.344,4.344,0,0,1-93.593,545.231Zm.054-8.243a2.868,2.868,0,0,0-2.03.868,3.549,3.549,0,0,0-1.02,2.365h0a3.55,3.55,0,0,0,.8,2.449,2.856,2.856,0,0,0,2.069,1.062,2.847,2.847,0,0,0,2.16-.865,3.547,3.547,0,0,0,1.02-2.364,3.218,3.218,0,0,0-2.865-3.512C-93.453,536.989-93.5,536.988-93.539,536.988Zm-3.8,3.2h0Z" transform="translate(98.09 -535.493)" fill="#231815"/>
          </g>
          <circle id="椭圆_22" data-name="椭圆 22" cx="1.178" cy="1.178" r="1.178" transform="translate(3.12 2.098)" fill="#fff"/>
        </g>
        <path id="路径_128" data-name="路径 128" d="M-77.633,529.625a.749.749,0,0,1-.162-.018.748.748,0,0,1-.569-.892l.266-1.2a.749.749,0,0,1,.891-.569.748.748,0,0,1,.569.892l-.266,1.2A.748.748,0,0,1-77.633,529.625Z" transform="translate(84.538 -526.924)" fill="#231815"/>
      </g>
      <g id="组_125" data-name="组 125" transform="translate(11.309 24.521)">
        <g id="组_124" data-name="组 124" transform="translate(0 1.058)">
          <path id="路径_129" data-name="路径 129" d="M-181.206,540.124a.748.748,0,0,1-.747-.719c-.136-3.452,1.569-6.058,4.563-6.971,2.716-.828,5.761.01,6.933,1.91a.748.748,0,0,1-.244,1.029.748.748,0,0,1-1.029-.244c-.818-1.326-3.161-1.893-5.224-1.264-1.106.337-3.66,1.547-3.5,5.482a.748.748,0,0,1-.718.777Z" transform="translate(181.96 -532.116)" fill="#231815"/>
          <g id="组_123" data-name="组 123" transform="translate(2.31 1.01)">
            <ellipse id="椭圆_23" data-name="椭圆 23" cx="3.773" cy="4.122" rx="3.773" ry="4.122" transform="translate(0.56 0.928) rotate(-2.674)" fill="#231815"/>
            <path id="路径_130" data-name="路径 130" d="M-169.69,545.231a4.344,4.344,0,0,1-3.082-1.3,5.038,5.038,0,0,1-1.459-3.355,5.039,5.039,0,0,1,1.14-3.477,4.335,4.335,0,0,1,3.148-1.6,4.329,4.329,0,0,1,3.284,1.3,5.041,5.041,0,0,1,1.459,3.355h0a5.041,5.041,0,0,1-1.14,3.477,4.334,4.334,0,0,1-3.149,1.6Q-169.59,545.231-169.69,545.231Zm-.054-8.243c-.043,0-.086,0-.129,0a2.856,2.856,0,0,0-2.069,1.062,3.547,3.547,0,0,0-.8,2.449,3.547,3.547,0,0,0,1.02,2.365,2.853,2.853,0,0,0,2.159.865,2.856,2.856,0,0,0,2.069-1.062,3.549,3.549,0,0,0,.8-2.45h0a3.548,3.548,0,0,0-1.021-2.365A2.868,2.868,0,0,0-169.744,536.988Z" transform="translate(174.238 -535.492)" fill="#231815"/>
          </g>
          <circle id="椭圆_24" data-name="椭圆 24" cx="1.178" cy="1.178" r="1.178" transform="translate(6.139 2.097)" fill="#fff"/>
        </g>
        <path id="路径_131" data-name="路径 131" d="M-171.75,531.207a.748.748,0,0,1-.686-.45l-.492-1.131a.748.748,0,0,1,.388-.984.748.748,0,0,1,.984.388l.492,1.131a.748.748,0,0,1-.387.984A.746.746,0,0,1-171.75,531.207Z" transform="translate(175.673 -528.58)" fill="#231815"/>
      </g>
    </g>
  </g>
</svg>
