<svg xmlns="http://www.w3.org/2000/svg" width="81" height="80" viewBox="0 0 81 80">
  <g id="Group_216" data-name="Group 216" transform="translate(-0.204 -0.287)">
    <g id="Group_215" data-name="Group 215" transform="translate(0 0)">
      <ellipse id="Ellipse_3" data-name="Ellipse 3" cx="40.5" cy="40" rx="40.5" ry="40" transform="translate(0.204 0.287)" fill="#fff"/>
    </g>
    <g id="Layer_2" data-name="Layer 2" transform="translate(10.49 6.737)">
      <g id="Layer_1" data-name="Layer 1" transform="translate(0 0)">
        <path id="Path_163" data-name="Path 163" d="M75.022,51.187a.88.88,0,0,1-.856-.681c-.035-.147-.939-3.643-5.6-4.441a4.735,4.735,0,0,0-4.107,1.478.89.89,0,0,1-1.338-1.174A6.524,6.524,0,0,1,68.9,44.3c5.867,1,6.964,5.581,7.04,5.781a.874.874,0,0,1-.657,1.05A.8.8,0,0,1,75.022,51.187Z" transform="translate(-25.998 -18.296)" fill="#231815"/>
        <ellipse id="Ellipse_32" data-name="Ellipse 32" cx="4.136" cy="4.406" rx="4.136" ry="4.406" transform="translate(37.97 28.18)" fill="#231815"/>
        <path id="Path_164" data-name="Path 164" d="M67.862,57.146a5.28,5.28,0,1,1,5.016-5.28A5.157,5.157,0,0,1,67.862,57.146Zm0-8.8a3.52,3.52,0,1,0,3.256,3.52,3.4,3.4,0,0,0-3.256-3.526Z" transform="translate(-25.756 -19.274)" fill="#231815"/>
        <circle id="Ellipse_33" data-name="Ellipse 33" cx="1.432" cy="1.432" r="1.432" transform="translate(40.159 28.672)" fill="#fff"/>
        <path id="Path_165" data-name="Path 165" d="M42.522,70.235H42.4a.588.588,0,0,1,.059-1.174,5.673,5.673,0,0,0,2.3-.493,3.937,3.937,0,0,0,1.432-.856.589.589,0,0,1,.986.645,4.4,4.4,0,0,1-1.93,1.261A7.041,7.041,0,0,1,42.522,70.235Z" transform="translate(-17.295 -27.893)"/>
        <path id="Path_166" data-name="Path 166" d="M54.113,70.3a7.193,7.193,0,0,1-2.617-.528,4.348,4.348,0,0,1-1.96-1.22.588.588,0,0,1,.968-.668h0a4.582,4.582,0,0,0,1.438.792,5.656,5.656,0,0,0,2.306.445.589.589,0,0,1,.088,1.174Z" transform="translate(-20.455 -28.001)"/>
        <circle id="Ellipse_34" data-name="Ellipse 34" cx="7.275" cy="7.275" r="7.275" transform="translate(9.093 37.185)" fill="#ea5f3e" opacity="0.33"/>
        <circle id="Ellipse_35" data-name="Ellipse 35" cx="7.275" cy="7.275" r="7.275" transform="translate(35.635 37.185)" fill="#ea5f3e" opacity="0.33"/>
        <path id="Path_167" data-name="Path 167" d="M10.061,25.763c2.934-1.62,10.748-3.878,19.948-3.878a55.989,55.989,0,0,1,19.068,3.52,4.447,4.447,0,0,1,2.84,3.555,89.63,89.63,0,0,1,.774,9.018C53,45.441,48.255,50.58,46.442,53s-6.1,5.943-4.74,7.662c1.983,2.494,6.653-1.819,6.653-1.819s-.9,1.819,1.109,1.819,10.285-4.641,9.276-19.661-3.1-19.883-3.1-19.883a26.4,26.4,0,0,0-51.2-.281L4.17,21.909c-.487,1.913-2.3,7.393-3.08,19.085-1.009,15.019,7.257,19.661,9.3,19.661S11.5,58.837,11.5,58.837s4.694,4.313,6.653,1.819c1.361-1.719-2.934-5.244-4.741-7.662S6.834,45.429,7.139,37.978A89.8,89.8,0,0,1,7.914,29a4.459,4.459,0,0,1,1.508-2.758,7.629,7.629,0,0,1,.639-.481Z" transform="translate(-0.416 -0.447)" fill="#2a2827"/>
        <path id="Path_168" data-name="Path 168" d="M42.942,61.616H42.7a2.57,2.57,0,0,1-1.872-.992c-1.308-1.649.845-4.013,2.934-6.3.686-.751,1.332-1.461,1.8-2.083.188-.258.411-.54.651-.85,2-2.581,5.738-7.346,5.474-13.834-.164-4.048-.51-7.087-.769-8.918a3.884,3.884,0,0,0-2.464-3.092,55.619,55.619,0,0,0-18.863-3.52c-9.276,0-16.985,2.347-19.666,3.808a5.6,5.6,0,0,0-.587.4A3.872,3.872,0,0,0,8.05,28.631a89.422,89.422,0,0,0-.739,8.929c-.263,6.454,3.473,11.241,5.48,13.8.241.311.463.587.651.85.469.622,1.115,1.332,1.8,2.083,2.089,2.283,4.243,4.647,2.934,6.3A2.57,2.57,0,0,1,16.3,61.616c-1.561.117-3.385-.992-4.523-1.836a1.443,1.443,0,0,1-.147.323,1.819,1.819,0,0,1-1.654.722c-1.091,0-3.138-.939-5.069-3C2.348,55.109-.539,49.911.089,40.535A87.985,87.985,0,0,1,2.981,22.125c.082-.305.152-.587.205-.774l.263-1.039a.142.142,0,0,1,0-.047,26.988,26.988,0,0,1,52.322.246c.235.587,2.165,5.679,3.127,20.024.628,9.387-2.259,14.574-4.8,17.284-1.924,2.065-3.972,3-5.063,3a1.819,1.819,0,0,1-1.678-.745,1.443,1.443,0,0,1-.147-.323A8.134,8.134,0,0,1,42.942,61.616ZM29.594,20.881a56.763,56.763,0,0,1,19.273,3.584,5.034,5.034,0,0,1,3.215,4.025c.263,1.86.587,4.94.78,9.035.282,6.9-3.626,11.892-5.726,14.574-.241.3-.458.587-.639.827-.5.668-1.174,1.4-1.872,2.165-1.5,1.654-3.555,3.913-2.881,4.764a1.408,1.408,0,0,0,1.044.552c1.6.123,3.978-1.713,4.752-2.43a.587.587,0,0,1,.927.692,1.044,1.044,0,0,0-.1.78c.076.117.329.188.681.188.587,0,2.347-.645,4.207-2.628,2.347-2.541,5.087-7.451,4.482-16.428-.986-14.668-3.027-19.637-3.051-19.684a.585.585,0,0,1,0-.094A25.815,25.815,0,0,0,4.6,20.544h0a.293.293,0,0,1,0,.076c-.047.246-.129.587-.241,1.009-.053.217-.129.481-.211.8A84.87,84.87,0,0,0,1.292,40.616C.705,49.575,3.4,54.485,5.775,57.043c1.86,1.983,3.638,2.628,4.212,2.628a.9.9,0,0,0,.681-.188,1.091,1.091,0,0,0-.106-.8.584.584,0,0,1,.921-.686c.78.716,3.156,2.551,4.758,2.43a1.385,1.385,0,0,0,1.009-.569c.686-.862-1.373-3.121-2.875-4.776-.7-.769-1.367-1.5-1.872-2.165-.182-.252-.4-.528-.639-.827-2.1-2.669-6-7.657-5.726-14.562a90.673,90.673,0,0,1,.78-9.035,5.057,5.057,0,0,1,1.707-3.133,7.626,7.626,0,0,1,.763-.522h0c2.869-1.589,10.643-3.953,20.206-3.953Z" transform="translate(-0.002 -0.029)" fill="#231815"/>
        <path id="Path_169" data-name="Path 169" d="M62.312,30a.587.587,0,0,1-.5-.88,9.393,9.393,0,0,0,.692-4.782,32.986,32.986,0,0,0-.751-5.016.587.587,0,1,1,1.132-.3,33.026,33.026,0,0,1,.786,5.221,9.914,9.914,0,0,1-.845,5.456A.587.587,0,0,1,62.312,30Z" transform="translate(-25.504 -7.669)" fill="#1b0f0f"/>
        <path id="Path_170" data-name="Path 170" d="M39.432,30.052a.587.587,0,0,1-.51-.293,9.916,9.916,0,0,1-.845-5.456,33.875,33.875,0,0,1,.786-5.222.588.588,0,1,1,1.138.3,32.462,32.462,0,0,0-.757,5.016,9.023,9.023,0,0,0,.7,4.782.587.587,0,0,1-.51.874Z" transform="translate(-15.719 -7.722)" fill="#1b0f0f"/>
        <path id="Path_171" data-name="Path 171" d="M85.935,43.034a.587.587,0,0,1-.587-.528,21.307,21.307,0,0,0-.587-2.857c-.434-1.643-1.132-3.913-1.138-3.937a.587.587,0,0,1,1.121-.346s.716,2.317,1.174,3.984a21.073,21.073,0,0,1,.634,3.039.587.587,0,0,1-.522.639Z" transform="translate(-34.559 -14.496)" fill="#1b0f0f"/>
        <path id="Path_172" data-name="Path 172" d="M12.477,43.037h-.065a.587.587,0,0,1-.523-.639,21.972,21.972,0,0,1,.651-3.045c.44-1.666,1.144-3.96,1.174-3.984a.587.587,0,0,1,1.121.346s-.7,2.294-1.138,3.937a21.309,21.309,0,0,0-.587,2.857A.587.587,0,0,1,12.477,43.037Z" transform="translate(-4.915 -14.499)" fill="#1b0f0f"/>
        <path id="Path_173" data-name="Path 173" d="M36.03,91.649c-8.454,0-15.841-3.467-20.2-9.5a.586.586,0,1,1,.945-.692c4.166,5.726,11.182,9.023,19.256,9.023a25.662,25.662,0,0,0,17.9-7.139.587.587,0,1,1,.833.827A26.848,26.848,0,0,1,36.03,91.649Z" transform="translate(-6.496 -33.583)" fill="#231815"/>
        <path id="Path_174" data-name="Path 174" d="M16.751,51.229a1.176,1.176,0,0,1-.2,0,.874.874,0,0,1-.657-1.05c.047-.2,1.174-4.782,7.04-5.779a6.524,6.524,0,0,1,5.773,2.065.89.89,0,0,1-1.338,1.174,4.735,4.735,0,0,0-4.107-1.478c-4.658.8-5.562,4.294-5.6,4.446A.886.886,0,0,1,16.751,51.229Z" transform="translate(-6.561 -18.338)" fill="#231815"/>
        <ellipse id="Ellipse_36" data-name="Ellipse 36" cx="4.136" cy="4.406" rx="4.136" ry="4.406" transform="translate(12.971 28.18)" fill="#231815"/>
        <path id="Path_175" data-name="Path 175" d="M25.441,57.141a5.28,5.28,0,1,1,5.28-5.28,5.28,5.28,0,0,1-5.28,5.28Zm0-8.8a3.52,3.52,0,1,0,3.52,3.52,3.52,3.52,0,0,0-3.52-3.52Z" transform="translate(-8.334 -19.269)" fill="#231815"/>
        <circle id="Ellipse_37" data-name="Ellipse 37" cx="1.432" cy="1.432" r="1.432" transform="translate(16.192 28.672)" fill="#fff"/>
        <path id="Path_176" data-name="Path 176" d="M20.429,58.787A10.173,10.173,0,1,1,30.6,48.613,10.173,10.173,0,0,1,20.429,58.787Zm0-18.588a8.413,8.413,0,1,0,8.413,8.413A8.413,8.413,0,0,0,20.429,40.2Z" transform="translate(-4.238 -15.905)"/>
        <path id="Path_177" data-name="Path 177" d="M66.817,58.787a10.173,10.173,0,1,1,10.15-10.173,10.173,10.173,0,0,1-10.15,10.173Zm0-18.588a8.413,8.413,0,1,0,8.39,8.413,8.413,8.413,0,0,0-8.39-8.413Z" transform="translate(-23.402 -15.905)"/>
        <path id="Path_178" data-name="Path 178" d="M51.395,55.628a.728.728,0,0,1-.194,0l-1.273-.282a13.271,13.271,0,0,0-5.685,0l-1.279.282a.88.88,0,1,1-.381-1.713l1.279-.287a15.125,15.125,0,0,1,6.454,0l1.273.288a.885.885,0,1,1-.188,1.76Z" transform="translate(-17.291 -22.039)"/>
        <g id="Group_214" data-name="Group 214" transform="translate(16.238 17.69)" opacity="0.7">
          <ellipse id="Ellipse_38" data-name="Ellipse 38" cx="2.329" cy="1.711" rx="2.329" ry="1.711" transform="translate(0.346 1.115) rotate(-12.095)" fill="#1a0e0e"/>
          <path id="Path_179" data-name="Path 179" d="M30.274,34.839a3.151,3.151,0,0,1-1.308-.276,1.995,1.995,0,0,1-.692-3.285,3.368,3.368,0,0,1,1.82-1.016c1.6-.334,3.057.387,3.327,1.643h0c.263,1.261-.78,2.511-2.376,2.851a3.849,3.849,0,0,1-.769.082Zm.587-3.48a2.675,2.675,0,0,0-.522.053,2.207,2.207,0,0,0-1.174.645.992.992,0,0,0-.282.81.968.968,0,0,0,.587.628,2.248,2.248,0,0,0,1.332.1c.921-.194,1.59-.862,1.467-1.455C32.169,31.67,31.571,31.359,30.861,31.359Z" transform="translate(-27.68 -30.181)" fill="#1b0f0f"/>
          <ellipse id="Ellipse_39" data-name="Ellipse 39" cx="1.707" cy="2.323" rx="1.707" ry="2.323" transform="translate(22.561 3.52) rotate(-78.06)" fill="#1a0e0e"/>
          <path id="Path_180" data-name="Path 180" d="M68.882,34.847a4.007,4.007,0,0,1-.78-.07c-1.6-.34-2.64-1.59-2.347-2.852h0c.263-1.255,1.725-1.977,3.321-1.643s2.64,1.59,2.347,2.851A2.406,2.406,0,0,1,68.882,34.847ZM66.876,32.16c-.123.587.546,1.261,1.473,1.455s1.8-.142,1.93-.739-.546-1.261-1.467-1.455-1.807.141-1.936.739Z" transform="translate(-43.395 -30.189)" fill="#1b0f0f"/>
        </g>
      </g>
    </g>
  </g>
</svg>
