<svg id="组_191" data-name="组 191" xmlns="http://www.w3.org/2000/svg" width="180" height="180" viewBox="0 0 180 180">
  <circle id="椭圆_2" data-name="椭圆 2" cx="90" cy="90" r="90" fill="#fff"/>
  <g id="组_128" data-name="组 128" transform="translate(25.59 26.244)">
    <path id="路径_132" data-name="路径 132" d="M-55.622,816.634a10.825,10.825,0,0,1-2.917-.406,1.546,1.546,0,0,1-1.073-1.905,1.549,1.549,0,0,1,1.9-1.074,8.231,8.231,0,0,0,7.3-1.628c3.981-3.021,6.761-9.178,6.761-14.97,0-9.121-5.015-16.542-11.178-16.542q-.279,0-.553.02a1.542,1.542,0,0,1-1.652-1.432,1.545,1.545,0,0,1,1.432-1.651q.385-.029.774-.028c7.869,0,14.27,8.808,14.27,19.634,0,6.8-3.209,13.808-7.984,17.433A11.638,11.638,0,0,1-55.622,816.634Z" transform="translate(169.744 -719.457)" fill="#231815"/>
    <path id="路径_133" data-name="路径 133" d="M-222.606,816.634a11.635,11.635,0,0,1-7.079-2.551c-4.775-3.624-7.984-10.63-7.984-17.433,0-10.826,6.4-19.634,14.27-19.634.259,0,.518.009.774.028a1.545,1.545,0,0,1,1.432,1.651,1.533,1.533,0,0,1-1.652,1.432q-.276-.019-.553-.02c-6.164,0-11.178,7.421-11.178,16.542,0,5.793,2.78,11.949,6.761,14.97a8.231,8.231,0,0,0,7.3,1.628,1.548,1.548,0,0,1,1.9,1.074,1.547,1.547,0,0,1-1.074,1.905A10.825,10.825,0,0,1-222.606,816.634Z" transform="translate(237.668 -719.457)" fill="#231815"/>
    <path id="路径_134" data-name="路径 134" d="M-48.728,816.455a1.541,1.541,0,0,1-1.015-.381l-4.626-4.03a1.547,1.547,0,0,1-.15-2.182,1.546,1.546,0,0,1,2.181-.15l4.627,4.031a1.546,1.546,0,0,1,.15,2.181A1.542,1.542,0,0,1-48.728,816.455Z" transform="translate(167.924 -731.789)" fill="#231815"/>
    <path id="路径_135" data-name="路径 135" d="M-223.353,816.454a1.541,1.541,0,0,1-1.166-.531,1.546,1.546,0,0,1,.15-2.181l4.626-4.031a1.546,1.546,0,0,1,2.182.15,1.547,1.547,0,0,1-.15,2.182l-4.627,4.03A1.538,1.538,0,0,1-223.353,816.454Z" transform="translate(232.796 -731.789)" fill="#231815"/>
    <circle id="椭圆_25" data-name="椭圆 25" cx="3.9" cy="3.9" r="3.9" transform="translate(36.725 56.012)" fill="#231815"/>
    <circle id="椭圆_26" data-name="椭圆 26" cx="2.73" cy="2.73" r="2.73" transform="translate(27.657 59.133)" fill="#231815"/>
    <g id="组_126" data-name="组 126" transform="translate(21.274 81.157)">
      <circle id="椭圆_27" data-name="椭圆 27" cx="15.343" cy="15.343" r="15.343" fill="#ea5f3e" opacity="0.33"/>
      <circle id="椭圆_28" data-name="椭圆 28" cx="15.343" cy="15.343" r="15.343" transform="translate(55.96)" fill="#ea5f3e" opacity="0.33"/>
    </g>
    <path id="路径_136" data-name="路径 136" d="M-166.184,826.741a52.108,52.108,0,0,1-52.049-52.049,52.108,52.108,0,0,1,52.049-52.049,52.107,52.107,0,0,1,52.049,52.049A52.108,52.108,0,0,1-166.184,826.741Zm0-101.006a49.012,49.012,0,0,0-48.957,48.957,49.012,49.012,0,0,0,48.957,48.957,49.012,49.012,0,0,0,48.957-48.957A49.012,49.012,0,0,0-166.184,725.735Z" transform="translate(230.252 -698.709)" fill="#231815"/>
    <g id="组_127" data-name="组 127" transform="translate(0 0)">
      <path id="路径_137" data-name="路径 137" d="M-197.86,726.169c3.2-3.092,9.381-5.772,10.233,0s1.492,17.728,7.248,22.675,14.071,8.452,19.4,8.245,0-8.864,0-8.864,9.167,7.008,18.975,7.215,11.246.309,15.563-1.237,5.436-4.484,4.8-5.875,1.6,3.092,4.637,5.1a23.4,23.4,0,0,0,5.676,2.783s6.483-18.707-2.532-36.64-18.334-21.644-22.812-24.736-9.807-4.947-14.71-2.886-2.645.412-2.645.412-11.213-7.627-27.842-5.566-18.761,11.131-18.761,11.131-6.822-1.855-13,1.649-21.532,23.293-21.532,42.052,4.263,19.789,6.609,21.644,5.7-1.339,5.7-1.339a42.262,42.262,0,0,0,3.678,2.628c1.759,1.082,7.2-.155,3.677-4.483s-6.715-11.75-.16-25.045,9.966-11.64,12.152-11.131A41.719,41.719,0,0,1-197.86,726.169Z" transform="translate(236.714 -684.896)" fill="#2a2827"/>
      <path id="路径_138" data-name="路径 138" d="M-218.52,765.516a4.724,4.724,0,0,1-2.423-.593c-1.03-.634-2.1-1.407-2.843-1.97-1.79,1.275-4.491,2.313-6.686.578-.2-.159-.418-.31-.645-.47-3.452-2.428-6.551-5.967-6.551-22.387,0-19.131,15.5-39.533,22.316-43.4a20.052,20.052,0,0,1,12.794-2.077c1.356-2.87,5.854-9.2,19.543-10.893,16.474-2.037,27.7,5.028,28.824,5.77.33-.126.742-.291,1.254-.507,4.793-2.016,10.391-.965,16.188,3.039.6.412,1.294.842,2.1,1.338,4.965,3.059,13.273,8.178,21.214,23.976,9.2,18.307,2.884,37.052,2.611,37.841a1.548,1.548,0,0,1-1.9.978,24.888,24.888,0,0,1-6.095-2.977,14.533,14.533,0,0,1-2.97-2.756,9.64,9.64,0,0,1-5.089,3.695c-4.4,1.577-6.011,1.544-14.925,1.353l-1.192-.025c-5.99-.126-11.67-2.6-15.415-4.682a6.138,6.138,0,0,1-.077,4.444,3.7,3.7,0,0,1-3.389,1.887c-5.788.216-14.4-3.4-20.468-8.618-5.4-4.641-6.612-14.421-7.413-20.892-.124-1.006-.239-1.928-.357-2.729-.245-1.662-.942-1.9-1.171-1.976-1.425-.487-4.324.8-6.458,2.861a1.549,1.549,0,0,1-1.744.283,38.661,38.661,0,0,0-5.332-2.156c-.118-.028-.241-.059-.367-.09-1.636-.412-4.375-1.1-10.047,10.4-4.836,9.808-4.845,17.458-.027,23.387,2.492,3.067,1.285,5.082.65,5.806A5.261,5.261,0,0,1-218.52,765.516Zm-5.288-6.082a1.541,1.541,0,0,1,.968.339,40.9,40.9,0,0,0,3.518,2.516,2.6,2.6,0,0,0,2.393-.375c.288-.328-.211-1.184-.725-1.818-5.659-6.964-5.773-15.7-.346-26.7,6.254-12.685,10.134-12.9,13.576-12.03l.313.077a33.666,33.666,0,0,1,5.028,1.94c2.523-2.113,6.094-3.765,8.8-2.845,1.237.421,2.8,1.535,3.234,4.453.121.822.239,1.769.367,2.8.743,6,1.866,15.065,6.36,18.927,5.447,4.681,13.327,8.064,18.333,7.873.246-.01.675-.055.78-.253.495-.925-.677-4.039-2.038-6.256a1.547,1.547,0,0,1,.281-1.956,1.547,1.547,0,0,1,1.974-.083c.088.067,8.9,6.705,18.069,6.9l1.194.025c8.625.183,9.95.211,13.816-1.173,2.711-.971,3.549-2.373,3.784-2.93a1.273,1.273,0,0,0,.129-.844,1.579,1.579,0,0,1,.55-2.263c.473-.261,1.4-.5,2.249.809a16.951,16.951,0,0,0,4.1,4.621,23.79,23.79,0,0,0,3.806,2.044c1.249-4.725,4.262-19.681-2.9-33.918-7.547-15.014-15.085-19.658-20.073-22.732-.808-.5-1.571-.968-2.236-1.427-3.406-2.352-8.466-4.737-13.232-2.732-2.572,1.081-4.271,1.8-5.1.326a1.622,1.622,0,0,1-.216-.771,43.184,43.184,0,0,0-25.577-4.6c-15.383,1.907-17.427,9.87-17.446,9.951a1.547,1.547,0,0,1-.714.974,1.546,1.546,0,0,1-1.2.164c-.059-.015-6.309-1.631-11.836,1.5-6.159,3.492-20.749,23-20.749,40.707,0,16.174,3.152,18.391,5.237,19.858.277.194.54.38.785.574,1.061.841,3.174-.773,3.681-1.251A1.552,1.552,0,0,1-223.808,759.434Z" transform="translate(237.668 -683.94)" fill="#231815"/>
    </g>
    <path id="路径_141" data-name="路径 141" d="M-139.061,823.257c-5.355,0-7.546-2.263-7.778-2.521a1.236,1.236,0,0,1,.092-1.746,1.237,1.237,0,0,1,1.735.079c.092.095,1.731,1.715,5.95,1.715,4.46,0,5.874-1.624,5.888-1.642a1.22,1.22,0,0,1,1.72-.236,1.25,1.25,0,0,1,.24,1.744C-131.412,820.916-133.327,823.257-139.061,823.257Z" transform="translate(203.129 -735.346)" fill="#231815"/>
    <g id="组_133" data-name="组 133" transform="translate(27.738 76.487)">
      <path id="路径_142" data-name="路径 142" d="M111.013,195.183s3.016,3,9.451,3,9.372-3,9.372-3" transform="translate(-111.013 -195.183)" fill="none" stroke="#231815" stroke-linecap="round" stroke-width="5"/>
      <path id="路径_143" data-name="路径 143" d="M111.013,195.183s3.016,3,9.451,3,9.372-3,9.372-3" transform="translate(-56.559 -195.183)" fill="none" stroke="#231815" stroke-linecap="round" stroke-width="5"/>
    </g>
  </g>
</svg>
