<svg xmlns="http://www.w3.org/2000/svg" width="175" height="175" viewBox="0 0 175 175">
  <g id="组_175" data-name="组 175" transform="translate(0.377 -0.039)">
    <circle id="椭圆_2" data-name="椭圆 2" cx="87.5" cy="87.5" r="87.5" transform="translate(-0.377 0.039)" fill="#fff"/>
    <g id="组_128" data-name="组 128" transform="translate(24.716 25.349)">
      <path id="路径_132" data-name="路径 132" d="M-55.728,815.591a10.542,10.542,0,0,1-2.84-.4,1.505,1.505,0,0,1-1.045-1.855,1.508,1.508,0,0,1,1.855-1.045,8.014,8.014,0,0,0,7.1-1.585c3.876-2.942,6.583-8.936,6.583-14.576,0-8.881-4.883-16.107-10.884-16.107q-.272,0-.539.019a1.5,1.5,0,0,1-1.609-1.394,1.5,1.5,0,0,1,1.394-1.608q.375-.028.754-.028c7.661,0,13.895,8.576,13.895,19.117,0,6.624-3.124,13.445-7.773,16.974A11.332,11.332,0,0,1-55.728,815.591Z" transform="translate(166.846 -720.973)" fill="#231815"/>
      <path id="路径_133" data-name="路径 133" d="M-223,815.591a11.329,11.329,0,0,1-6.892-2.484c-4.65-3.529-7.773-10.35-7.773-16.974,0-10.541,6.233-19.117,13.895-19.117.252,0,.5.009.753.028a1.5,1.5,0,0,1,1.395,1.608,1.493,1.493,0,0,1-1.609,1.394q-.268-.019-.539-.019c-6,0-10.884,7.226-10.884,16.107,0,5.64,2.707,11.634,6.583,14.576a8.014,8.014,0,0,0,7.1,1.585,1.508,1.508,0,0,1,1.855,1.045,1.506,1.506,0,0,1-1.045,1.855A10.542,10.542,0,0,1-223,815.591Z" transform="translate(237.668 -720.973)" fill="#231815"/>
      <path id="路径_134" data-name="路径 134" d="M-48.89,816.267a1.5,1.5,0,0,1-.989-.371l-4.5-3.924a1.506,1.506,0,0,1-.146-2.124,1.505,1.505,0,0,1,2.124-.146l4.505,3.925a1.505,1.505,0,0,1,.146,2.124A1.5,1.5,0,0,1-48.89,816.267Z" transform="translate(164.948 -733.831)" fill="#231815"/>
      <path id="路径_135" data-name="路径 135" d="M-223.394,816.267a1.5,1.5,0,0,1-1.136-.517,1.505,1.505,0,0,1,.146-2.124l4.5-3.925a1.5,1.5,0,0,1,2.124.146,1.506,1.506,0,0,1-.146,2.124l-4.505,3.924A1.5,1.5,0,0,1-223.394,816.267Z" transform="translate(232.588 -733.831)" fill="#231815"/>
      <circle id="椭圆_25" data-name="椭圆 25" cx="3.797" cy="3.797" r="3.797" transform="translate(35.757 54.538)" fill="#231815"/>
      <circle id="椭圆_26" data-name="椭圆 26" cx="2.658" cy="2.658" r="2.658" transform="translate(26.928 57.576)" fill="#231815"/>
      <g id="组_126" data-name="组 126" transform="translate(20.714 79.02)">
        <circle id="椭圆_27" data-name="椭圆 27" cx="14.939" cy="14.939" r="14.939" fill="#ea5f3e" opacity="0.33"/>
        <circle id="椭圆_28" data-name="椭圆 28" cx="14.939" cy="14.939" r="14.939" transform="translate(54.487)" fill="#ea5f3e" opacity="0.33"/>
      </g>
      <path id="路径_136" data-name="路径 136" d="M-167.554,824a50.736,50.736,0,0,1-50.679-50.678,50.736,50.736,0,0,1,50.679-50.679,50.735,50.735,0,0,1,50.678,50.679A50.736,50.736,0,0,1-167.554,824Zm0-98.346a47.722,47.722,0,0,0-47.668,47.668,47.722,47.722,0,0,0,47.668,47.667,47.722,47.722,0,0,0,47.667-47.667A47.722,47.722,0,0,0-167.554,725.654Z" transform="translate(229.935 -699.339)" fill="#231815"/>
      <g id="组_127" data-name="组 127" transform="translate(0 0)">
        <path id="路径_137" data-name="路径 137" d="M-198.842,725.123c3.114-3.011,9.134-5.62,9.964,0s1.453,17.261,7.057,22.078,13.7,8.229,18.89,8.028,0-8.63,0-8.63,8.926,6.824,18.475,7.025,10.95.3,15.153-1.2,5.293-4.365,4.671-5.72,1.556,3.011,4.515,4.967a22.787,22.787,0,0,0,5.527,2.71s6.313-18.214-2.465-35.676-17.852-21.074-22.211-24.085-9.548-4.817-14.323-2.81-2.575.4-2.575.4-10.918-7.427-27.109-5.419-18.267,10.838-18.267,10.838a18.393,18.393,0,0,0-12.662,1.605c-6.02,3.412-20.965,22.68-20.965,40.944s4.151,19.268,6.435,21.074,5.553-1.3,5.553-1.3a41.147,41.147,0,0,0,3.581,2.559c1.712,1.054,7.006-.151,3.58-4.365s-6.538-11.44-.155-24.386,9.7-11.334,11.832-10.838A40.61,40.61,0,0,1-198.842,725.123Z" transform="translate(236.673 -684.936)" fill="#2a2827"/>
        <path id="路径_138" data-name="路径 138" d="M-219.025,763.368a4.6,4.6,0,0,1-2.359-.577c-1-.617-2.041-1.37-2.768-1.918-1.743,1.241-4.373,2.253-6.51.563-.2-.155-.407-.3-.628-.458-3.361-2.364-6.378-5.81-6.378-21.8,0-18.627,15.092-38.492,21.728-42.254a19.524,19.524,0,0,1,12.457-2.023c1.32-2.794,5.7-8.954,19.029-10.606,16.04-1.983,26.97,4.9,28.065,5.618.322-.123.723-.284,1.221-.493,4.666-1.963,10.117-.939,15.762,2.959.582.4,1.26.819,2.045,1.3,4.834,2.978,12.924,7.963,20.656,23.344,8.96,17.825,2.808,36.077,2.542,36.844a1.507,1.507,0,0,1-1.845.952,24.23,24.23,0,0,1-5.934-2.9,14.153,14.153,0,0,1-2.892-2.684,9.387,9.387,0,0,1-4.955,3.6c-4.289,1.535-5.853,1.5-14.532,1.317l-1.161-.025c-5.832-.122-11.363-2.532-15.009-4.559a5.976,5.976,0,0,1-.075,4.327,3.6,3.6,0,0,1-3.3,1.837c-5.636.211-14.019-3.311-19.929-8.391-5.258-4.518-6.438-14.041-7.218-20.342-.121-.98-.232-1.877-.347-2.657-.239-1.618-.918-1.849-1.14-1.924-1.388-.475-4.21.777-6.288,2.786a1.508,1.508,0,0,1-1.7.276,37.641,37.641,0,0,0-5.191-2.1c-.115-.027-.235-.057-.358-.088-1.593-.4-4.259-1.074-9.782,10.126-4.709,9.55-4.717,17-.026,22.771,2.427,2.987,1.251,4.948.633,5.653A5.123,5.123,0,0,1-219.025,763.368Zm-5.149-5.922a1.5,1.5,0,0,1,.942.331,39.853,39.853,0,0,0,3.425,2.45,2.529,2.529,0,0,0,2.33-.365c.281-.32-.205-1.153-.706-1.77-5.51-6.781-5.621-15.286-.337-26,6.089-12.351,9.868-12.558,13.218-11.714l.3.075a32.786,32.786,0,0,1,4.9,1.889c2.457-2.057,5.934-3.666,8.568-2.77,1.2.41,2.729,1.495,3.149,4.335.118.8.232,1.722.357,2.728.724,5.841,1.817,14.668,6.193,18.429,5.3,4.557,12.976,7.852,17.85,7.666.24-.01.658-.054.76-.246.482-.9-.659-3.933-1.985-6.092a1.507,1.507,0,0,1,.274-1.9,1.506,1.506,0,0,1,1.922-.081c.085.066,8.665,6.529,17.593,6.717l1.162.025c8.4.178,9.688.206,13.452-1.142,2.64-.945,3.456-2.31,3.684-2.853a1.239,1.239,0,0,0,.126-.821,1.537,1.537,0,0,1,.535-2.2c.461-.254,1.358-.49,2.189.788a16.5,16.5,0,0,0,3.988,4.5,23.156,23.156,0,0,0,3.705,1.991c1.216-4.6,4.15-19.162-2.819-33.025-7.348-14.619-14.688-19.14-19.545-22.133-.786-.485-1.529-.943-2.177-1.39-3.316-2.29-8.243-4.612-12.884-2.66-2.5,1.052-4.159,1.749-4.967.317a1.58,1.58,0,0,1-.211-.751,42.047,42.047,0,0,0-24.9-4.478c-14.978,1.857-16.968,9.61-16.987,9.689a1.506,1.506,0,0,1-.7.948,1.506,1.506,0,0,1-1.165.16c-.057-.015-6.143-1.588-11.525,1.463-6,3.4-20.2,22.39-20.2,39.635,0,15.748,3.069,17.906,5.1,19.335.27.189.526.37.764.559,1.033.819,3.09-.753,3.584-1.218A1.512,1.512,0,0,1-224.173,757.446Z" transform="translate(237.668 -683.94)" fill="#231815"/>
      </g>
      <path id="路径_139" data-name="路径 139" d="M-96.636,811.254c-8.19,0-11.629-3.639-11.994-4.054l4.068-3.58-.045-.05c.09.093,2.277,2.265,7.971,2.265,5.926,0,7.823-2.091,7.841-2.112a.72.72,0,0,0-.068.089l4.374,3.2C-84.806,807.443-87.845,811.254-96.636,811.254Z" transform="translate(186.326 -731.538)" fill="#231815" stroke="#707070" stroke-linecap="round" stroke-linejoin="round" stroke-width="1"/>
      <path id="路径_140" data-name="路径 140" d="M-185.326,811.254c-8.189,0-11.629-3.639-11.994-4.054l4.068-3.58-.045-.05c.09.093,2.276,2.265,7.971,2.265,5.926,0,7.823-2.092,7.841-2.112a.783.783,0,0,0-.069.089l4.375,3.2C-173.5,807.443-176.535,811.254-185.326,811.254Z" transform="translate(221.614 -731.538)" fill="#231815" stroke="#707070" stroke-linecap="round" stroke-linejoin="round" stroke-width="1"/>
      <path id="路径_141" data-name="路径 141" d="M-139.274,823.136c-5.214,0-7.347-2.2-7.573-2.455a1.2,1.2,0,0,1,.09-1.7,1.2,1.2,0,0,1,1.69.077c.089.092,1.685,1.67,5.794,1.67,4.342,0,5.719-1.582,5.733-1.6a1.188,1.188,0,0,1,1.675-.23,1.217,1.217,0,0,1,.234,1.7C-131.827,820.857-133.691,823.136-139.274,823.136Z" transform="translate(201.655 -737.54)" fill="#231815"/>
    </g>
  </g>
</svg>
