<svg xmlns="http://www.w3.org/2000/svg" width="652" height="237" viewBox="0 0 652 237">
  <g id="组_286" data-name="组 286" transform="translate(-58 -895)">
    <rect id="矩形_64" data-name="矩形 64" width="652" height="237" rx="20" transform="translate(58 895)" fill="rgba(255,255,255,0.5)"/>
    <g id="组_174" data-name="组 174" transform="translate(114.245 930.097)">
      <g id="组_90" data-name="组 90" transform="translate(0 0)">
        <text id="SKILLS" transform="translate(47.412 29)" fill="#808f85" font-size="27" font-family="SegoeUI, Segoe UI" letter-spacing="0.098em"><tspan x="-45.091" y="0">SKILLS</tspan></text>
        <line id="直线_27" data-name="直线 27" x2="100.431" transform="translate(0 37.936)" fill="none" stroke="#808f85" stroke-width="3"/>
      </g>
      <g id="组_105" data-name="组 105" transform="translate(0.322 66.903)">
        <g id="组_104" data-name="组 104" transform="translate(31 84)">
          <text id="GRAPHIC_DESIGN" data-name="GRAPHIC DESIGN" transform="translate(46.432 13)" fill="#808f85" font-size="12" font-family="SegoeUI-Semilight, Segoe UI" font-weight="300"><tspan x="-45.797" y="0">GRAPHIC DESIGN</tspan></text>
          <g id="组_91" data-name="组 91" transform="translate(139 2)">
            <g id="椭圆_16" data-name="椭圆 16" transform="translate(0.432 0)" fill="#b0dab7" stroke="#707070" stroke-width="2">
              <circle cx="6" cy="6" r="6" stroke="none"/>
              <circle cx="6" cy="6" r="5" fill="none"/>
            </g>
            <g id="椭圆_16-2" data-name="椭圆 16" transform="translate(22.432 0)" fill="#b0dab7" stroke="#707070" stroke-width="2">
              <circle cx="6" cy="6" r="6" stroke="none"/>
              <circle cx="6" cy="6" r="5" fill="none"/>
            </g>
            <g id="椭圆_16-3" data-name="椭圆 16" transform="translate(44.432 0)" fill="#b0dab7" stroke="#707070" stroke-width="2">
              <circle cx="6" cy="6" r="6" stroke="none"/>
              <circle cx="6" cy="6" r="5" fill="none"/>
            </g>
            <g id="椭圆_16-4" data-name="椭圆 16" transform="translate(65.432 0)" fill="none" stroke="#707070" stroke-width="2">
              <circle cx="6" cy="6" r="6" stroke="none"/>
              <circle cx="6" cy="6" r="5" fill="none"/>
            </g>
            <g id="椭圆_16-5" data-name="椭圆 16" transform="translate(86.432 0)" fill="rgba(255,255,255,0)" stroke="#707070" stroke-width="2">
              <circle cx="6" cy="6" r="6" stroke="none"/>
              <circle cx="6" cy="6" r="5" fill="none"/>
            </g>
          </g>
        </g>
        <g id="组_97" data-name="组 97" transform="translate(313.432 0)">
          <g id="组_95" data-name="组 95" transform="translate(0)">
            <text id="WEBSITE_DESIGN" data-name="WEBSITE DESIGN" transform="translate(44 13.001)" fill="#808f85" font-size="12" font-family="SegoeUI-Semilight, Segoe UI" font-weight="300"><tspan x="-44.332" y="0">WEBSITE DESIGN</tspan></text>
            <g id="组_91-2" data-name="组 91" transform="translate(126 2)">
              <g id="椭圆_16-6" data-name="椭圆 16" transform="translate(0 0)" fill="#b0dab7" stroke="#707070" stroke-width="2">
                <circle cx="6" cy="6" r="6" stroke="none"/>
                <circle cx="6" cy="6" r="5" fill="none"/>
              </g>
              <g id="椭圆_16-7" data-name="椭圆 16" transform="translate(22 0)" fill="#b0dab7" stroke="#707070" stroke-width="2">
                <circle cx="6" cy="6" r="6" stroke="none"/>
                <circle cx="6" cy="6" r="5" fill="none"/>
              </g>
              <g id="椭圆_16-8" data-name="椭圆 16" transform="translate(43 0)" fill="#b0dab7" stroke="#707070" stroke-width="2">
                <circle cx="6" cy="6" r="6" stroke="none"/>
                <circle cx="6" cy="6" r="5" fill="none"/>
              </g>
              <g id="椭圆_16-9" data-name="椭圆 16" transform="translate(65 0)" fill="#b0dab7" stroke="#707070" stroke-width="2">
                <circle cx="6" cy="6" r="6" stroke="none"/>
                <circle cx="6" cy="6" r="5" fill="none"/>
              </g>
              <g id="椭圆_16-10" data-name="椭圆 16" transform="translate(86 0)" fill="rgba(255,255,255,0)" stroke="#707070" stroke-width="2">
                <circle cx="6" cy="6" r="6" stroke="none"/>
                <circle cx="6" cy="6" r="5" fill="none"/>
              </g>
            </g>
          </g>
          <g id="组_93" data-name="组 93" transform="translate(8 42)">
            <text id="UI_UX_DESIGN" data-name="UI/UX DESIGN" transform="translate(37 13)" fill="#808f85" font-size="12" font-family="SegoeUI-Semilight, Segoe UI" font-weight="300"><tspan x="-37.002" y="0">UI/UX DESIGN</tspan></text>
            <g id="组_91-3" data-name="组 91" transform="translate(118 2)">
              <g id="椭圆_16-11" data-name="椭圆 16" transform="translate(0 0)" fill="#b0dab7" stroke="#707070" stroke-width="2">
                <circle cx="6" cy="6" r="6" stroke="none"/>
                <circle cx="6" cy="6" r="5" fill="none"/>
              </g>
              <g id="椭圆_16-12" data-name="椭圆 16" transform="translate(22 0)" fill="#b0dab7" stroke="#707070" stroke-width="2">
                <circle cx="6" cy="6" r="6" stroke="none"/>
                <circle cx="6" cy="6" r="5" fill="none"/>
              </g>
              <g id="椭圆_16-13" data-name="椭圆 16" transform="translate(43 0)" fill="#b0dab7" stroke="#707070" stroke-width="2">
                <circle cx="6" cy="6" r="6" stroke="none"/>
                <circle cx="6" cy="6" r="5" fill="none"/>
              </g>
              <g id="椭圆_16-14" data-name="椭圆 16" transform="translate(65 0)" fill="none" stroke="#707070" stroke-width="2">
                <circle cx="6" cy="6" r="6" stroke="none"/>
                <circle cx="6" cy="6" r="5" fill="none"/>
              </g>
              <g id="椭圆_16-15" data-name="椭圆 16" transform="translate(86 0)" fill="none" stroke="#707070" stroke-width="2">
                <circle cx="6" cy="6" r="6" stroke="none"/>
                <circle cx="6" cy="6" r="5" fill="none"/>
              </g>
            </g>
          </g>
        </g>
        <g id="组_102" data-name="组 102" transform="translate(0 0)">
          <g id="组_91-4" data-name="组 91" transform="translate(170 2)">
            <g id="椭圆_16-16" data-name="椭圆 16" transform="translate(0.432 0)" fill="#b0dab7" stroke="#707070" stroke-width="2">
              <circle cx="6" cy="6" r="6" stroke="none"/>
              <circle cx="6" cy="6" r="5" fill="none"/>
            </g>
            <g id="椭圆_16-17" data-name="椭圆 16" transform="translate(22.432 0)" fill="#b0dab7" stroke="#707070" stroke-width="2">
              <circle cx="6" cy="6" r="6" stroke="none"/>
              <circle cx="6" cy="6" r="5" fill="none"/>
            </g>
            <g id="椭圆_16-18" data-name="椭圆 16" transform="translate(44.432 0)" fill="#b0dab7" stroke="#707070" stroke-width="2">
              <circle cx="6" cy="6" r="6" stroke="none"/>
              <circle cx="6" cy="6" r="5" fill="none"/>
            </g>
            <g id="椭圆_16-19" data-name="椭圆 16" transform="translate(65.432 0)" fill="#b0dab7" stroke="#707070" stroke-width="2">
              <circle cx="6" cy="6" r="6" stroke="none"/>
              <circle cx="6" cy="6" r="5" fill="none"/>
            </g>
            <g id="椭圆_16-20" data-name="椭圆 16" transform="translate(86.432 0)" fill="none" stroke="#707070" stroke-width="2">
              <circle cx="6" cy="6" r="6" stroke="none"/>
              <circle cx="6" cy="6" r="5" fill="none"/>
            </g>
          </g>
          <text id="TRADITIONAL_ILLUSTRATION" data-name="TRADITIONAL ILLUSTRATION" transform="translate(75.432 13.001)" fill="#808f85" font-size="12" font-family="SegoeUI-Semilight, Segoe UI" font-weight="300"><tspan x="-75.255" y="0">TRADITIONAL ILLUSTRATION</tspan></text>
        </g>
        <g id="组_103" data-name="组 103" transform="translate(36 42)">
          <text id="PHOTOGRAPHY" transform="translate(41.432 13.001)" fill="#808f85" font-size="12" font-family="SegoeUI-Semilight, Segoe UI" font-weight="300"><tspan x="-41.212" y="0">PHOTOGRAPHY</tspan></text>
          <g id="组_91-5" data-name="组 91" transform="translate(134 2)">
            <g id="椭圆_16-21" data-name="椭圆 16" transform="translate(0.432 0)" fill="#b0dab7" stroke="#707070" stroke-width="2">
              <circle cx="6" cy="6" r="6" stroke="none"/>
              <circle cx="6" cy="6" r="5" fill="none"/>
            </g>
            <g id="椭圆_16-22" data-name="椭圆 16" transform="translate(22.432 0)" fill="#b0dab7" stroke="#707070" stroke-width="2">
              <circle cx="6" cy="6" r="6" stroke="none"/>
              <circle cx="6" cy="6" r="5" fill="none"/>
            </g>
            <g id="椭圆_16-23" data-name="椭圆 16" transform="translate(44.432 0)" fill="#b0dab7" stroke="#707070" stroke-width="2">
              <circle cx="6" cy="6" r="6" stroke="none"/>
              <circle cx="6" cy="6" r="5" fill="none"/>
            </g>
            <g id="椭圆_16-24" data-name="椭圆 16" transform="translate(65.432 0)" fill="#b0dab7" stroke="#707070" stroke-width="2">
              <circle cx="6" cy="6" r="6" stroke="none"/>
              <circle cx="6" cy="6" r="5" fill="none"/>
            </g>
            <g id="椭圆_16-25" data-name="椭圆 16" transform="translate(86.432 0)" fill="none" stroke="#707070" stroke-width="2">
              <circle cx="6" cy="6" r="6" stroke="none"/>
              <circle cx="6" cy="6" r="5" fill="none"/>
            </g>
          </g>
        </g>
      </g>
    </g>
  </g>
</svg>
