<svg xmlns="http://www.w3.org/2000/svg" width="652" height="237" viewBox="0 0 652 237">
  <g id="组_287" data-name="组 287" transform="translate(-58 -1465)">
    <rect id="矩形_65" data-name="矩形 65" width="652" height="237" rx="20" transform="translate(58 1465)" fill="rgba(255,255,255,0.5)"/>
    <g id="组_176" data-name="组 176" transform="translate(115.528 1500.308)">
      <g id="组_90" data-name="组 90" transform="translate(0)">
        <text id="SKILLS" transform="translate(47.41 29)" fill="#808f85" font-size="27" font-family="SegoeUI, Segoe UI" letter-spacing="0.098em"><tspan x="-45.091" y="0">SKILLS</tspan></text>
        <line id="直线_27" data-name="直线 27" x2="100.362" transform="translate(0 37.91)" fill="none" stroke="#808f85" stroke-width="3"/>
      </g>
    </g>
    <g id="组_104" data-name="组 104" transform="translate(139.245 1651)">
      <text id="PACKAGING_DESIGN" data-name="PACKAGING DESIGN" transform="translate(52.755 13)" fill="#808f85" font-size="12" font-family="SegoeUI-Semilight, Segoe UI" font-weight="300"><tspan x="-53.124" y="0">PACKAGING DESIGN</tspan></text>
      <g id="组_91" data-name="组 91" transform="translate(146 2)">
        <g id="椭圆_16" data-name="椭圆 16" transform="translate(-0.245)" fill="#b0dab7" stroke="#707070" stroke-width="2">
          <circle cx="6" cy="6" r="6" stroke="none"/>
          <circle cx="6" cy="6" r="5" fill="none"/>
        </g>
        <g id="椭圆_16-2" data-name="椭圆 16" transform="translate(22.755)" fill="#b0dab7" stroke="#707070" stroke-width="2">
          <circle cx="6" cy="6" r="6" stroke="none"/>
          <circle cx="6" cy="6" r="5" fill="none"/>
        </g>
        <g id="椭圆_16-3" data-name="椭圆 16" transform="translate(43.755)" fill="#b0dab7" stroke="#707070" stroke-width="2">
          <circle cx="6" cy="6" r="6" stroke="none"/>
          <circle cx="6" cy="6" r="5" fill="none"/>
        </g>
        <g id="椭圆_16-4" data-name="椭圆 16" transform="translate(64.755)" fill="none" stroke="#707070" stroke-width="2">
          <circle cx="6" cy="6" r="6" stroke="none"/>
          <circle cx="6" cy="6" r="5" fill="none"/>
        </g>
        <g id="椭圆_16-5" data-name="椭圆 16" transform="translate(86.755)" fill="rgba(255,255,255,0)" stroke="#707070" stroke-width="2">
          <circle cx="6" cy="6" r="6" stroke="none"/>
          <circle cx="6" cy="6" r="5" fill="none"/>
        </g>
      </g>
    </g>
    <g id="组_97" data-name="组 97" transform="translate(431 1568)">
      <g id="组_95" data-name="组 95" transform="translate(0 42)">
        <text id="DIGITAL_DESIGN" data-name="DIGITAL DESIGN" transform="translate(42 13)" fill="#808f85" font-size="12" font-family="SegoeUI-Semilight, Segoe UI" font-weight="300"><tspan x="-42.193" y="0">DIGITAL DESIGN</tspan></text>
        <g id="组_91-2" data-name="组 91" transform="translate(124 2)">
          <g id="椭圆_16-6" data-name="椭圆 16" fill="#b0dab7" stroke="#707070" stroke-width="2">
            <circle cx="6" cy="6" r="6" stroke="none"/>
            <circle cx="6" cy="6" r="5" fill="none"/>
          </g>
          <g id="椭圆_16-7" data-name="椭圆 16" transform="translate(21)" fill="#b0dab7" stroke="#707070" stroke-width="2">
            <circle cx="6" cy="6" r="6" stroke="none"/>
            <circle cx="6" cy="6" r="5" fill="none"/>
          </g>
          <g id="椭圆_16-8" data-name="椭圆 16" transform="translate(42)" fill="#b0dab7" stroke="#707070" stroke-width="2">
            <circle cx="6" cy="6" r="6" stroke="none"/>
            <circle cx="6" cy="6" r="5" fill="none"/>
          </g>
          <g id="椭圆_16-9" data-name="椭圆 16" transform="translate(64)" fill="none" stroke="#707070" stroke-width="2">
            <circle cx="6" cy="6" r="6" stroke="none"/>
            <circle cx="6" cy="6" r="5" fill="none"/>
          </g>
          <g id="椭圆_16-10" data-name="椭圆 16" transform="translate(86)" fill="rgba(255,255,255,0)" stroke="#707070" stroke-width="2">
            <circle cx="6" cy="6" r="6" stroke="none"/>
            <circle cx="6" cy="6" r="5" fill="none"/>
          </g>
        </g>
      </g>
      <g id="组_107" data-name="组 107" transform="translate(7)">
        <text id="FILM_EDITING" data-name="FILM EDITING" transform="translate(36 13)" fill="#808f85" font-size="12" font-family="SegoeUI-Semilight, Segoe UI" font-weight="300"><tspan x="-35.607" y="0">FILM EDITING</tspan></text>
        <g id="组_91-3" data-name="组 91" transform="translate(117 3)">
          <g id="椭圆_16-11" data-name="椭圆 16" transform="translate(0)" fill="#b0dab7" stroke="#707070" stroke-width="2">
            <circle cx="6" cy="6" r="6" stroke="none"/>
            <circle cx="6" cy="6" r="5" fill="none"/>
          </g>
          <g id="椭圆_16-12" data-name="椭圆 16" transform="translate(21)" fill="#b0dab7" stroke="#707070" stroke-width="2">
            <circle cx="6" cy="6" r="6" stroke="none"/>
            <circle cx="6" cy="6" r="5" fill="none"/>
          </g>
          <g id="椭圆_16-13" data-name="椭圆 16" transform="translate(42)" fill="#b0dab7" stroke="#707070" stroke-width="2">
            <circle cx="6" cy="6" r="6" stroke="none"/>
            <circle cx="6" cy="6" r="5" fill="none"/>
          </g>
          <g id="椭圆_16-14" data-name="椭圆 16" transform="translate(64)" fill="#b0dab7" stroke="#707070" stroke-width="2">
            <circle cx="6" cy="6" r="6" stroke="none"/>
            <circle cx="6" cy="6" r="5" fill="none"/>
          </g>
          <g id="椭圆_16-15" data-name="椭圆 16" transform="translate(86)" fill="rgba(255,255,255,0)" stroke="#707070" stroke-width="2">
            <circle cx="6" cy="6" r="6" stroke="none"/>
            <circle cx="6" cy="6" r="5" fill="none"/>
          </g>
        </g>
      </g>
      <g id="组_93" data-name="组 93" transform="translate(6 83)">
        <text id="UI_UX_DESIGN" data-name="UI/UX DESIGN" transform="translate(37 13)" fill="#808f85" font-size="12" font-family="SegoeUI-Semilight, Segoe UI" font-weight="300"><tspan x="-37.002" y="0">UI/UX DESIGN</tspan></text>
        <g id="组_91-4" data-name="组 91" transform="translate(118 2)">
          <g id="椭圆_16-16" data-name="椭圆 16" transform="translate(0)" fill="#b0dab7" stroke="#707070" stroke-width="2">
            <circle cx="6" cy="6" r="6" stroke="none"/>
            <circle cx="6" cy="6" r="5" fill="none"/>
          </g>
          <g id="椭圆_16-17" data-name="椭圆 16" transform="translate(21)" fill="#b0dab7" stroke="#707070" stroke-width="2">
            <circle cx="6" cy="6" r="6" stroke="none"/>
            <circle cx="6" cy="6" r="5" fill="none"/>
          </g>
          <g id="椭圆_16-18" data-name="椭圆 16" transform="translate(42)" fill="#b0dab7" stroke="#707070" stroke-width="2">
            <circle cx="6" cy="6" r="6" stroke="none"/>
            <circle cx="6" cy="6" r="5" fill="none"/>
          </g>
          <g id="椭圆_16-19" data-name="椭圆 16" transform="translate(64)" fill="none" stroke="#707070" stroke-width="2">
            <circle cx="6" cy="6" r="6" stroke="none"/>
            <circle cx="6" cy="6" r="5" fill="none"/>
          </g>
          <g id="椭圆_16-20" data-name="椭圆 16" transform="translate(86)" fill="none" stroke="#707070" stroke-width="2">
            <circle cx="6" cy="6" r="6" stroke="none"/>
            <circle cx="6" cy="6" r="5" fill="none"/>
          </g>
        </g>
      </g>
    </g>
    <g id="组_102" data-name="组 102" transform="translate(115.245 1568)">
      <g id="组_91-5" data-name="组 91" transform="translate(170 2)">
        <g id="椭圆_16-21" data-name="椭圆 16" transform="translate(-0.245)" fill="#b0dab7" stroke="#707070" stroke-width="2">
          <circle cx="6" cy="6" r="6" stroke="none"/>
          <circle cx="6" cy="6" r="5" fill="none"/>
        </g>
        <g id="椭圆_16-22" data-name="椭圆 16" transform="translate(22.755)" fill="#b0dab7" stroke="#707070" stroke-width="2">
          <circle cx="6" cy="6" r="6" stroke="none"/>
          <circle cx="6" cy="6" r="5" fill="none"/>
        </g>
        <g id="椭圆_16-23" data-name="椭圆 16" transform="translate(43.755)" fill="#b0dab7" stroke="#707070" stroke-width="2">
          <circle cx="6" cy="6" r="6" stroke="none"/>
          <circle cx="6" cy="6" r="5" fill="none"/>
        </g>
        <g id="椭圆_16-24" data-name="椭圆 16" transform="translate(64.755)" fill="#b0dab7" stroke="#707070" stroke-width="2">
          <circle cx="6" cy="6" r="6" stroke="none"/>
          <circle cx="6" cy="6" r="5" fill="none"/>
        </g>
        <g id="椭圆_16-25" data-name="椭圆 16" transform="translate(86.755)" fill="none" stroke="#707070" stroke-width="2">
          <circle cx="6" cy="6" r="6" stroke="none"/>
          <circle cx="6" cy="6" r="5" fill="none"/>
        </g>
      </g>
      <text id="TRADITIONAL_ILLUSTRATION" data-name="TRADITIONAL ILLUSTRATION" transform="translate(74.755 13)" fill="#808f85" font-size="12" font-family="SegoeUI-Semilight, Segoe UI" font-weight="300"><tspan x="-75.255" y="0">TRADITIONAL ILLUSTRATION</tspan></text>
    </g>
    <g id="组_103" data-name="组 103" transform="translate(152.245 1610)">
      <text id="PHOTOGRAPHY" transform="translate(40.755 13)" fill="#808f85" font-size="12" font-family="SegoeUI-Semilight, Segoe UI" font-weight="300"><tspan x="-41.212" y="0">PHOTOGRAPHY</tspan></text>
      <g id="组_91-6" data-name="组 91" transform="translate(133 2)">
        <g id="椭圆_16-26" data-name="椭圆 16" transform="translate(-0.245)" fill="#b0dab7" stroke="#707070" stroke-width="2">
          <circle cx="6" cy="6" r="6" stroke="none"/>
          <circle cx="6" cy="6" r="5" fill="none"/>
        </g>
        <g id="椭圆_16-27" data-name="椭圆 16" transform="translate(22.755)" fill="#b0dab7" stroke="#707070" stroke-width="2">
          <circle cx="6" cy="6" r="6" stroke="none"/>
          <circle cx="6" cy="6" r="5" fill="none"/>
        </g>
        <g id="椭圆_16-28" data-name="椭圆 16" transform="translate(43.755)" fill="#b0dab7" stroke="#707070" stroke-width="2">
          <circle cx="6" cy="6" r="6" stroke="none"/>
          <circle cx="6" cy="6" r="5" fill="none"/>
        </g>
        <g id="椭圆_16-29" data-name="椭圆 16" transform="translate(64.755)" fill="#b0dab7" stroke="#707070" stroke-width="2">
          <circle cx="6" cy="6" r="6" stroke="none"/>
          <circle cx="6" cy="6" r="5" fill="none"/>
        </g>
        <g id="椭圆_16-30" data-name="椭圆 16" transform="translate(86.755)" fill="none" stroke="#707070" stroke-width="2">
          <circle cx="6" cy="6" r="6" stroke="none"/>
          <circle cx="6" cy="6" r="5" fill="none"/>
        </g>
      </g>
    </g>
  </g>
</svg>
