<svg xmlns="http://www.w3.org/2000/svg" width="175" height="175" viewBox="0 0 175 175">
  <g id="组_178" data-name="组 178" transform="translate(0.154)">
    <circle id="椭圆_3" data-name="椭圆 3" cx="87.5" cy="87.5" r="87.5" transform="translate(-0.154)" fill="#fff"/>
    <g id="组_112" data-name="组 112" transform="translate(23.736 13.768)">
      <path id="路径_114" data-name="路径 114" d="M-109.687,543.377" transform="translate(181.293 -480.427)" fill="none" stroke="#231815" stroke-linecap="round" stroke-linejoin="round" stroke-width="5"/>
      <g id="组_112-2" data-name="组 112" transform="translate(23.618 77.689)">
        <circle id="椭圆_17" data-name="椭圆 17" cx="14.719" cy="14.719" r="14.719" fill="#ea5f3e" opacity="0.33"/>
        <circle id="椭圆_18" data-name="椭圆 18" cx="14.719" cy="14.719" r="14.719" transform="translate(53.686)" fill="#ea5f3e" opacity="0.33"/>
      </g>
      <g id="组_115" data-name="组 115" transform="translate(35.779 43.16)" opacity="0.9">
        <g id="组_113" data-name="组 113" transform="translate(0 0)">
          <ellipse id="椭圆_19" data-name="椭圆 19" cx="4.703" cy="3.456" rx="4.703" ry="3.456" transform="translate(0 1.945) rotate(-11.936)" fill="#1a0e0e"/>
          <path id="路径_115" data-name="路径 115" d="M-160.035,521.577a5.88,5.88,0,0,1-2.426-.5,3.687,3.687,0,0,1-2.221-2.564,3.691,3.691,0,0,1,.993-3.244,6.289,6.289,0,0,1,3.4-1.881,6.284,6.284,0,0,1,3.866.347,3.687,3.687,0,0,1,2.221,2.564,3.69,3.69,0,0,1-.993,3.244,6.292,6.292,0,0,1-3.4,1.881A7.02,7.02,0,0,1-160.035,521.577Zm1.185-7.041a5.664,5.664,0,0,0-1.174.126,4.98,4.98,0,0,0-2.694,1.474,2.427,2.427,0,0,0-.691,2.109,2.427,2.427,0,0,0,1.485,1.648,4.985,4.985,0,0,0,3.06.258,4.98,4.98,0,0,0,2.694-1.475,2.425,2.425,0,0,0,.691-2.108h0a2.427,2.427,0,0,0-1.485-1.648A4.59,4.59,0,0,0-158.851,514.536Z" transform="translate(164.761 -513.052)" fill="#1b0f0f"/>
        </g>
        <g id="组_114" data-name="组 114" transform="translate(45.101 0)">
          <ellipse id="椭圆_20" data-name="椭圆 20" cx="3.456" cy="4.703" rx="3.456" ry="4.703" transform="translate(0 6.763) rotate(-78.064)" fill="#1a0e0e"/>
          <path id="路径_116" data-name="路径 116" d="M-89.517,521.577a6.971,6.971,0,0,1-1.441-.153c-2.887-.611-4.856-2.91-4.389-5.125h0a3.688,3.688,0,0,1,2.221-2.564,6.285,6.285,0,0,1,3.866-.347,6.285,6.285,0,0,1,3.4,1.881,3.689,3.689,0,0,1,.993,3.244,3.686,3.686,0,0,1-2.221,2.564A5.877,5.877,0,0,1-89.517,521.577Zm-4.557-5.009c-.319,1.514,1.2,3.12,3.386,3.583a4.982,4.982,0,0,0,3.06-.258,2.426,2.426,0,0,0,1.485-1.648,2.428,2.428,0,0,0-.691-2.109,4.985,4.985,0,0,0-2.694-1.474,4.974,4.974,0,0,0-3.06.258,2.43,2.43,0,0,0-1.486,1.648Z" transform="translate(95.425 -513.052)" fill="#1b0f0f"/>
        </g>
      </g>
      <path id="路径_117" data-name="路径 117" d="M-138.749,619.032a54.354,54.354,0,0,1-30.7-9.434,1.627,1.627,0,0,1-.43-2.259,1.627,1.627,0,0,1,2.26-.43,51.115,51.115,0,0,0,28.87,8.87,51.123,51.123,0,0,0,28.8-8.824,1.626,1.626,0,0,1,2.258.433,1.627,1.627,0,0,1-.433,2.259A54.364,54.364,0,0,1-138.749,619.032Z" transform="translate(202.43 -502.535)" fill="#231815"/>
      <g id="组_118" data-name="组 118" transform="translate(0 0)">
        <g id="组_117" data-name="组 117">
          <g id="组_116" data-name="组 116">
            <path id="路径_118" data-name="路径 118" d="M-138.562,486.249s18,11.708,20.6,15.828a32.976,32.976,0,0,1,4.553,13.443c.217,3.469,1.365,13.01-3.329,19.948s-8.316,3.686-9.107,13.877,7.015,10.408,7.015,10.408-9.54-1.735-9.974,11.058,17.7,10.082,21.858,9.215,14.939-5.329,14.46-17.68-7.7-9.229-7.7-16.427,11.709-58.369-13.958-80.729l-2.9-2.489a59.31,59.31,0,0,0-37.882-13.6c-14.806,0-28.742,5.019-39.16,13.961l-2.968,2.6c-26.507,24.488-12.506,73.057-12.506,80.255s-7.219,4.077-7.7,16.427,10.3,16.812,14.46,17.68,22.292,3.578,21.858-9.215-9.974-11.058-9.974-11.058,7.806-.217,7.015-10.408-4.413-6.939-9.107-13.877-3.546-16.479-3.329-19.948a32.976,32.976,0,0,1,4.553-13.443c2.6-4.12,20.6-15.828,20.6-15.828s3.093-2.223,3.761-2.711" transform="translate(218.896 -447.475)" fill="#724b42"/>
            <path id="路径_119" data-name="路径 119" d="M-116.017,581.625c-4.117,0-8.763-.7-11.857-3.306a10,10,0,0,1-3.431-8.437c.166-4.885,1.6-8.452,4.269-10.6a9.147,9.147,0,0,1,1.769-1.118c-.2-.181-.392-.376-.58-.586-1.962-2.18-2.8-5.284-2.5-9.229.513-6.611,2.234-8.3,5.007-10.293a15.628,15.628,0,0,0,4.374-4.369c4.008-5.923,3.408-14.07,3.12-17.986-.026-.353-.049-.67-.067-.95a31.5,31.5,0,0,0-4.3-12.676c-1.769-2.8-13-10.7-20.11-15.333a1.626,1.626,0,0,1-.477-2.25,1.627,1.627,0,0,1,2.25-.477c1.873,1.218,18.373,12.027,21.086,16.323a34.722,34.722,0,0,1,4.8,14.21c.016.269.039.575.064.914.315,4.281.97,13.188-3.669,20.046a18.679,18.679,0,0,1-5.17,5.188c-2.082,1.5-3.23,2.321-3.663,7.9-.232,3,.319,5.277,1.64,6.769a5.921,5.921,0,0,0,3.412,1.838c.368.028.6.067.633.074a1.626,1.626,0,0,1,1.326,1.769,1.627,1.627,0,0,1-1.663,1.457,6.114,6.114,0,0,1-.653-.065,6.812,6.812,0,0,0-4.621,1.4c-1.879,1.535-2.9,4.28-3.029,8.157a6.817,6.817,0,0,0,2.274,5.838c4.062,3.419,12.991,2.7,17.627,1.73.558-.117,13.672-3,13.167-16.025-.241-6.241-2.231-7.936-4.155-9.575-1.661-1.416-3.543-3.018-3.543-6.916,0-1.2.275-3.345.656-6.311,2.107-16.4,7.04-54.812-14.057-73.191l-2.89-2.482A58,58,0,0,0-155.8,449.854c-14.376,0-27.907,4.819-38.1,13.569l-2.955,2.59c-21.471,19.836-15.442,56.494-12.868,72.147a55.9,55.9,0,0,1,.916,6.884c0,3.9-1.882,5.5-3.542,6.916-1.925,1.639-3.914,3.334-4.156,9.575-.5,13.023,12.609,15.909,13.168,16.025,4.636.966,13.564,1.688,17.627-1.73a6.819,6.819,0,0,0,2.273-5.838c-.131-3.878-1.151-6.622-3.029-8.157a6.813,6.813,0,0,0-4.627-1.4,6.051,6.051,0,0,1-.647.064,1.626,1.626,0,0,1-1.662-1.457,1.626,1.626,0,0,1,1.326-1.769c.038-.007.268-.046.64-.075a5.925,5.925,0,0,0,3.4-1.838c1.32-1.492,1.872-3.769,1.639-6.769-.433-5.582-1.58-6.406-3.662-7.9a18.693,18.693,0,0,1-5.17-5.188c-4.639-6.859-3.984-15.766-3.669-20.048.025-.338.047-.645.064-.913a34.725,34.725,0,0,1,4.8-14.21c2.7-4.272,19.035-14.988,21.055-16.3.321-.231,3.093-2.223,3.721-2.682a1.626,1.626,0,0,1,2.272.355,1.626,1.626,0,0,1-.355,2.273c-.67.488-3.771,2.717-3.771,2.717-.02.015-.042.029-.062.043-7.114,4.629-18.341,12.532-20.11,15.333a31.515,31.515,0,0,0-4.3,12.676c-.018.279-.041.6-.067.949-.288,3.916-.887,12.063,3.119,17.987a15.647,15.647,0,0,0,4.374,4.369c2.774,1.994,4.494,3.681,5.007,10.293.306,3.944-.533,7.049-2.495,9.229-.189.21-.384.405-.581.586a9.13,9.13,0,0,1,1.769,1.118c2.667,2.15,4.1,5.718,4.268,10.6a10,10,0,0,1-3.43,8.437c-6.049,5.091-18.042,2.915-20.384,2.426-6.081-1.268-16.241-6.766-15.754-19.334.3-7.666,3.186-10.128,5.3-11.925,1.5-1.275,2.4-2.044,2.4-4.44a58.46,58.46,0,0,0-.872-6.356c-2.66-16.17-8.888-54.039,13.9-75.092l3-2.631c10.8-9.267,25.08-14.364,40.232-14.364a61.273,61.273,0,0,1,38.917,13.971l2.923,2.51c22.416,19.529,17.328,59.147,15.155,76.065-.352,2.74-.63,4.9-.63,5.9,0,2.4.9,3.165,2.4,4.44,2.11,1.8,5,4.259,5.3,11.925.487,12.568-9.674,18.066-15.754,19.334A44.169,44.169,0,0,1-116.017,581.625Z" transform="translate(219.77 -446.602)" fill="#231815"/>
          </g>
        </g>
        <path id="路径_120" data-name="路径 120" d="M-65.935,528.567a1.626,1.626,0,0,1-1.533-1.085c-1.21-3.421-4.878-12.741-6.111-15.053a1.627,1.627,0,0,1,.67-2.2,1.628,1.628,0,0,1,2.2.669c1.418,2.659,5.158,12.25,6.307,15.5a1.627,1.627,0,0,1-.991,2.076A1.628,1.628,0,0,1-65.935,528.567Z" transform="translate(168.739 -468.775)" fill="#231815"/>
        <path id="路径_121" data-name="路径 121" d="M-182.144,528.567a1.635,1.635,0,0,1-.542-.093,1.627,1.627,0,0,1-.991-2.076c1.149-3.25,4.889-12.841,6.307-15.5a1.627,1.627,0,0,1,2.2-.669,1.627,1.627,0,0,1,.67,2.2c-1.233,2.311-4.9,11.632-6.111,15.053A1.626,1.626,0,0,1-182.144,528.567Z" transform="translate(207.187 -468.775)" fill="#231815"/>
      </g>
      <g id="组_119" data-name="组 119" transform="translate(50.455 28.475)">
        <path id="路径_122" data-name="路径 122" d="M-138.554,492.877a50.4,50.4,0,0,0-.185,20.494,4.988,4.988,0,0,0,5.784,3.929,37.791,37.791,0,0,1,6.561-.649,35.669,35.669,0,0,1,6.293.59,5,5,0,0,0,5.814-3.892,64.307,64.307,0,0,0,1.156-9.476,25.125,25.125,0,0,0-1.151-9.745" transform="translate(141.329 -491.251)" fill="#724b42"/>
        <path id="路径_123" data-name="路径 123" d="M-134.706,518.131a6.656,6.656,0,0,1-6.5-5.315,51.965,51.965,0,0,1,.192-21.161,1.625,1.625,0,0,1,1.937-1.239,1.624,1.624,0,0,1,1.239,1.936,48.7,48.7,0,0,0-.179,19.826,3.387,3.387,0,0,0,3.9,2.647,38.9,38.9,0,0,1,6.85-.675,37.116,37.116,0,0,1,6.582.616,3.36,3.36,0,0,0,3.931-2.617,62.994,62.994,0,0,0,1.125-9.237,23.986,23.986,0,0,0-1.041-9.064,1.628,1.628,0,0,1,.922-2.1,1.621,1.621,0,0,1,2.1.913,26.628,26.628,0,0,1,1.263,10.429,66.2,66.2,0,0,1-1.186,9.717,6.591,6.591,0,0,1-7.7,5.165,33.915,33.915,0,0,0-6-.564,35.669,35.669,0,0,0-6.272.623A6.606,6.606,0,0,1-134.706,518.131Z" transform="translate(142.203 -490.377)" fill="#231815"/>
      </g>
      <path id="路径_124" data-name="路径 124" d="M-131.224,550.995" transform="translate(188.821 -483.09)" fill="none" stroke="#231815" stroke-linecap="round" stroke-linejoin="round" stroke-width="5"/>
      <path id="路径_125" data-name="路径 125" d="M-127.268,575.981c-6.4,0-9.754-3.949-9.957-11.739a2.361,2.361,0,0,1,.682-1.721,2.585,2.585,0,0,1,1.846-.769h14.742a2.7,2.7,0,0,1,1.939.814,2.45,2.45,0,0,1,.695,1.8C-117.623,572.075-120.97,575.981-127.268,575.981Zm-7.35-11.627c.2,6.24,2.475,9.025,7.35,9.025s7.076-2.7,7.343-9.022a.141.141,0,0,0-.031,0Z" transform="translate(190.918 -486.85)"/>
      <g id="组_122" data-name="组 122" transform="translate(78.583 52.248)">
        <g id="组_121" data-name="组 121" transform="translate(0 3.375)">
          <path id="路径_126" data-name="路径 126" d="M-75.344,549.53h-.066a1.626,1.626,0,0,1-1.56-1.689c.338-8.557-5.217-11.187-7.622-11.921-4.483-1.367-9.58-.135-11.36,2.75a1.626,1.626,0,0,1-2.238.531,1.627,1.627,0,0,1-.53-2.238c2.549-4.131,9.171-5.956,15.077-4.153,6.509,1.986,10.218,7.653,9.922,15.16A1.626,1.626,0,0,1-75.344,549.53Z" transform="translate(98.962 -532.113)" fill="#231815"/>
          <g id="组_120" data-name="组 120" transform="translate(0.567 2.198)">
            <ellipse id="椭圆_21" data-name="椭圆 21" cx="8.964" cy="8.206" rx="8.964" ry="8.206" transform="translate(1.219 19.161) rotate(-87.326)" fill="#231815"/>
            <path id="路径_127" data-name="路径 127" d="M-88.312,556.67q-.219,0-.438-.01a9.425,9.425,0,0,1-6.848-3.477,10.962,10.962,0,0,1-2.48-7.561,10.962,10.962,0,0,1,3.174-7.3,9.421,9.421,0,0,1,7.142-2.823c5.415.252,9.6,5.2,9.327,11.037a10.957,10.957,0,0,1-3.174,7.3A9.446,9.446,0,0,1-88.312,556.67Zm.118-17.925a6.237,6.237,0,0,0-4.415,1.887,7.718,7.718,0,0,0-2.219,5.142h0A7.72,7.72,0,0,0-93.1,551.1a6.211,6.211,0,0,0,4.5,2.31,6.191,6.191,0,0,0,4.7-1.881,7.715,7.715,0,0,0,2.219-5.142c.189-4.042-2.606-7.467-6.23-7.637C-88.007,538.747-88.1,538.745-88.194,538.745Zm-8.258,6.954h0Z" transform="translate(98.09 -535.493)" fill="#231815"/>
          </g>
          <circle id="椭圆_22" data-name="椭圆 22" cx="2.561" cy="2.561" r="2.561" transform="translate(6.785 4.562)" fill="#fff"/>
        </g>
        <path id="路径_128" data-name="路径 128" d="M-76.754,532.8a1.626,1.626,0,0,1-.352-.038,1.627,1.627,0,0,1-1.238-1.939l.579-2.62a1.628,1.628,0,0,1,1.938-1.238,1.627,1.627,0,0,1,1.238,1.939l-.579,2.62A1.627,1.627,0,0,1-76.754,532.8Z" transform="translate(91.769 -526.924)" fill="#231815"/>
      </g>
      <g id="组_125" data-name="组 125" transform="translate(24.594 53.324)">
        <g id="组_124" data-name="组 124" transform="translate(0 2.3)">
          <path id="路径_129" data-name="路径 129" d="M-180.32,549.53a1.627,1.627,0,0,1-1.624-1.562c-.3-7.506,3.413-13.174,9.922-15.16,5.906-1.8,12.528.022,15.077,4.153a1.627,1.627,0,0,1-.53,2.238,1.626,1.626,0,0,1-2.238-.531c-1.78-2.884-6.875-4.116-11.36-2.75-2.4.734-7.959,3.364-7.621,11.921a1.627,1.627,0,0,1-1.561,1.689Z" transform="translate(181.96 -532.115)" fill="#231815"/>
          <g id="组_123" data-name="组 123" transform="translate(5.024 2.196)">
            <ellipse id="椭圆_23" data-name="椭圆 23" cx="8.206" cy="8.964" rx="8.206" ry="8.964" transform="translate(1.219 2.018) rotate(-2.674)" fill="#231815"/>
            <path id="路径_130" data-name="路径 130" d="M-164.349,556.67a9.446,9.446,0,0,1-6.7-2.833,10.956,10.956,0,0,1-3.174-7.3,10.959,10.959,0,0,1,2.48-7.56A9.427,9.427,0,0,1-164.9,535.5a9.414,9.414,0,0,1,7.142,2.823,10.963,10.963,0,0,1,3.174,7.3h0a10.962,10.962,0,0,1-2.48,7.56,9.425,9.425,0,0,1-6.848,3.477Q-164.13,556.67-164.349,556.67Zm-.117-17.925c-.094,0-.187,0-.28.007a6.212,6.212,0,0,0-4.5,2.31,7.714,7.714,0,0,0-1.73,5.327,7.715,7.715,0,0,0,2.219,5.143,6.2,6.2,0,0,0,4.7,1.881,6.211,6.211,0,0,0,4.5-2.31,7.717,7.717,0,0,0,1.73-5.327h0a7.716,7.716,0,0,0-2.219-5.142A6.237,6.237,0,0,0-164.466,538.745Z" transform="translate(174.238 -535.492)" fill="#231815"/>
          </g>
          <circle id="椭圆_24" data-name="椭圆 24" cx="2.561" cy="2.561" r="2.561" transform="translate(13.35 4.561)" fill="#fff"/>
        </g>
        <path id="路径_131" data-name="路径 131" d="M-170.293,534.293a1.626,1.626,0,0,1-1.492-.978l-1.07-2.46a1.627,1.627,0,0,1,.843-2.14,1.627,1.627,0,0,1,2.139.843l1.07,2.46a1.626,1.626,0,0,1-.842,2.14A1.623,1.623,0,0,1-170.293,534.293Z" transform="translate(178.825 -528.58)" fill="#231815"/>
      </g>
    </g>
  </g>
</svg>
