<svg xmlns="http://www.w3.org/2000/svg" width="175" height="175" viewBox="0 0 175 175">
  <g id="Group_216" data-name="Group 216" transform="translate(-722.201 -12575.201)">
    <g id="Group_215" data-name="Group 215" transform="translate(722.201 12575.201)">
      <circle id="Ellipse_3" data-name="Ellipse 3" cx="87.5" cy="87.5" r="87.5" fill="#fff"/>
    </g>
    <g id="Layer_2" data-name="Layer 2" transform="translate(745.712 12590.842)">
      <g id="Layer_1" data-name="Layer 1" transform="translate(0 0)">
        <path id="Path_163" data-name="Path 163" d="M89.258,59.354a1.914,1.914,0,0,1-1.863-1.48c-.077-.319-2.041-7.923-12.172-9.658a10.3,10.3,0,0,0-8.931,3.214,1.936,1.936,0,0,1-2.909-2.554,14.188,14.188,0,0,1,12.555-4.491C88.7,46.557,91.082,56.522,91.249,56.956A1.9,1.9,0,0,1,89.82,59.24a1.748,1.748,0,0,1-.561.114Z" transform="translate(17.352 12.172)" fill="#231815"/>
        <ellipse id="Ellipse_32" data-name="Ellipse 32" cx="8.995" cy="9.582" rx="8.995" ry="9.582" transform="translate(82.573 61.281)" fill="#231815"/>
        <path id="Path_164" data-name="Path 164" d="M74.375,69.543A11.483,11.483,0,1,1,85.283,58.06,11.215,11.215,0,0,1,74.375,69.543Zm0-19.138a7.655,7.655,0,1,0,7.081,7.655,7.387,7.387,0,0,0-7.081-7.668Z" transform="translate(17.192 12.815)" fill="#231815"/>
        <circle id="Ellipse_33" data-name="Ellipse 33" cx="3.113" cy="3.113" r="3.113" transform="translate(87.332 62.353)" fill="#fff"/>
        <path id="Path_165" data-name="Path 165" d="M43.316,73.5h-.255a1.279,1.279,0,1,1,.128-2.554,12.338,12.338,0,0,0,5-1.072A8.561,8.561,0,0,0,51.3,68.011a1.281,1.281,0,0,1,2.143,1.4c-.192.293-1.085,1.391-4.2,2.743A15.311,15.311,0,0,1,43.316,73.5Z" transform="translate(11.544 18.581)"/>
        <path id="Path_166" data-name="Path 166" d="M59.6,73.417a15.643,15.643,0,0,1-5.69-1.148c-3.151-1.277-4.057-2.361-4.261-2.654a1.28,1.28,0,0,1,2.105-1.453h0a9.965,9.965,0,0,0,3.126,1.723,12.3,12.3,0,0,0,5.014.969,1.281,1.281,0,0,1,.192,2.554Z" transform="translate(13.596 18.562)"/>
        <circle id="Ellipse_34" data-name="Ellipse 34" cx="15.821" cy="15.821" r="15.821" transform="translate(19.774 80.866)" fill="#ea5f3e" opacity="0.33"/>
        <circle id="Ellipse_35" data-name="Ellipse 35" cx="15.821" cy="15.821" r="15.821" transform="translate(77.495 80.866)" fill="#ea5f3e" opacity="0.33"/>
        <path id="Path_167" data-name="Path 167" d="M20.7,54.8c6.379-3.523,23.374-8.434,43.38-8.434a121.757,121.757,0,0,1,41.466,7.655,9.671,9.671,0,0,1,6.175,7.732,194.911,194.911,0,0,1,1.684,19.61c.664,16.229-9.646,27.406-13.588,32.675S86.546,126.965,89.508,130.7c4.313,5.423,14.469-3.955,14.469-3.955s-1.965,3.955,2.411,3.955,22.366-10.092,20.172-42.755-6.737-43.24-6.737-43.24A57.415,57.415,0,0,0,8.488,44.1l-.6,2.324c-1.059,4.159-5,16.076-6.7,41.5C-1,120.588,16.972,130.681,21.413,130.681s2.411-3.955,2.411-3.955,10.207,9.379,14.469,3.955c2.96-3.738-6.379-11.4-10.309-16.663s-14.3-16.449-13.639-32.653a195.279,195.279,0,0,1,1.684-19.521,9.7,9.7,0,0,1,3.279-6A16.588,16.588,0,0,1,20.7,54.8Z" transform="translate(0.275 0.253)" fill="#2a2827"/>
        <path id="Path_168" data-name="Path 168" d="M93.381,133.959h-.523a5.588,5.588,0,0,1-4.07-2.158c-2.845-3.585,1.837-8.727,6.379-13.69,1.493-1.633,2.9-3.177,3.919-4.529.408-.561.893-1.174,1.416-1.849,4.351-5.614,12.478-15.974,11.9-30.085-.357-8.8-1.11-15.411-1.673-19.393a8.446,8.446,0,0,0-5.359-6.724,120.953,120.953,0,0,0-41.02-7.655c-20.172,0-36.937,5.1-42.767,8.28a12.171,12.171,0,0,0-1.277.881A8.421,8.421,0,0,0,17.5,62.229,194.462,194.462,0,0,0,15.9,81.647c-.572,14.035,7.553,24.446,11.917,30.009.523.676,1.008,1.277,1.416,1.849,1.021,1.352,2.424,2.9,3.9,4.529,4.543,4.964,9.227,10.106,6.38,13.691a5.588,5.588,0,0,1-4.07,2.233c-3.394.255-7.362-2.158-9.837-3.993a3.138,3.138,0,0,1-.319.7,3.955,3.955,0,0,1-3.6,1.569c-2.373,0-6.825-2.041-11.023-6.533C5.1,119.809-1.174,108.5.191,88.116,1.709,65.431,5.1,53.272,6.481,48.079c.179-.664.332-1.277.446-1.684L7.5,44.137a.308.308,0,0,1,0-.1,58.69,58.69,0,0,1,113.783.536c.51,1.277,4.708,12.351,6.8,43.546,1.365,20.414-4.912,31.693-10.436,37.587-4.183,4.491-8.638,6.533-11.011,6.533a3.955,3.955,0,0,1-3.649-1.62,3.139,3.139,0,0,1-.319-.7C100.335,131.662,96.648,133.959,93.381,133.959ZM64.355,45.374a123.441,123.441,0,0,1,41.913,7.794,10.947,10.947,0,0,1,6.992,8.752c.572,4.044,1.277,10.744,1.7,19.649.612,15.015-7.885,25.862-12.452,31.693-.523.651-1,1.277-1.391,1.8-1.1,1.453-2.554,3.038-4.07,4.708-3.266,3.6-7.732,8.51-6.264,10.36a3.062,3.062,0,0,0,2.271,1.2c3.483.268,8.651-3.726,10.335-5.284a1.277,1.277,0,0,1,2.016,1.505,2.271,2.271,0,0,0-.217,1.7c.166.255.715.408,1.48.408,1.277,0,5.1-1.4,9.148-5.716,5.1-5.525,11.062-16.2,9.748-35.725-2.144-31.9-6.584-42.7-6.634-42.806a1.279,1.279,0,0,1,0-.2A56.139,56.139,0,0,0,10,44.643h0a.638.638,0,0,1,0,.166c-.1.536-.28,1.277-.523,2.195-.115.472-.28,1.046-.459,1.735-1.416,5.1-4.708,17.1-6.213,39.552-1.277,19.483,4.579,30.162,9.748,35.725,4.044,4.313,7.91,5.716,9.159,5.716a1.962,1.962,0,0,0,1.48-.408,2.373,2.373,0,0,0-.23-1.748,1.27,1.27,0,0,1,2-1.493c1.7,1.557,6.864,5.548,10.348,5.284a3.011,3.011,0,0,0,2.195-1.238c1.493-1.875-2.985-6.788-6.253-10.385-1.531-1.673-2.973-3.254-4.07-4.708-.4-.549-.867-1.148-1.391-1.8-4.567-5.805-13.039-16.65-12.452-31.667a197.183,197.183,0,0,1,1.7-19.649,11,11,0,0,1,3.713-6.813,16.586,16.586,0,0,1,1.659-1.136h0c6.239-3.456,23.145-8.6,43.941-8.6Z" transform="translate(-0.002 -0.029)" fill="#231815"/>
        <path id="Path_169" data-name="Path 169" d="M63.012,43.462a1.277,1.277,0,0,1-1.1-1.914c0-.077,2.041-3.828,1.505-10.4a71.734,71.734,0,0,0-1.633-10.909,1.277,1.277,0,1,1,2.462-.651,71.821,71.821,0,0,1,1.71,11.353c.612,7.5-1.735,11.7-1.837,11.866A1.277,1.277,0,0,1,63.012,43.462Z" transform="translate(17.034 5.111)" fill="#1b0f0f"/>
        <path id="Path_170" data-name="Path 170" d="M41.079,43.456a1.277,1.277,0,0,1-1.11-.638c-.1-.166-2.45-4.364-1.837-11.866A73.668,73.668,0,0,1,39.842,19.6a1.28,1.28,0,1,1,2.475.651,70.593,70.593,0,0,0-1.646,10.909c-.536,6.649,1.493,10.36,1.518,10.4a1.277,1.277,0,0,1-1.11,1.9Z" transform="translate(10.49 5.105)" fill="#1b0f0f"/>
        <path id="Path_171" data-name="Path 171" d="M88.673,52.494A1.277,1.277,0,0,1,87.4,51.345a46.341,46.341,0,0,0-1.277-6.213c-.944-3.572-2.462-8.51-2.475-8.561a1.277,1.277,0,0,1,2.437-.753s1.557,5.04,2.554,8.663a45.83,45.83,0,0,1,1.378,6.609,1.277,1.277,0,0,1-1.136,1.391Z" transform="translate(23.053 9.566)" fill="#1b0f0f"/>
        <path id="Path_172" data-name="Path 172" d="M13.17,52.5h-.14a1.277,1.277,0,0,1-1.136-1.389,47.781,47.781,0,0,1,1.416-6.622c.957-3.623,2.488-8.612,2.554-8.663a1.277,1.277,0,0,1,2.437.753s-1.531,4.989-2.475,8.561a46.339,46.339,0,0,0-1.277,6.213A1.277,1.277,0,0,1,13.17,52.5Z" transform="translate(3.276 9.564)" fill="#1b0f0f"/>
        <path id="Path_173" data-name="Path 173" d="M59.891,103.908c-18.385,0-34.449-7.541-43.928-20.669a1.273,1.273,0,1,1,2.054-1.505c9.059,12.453,24.318,19.623,41.875,19.623A55.807,55.807,0,0,0,98.818,85.83a1.277,1.277,0,1,1,1.812,1.8,58.384,58.384,0,0,1-40.739,16.28Z" transform="translate(4.334 22.366)" fill="#231815"/>
        <path id="Path_174" data-name="Path 174" d="M17.784,59.332a2.554,2.554,0,0,1-.434,0,1.9,1.9,0,0,1-1.429-2.284c.1-.434,2.554-10.4,15.31-12.567a14.188,14.188,0,0,1,12.554,4.491,1.936,1.936,0,1,1-2.909,2.554,10.3,10.3,0,0,0-8.931-3.214c-10.131,1.733-12.1,9.337-12.172,9.669A1.926,1.926,0,0,1,17.784,59.332Z" transform="translate(4.376 12.193)" fill="#231815"/>
        <ellipse id="Ellipse_36" data-name="Ellipse 36" cx="8.995" cy="9.582" rx="8.995" ry="9.582" transform="translate(28.208 61.281)" fill="#231815"/>
        <path id="Path_175" data-name="Path 175" d="M31.643,69.547A11.483,11.483,0,1,1,43.127,58.063,11.483,11.483,0,0,1,31.643,69.547Zm0-19.138A7.655,7.655,0,1,0,39.3,58.064a7.655,7.655,0,0,0-7.655-7.655Z" transform="translate(5.559 12.812)" fill="#231815"/>
        <circle id="Ellipse_37" data-name="Ellipse 37" cx="3.113" cy="3.113" r="3.113" transform="translate(35.212 62.353)" fill="#fff"/>
        <path id="Path_176" data-name="Path 176" d="M32.38,82.687A22.124,22.124,0,1,1,54.5,60.564,22.124,22.124,0,0,1,32.38,82.687Zm0-40.422a18.3,18.3,0,1,0,18.3,18.3,18.3,18.3,0,0,0-18.3-18.3Z" transform="translate(2.831 10.567)"/>
        <path id="Path_177" data-name="Path 177" d="M78.795,82.687a22.124,22.124,0,1,1,22.073-22.124A22.124,22.124,0,0,1,78.795,82.687Zm0-40.422a18.3,18.3,0,1,0,18.245,18.3,18.3,18.3,0,0,0-18.245-18.3Z" transform="translate(15.618 10.567)"/>
        <path id="Path_178" data-name="Path 178" d="M62.631,58.387a1.582,1.582,0,0,1-.421,0l-2.769-.612a28.86,28.86,0,0,0-12.363,0l-2.782.612a1.914,1.914,0,1,1-.829-3.726l2.782-.624a32.892,32.892,0,0,1,14.035,0l2.769.625a1.925,1.925,0,1,1-.408,3.828Z" transform="translate(11.534 14.658)"/>
        <g id="Group_214" data-name="Group 214" transform="translate(35.311 38.47)" opacity="0.7">
          <ellipse id="Ellipse_38" data-name="Ellipse 38" cx="5.064" cy="3.721" rx="5.064" ry="3.721" transform="translate(0.753 2.424) rotate(-12.095)" fill="#1a0e0e"/>
          <path id="Path_179" data-name="Path 179" d="M33.322,40.31a6.851,6.851,0,0,1-2.845-.6,4.338,4.338,0,0,1-1.505-7.143,7.323,7.323,0,0,1,3.957-2.209c3.483-.727,6.649.842,7.234,3.572h0c.572,2.743-1.7,5.46-5.167,6.2a8.371,8.371,0,0,1-1.673.179ZM34.6,32.743a5.818,5.818,0,0,0-1.136.115,4.8,4.8,0,0,0-2.554,1.4,2.158,2.158,0,0,0-.612,1.761,2.105,2.105,0,0,0,1.277,1.365,4.888,4.888,0,0,0,2.9.217c2-.421,3.457-1.875,3.19-3.164C37.443,33.42,36.143,32.743,34.6,32.743Z" transform="translate(-27.68 -30.181)" fill="#1b0f0f"/>
          <ellipse id="Ellipse_39" data-name="Ellipse 39" cx="3.713" cy="5.052" rx="3.713" ry="5.052" transform="translate(49.062 7.655) rotate(-78.06)" fill="#1a0e0e"/>
          <path id="Path_180" data-name="Path 180" d="M72.614,40.3a8.713,8.713,0,0,1-1.7-.153c-3.471-.74-5.742-3.458-5.1-6.2h0c.572-2.73,3.751-4.3,7.221-3.572s5.741,3.457,5.1,6.2C77.666,38.875,75.37,40.3,72.614,40.3ZM68.25,34.461c-.268,1.277,1.187,2.743,3.2,3.164s3.919-.308,4.2-1.608-1.187-2.743-3.19-3.164-3.93.306-4.21,1.608Z" transform="translate(-17.187 -30.175)" fill="#1b0f0f"/>
        </g>
      </g>
    </g>
  </g>
</svg>
