<svg xmlns="http://www.w3.org/2000/svg" width="652" height="238" viewBox="0 0 652 238">
  <g id="组_288" data-name="组 288" transform="translate(-58 -2036)">
    <rect id="矩形_66" data-name="矩形 66" width="652" height="238" rx="20" transform="translate(58 2036)" fill="rgba(255,255,255,0.5)"/>
    <g id="组_180" data-name="组 180" transform="translate(85.634 2054.909)">
      <g id="组_90" data-name="组 90" transform="translate(26 2)">
        <text id="SKILLS" transform="translate(45.413 28)" fill="#808f85" font-size="26" font-family="SegoeUI, Segoe UI" letter-spacing="0.098em"><tspan x="-43.421" y="0">SKILLS</tspan></text>
        <line id="直线_27" data-name="直线 27" x2="100.449" transform="translate(0 37.942)" fill="none" stroke="#808f85" stroke-width="3"/>
      </g>
      <g id="组_98" data-name="组 98" transform="translate(26.856 67.523)">
        <g id="组_92" data-name="组 92" transform="translate(6.576 0)">
          <text id="CHARACTER_DESIGN" data-name="CHARACTER DESIGN" transform="translate(53.934 12.568)" fill="#808f85" font-size="12" font-family="SegoeUI-Semilight, Segoe UI" font-weight="300"><tspan x="-53.985" y="0">CHARACTER DESIGN</tspan></text>
          <g id="组_91" data-name="组 91" transform="translate(137.164 2.818)">
            <g id="椭圆_16" data-name="椭圆 16" transform="translate(-0.231 -0.251)" fill="#b0dab7" stroke="#707070" stroke-width="2">
              <circle cx="6" cy="6" r="6" stroke="none"/>
              <circle cx="6" cy="6" r="5" fill="none"/>
            </g>
            <g id="椭圆_16-2" data-name="椭圆 16" transform="translate(21.769 -0.251)" fill="#b0dab7" stroke="#707070" stroke-width="2">
              <circle cx="6" cy="6" r="6" stroke="none"/>
              <circle cx="6" cy="6" r="5" fill="none"/>
            </g>
            <g id="椭圆_16-3" data-name="椭圆 16" transform="translate(42.769 -0.251)" fill="#b0dab7" stroke="#707070" stroke-width="2">
              <circle cx="6" cy="6" r="6" stroke="none"/>
              <circle cx="6" cy="6" r="5" fill="none"/>
            </g>
            <g id="椭圆_16-4" data-name="椭圆 16" transform="translate(64.769 -0.251)" fill="#b0dab7" stroke="#707070" stroke-width="2">
              <circle cx="6" cy="6" r="6" stroke="none"/>
              <circle cx="6" cy="6" r="5" fill="none"/>
            </g>
            <g id="椭圆_16-5" data-name="椭圆 16" transform="translate(86.769 -0.251)" fill="none" stroke="#707070" stroke-width="2">
              <circle cx="6" cy="6" r="6" stroke="none"/>
              <circle cx="6" cy="6" r="5" fill="none"/>
            </g>
          </g>
        </g>
        <g id="组_96" data-name="组 96" transform="translate(0 82.674)">
          <text id="DIGITAL_ILLUSTRATION" data-name="DIGITAL ILLUSTRATION" transform="translate(59.51 12.893)" fill="#808f85" font-size="12" font-family="SegoeUI-Semilight, Segoe UI" font-weight="300"><tspan x="-59.566" y="0">DIGITAL ILLUSTRATION</tspan></text>
          <g id="组_91-2" data-name="组 91" transform="translate(143.741 2.818)">
            <g id="椭圆_16-6" data-name="椭圆 16" transform="translate(-0.231 0.075)" fill="#b0dab7" stroke="#707070" stroke-width="2">
              <circle cx="6" cy="6" r="6" stroke="none"/>
              <circle cx="6" cy="6" r="5" fill="none"/>
            </g>
            <g id="椭圆_16-7" data-name="椭圆 16" transform="translate(21.769 0.075)" fill="#b0dab7" stroke="#707070" stroke-width="2">
              <circle cx="6" cy="6" r="6" stroke="none"/>
              <circle cx="6" cy="6" r="5" fill="none"/>
            </g>
            <g id="椭圆_16-8" data-name="椭圆 16" transform="translate(42.769 0.075)" fill="#b0dab7" stroke="#707070" stroke-width="2">
              <circle cx="6" cy="6" r="6" stroke="none"/>
              <circle cx="6" cy="6" r="5" fill="none"/>
            </g>
            <g id="椭圆_16-9" data-name="椭圆 16" transform="translate(64.769 0.075)" fill="#b0dab7" stroke="#707070" stroke-width="2">
              <circle cx="6" cy="6" r="6" stroke="none"/>
              <circle cx="6" cy="6" r="5" fill="none"/>
            </g>
            <g id="椭圆_16-10" data-name="椭圆 16" transform="translate(86.769 0.075)" fill="rgba(255,255,255,0)" stroke="#707070" stroke-width="2">
              <circle cx="6" cy="6" r="6" stroke="none"/>
              <circle cx="6" cy="6" r="5" fill="none"/>
            </g>
          </g>
        </g>
        <text id="UI_UX_DESIGN" data-name="UI/UX DESIGN" transform="translate(366.51 13.568)" fill="#808f85" font-size="13" font-family="SegoeUI-Semilight, Segoe UI" font-weight="300"><tspan x="-40.085" y="0">UI/UX DESIGN</tspan></text>
        <g id="组_91-3" data-name="组 91" transform="translate(443.435 2.818)">
          <g id="椭圆_16-11" data-name="椭圆 16" transform="translate(0.075 -0.251)" fill="#b0dab7" stroke="#707070" stroke-width="2">
            <circle cx="6" cy="6" r="6" stroke="none"/>
            <circle cx="6" cy="6" r="5" fill="none"/>
          </g>
          <g id="椭圆_16-12" data-name="椭圆 16" transform="translate(22.075 -0.251)" fill="#b0dab7" stroke="#707070" stroke-width="2">
            <circle cx="6" cy="6" r="6" stroke="none"/>
            <circle cx="6" cy="6" r="5" fill="none"/>
          </g>
          <g id="椭圆_16-13" data-name="椭圆 16" transform="translate(43.075 -0.251)" fill="#b0dab7" stroke="#707070" stroke-width="2">
            <circle cx="6" cy="6" r="6" stroke="none"/>
            <circle cx="6" cy="6" r="5" fill="none"/>
          </g>
          <g id="椭圆_16-14" data-name="椭圆 16" transform="translate(65.075 -0.251)" fill="none" stroke="#707070" stroke-width="2">
            <circle cx="6" cy="6" r="6" stroke="none"/>
            <circle cx="6" cy="6" r="5" fill="none"/>
          </g>
          <g id="椭圆_16-15" data-name="椭圆 16" transform="translate(86.075 -0.251)" fill="rgba(255,255,255,0)" stroke="#707070" stroke-width="2">
            <circle cx="6" cy="6" r="6" stroke="none"/>
            <circle cx="6" cy="6" r="5" fill="none"/>
          </g>
        </g>
        <text id="WEBSITE_DESIGN" data-name="WEBSITE DESIGN" transform="translate(366.51 55.568)" fill="#808f85" font-size="13" font-family="SegoeUI-Semilight, Segoe UI" font-weight="300"><tspan x="-48.026" y="0">WEBSITE DESIGN</tspan></text>
        <g id="组_91-4" data-name="组 91" transform="translate(443.435 44.156)">
          <g id="椭圆_16-16" data-name="椭圆 16" transform="translate(0.075 0.412)" fill="#b0dab7" stroke="#707070" stroke-width="2">
            <circle cx="6" cy="6" r="6" stroke="none"/>
            <circle cx="6" cy="6" r="5" fill="none"/>
          </g>
          <g id="椭圆_16-17" data-name="椭圆 16" transform="translate(22.075 0.412)" fill="#b0dab7" stroke="#707070" stroke-width="2">
            <circle cx="6" cy="6" r="6" stroke="none"/>
            <circle cx="6" cy="6" r="5" fill="none"/>
          </g>
          <g id="椭圆_16-18" data-name="椭圆 16" transform="translate(43.075 0.412)" fill="#b0dab7" stroke="#707070" stroke-width="2">
            <circle cx="6" cy="6" r="6" stroke="none"/>
            <circle cx="6" cy="6" r="5" fill="none"/>
          </g>
          <g id="椭圆_16-19" data-name="椭圆 16" transform="translate(65.075 0.412)" fill="none" stroke="#707070" stroke-width="2">
            <circle cx="6" cy="6" r="6" stroke="none"/>
            <circle cx="6" cy="6" r="5" fill="none"/>
          </g>
          <g id="椭圆_16-20" data-name="椭圆 16" transform="translate(86.075 0.412)" fill="none" stroke="#707070" stroke-width="2">
            <circle cx="6" cy="6" r="6" stroke="none"/>
            <circle cx="6" cy="6" r="5" fill="none"/>
          </g>
        </g>
        <g id="组_94" data-name="组 94" transform="translate(15.971 41.337)">
          <text id="GRAPHIC_DESIGN" data-name="GRAPHIC DESIGN" transform="translate(45.539 13.231)" fill="#808f85" font-size="12" font-family="SegoeUI-Semilight, Segoe UI" font-weight="300"><tspan x="-45.797" y="0">GRAPHIC DESIGN</tspan></text>
          <g id="组_91-5" data-name="组 91" transform="translate(127.769 2.818)">
            <g id="椭圆_16-21" data-name="椭圆 16" transform="translate(-0.231 0.412)" fill="#b0dab7" stroke="#707070" stroke-width="2">
              <circle cx="6" cy="6" r="6" stroke="none"/>
              <circle cx="6" cy="6" r="5" fill="none"/>
            </g>
            <g id="椭圆_16-22" data-name="椭圆 16" transform="translate(21.769 0.412)" fill="#b0dab7" stroke="#707070" stroke-width="2">
              <circle cx="6" cy="6" r="6" stroke="none"/>
              <circle cx="6" cy="6" r="5" fill="none"/>
            </g>
            <g id="椭圆_16-23" data-name="椭圆 16" transform="translate(42.769 0.412)" fill="#b0dab7" stroke="#707070" stroke-width="2">
              <circle cx="6" cy="6" r="6" stroke="none"/>
              <circle cx="6" cy="6" r="5" fill="none"/>
            </g>
            <g id="椭圆_16-24" data-name="椭圆 16" transform="translate(64.769 0.412)" fill="#b0dab7" stroke="#707070" stroke-width="2">
              <circle cx="6" cy="6" r="6" stroke="none"/>
              <circle cx="6" cy="6" r="5" fill="none"/>
            </g>
            <g id="椭圆_16-25" data-name="椭圆 16" transform="translate(86.769 0.412)" fill="none" stroke="#707070" stroke-width="2">
              <circle cx="6" cy="6" r="6" stroke="none"/>
              <circle cx="6" cy="6" r="5" fill="none"/>
            </g>
          </g>
        </g>
      </g>
    </g>
  </g>
</svg>
