<svg id="Group_101" data-name="Group 101" xmlns="http://www.w3.org/2000/svg" width="40.579" height="40.579" viewBox="0 0 40.579 40.579">
  <g id="instagram" transform="translate(0 0)">
    <g id="Group_93" data-name="Group 93" transform="translate(0 0)">
      <path id="Path_45" data-name="Path 45" d="M218.28,40.58h-2.993a1.151,1.151,0,1,1,0-2.3h2.993a4.006,4.006,0,0,0,4-4V6.3a4.006,4.006,0,0,0-4-4H201A1.151,1.151,0,0,1,201,0H218.28a6.311,6.311,0,0,1,6.3,6.3V34.276A6.311,6.311,0,0,1,218.28,40.58Z" transform="translate(-184.005 -0.001)" fill="#595959"/>
      <path id="Path_46" data-name="Path 46" d="M22.96,40.58H6.3a6.311,6.311,0,0,1-6.3-6.3V6.3A6.311,6.311,0,0,1,6.3,0h2.59a1.151,1.151,0,1,1,0,2.3H6.3a4.006,4.006,0,0,0-4,4V34.276a4.006,4.006,0,0,0,4,4H22.96a1.151,1.151,0,1,1,0,2.3Z" transform="translate(0 -0.001)" fill="#595959"/>
    </g>
  </g>
  <g id="Group_100" data-name="Group 100" transform="translate(9.19 13.128)">
    <path id="Path_72" data-name="Path 72" d="M1396.779,7695.151h-15.927v-14.116h21.992v14.116h-2.156" transform="translate(-1380.851 -7681.035)" fill="none" stroke="#595959" stroke-linecap="round" stroke-linejoin="round" stroke-width="2"/>
    <path id="Path_74" data-name="Path 74" d="M1416.037,7681.22l-10.655,7.71-11.227-7.895Z" transform="translate(-1393.967 -7681.035)" fill="#91c499" stroke="#595959" stroke-linecap="round" stroke-linejoin="round" stroke-width="2"/>
  </g>
</svg>
