<svg id="facebook" xmlns="http://www.w3.org/2000/svg" width="40.579" height="40.579" viewBox="0 0 40.579 40.579">
  <path id="Path_68" data-name="Path 68" d="M163.44,131.177h0a3.117,3.117,0,0,0-3.117-3.087h-2.857v-4.333a2.191,2.191,0,0,1,2.191-2.191H160.7a2.8,2.8,0,0,0,2.8-2.8h0a2.8,2.8,0,0,0-2.8-2.8h-2.578a6.894,6.894,0,0,0-6.895,6.894v5.236H149.2a3.117,3.117,0,0,0-3.117,3.117h0a3.117,3.117,0,0,0,3.117,3.117h2.03V146.2h6.235V134.324h2.857A3.117,3.117,0,0,0,163.44,131.177Z" transform="translate(-134.506 -106.769)" fill="#91c499"/>
  <g id="Group_98" data-name="Group 98">
    <path id="Path_69" data-name="Path 69" d="M144.093,133.976h-6.235a1.151,1.151,0,0,1-1.151-1.151V122.1h-.879a4.268,4.268,0,0,1,0-8.537h.879v-4.085a8.055,8.055,0,0,1,8.046-8.045h2.578a3.954,3.954,0,1,1,0,7.909h-1.047a1.041,1.041,0,0,0-1.04,1.04v3.182h1.706a4.282,4.282,0,0,1,4.268,4.227,4.268,4.268,0,0,1-4.268,4.31h-1.706v10.721A1.151,1.151,0,0,1,144.093,133.976Zm-5.083-2.3h3.932V120.953a1.151,1.151,0,0,1,1.151-1.151h2.857a1.966,1.966,0,0,0,1.966-1.985,1.972,1.972,0,0,0-1.966-1.947h-2.857a1.151,1.151,0,0,1-1.151-1.151v-4.333a3.346,3.346,0,0,1,3.342-3.342h1.047a1.652,1.652,0,1,0,0-3.3h-2.578a5.75,5.75,0,0,0-5.743,5.743v5.236a1.151,1.151,0,0,1-1.151,1.151h-2.03a1.966,1.966,0,0,0,0,3.932h2.03a1.151,1.151,0,0,1,1.151,1.151v10.721Z" transform="translate(-121.133 -93.398)" fill="#595959"/>
    <path id="Path_70" data-name="Path 70" d="M218.28,40.579h-2.993a1.151,1.151,0,0,1,0-2.3h2.993a4.006,4.006,0,0,0,4-4V6.3a4.006,4.006,0,0,0-4-4H201A1.151,1.151,0,0,1,201,0H218.28a6.311,6.311,0,0,1,6.3,6.3V34.275A6.311,6.311,0,0,1,218.28,40.579Z" transform="translate(-184.005 0)" fill="#595959"/>
    <path id="Path_71" data-name="Path 71" d="M22.96,40.579H6.3a6.311,6.311,0,0,1-6.3-6.3V6.3A6.311,6.311,0,0,1,6.3,0h2.59a1.151,1.151,0,1,1,0,2.3H6.3a4.006,4.006,0,0,0-4,4V34.275a4.006,4.006,0,0,0,4,4H22.96a1.151,1.151,0,1,1,0,2.3Z" fill="#595959"/>
  </g>
</svg>
