<svg id="instagram" xmlns="http://www.w3.org/2000/svg" width="40.579" height="40.579" viewBox="0 0 40.579 40.579">
  <g id="Group_93" data-name="Group 93" transform="translate(0 0)">
    <path id="Path_45" data-name="Path 45" d="M218.28,40.58h-2.993a1.151,1.151,0,1,1,0-2.3h2.993a4.006,4.006,0,0,0,4-4V6.3a4.006,4.006,0,0,0-4-4H201A1.151,1.151,0,0,1,201,0H218.28a6.311,6.311,0,0,1,6.3,6.3V34.276A6.311,6.311,0,0,1,218.28,40.58Z" transform="translate(-184.005 -0.001)" fill="#595959"/>
    <path id="Path_46" data-name="Path 46" d="M22.96,40.58H6.3a6.311,6.311,0,0,1-6.3-6.3V6.3A6.311,6.311,0,0,1,6.3,0h2.59a1.151,1.151,0,1,1,0,2.3H6.3a4.006,4.006,0,0,0-4,4V34.276a4.006,4.006,0,0,0,4,4H22.96a1.151,1.151,0,1,1,0,2.3Z" transform="translate(0 -0.001)" fill="#595959"/>
  </g>
  <path id="Path_47" data-name="Path 47" d="M122.466,102.056H106.044a3.99,3.99,0,0,0-3.99,3.99v16.421a3.99,3.99,0,0,0,3.99,3.99h16.421a3.99,3.99,0,0,0,3.99-3.99V106.046A3.99,3.99,0,0,0,122.466,102.056Zm-8.211,18.128a5.927,5.927,0,1,1,5.927-5.927A5.927,5.927,0,0,1,114.255,120.184Z" transform="translate(-93.966 -93.968)" fill="#91c499"/>
  <g id="Group_94" data-name="Group 94" transform="translate(6.937 6.937)">
    <path id="Path_48" data-name="Path 48" d="M109.1,114.236H92.674a5.147,5.147,0,0,1-5.141-5.141V92.673a5.147,5.147,0,0,1,5.141-5.141H109.1a5.147,5.147,0,0,1,5.141,5.141v16.421A5.147,5.147,0,0,1,109.1,114.236Zm-16.421-24.4a2.842,2.842,0,0,0-2.839,2.839v16.421a2.842,2.842,0,0,0,2.839,2.839H109.1a2.842,2.842,0,0,0,2.839-2.839V92.673a2.842,2.842,0,0,0-2.839-2.839H92.674Zm8.211,18.128a7.078,7.078,0,1,1,7.078-7.078A7.086,7.086,0,0,1,100.885,107.962Zm0-11.853a4.776,4.776,0,1,0,4.776,4.776A4.781,4.781,0,0,0,100.885,96.108Z" transform="translate(-87.533 -87.532)" fill="#595959"/>
    <ellipse id="Ellipse_10" data-name="Ellipse 10" cx="1.621" cy="1.621" rx="1.621" ry="1.621" transform="translate(18.896 4.48)" fill="#595959"/>
  </g>
</svg>
