<svg xmlns="http://www.w3.org/2000/svg" width="245" height="246" viewBox="0 0 245 246">
  <g id="组_144" data-name="组 144" transform="translate(-0.15)">
    <ellipse id="椭圆_2" data-name="椭圆 2" cx="122.5" cy="123" rx="122.5" ry="123" transform="translate(0.15)" fill="#fff"/>
    <g id="组_128" data-name="组 128" transform="translate(35.117 35.767)">
      <path id="路径_132" data-name="路径 132" d="M-54.153,831.01a14.754,14.754,0,0,1-3.975-.554,2.107,2.107,0,0,1-1.462-2.6,2.11,2.11,0,0,1,2.6-1.463,11.218,11.218,0,0,0,9.942-2.219c5.425-4.118,9.214-12.508,9.214-20.4,0-12.431-6.834-22.545-15.234-22.545q-.381,0-.754.027a2.1,2.1,0,0,1-2.252-1.952,2.1,2.1,0,0,1,1.951-2.25q.525-.039,1.055-.039c10.724,0,19.448,12,19.448,26.759,0,9.272-4.373,18.819-10.88,23.759A15.861,15.861,0,0,1-54.153,831.01Z" transform="translate(209.686 -698.572)" fill="#231815"/>
      <path id="路径_133" data-name="路径 133" d="M-217.14,831.01a15.857,15.857,0,0,1-9.647-3.476c-6.508-4.94-10.88-14.487-10.88-23.759,0-14.755,8.725-26.759,19.448-26.759.353,0,.705.013,1.054.039a2.106,2.106,0,0,1,1.952,2.25,2.089,2.089,0,0,1-2.252,1.952q-.375-.027-.754-.027c-8.4,0-15.234,10.114-15.234,22.545,0,7.894,3.789,16.285,9.214,20.4A11.217,11.217,0,0,0-214.3,826.4a2.11,2.11,0,0,1,2.6,1.463,2.108,2.108,0,0,1-1.463,2.6A14.754,14.754,0,0,1-217.14,831.01Z" transform="translate(237.668 -698.572)" fill="#231815"/>
      <path id="路径_134" data-name="路径 134" d="M-46.488,819.039a2.1,2.1,0,0,1-1.384-.519l-6.3-5.492a2.108,2.108,0,0,1-.2-2.973,2.107,2.107,0,0,1,2.973-.2l6.306,5.493a2.107,2.107,0,0,1,.2,2.973A2.1,2.1,0,0,1-46.488,819.039Z" transform="translate(208.936 -703.652)" fill="#231815"/>
      <path id="路径_135" data-name="路径 135" d="M-222.792,819.039a2.1,2.1,0,0,1-1.59-.723,2.107,2.107,0,0,1,.2-2.972l6.3-5.493a2.106,2.106,0,0,1,2.973.2,2.108,2.108,0,0,1-.2,2.973l-6.306,5.492A2.1,2.1,0,0,1-222.792,819.039Z" transform="translate(235.661 -703.652)" fill="#231815"/>
      <circle id="椭圆_25" data-name="椭圆 25" cx="5.315" cy="5.315" r="5.315" transform="translate(50.05 76.337)" fill="#231815"/>
      <circle id="椭圆_26" data-name="椭圆 26" cx="3.721" cy="3.721" r="3.721" transform="translate(37.692 80.589)" fill="#231815"/>
      <g id="组_126" data-name="组 126" transform="translate(28.994 110.605)">
        <circle id="椭圆_27" data-name="椭圆 27" cx="20.91" cy="20.91" r="20.91" fill="#ea5f3e" opacity="0.33"/>
        <circle id="椭圆_28" data-name="椭圆 28" cx="20.91" cy="20.91" r="20.91" transform="translate(76.266)" fill="#ea5f3e" opacity="0.33"/>
      </g>
      <path id="路径_136" data-name="路径 136" d="M-147.3,864.513a71.016,71.016,0,0,1-70.936-70.935A71.015,71.015,0,0,1-147.3,722.643a71.015,71.015,0,0,1,70.935,70.935A71.015,71.015,0,0,1-147.3,864.513Zm0-137.656a66.8,66.8,0,0,0-66.722,66.722A66.8,66.8,0,0,0-147.3,860.3a66.8,66.8,0,0,0,66.721-66.721A66.8,66.8,0,0,0-147.3,726.857Z" transform="translate(234.613 -690.024)" fill="#231815"/>
      <g id="组_127" data-name="组 127" transform="translate(0 0)">
        <path id="路径_137" data-name="路径 137" d="M-184.322,740.584c4.358-4.214,12.784-7.866,13.947,0s2.034,24.16,9.878,30.9,19.176,11.518,26.44,11.237,0-12.08,0-12.08,12.494,9.551,25.859,9.833,15.326.421,21.21-1.686,7.409-6.11,6.538-8.007,2.179,4.214,6.319,6.953a31.893,31.893,0,0,0,7.736,3.793s8.836-25.495-3.45-49.936-24.987-29.5-31.089-33.712-13.365-6.742-20.048-3.933-3.6.562-3.6.562-15.282-10.4-37.944-7.585S-188.1,702.1-188.1,702.1s-9.3-2.528-17.723,2.247-29.345,31.746-29.345,57.31,5.81,26.969,9.007,29.5,7.772-1.825,7.772-1.825a57.586,57.586,0,0,0,5.012,3.582c2.4,1.475,9.806-.211,5.011-6.11s-9.152-16.013-.217-34.133S-195,736.8-192.022,737.494A56.84,56.84,0,0,1-184.322,740.584Z" transform="translate(237.275 -684.334)" fill="#2a2827"/>
        <path id="路径_138" data-name="路径 138" d="M-211.573,795.116a6.438,6.438,0,0,1-3.3-.808c-1.4-.864-2.857-1.917-3.874-2.685-2.44,1.737-6.12,3.153-9.112.788-.274-.217-.57-.423-.879-.641-4.7-3.309-8.928-8.132-8.928-30.51,0-26.073,21.124-53.877,30.413-59.143,6.833-3.873,14.089-3.366,17.437-2.831,1.848-3.911,7.979-12.532,26.635-14.846,22.452-2.776,37.75,6.852,39.283,7.863.45-.172,1.011-.4,1.709-.69,6.532-2.747,14.161-1.315,22.062,4.141.815.562,1.764,1.147,2.862,1.824,6.766,4.169,18.09,11.146,28.912,32.675,12.542,24.949,3.931,50.5,3.558,51.571a2.11,2.11,0,0,1-2.583,1.333,33.919,33.919,0,0,1-8.307-4.057,19.809,19.809,0,0,1-4.048-3.756,13.138,13.138,0,0,1-6.935,5.036c-6,2.149-8.192,2.1-20.34,1.843l-1.625-.035c-8.163-.171-15.9-3.545-21.008-6.381.6,2.135.8,4.367-.105,6.056a5.044,5.044,0,0,1-4.619,2.571c-7.889.295-19.622-4.635-27.895-11.745-7.359-6.324-9.011-19.653-10.1-28.473-.169-1.371-.325-2.627-.486-3.719-.335-2.265-1.284-2.587-1.6-2.694-1.943-.664-5.893,1.088-8.8,3.9a2.111,2.111,0,0,1-2.377.386,52.686,52.686,0,0,0-7.267-2.939c-.161-.038-.329-.08-.5-.123-2.23-.561-5.962-1.5-13.692,14.173-6.591,13.367-6.6,23.793-.036,31.873,3.4,4.18,1.751,6.926.886,7.913A7.17,7.17,0,0,1-211.573,795.116Zm-7.207-8.289a2.1,2.1,0,0,1,1.319.463,55.793,55.793,0,0,0,4.795,3.429,3.54,3.54,0,0,0,3.261-.511c.393-.448-.287-1.614-.989-2.477-7.712-9.492-7.867-21.4-.472-36.394,8.523-17.287,13.812-17.578,18.5-16.4l.426.105a45.878,45.878,0,0,1,6.852,2.644c3.439-2.88,8.306-5.132,11.993-3.878,1.686.574,3.82,2.093,4.408,6.068.165,1.12.325,2.41.5,3.818,1.013,8.176,2.544,20.531,8.668,25.8,7.423,6.379,18.163,10.99,24.986,10.73.335-.013.92-.075,1.064-.345.674-1.26-.923-5.505-2.778-8.527a2.109,2.109,0,0,1,.383-2.666,2.108,2.108,0,0,1,2.69-.113c.12.092,12.129,9.139,24.625,9.4l1.627.035c11.754.249,13.56.288,18.829-1.6,3.695-1.323,4.837-3.234,5.157-3.993a1.735,1.735,0,0,0,.176-1.15c-.909-1.977.344-2.86.749-3.084.645-.356,1.9-.685,3.064,1.1.736,1.131,2.973,4.57,5.583,6.3a32.42,32.42,0,0,0,5.187,2.786c1.7-6.439,5.809-26.822-3.946-46.226-10.285-20.462-20.558-26.791-27.357-30.98-1.1-.678-2.141-1.32-3.047-1.945-4.642-3.205-11.538-6.456-18.033-3.723-3.505,1.473-5.821,2.448-6.953.444a2.211,2.211,0,0,1-.295-1.051,58.853,58.853,0,0,0-34.858-6.268c-20.965,2.6-23.751,13.452-23.777,13.561a2.108,2.108,0,0,1-.973,1.327,2.107,2.107,0,0,1-1.631.223c-.08-.021-8.6-2.222-16.131,2.047-8.394,4.758-28.277,31.339-28.277,55.478,0,22.043,4.3,25.064,7.138,27.063.378.265.736.518,1.07.782,1.445,1.146,4.325-1.053,5.017-1.7A2.116,2.116,0,0,1-218.779,786.827Z" transform="translate(237.668 -683.94)" fill="#231815"/>
      </g>
      <path id="路径_139" data-name="路径 139" d="M-91.842,814.326c-11.464,0-16.277-5.094-16.788-5.674l5.694-5.011-.063-.07c.126.131,3.187,3.171,11.158,3.171,8.295,0,10.95-2.927,10.975-2.957a1,1,0,0,0-.1.124l6.123,4.475C-75.283,808.992-79.537,814.326-91.842,814.326Z" transform="translate(217.383 -702.746)" fill="#231815" stroke="#707070" stroke-linecap="round" stroke-linejoin="round" stroke-width="1"/>
      <path id="路径_140" data-name="路径 140" d="M-180.532,814.326c-11.463,0-16.277-5.094-16.788-5.674l5.694-5.011-.063-.07c.126.131,3.186,3.171,11.157,3.171,8.295,0,10.95-2.928,10.976-2.957a1.079,1.079,0,0,0-.1.124l6.124,4.475C-163.973,808.992-168.228,814.326-180.532,814.326Z" transform="translate(231.325 -702.746)" fill="#231815" stroke="#707070" stroke-linecap="round" stroke-linejoin="round" stroke-width="1"/>
      <path id="路径_141" data-name="路径 141" d="M-136.124,824.928c-7.3,0-10.284-3.085-10.6-3.436a1.685,1.685,0,0,1,.126-2.38,1.686,1.686,0,0,1,2.365.108c.125.129,2.359,2.337,8.109,2.337,6.078,0,8-2.214,8.024-2.238a1.663,1.663,0,0,1,2.345-.322,1.7,1.7,0,0,1,.327,2.377C-125.7,821.738-128.309,824.928-136.124,824.928Z" transform="translate(223.439 -705.117)" fill="#231815"/>
    </g>
  </g>
</svg>
