<svg id="Group_99" data-name="Group 99" xmlns="http://www.w3.org/2000/svg" width="40.579" height="40.579" viewBox="0 0 40.579 40.579">
  <g id="instagram" transform="translate(0 0)">
    <g id="Group_93" data-name="Group 93" transform="translate(0 0)">
      <path id="Path_45" data-name="Path 45" d="M218.28,40.58h-2.993a1.151,1.151,0,1,1,0-2.3h2.993a4.006,4.006,0,0,0,4-4V6.3a4.006,4.006,0,0,0-4-4H201A1.151,1.151,0,0,1,201,0H218.28a6.311,6.311,0,0,1,6.3,6.3V34.276A6.311,6.311,0,0,1,218.28,40.58Z" transform="translate(-184.005 -0.001)" fill="#595959"/>
      <path id="Path_46" data-name="Path 46" d="M22.96,40.58H6.3a6.311,6.311,0,0,1-6.3-6.3V6.3A6.311,6.311,0,0,1,6.3,0h2.59a1.151,1.151,0,1,1,0,2.3H6.3a4.006,4.006,0,0,0-4,4V34.276a4.006,4.006,0,0,0,4,4H22.96a1.151,1.151,0,1,1,0,2.3Z" transform="translate(0 -0.001)" fill="#595959"/>
    </g>
  </g>
  <g id="telephone-1" transform="translate(8.608 7.963)">
    <path id="Path_64" data-name="Path 64" d="M42.667,21.077V19.636c-.1-.028-.2-.061-.3-.091a20.222,20.222,0,0,0-4.806-.654,20.274,20.274,0,0,0-4.813.652c-.1.028-.16.055-.254.083l.041,1.311v.14A1.939,1.939,0,0,1,30.6,23.016H28.484a1.939,1.939,0,0,1-1.939-1.954l0-.567a4.519,4.519,0,0,1,.345-1.25,4.647,4.647,0,0,1,.606-1.01c1.869-2.383,4.784-3.355,10.057-3.357,7.289,0,9.952,3.212,10.065,3.353a4.629,4.629,0,0,1,.607,1.012,4.5,4.5,0,0,1,.343,1.251l0,.567a1.939,1.939,0,0,1-1.939,1.955H44.607A1.939,1.939,0,0,1,42.667,21.077Z" transform="translate(-25.831 -14.163)" fill="#91c499" stroke="#707070" stroke-width="0.5"/>
    <g id="Group_97" data-name="Group 97" transform="translate(0)">
      <path id="Path_65" data-name="Path 65" d="M32.48,9.567H30.448a2.656,2.656,0,0,1-2.653-2.653v-.9A19.781,19.781,0,0,0,23.4,5.442a19.862,19.862,0,0,0-4.336.55l.024.76c0,.007,0,.015,0,.022v.14a2.656,2.656,0,0,1-2.653,2.653H14.326a2.653,2.653,0,0,1-2.653-2.674l0-.567a.715.715,0,0,1,.005-.081,5.27,5.27,0,0,1,.4-1.45l0-.007a5.341,5.341,0,0,1,.7-1.16C14.8,1.052,17.88,0,23.4,0A17.486,17.486,0,0,1,31.45,1.7a8.2,8.2,0,0,1,2.572,1.918,5.347,5.347,0,0,1,.7,1.169,5.223,5.223,0,0,1,.4,1.454.739.739,0,0,1,.005.079l0,.567A2.653,2.653,0,0,1,32.48,9.567ZM23.4,4.014a20.8,20.8,0,0,1,5,.682c.064.018.131.039.2.059l.109.033a.714.714,0,0,1,.513.685V6.914a1.226,1.226,0,0,0,1.225,1.225H32.48A1.225,1.225,0,0,0,33.7,6.9l0-.526a3.776,3.776,0,0,0-.283-1.012A3.925,3.925,0,0,0,32.9,4.51a6.989,6.989,0,0,0-2.115-1.541A16.036,16.036,0,0,0,23.4,1.428c-5.027,0-7.778.894-9.495,3.083l0,.006a3.925,3.925,0,0,0-.511.853A3.829,3.829,0,0,0,13.1,6.379l0,.525a1.225,1.225,0,0,0,1.225,1.235h2.112a1.226,1.226,0,0,0,1.225-1.225V6.785l-.04-1.3a.714.714,0,0,1,.516-.708c.029-.008.052-.017.076-.025.047-.017.105-.037.182-.058A20.819,20.819,0,0,1,23.4,4.014Z" transform="translate(-11.672)" fill="#595959" stroke="#595959" stroke-width="0.5"/>
      <path id="Path_66" data-name="Path 66" d="M62.69,184.39H46.07a1.858,1.858,0,0,1-1.853-2l.708-9.548a1.847,1.847,0,0,1,1.575-1.7l3.859-.662.465-1.36a1.858,1.858,0,0,1,1.758-1.257h3.593a1.858,1.858,0,0,1,1.758,1.257l.465,1.36,3.859.662a1.847,1.847,0,0,1,1.575,1.7l.708,9.548a1.858,1.858,0,0,1-1.854,2ZM52.583,169.3a.43.43,0,0,0-.407.291l-.6,1.761a.714.714,0,0,1-.555.473l-4.285.735-.018,0a.427.427,0,0,0-.367.394l-.708,9.548a.43.43,0,0,0,.429.462H62.69a.43.43,0,0,0,.429-.462l-.708-9.548a.427.427,0,0,0-.367-.394l-.018,0-4.285-.735a.714.714,0,0,1-.555-.473l-.6-1.761a.43.43,0,0,0-.407-.291H52.583Z" transform="translate(-42.65 -159.809)" fill="#595959" stroke="#595959" stroke-width="0.5"/>
      <path id="Path_67" data-name="Path 67" d="M170.508,275.46a4.311,4.311,0,1,1,0-8.623.714.714,0,1,1,0,1.428,2.883,2.883,0,1,0,2.883,2.883,2.851,2.851,0,0,0-.632-1.8.714.714,0,1,1,1.114-.894,4.312,4.312,0,0,1-3.365,7.007Z" transform="translate(-158.778 -254.026)" fill="#595959" stroke="#595959" stroke-width="0.5"/>
    </g>
  </g>
</svg>
