<svg xmlns="http://www.w3.org/2000/svg" width="248" height="248" viewBox="0 0 248 248">
  <g id="组_143" data-name="组 143" transform="translate(0.058)">
    <circle id="椭圆_3" data-name="椭圆 3" cx="124" cy="124" r="124" transform="translate(-0.058)" fill="#fff"/>
    <g id="组_112" data-name="组 112" transform="translate(33.287 19.102)">
      <path id="路径_114" data-name="路径 114" d="M-109.687,543.377" transform="translate(210.674 -454.599)" fill="none" stroke="#231815" stroke-linecap="round" stroke-linejoin="round" stroke-width="5"/>
      <g id="组_112-2" data-name="组 112" transform="translate(33.308 109.565)">
        <circle id="椭圆_17" data-name="椭圆 17" cx="20.759" cy="20.759" r="20.759" fill="#ea5f3e" opacity="0.33"/>
        <circle id="椭圆_18" data-name="椭圆 18" cx="20.759" cy="20.759" r="20.759" transform="translate(75.713)" fill="#ea5f3e" opacity="0.33"/>
      </g>
      <g id="组_115" data-name="组 115" transform="translate(50.46 60.869)" opacity="0.9">
        <g id="组_113" data-name="组 113" transform="translate(0 0)">
          <ellipse id="椭圆_19" data-name="椭圆 19" cx="6.633" cy="4.874" rx="6.633" ry="4.874" transform="translate(0 2.744) rotate(-11.936)" fill="#1a0e0e"/>
          <path id="路径_115" data-name="路径 115" d="M-158.1,525a8.294,8.294,0,0,1-3.422-.7,5.2,5.2,0,0,1-3.133-3.615,5.206,5.206,0,0,1,1.4-4.576,8.872,8.872,0,0,1,4.79-2.652,8.863,8.863,0,0,1,5.452.489,5.2,5.2,0,0,1,3.133,3.615,5.2,5.2,0,0,1-1.4,4.575,8.874,8.874,0,0,1-4.789,2.653A9.886,9.886,0,0,1-158.1,525Zm1.671-9.93a7.988,7.988,0,0,0-1.656.177,7.023,7.023,0,0,0-3.8,2.079,3.422,3.422,0,0,0-.975,2.974,3.423,3.423,0,0,0,2.094,2.325,7.03,7.03,0,0,0,4.316.364,7.023,7.023,0,0,0,3.8-2.08,3.42,3.42,0,0,0,.975-2.973h0a3.423,3.423,0,0,0-2.094-2.324A6.473,6.473,0,0,0-156.429,515.07Z" transform="translate(164.764 -512.977)" fill="#1b0f0f"/>
        </g>
        <g id="组_114" data-name="组 114" transform="translate(63.606 0)">
          <ellipse id="椭圆_20" data-name="椭圆 20" cx="4.874" cy="6.633" rx="4.874" ry="6.633" transform="translate(0 9.538) rotate(-78.064)" fill="#1a0e0e"/>
          <path id="路径_116" data-name="路径 116" d="M-87.1,525a9.831,9.831,0,0,1-2.032-.216c-4.072-.861-6.849-4.1-6.189-7.228h0a5.2,5.2,0,0,1,3.133-3.615,8.864,8.864,0,0,1,5.453-.489,8.866,8.866,0,0,1,4.789,2.652,5.2,5.2,0,0,1,1.4,4.576,5.2,5.2,0,0,1-3.133,3.615A8.29,8.29,0,0,1-87.1,525Zm-6.426-7.064c-.45,2.135,1.691,4.4,4.775,5.053a7.026,7.026,0,0,0,4.315-.364,3.421,3.421,0,0,0,2.094-2.325,3.424,3.424,0,0,0-.974-2.974,7.03,7.03,0,0,0-3.8-2.079,7.015,7.015,0,0,0-4.316.364,3.427,3.427,0,0,0-2.1,2.324Z" transform="translate(95.429 -512.977)" fill="#1b0f0f"/>
        </g>
      </g>
      <path id="路径_117" data-name="路径 117" d="M-125.861,624.121a76.656,76.656,0,0,1-43.3-13.3,2.294,2.294,0,0,1-.606-3.186,2.294,2.294,0,0,1,3.187-.606,72.088,72.088,0,0,0,40.716,12.51A72.1,72.1,0,0,0-85.24,607.089a2.294,2.294,0,0,1,3.185.611,2.294,2.294,0,0,1-.611,3.186A76.671,76.671,0,0,1-125.861,624.121Z" transform="translate(215.671 -459.825)" fill="#231815"/>
      <g id="组_118" data-name="组 118" transform="translate(0 0)">
        <g id="组_117" data-name="组 117">
          <g id="组_116" data-name="组 116">
            <path id="路径_118" data-name="路径 118" d="M-106.268,501.491S-80.888,518-77.218,523.813A46.505,46.505,0,0,1-70.8,542.773c.305,4.892,1.925,18.347-4.7,28.133s-11.729,5.2-12.843,19.57,9.893,14.678,9.893,14.678-13.454-2.447-14.066,15.6,24.957,14.219,30.826,13,21.068-7.516,20.393-24.934S-52.144,595.8-52.144,585.644s16.513-82.318-19.685-113.853l-4.089-3.511A83.646,83.646,0,0,0-129.342,449.1c-20.881,0-40.535,7.078-55.227,19.69l-4.186,3.669C-226.138,507-206.393,575.492-206.393,585.644s-10.181,5.749-10.855,23.167,14.525,23.71,20.393,24.934,31.438,5.046,30.826-13-14.066-15.6-14.066-15.6,11.008-.306,9.893-14.678-6.223-9.786-12.843-19.57-5-23.241-4.7-28.133a46.505,46.505,0,0,1,6.422-18.959c3.669-5.81,29.05-22.322,29.05-22.322s4.362-3.135,5.3-3.823" transform="translate(219.563 -446.808)" fill="#724b42"/>
            <path id="路径_119" data-name="路径 119" d="M-73.447,637.026c-5.806,0-12.359-.991-16.722-4.663-3.381-2.846-5.009-6.849-4.838-11.9.234-6.889,2.259-11.92,6.021-14.953a12.9,12.9,0,0,1,2.5-1.577c-.278-.255-.552-.53-.818-.826-2.767-3.074-3.95-7.453-3.519-13.016.724-9.324,3.15-11.7,7.062-14.516a22.042,22.042,0,0,0,6.168-6.161c5.652-8.354,4.806-19.843,4.4-25.366-.037-.5-.07-.945-.094-1.339a44.422,44.422,0,0,0-6.071-17.878c-2.5-3.95-18.328-15.1-28.361-21.624a2.293,2.293,0,0,1-.672-3.173,2.294,2.294,0,0,1,3.173-.672c2.641,1.718,25.911,16.962,29.738,23.02a48.969,48.969,0,0,1,6.772,20.041c.023.379.055.811.091,1.289.444,6.037,1.368,18.6-5.175,28.271A26.342,26.342,0,0,1-81.09,579.3c-2.937,2.112-4.555,3.274-5.166,11.146-.327,4.231.45,7.443,2.313,9.547a8.35,8.35,0,0,0,4.813,2.593c.519.039.839.094.893.1a2.293,2.293,0,0,1,1.871,2.494,2.3,2.3,0,0,1-2.345,2.055,8.621,8.621,0,0,1-.921-.092,9.607,9.607,0,0,0-6.517,1.969c-2.649,2.165-4.087,6.035-4.272,11.5-.123,3.62.926,6.313,3.207,8.233,5.728,4.822,18.322,3.8,24.859,2.44.787-.164,19.281-4.234,18.569-22.6-.34-8.8-3.147-11.192-5.86-13.5-2.342-2-5-4.257-5-9.753,0-1.694.388-4.717.926-8.9,2.971-23.132,9.929-77.3-19.824-103.221l-4.076-3.5a81.793,81.793,0,0,0-51.93-18.624c-20.274,0-39.357,6.8-53.734,19.136l-4.168,3.653c-30.28,27.975-21.778,79.674-18.147,101.75a78.855,78.855,0,0,1,1.292,9.709c0,5.5-2.655,7.757-5,9.753-2.714,2.312-5.52,4.7-5.861,13.5-.711,18.366,17.782,22.436,18.57,22.6,6.538,1.362,19.13,2.381,24.859-2.44,2.281-1.92,3.329-4.613,3.206-8.233-.185-5.468-1.623-9.339-4.272-11.5a9.608,9.608,0,0,0-6.526-1.968,8.547,8.547,0,0,1-.912.091,2.294,2.294,0,0,1-2.344-2.055,2.293,2.293,0,0,1,1.871-2.494c.053-.01.378-.065.9-.106a8.355,8.355,0,0,0,4.8-2.592c1.862-2.1,2.64-5.316,2.312-9.547-.61-7.872-2.228-9.034-5.165-11.146a26.361,26.361,0,0,1-7.291-7.316c-6.543-9.673-5.619-22.235-5.174-28.273.035-.477.066-.909.09-1.288a48.974,48.974,0,0,1,6.772-20.041c3.806-6.025,26.845-21.137,29.693-22.991.453-.326,4.362-3.135,5.247-3.782a2.294,2.294,0,0,1,3.2.5,2.294,2.294,0,0,1-.5,3.205c-.945.689-5.318,3.832-5.318,3.832-.028.021-.059.04-.088.06-10.033,6.528-25.866,17.674-28.361,21.624a44.446,44.446,0,0,0-6.071,17.878c-.025.393-.058.842-.094,1.338-.406,5.523-1.251,17.013,4.4,25.367a22.067,22.067,0,0,0,6.169,6.161c3.912,2.812,6.338,5.191,7.062,14.516.431,5.563-.752,9.941-3.518,13.016-.267.3-.541.571-.819.826a12.878,12.878,0,0,1,2.5,1.577c3.761,3.033,5.787,8.064,6.02,14.953.172,5.049-1.456,9.052-4.837,11.9-8.531,7.179-25.444,4.112-28.748,3.421-8.576-1.788-22.9-9.543-22.218-27.267.418-10.811,4.493-14.283,7.469-16.818,2.11-1.8,3.384-2.883,3.384-6.262a82.428,82.428,0,0,0-1.23-8.964c-3.751-22.8-12.535-76.212,19.605-105.9l4.23-3.71c15.226-13.07,35.37-20.258,56.739-20.258a86.414,86.414,0,0,1,54.884,19.7l4.123,3.539C-38.928,497.386-46.1,553.26-49.169,577.12c-.5,3.864-.888,6.915-.888,8.317,0,3.379,1.274,4.464,3.384,6.262,2.976,2.535,7.051,6.007,7.47,16.818.686,17.724-13.643,25.479-22.218,27.267A62.294,62.294,0,0,1-73.447,637.026Z" transform="translate(219.77 -446.602)" fill="#231815"/>
          </g>
        </g>
        <path id="路径_120" data-name="路径 120" d="M-62.72,536.17a2.294,2.294,0,0,1-2.162-1.53c-1.706-4.824-6.879-17.969-8.618-21.229a2.294,2.294,0,0,1,.945-3.1,2.3,2.3,0,0,1,3.1.944c2,3.75,7.274,17.276,8.895,21.86a2.294,2.294,0,0,1-1.4,2.927A2.3,2.3,0,0,1-62.72,536.17Z" transform="translate(207.706 -451.844)" fill="#231815"/>
        <path id="路径_121" data-name="路径 121" d="M-181.477,536.17a2.3,2.3,0,0,1-.765-.131,2.3,2.3,0,0,1-1.4-2.927c1.621-4.584,6.895-18.11,8.895-21.86a2.294,2.294,0,0,1,3.1-.944,2.3,2.3,0,0,1,.945,3.1c-1.738,3.259-6.911,16.4-8.618,21.229A2.294,2.294,0,0,1-181.477,536.17Z" transform="translate(216.795 -451.844)" fill="#231815"/>
      </g>
      <g id="组_119" data-name="组 119" transform="translate(71.157 40.158)">
        <path id="路径_122" data-name="路径 122" d="M-138.083,492.877a71.083,71.083,0,0,0-.261,28.9,7.035,7.035,0,0,0,8.157,5.541,53.3,53.3,0,0,1,9.253-.915,50.307,50.307,0,0,1,8.875.832,7.049,7.049,0,0,0,8.2-5.489,90.691,90.691,0,0,0,1.63-13.364c.451-8.5-1.624-13.743-1.624-13.743" transform="translate(141.996 -490.584)" fill="#724b42"/>
        <path id="路径_123" data-name="路径 123" d="M-131.629,529.518a9.387,9.387,0,0,1-9.17-7.5,73.288,73.288,0,0,1,.271-29.844,2.292,2.292,0,0,1,2.732-1.748,2.291,2.291,0,0,1,1.748,2.731,68.683,68.683,0,0,0-.252,27.961,4.776,4.776,0,0,0,5.5,3.734,54.859,54.859,0,0,1,9.661-.952,52.355,52.355,0,0,1,9.283.869,4.738,4.738,0,0,0,5.545-3.691,88.836,88.836,0,0,0,1.586-13.027,33.827,33.827,0,0,0-1.469-12.783,2.3,2.3,0,0,1,1.3-2.968,2.287,2.287,0,0,1,2.968,1.287c.093.233,2.254,5.808,1.782,14.708a93.367,93.367,0,0,1-1.673,13.7,9.3,9.3,0,0,1-10.854,7.284,47.835,47.835,0,0,0-8.466-.8,50.294,50.294,0,0,0-8.845.879A9.3,9.3,0,0,1-131.629,529.518Z" transform="translate(142.203 -490.377)" fill="#231815"/>
      </g>
      <path id="路径_124" data-name="路径 124" d="M-131.224,550.995" transform="translate(212.453 -455.228)" fill="none" stroke="#231815" stroke-linecap="round" stroke-linejoin="round" stroke-width="5"/>
      <path id="路径_125" data-name="路径 125" d="M-123.182,581.82c-9.031,0-13.756-5.569-14.042-16.556a3.33,3.33,0,0,1,.961-2.426,3.646,3.646,0,0,1,2.6-1.085h20.79a3.806,3.806,0,0,1,2.735,1.148,3.455,3.455,0,0,1,.98,2.545C-109.58,576.311-114.3,581.82-123.182,581.82Zm-10.366-16.4c.287,8.8,3.491,12.728,10.366,12.728s9.979-3.807,10.356-12.724a.2.2,0,0,0-.043,0Z" transform="translate(212.949 -456.117)"/>
      <g id="组_122" data-name="组 122" transform="translate(110.826 73.685)">
        <g id="组_121" data-name="组 121" transform="translate(0 4.76)">
          <path id="路径_126" data-name="路径 126" d="M-65.653,556.676l-.093,0a2.294,2.294,0,0,1-2.2-2.382c.476-12.068-7.358-15.778-10.749-16.813-6.323-1.928-13.511-.19-16.021,3.878a2.293,2.293,0,0,1-3.156.749,2.294,2.294,0,0,1-.748-3.157c3.594-5.826,12.934-8.4,21.263-5.857,9.18,2.8,14.411,10.794,13.994,21.38A2.294,2.294,0,0,1-65.653,556.676Z" transform="translate(98.962 -532.113)" fill="#231815"/>
          <g id="组_120" data-name="组 120" transform="translate(0.8 3.1)">
            <ellipse id="椭圆_21" data-name="椭圆 21" cx="12.642" cy="11.572" rx="12.642" ry="11.572" transform="translate(1.719 27.022) rotate(-87.326)" fill="#231815"/>
            <path id="路径_127" data-name="路径 127" d="M-84.3,565.36q-.308,0-.617-.015a13.292,13.292,0,0,1-9.657-4.9,15.46,15.46,0,0,1-3.5-10.664A15.46,15.46,0,0,1-93.6,539.489a13.287,13.287,0,0,1,10.072-3.982c7.637.356,13.538,7.34,13.153,15.566a15.452,15.452,0,0,1-4.476,10.29A13.322,13.322,0,0,1-84.3,565.36Zm.166-25.28a8.8,8.8,0,0,0-6.227,2.661,10.884,10.884,0,0,0-3.129,7.252h0a10.887,10.887,0,0,0,2.44,7.512,8.758,8.758,0,0,0,6.345,3.258,8.731,8.731,0,0,0,6.623-2.652,10.88,10.88,0,0,0,3.129-7.252c.266-5.7-3.676-10.531-8.787-10.771C-83.871,540.083-84,540.08-84.134,540.08Zm-11.647,9.807h0Z" transform="translate(98.09 -535.493)" fill="#231815"/>
          </g>
          <circle id="椭圆_22" data-name="椭圆 22" cx="3.612" cy="3.612" r="3.612" transform="translate(9.569 6.434)" fill="#fff"/>
        </g>
        <path id="路径_128" data-name="路径 128" d="M-76.086,535.208a2.3,2.3,0,0,1-.5-.054,2.294,2.294,0,0,1-1.746-2.735l.816-3.7a2.3,2.3,0,0,1,2.734-1.746,2.294,2.294,0,0,1,1.746,2.735l-.816,3.7A2.294,2.294,0,0,1-76.086,535.208Z" transform="translate(97.261 -526.924)" fill="#231815"/>
      </g>
      <g id="组_125" data-name="组 125" transform="translate(34.685 75.204)">
        <g id="组_124" data-name="组 124" transform="translate(0 3.244)">
          <path id="路径_129" data-name="路径 129" d="M-179.646,556.676a2.3,2.3,0,0,1-2.291-2.2c-.418-10.587,4.813-18.58,13.994-21.38,8.33-2.538,17.669.031,21.263,5.856a2.3,2.3,0,0,1-.748,3.157,2.294,2.294,0,0,1-3.156-.749c-2.51-4.067-9.7-5.8-16.021-3.878-3.391,1.035-11.225,4.745-10.748,16.813a2.294,2.294,0,0,1-2.2,2.382Z" transform="translate(181.96 -532.115)" fill="#231815"/>
          <g id="组_123" data-name="组 123" transform="translate(7.085 3.098)">
            <ellipse id="椭圆_23" data-name="椭圆 23" cx="11.572" cy="12.642" rx="11.572" ry="12.642" transform="translate(1.719 2.846) rotate(-2.674)" fill="#231815"/>
            <path id="路径_130" data-name="路径 130" d="M-160.291,565.36a13.321,13.321,0,0,1-9.453-4,15.452,15.452,0,0,1-4.476-10.29,15.455,15.455,0,0,1,3.5-10.663,13.3,13.3,0,0,1,9.656-4.9,13.277,13.277,0,0,1,10.072,3.981,15.46,15.46,0,0,1,4.476,10.29h0a15.459,15.459,0,0,1-3.5,10.663,13.292,13.292,0,0,1-9.657,4.9Q-159.983,565.36-160.291,565.36Zm-.165-25.28c-.132,0-.263,0-.4.009a8.761,8.761,0,0,0-6.346,3.258,10.879,10.879,0,0,0-2.44,7.512,10.88,10.88,0,0,0,3.129,7.253,8.749,8.749,0,0,0,6.622,2.652,8.758,8.758,0,0,0,6.346-3.258,10.884,10.884,0,0,0,2.44-7.513h0a10.881,10.881,0,0,0-3.13-7.252A8.8,8.8,0,0,0-160.456,540.08Z" transform="translate(174.238 -535.492)" fill="#231815"/>
          </g>
          <circle id="椭圆_24" data-name="椭圆 24" cx="3.612" cy="3.612" r="3.612" transform="translate(18.828 6.432)" fill="#fff"/>
        </g>
        <path id="路径_131" data-name="路径 131" d="M-169.186,536.637a2.293,2.293,0,0,1-2.1-1.38l-1.509-3.469a2.294,2.294,0,0,1,1.189-3.018,2.294,2.294,0,0,1,3.017,1.189l1.509,3.47a2.294,2.294,0,0,1-1.188,3.018A2.29,2.29,0,0,1-169.186,536.637Z" transform="translate(181.219 -528.58)" fill="#231815"/>
      </g>
    </g>
  </g>
</svg>
