<svg xmlns="http://www.w3.org/2000/svg" width="240" height="240" viewBox="0 0 240 240">
  <g id="组_142" data-name="组 142" transform="translate(-0.139 -0.542)">
    <circle id="椭圆_5" data-name="椭圆 5" cx="120" cy="120" r="120" transform="translate(0.139 0.542)" fill="#fff"/>
    <g id="组_87" data-name="组 87" transform="translate(43.361 39.993)">
      <g id="组_78" data-name="组 78" transform="translate(23.806 97.38)">
        <circle id="椭圆_6" data-name="椭圆 6" cx="19.046" cy="19.046" r="19.046" fill="#ea5f3e" opacity="0.33"/>
        <circle id="椭圆_7" data-name="椭圆 7" cx="19.046" cy="19.046" r="19.046" transform="translate(69.465)" fill="#ea5f3e" opacity="0.33"/>
      </g>
      <path id="路径_108" data-name="路径 108" d="M178.764,389.763c-12.238,12.014-30.176,18.656-48.678,18.656-21.047,0-40.984-8.124-52.456-23.923" transform="translate(-52.785 -257.938)" fill="none" stroke="#231815" stroke-linecap="round" stroke-linejoin="round" stroke-width="5"/>
      <g id="组_81" data-name="组 81" transform="translate(0 0)">
        <path id="路径_101" data-name="路径 101" d="M76.472,345.925" transform="translate(-55.227 -277.886)" fill="none" stroke="#231815" stroke-linecap="round" stroke-linejoin="round" stroke-width="2"/>
        <g id="组_79" data-name="组 79">
          <path id="路径_102" data-name="路径 102" d="M87.343,367.4c7.735-4.246,28.144-10.154,52.216-10.154a146.79,146.79,0,0,1,49.914,9.287,11.657,11.657,0,0,1,7.436,9.3c.723,5.1,1.6,13.032,2.029,23.5.791,19.53-11.613,32.989-16.363,39.322s-15.965,15.571-12.4,20.057c5.189,6.536,17.417-4.75,17.417-4.75s-2.374,4.75,2.9,4.75,26.918-12.14,24.278-51.461-8.113-52.036-8.113-52.036a69.1,69.1,0,0,0-134.012-.748s.237-.9-.713,2.84c-1.273,5.007-6.017,19.342-8.072,49.945-2.638,39.321,19,51.461,24.28,51.461s2.9-4.75,2.9-4.75,12.229,11.286,17.418,4.75c3.563-4.486-7.654-13.723-12.4-20.057S78.9,418.871,79.7,399.341c.424-10.464,1.3-18.392,2.027-23.5a11.724,11.724,0,0,1,3.958-7.253S86.894,367.648,87.343,367.4Z" transform="translate(-62.101 -301.085)" fill="#2a2827"/>
          <path id="路径_103" data-name="路径 103" d="M175.032,462.828c-.21,0-.419-.008-.627-.025a6.682,6.682,0,0,1-4.9-2.592c-3.422-4.309,2.218-10.5,7.672-16.481,1.788-1.963,3.477-3.815,4.705-5.452.5-.662,1.075-1.4,1.712-2.215,5.254-6.7,15.03-19.177,14.344-36.123-.43-10.6-1.333-18.547-2.016-23.348a10.13,10.13,0,0,0-6.453-8.084A145.378,145.378,0,0,0,140.1,359.32c-24.277,0-44.459,6.112-51.478,9.965-.2.112-.918.636-1.457,1.055a10.152,10.152,0,0,0-3.379,6.257C83.1,381.4,82.2,389.354,81.767,399.94c-.686,16.947,9.09,29.421,14.344,36.123.637.814,1.216,1.553,1.712,2.215,1.229,1.637,2.918,3.491,4.705,5.453,5.455,5.983,11.094,12.172,7.672,16.48a6.683,6.683,0,0,1-4.9,2.592c-4.071.312-8.855-2.585-11.844-4.794a3.673,3.673,0,0,1-.381.832c-.8,1.295-2.279,1.95-4.4,1.95-2.85,0-8.213-2.456-13.256-7.849-6.636-7.1-14.2-20.709-12.555-45.25,1.832-27.308,5.853-41.942,7.568-48.19.22-.8.405-1.474.547-2.03.428-1.685.613-2.416.686-2.712a1.228,1.228,0,0,1,.026-.131,70.634,70.634,0,0,1,136.964.648c.608,1.493,5.662,14.87,8.182,52.414,1.648,24.541-5.919,38.154-12.555,45.25-5.045,5.393-10.408,7.849-13.256,7.849-2.119,0-3.6-.656-4.4-1.95a3.666,3.666,0,0,1-.379-.832C183.412,460.106,178.971,462.826,175.032,462.828Zm-83.445-9.856a1.524,1.524,0,0,1,1.035.405c2.043,1.881,8.265,6.687,12.446,6.364A3.68,3.68,0,0,0,107.8,458.3c1.8-2.261-3.6-8.179-7.537-12.5-1.838-2.018-3.577-3.924-4.893-5.679-.484-.647-1.049-1.367-1.674-2.164-5.5-7.012-15.726-20.064-14.993-38.141.433-10.715,1.35-18.774,2.041-23.65a13.265,13.265,0,0,1,4.477-8.2,20.587,20.587,0,0,1,1.923-1.371h0c7.574-4.159,27.927-10.345,52.955-10.345a148.545,148.545,0,0,1,50.453,9.383,13.2,13.2,0,0,1,8.417,10.529c.691,4.87,1.608,12.926,2.043,23.655.733,18.077-9.5,31.129-14.993,38.141-.625.8-1.19,1.517-1.675,2.164-1.315,1.755-3.053,3.66-4.891,5.678-3.939,4.322-9.333,10.24-7.537,12.5a3.676,3.676,0,0,0,2.727,1.441c4.2.326,10.4-4.483,12.446-6.364a1.536,1.536,0,0,1,2.416,1.815,2.742,2.742,0,0,0-.256,2.035c.193.309.86.493,1.786.493,1.494,0,6.154-1.68,11.013-6.875,6.221-6.653,13.307-19.505,11.734-42.946-2.582-38.445-7.94-51.408-7.993-51.536a1.615,1.615,0,0,1-.08-.24,67.563,67.563,0,0,0-131.023-.771h0l0,.02,0,.022h0a1.516,1.516,0,0,1-.078.2c-.126.64-.341,1.491-.633,2.634-.144.573-.335,1.265-.561,2.087-1.692,6.16-5.655,20.583-7.467,47.583-1.574,23.441,5.513,36.294,11.734,42.946,4.857,5.2,9.517,6.875,11.013,6.875.924,0,1.593-.184,1.785-.493a2.752,2.752,0,0,0-.26-2.042,1.54,1.54,0,0,1,1.384-2.213Z" transform="translate(-62.638 -301.621)" fill="#231815"/>
        </g>
        <g id="组_80" data-name="组 80" transform="translate(18.255 28.632)">
          <path id="路径_104" data-name="路径 104" d="M125.917,350.138a1.537,1.537,0,0,1-1.333-2.294c.048-.088,2.466-4.556,1.82-12.518a86.116,86.116,0,0,0-1.972-13.138,1.536,1.536,0,1,1,2.973-.771,87.369,87.369,0,0,1,2.059,13.66c.734,9.027-2.092,14.078-2.213,14.288A1.534,1.534,0,0,1,125.917,350.138Z" transform="translate(-47.814 -320.265)" fill="#1b0f0f"/>
          <path id="路径_105" data-name="路径 105" d="M104.333,350.135a1.529,1.529,0,0,1-1.33-.769c-.12-.21-2.946-5.261-2.213-14.288a87.6,87.6,0,0,1,2.059-13.66,1.536,1.536,0,0,1,2.973.771,86.6,86.6,0,0,0-1.972,13.138c-.65,8,1.8,12.475,1.821,12.519a1.537,1.537,0,0,1-1.339,2.29Z" transform="translate(-60.519 -320.265)" fill="#1b0f0f"/>
          <path id="路径_106" data-name="路径 106" d="M152.353,357.669a1.54,1.54,0,0,1-1.527-1.376,56.355,56.355,0,0,0-1.579-7.482c-1.138-4.3-2.966-10.249-2.984-10.308a1.536,1.536,0,0,1,2.936-.9c.018.06,1.864,6.069,3.016,10.424a58.3,58.3,0,0,1,1.666,7.952,1.535,1.535,0,0,1-1.368,1.683A1.442,1.442,0,0,1,152.353,357.669Z" transform="translate(-36.129 -311.559)" fill="#1b0f0f"/>
          <path id="路径_107" data-name="路径 107" d="M76.062,357.669a1.442,1.442,0,0,1-.161-.009,1.536,1.536,0,0,1-1.368-1.683,58.146,58.146,0,0,1,1.665-7.952c1.153-4.355,3-10.365,3.016-10.424a1.536,1.536,0,0,1,2.936.9c-.018.058-1.846,6.012-2.982,10.308a56.371,56.371,0,0,0-1.579,7.482A1.54,1.54,0,0,1,76.062,357.669Z" transform="translate(-74.525 -311.559)" fill="#1b0f0f"/>
        </g>
      </g>
      <g id="组_82" data-name="组 82" transform="translate(98.856 70.267)">
        <path id="路径_109" data-name="路径 109" d="M127.009,352.214s5.1-5.985,12.966-4.641c13.967,2.385,16.5,13.375,16.5,13.375" transform="translate(-127.009 -347.376)" fill="none" stroke="#231815" stroke-linecap="round" stroke-linejoin="round" stroke-width="5"/>
        <ellipse id="椭圆_8" data-name="椭圆 8" cx="10.82" cy="11.528" rx="10.82" ry="11.528" transform="translate(0.544 3.548)" fill="#231815" stroke="#231815" stroke-linecap="round" stroke-linejoin="round" stroke-width="5"/>
        <circle id="椭圆_9" data-name="椭圆 9" cx="3.743" cy="3.743" r="3.743" transform="translate(6.27 4.837)" fill="#fff"/>
      </g>
      <g id="组_83" data-name="组 83" transform="translate(26.677 70.267)">
        <path id="路径_110" data-name="路径 110" d="M109.475,352.214s-5.1-5.985-12.966-4.641c-13.966,2.385-16.5,13.375-16.5,13.375" transform="translate(-80.009 -347.376)" fill="none" stroke="#231815" stroke-linecap="round" stroke-linejoin="round" stroke-width="5"/>
        <ellipse id="椭圆_10" data-name="椭圆 10" cx="10.82" cy="11.528" rx="10.82" ry="11.528" transform="translate(7.282 3.548)" fill="#231815" stroke="#231815" stroke-linecap="round" stroke-linejoin="round" stroke-width="5"/>
        <circle id="椭圆_11" data-name="椭圆 11" cx="3.743" cy="3.743" r="3.743" transform="translate(15.71 4.837)" fill="#fff"/>
      </g>
      <g id="组_84" data-name="组 84" transform="translate(18.066 61.341)">
        <circle id="椭圆_12" data-name="椭圆 12" cx="24.321" cy="24.321" r="24.321" stroke-width="5" stroke="#000" stroke-linecap="round" stroke-linejoin="round" fill="none"/>
        <circle id="椭圆_13" data-name="椭圆 13" cx="24.321" cy="24.321" r="24.321" transform="translate(71.202)" stroke-width="5" stroke="#000" stroke-linecap="round" stroke-linejoin="round" fill="none"/>
        <path id="路径_111" data-name="路径 111" d="M106.076,357.962l3.342-.74a36.761,36.761,0,0,1,15.876,0l3.342.74" transform="translate(-57.433 -333.64)" fill="none" stroke="#000" stroke-linecap="round" stroke-linejoin="round" stroke-width="5"/>
      </g>
      <g id="组_85" data-name="组 85" transform="translate(65.855 105.186)">
        <path id="路径_112" data-name="路径 112" d="M105.52,374.274a16.466,16.466,0,0,0,6.7-1.422c3.629-1.577,4.383-2.738,4.383-2.738" transform="translate(-105.52 -370.114)" fill="none" stroke="#000" stroke-linecap="round" stroke-linejoin="round" stroke-width="4"/>
        <path id="路径_113" data-name="路径 113" d="M124.215,374.1a16.449,16.449,0,0,1-6.734-1.265c-3.666-1.494-4.446-2.637-4.446-2.637" transform="translate(-101.494 -370.071)" fill="none" stroke="#000" stroke-linecap="round" stroke-linejoin="round" stroke-width="4"/>
      </g>
      <g id="组_86" data-name="组 86" transform="translate(43.187 46.81)" opacity="0.7">
        <ellipse id="椭圆_14" data-name="椭圆 14" cx="6.086" cy="4.472" rx="6.086" ry="4.472" transform="translate(0 2.517) rotate(-11.936)" fill="#1a0e0e" stroke="#1b0f0f" stroke-linecap="round" stroke-linejoin="round" stroke-width="2"/>
        <ellipse id="椭圆_15" data-name="椭圆 15" cx="4.472" cy="6.086" rx="4.472" ry="6.086" transform="translate(58.358 8.751) rotate(-78.064)" fill="#1a0e0e" stroke="#1b0f0f" stroke-linecap="round" stroke-linejoin="round" stroke-width="2"/>
      </g>
    </g>
  </g>
</svg>
