<svg xmlns="http://www.w3.org/2000/svg" width="357" height="357" viewBox="0 0 357 357">
  <g id="组_129" data-name="组 129" transform="translate(-325 -1354)">
    <circle id="椭圆_2" data-name="椭圆 2" cx="178.5" cy="178.5" r="178.5" transform="translate(325 1354)" fill="#fff"/>
    <g id="组_128" data-name="组 128" transform="translate(375.754 1406.05)">
      <path id="路径_132" data-name="路径 132" d="M-51.642,855.592a21.469,21.469,0,0,1-5.785-.806,3.066,3.066,0,0,1-2.128-3.779,3.071,3.071,0,0,1,3.778-2.129c6.171,1.728,11.274-.806,14.469-3.229,7.895-5.993,13.409-18.2,13.409-29.691,0-18.091-9.946-32.809-22.17-32.809q-.554,0-1.1.039a3.059,3.059,0,0,1-3.277-2.841,3.063,3.063,0,0,1,2.839-3.275q.763-.057,1.536-.056c15.606,0,28.3,17.469,28.3,38.941,0,13.493-6.364,27.387-15.834,34.575A23.082,23.082,0,0,1-51.642,855.592Z" transform="translate(277.985 -662.858)" fill="#231815"/>
      <path id="路径_133" data-name="路径 133" d="M-207.794,855.592a23.076,23.076,0,0,1-14.04-5.059c-9.471-7.189-15.834-21.082-15.834-34.575,0-21.472,12.7-38.941,28.3-38.941.514,0,1.027.018,1.534.056a3.064,3.064,0,0,1,2.841,3.275,3.041,3.041,0,0,1-3.277,2.841q-.546-.039-1.1-.039c-12.226,0-22.17,14.718-22.17,32.809,0,11.489,5.514,23.7,13.409,29.691,3.2,2.424,8.3,4.958,14.469,3.229a3.071,3.071,0,0,1,3.778,2.129,3.068,3.068,0,0,1-2.129,3.779A21.469,21.469,0,0,1-207.794,855.592Z" transform="translate(237.668 -662.858)" fill="#231815"/>
      <path id="路径_134" data-name="路径 134" d="M-42.658,823.459a3.056,3.056,0,0,1-2.014-.756l-9.175-7.993a3.067,3.067,0,0,1-.3-4.327,3.066,3.066,0,0,1,4.326-.3l9.177,7.994a3.066,3.066,0,0,1,.3,4.326A3.059,3.059,0,0,1-42.658,823.459Z" transform="translate(279.065 -655.538)" fill="#231815"/>
      <path id="路径_135" data-name="路径 135" d="M-221.833,823.459a3.056,3.056,0,0,1-2.313-1.052,3.066,3.066,0,0,1,.3-4.326l9.175-7.994a3.065,3.065,0,0,1,4.327.3,3.067,3.067,0,0,1-.3,4.327l-9.177,7.993A3.051,3.051,0,0,1-221.833,823.459Z" transform="translate(240.56 -655.539)" fill="#231815"/>
      <circle id="椭圆_25" data-name="椭圆 25" cx="7.735" cy="7.735" r="7.735" transform="translate(72.837 111.091)" fill="#231815"/>
      <circle id="椭圆_26" data-name="椭圆 26" cx="5.415" cy="5.415" r="5.415" transform="translate(54.852 117.28)" fill="#231815"/>
      <g id="组_126" data-name="组 126" transform="translate(42.194 160.961)">
        <circle id="椭圆_27" data-name="椭圆 27" cx="30.43" cy="30.43" r="30.43" fill="#ea5f3e" opacity="0.33"/>
        <circle id="椭圆_28" data-name="椭圆 28" cx="30.43" cy="30.43" r="30.43" transform="translate(110.988)" fill="#ea5f3e" opacity="0.33"/>
      </g>
      <path id="路径_136" data-name="路径 136" d="M-115,929.1a103.347,103.347,0,0,1-103.231-103.23A103.347,103.347,0,0,1-115,722.643,103.347,103.347,0,0,1-11.772,825.874,103.347,103.347,0,0,1-115,929.1Zm0-200.328a97.208,97.208,0,0,0-97.1,97.1,97.208,97.208,0,0,0,97.1,97.1,97.208,97.208,0,0,0,97.1-97.1A97.208,97.208,0,0,0-115,728.776Z" transform="translate(242.07 -675.174)" fill="#231815"/>
      <g id="组_127" data-name="组 127" transform="translate(0 0)">
        <path id="路径_137" data-name="路径 137" d="M-161.173,765.232c6.342-6.133,18.6-11.447,20.3,0s2.96,35.16,14.376,44.972,27.907,16.763,38.478,16.353,0-17.579,0-17.579,18.182,13.9,37.633,14.309,22.3.613,30.866-2.453,10.782-8.892,9.514-11.652,3.171,6.133,9.2,10.119a46.418,46.418,0,0,0,11.258,5.519s12.859-37.1-5.021-72.67-36.363-42.928-45.243-49.06S-59.27,693.278-69,697.366s-5.246.818-5.246.818-22.239-15.128-55.22-11.039-37.21,22.077-37.21,22.077-13.53-3.679-25.792,3.27-42.706,46.2-42.706,83.4,8.455,39.248,13.108,42.928,11.311-2.657,11.311-2.657a83.8,83.8,0,0,0,7.294,5.213c3.488,2.146,14.27-.307,7.293-8.892s-13.319-23.3-.316-49.673,19.766-23.086,24.1-22.077C-168.807,761.567-161.173,765.232-161.173,765.232Z" transform="translate(238.234 -683.373)" fill="#2a2827"/>
        <path id="路径_138" data-name="路径 138" d="M-199.692,845.733a9.369,9.369,0,0,1-4.805-1.176c-2.043-1.257-4.158-2.79-5.638-3.908-3.551,2.528-8.907,4.588-13.261,1.147-.4-.315-.829-.616-1.279-.932-6.846-4.815-12.992-11.834-12.992-44.4,0-37.943,30.741-78.406,44.26-86.07,9.943-5.637,20.5-4.9,25.375-4.12,2.69-5.692,11.611-18.238,38.761-21.6,32.674-4.04,54.937,9.971,57.167,11.443.655-.25,1.472-.578,2.487-1,9.505-4,20.609-1.913,32.106,6.027,1.186.818,2.567,1.669,4.165,2.654,9.846,6.066,26.326,16.22,42.075,47.551,18.252,36.308,5.72,73.487,5.178,75.051a3.07,3.07,0,0,1-3.759,1.939,49.357,49.357,0,0,1-12.088-5.9,28.826,28.826,0,0,1-5.891-5.466c-1.493,2.316-4.419,5.3-10.093,7.328-8.736,3.128-11.922,3.061-29.6,2.682l-2.365-.05c-11.88-.249-23.145-5.159-30.573-9.286.873,3.107,1.159,6.355-.153,8.814-.866,1.621-2.735,3.588-6.722,3.742-11.48.429-28.555-6.745-40.595-17.093-10.71-9.2-13.114-28.6-14.7-41.436-.247-2-.473-3.823-.708-5.413-.487-3.3-1.869-3.765-2.323-3.92-2.827-.966-8.576,1.583-12.808,5.675a3.071,3.071,0,0,1-3.459.562c-2.04-.98-7.917-3.657-10.575-4.277-.234-.055-.478-.117-.729-.179-3.245-.817-8.676-2.187-19.926,20.626-9.591,19.452-9.608,34.625-.053,46.384,4.943,6.083,2.549,10.079,1.289,11.516A10.435,10.435,0,0,1-199.692,845.733ZM-210.18,833.67a3.056,3.056,0,0,1,1.919.673,81.151,81.151,0,0,0,6.978,4.991c.879.541,3.807.325,4.745-.743.572-.651-.418-2.349-1.439-3.6-11.224-13.813-11.449-31.137-.687-52.963,12.4-25.158,20.1-25.581,26.925-23.86l.621.153a66.776,66.776,0,0,1,9.971,3.848c5-4.191,12.087-7.468,17.453-5.643,2.454.835,5.56,3.045,6.415,8.831.24,1.63.473,3.508.727,5.556,1.474,11.9,3.7,29.879,12.615,37.54,10.8,9.283,26.432,15.994,36.361,15.615.488-.02,1.339-.109,1.548-.5.981-1.834-1.343-8.011-4.043-12.409a3.069,3.069,0,0,1,.558-3.88,3.068,3.068,0,0,1,3.915-.164c.174.134,17.651,13.3,35.836,13.682l2.367.05c17.106.363,19.733.42,27.4-2.325,5.377-1.926,7.039-4.706,7.5-5.811a2.525,2.525,0,0,0,.256-1.673c-1.322-2.877.5-4.163,1.09-4.488.938-.518,2.767-1,4.46,1.6,1.071,1.646,4.326,6.651,8.124,9.164a47.18,47.18,0,0,0,7.548,4.055c2.478-9.37,8.453-39.033-5.742-67.271-14.968-29.778-29.918-38.988-39.812-45.085-1.6-.987-3.115-1.921-4.434-2.831-6.756-4.664-16.791-9.4-26.243-5.419-5.1,2.144-8.471,3.563-10.119.646a3.218,3.218,0,0,1-.429-1.529,85.648,85.648,0,0,0-50.728-9.121c-30.509,3.782-34.564,19.576-34.6,19.736a3.068,3.068,0,0,1-1.417,1.932,3.067,3.067,0,0,1-2.373.325c-.117-.031-12.513-3.234-23.475,2.979-12.216,6.925-41.152,45.608-41.152,80.736,0,32.079,6.251,36.475,10.387,39.384.549.385,1.071.754,1.556,1.138,2.1,1.668,6.294-1.533,7.3-2.481A3.078,3.078,0,0,1-210.18,833.67Z" transform="translate(237.668 -683.94)" fill="#231815"/>
      </g>
      <path id="路径_141" data-name="路径 141" d="M-131.1,827.784c-10.622,0-14.966-4.489-15.426-5a2.452,2.452,0,0,1,.183-3.464,2.454,2.454,0,0,1,3.442.157c.182.188,3.433,3.4,11.8,3.4,8.846,0,11.649-3.222,11.678-3.256a2.42,2.42,0,0,1,3.412-.469,2.479,2.479,0,0,1,.476,3.459C-115.93,823.142-119.728,827.784-131.1,827.784Z" transform="translate(258.169 -653.427)" fill="#231815"/>
      <g id="组_133" data-name="组 133">
        <path id="路径_142" data-name="路径 142" d="M111.013,195.183s5.982,5.958,18.744,5.958,18.589-5.958,18.589-5.958" transform="translate(-56 -43.484)" fill="none" stroke="#231815" stroke-linecap="round" stroke-width="10"/>
        <path id="路径_143" data-name="路径 143" d="M111.013,195.183s5.982,5.958,18.744,5.958,18.589-5.958,18.589-5.958" transform="translate(52 -43.484)" fill="none" stroke="#231815" stroke-linecap="round" stroke-width="10"/>
      </g>
    </g>
  </g>
</svg>
