<svg id="组_197" data-name="组 197" xmlns="http://www.w3.org/2000/svg" width="180" height="180" viewBox="0 0 180 180">
  <circle id="椭圆_3" data-name="椭圆 3" cx="90" cy="90" r="90" fill="#fff"/>
  <g id="组_112" data-name="组 112" transform="translate(24.15 14.001)">
    <path id="路径_114" data-name="路径 114" d="M-109.687,543.377" transform="translate(182.89 -479.024)" fill="none" stroke="#231815" stroke-linecap="round" stroke-linejoin="round" stroke-width="5"/>
    <g id="组_112-2" data-name="组 112" transform="translate(24.144 79.421)">
      <circle id="椭圆_17" data-name="椭圆 17" cx="15.047" cy="15.047" r="15.047" fill="#ea5f3e" opacity="0.33"/>
      <circle id="椭圆_18" data-name="椭圆 18" cx="15.047" cy="15.047" r="15.047" transform="translate(54.882)" fill="#ea5f3e" opacity="0.33"/>
    </g>
    <g id="组_115" data-name="组 115" transform="translate(36.577 44.122)" opacity="0.9">
      <g id="组_113" data-name="组 113" transform="translate(0 0)">
        <ellipse id="椭圆_19" data-name="椭圆 19" cx="4.808" cy="3.533" rx="4.808" ry="3.533" transform="translate(0 1.989) rotate(-11.936)" fill="#1a0e0e"/>
        <path id="路径_115" data-name="路径 115" d="M-159.93,521.763a6.011,6.011,0,0,1-2.48-.511,3.769,3.769,0,0,1-2.271-2.621,3.774,3.774,0,0,1,1.015-3.317,6.43,6.43,0,0,1,3.472-1.922,6.423,6.423,0,0,1,3.952.354,3.769,3.769,0,0,1,2.271,2.621,3.773,3.773,0,0,1-1.015,3.316,6.432,6.432,0,0,1-3.471,1.923A7.164,7.164,0,0,1-159.93,521.763Zm1.211-7.2a5.788,5.788,0,0,0-1.2.128,5.091,5.091,0,0,0-2.754,1.507,2.481,2.481,0,0,0-.707,2.156,2.481,2.481,0,0,0,1.518,1.685,5.1,5.1,0,0,0,3.129.264,5.091,5.091,0,0,0,2.754-1.508,2.479,2.479,0,0,0,.707-2.155h0a2.481,2.481,0,0,0-1.518-1.685A4.692,4.692,0,0,0-158.719,514.565Z" transform="translate(164.761 -513.048)" fill="#1b0f0f"/>
      </g>
      <g id="组_114" data-name="组 114" transform="translate(46.107 0)">
        <ellipse id="椭圆_20" data-name="椭圆 20" cx="3.533" cy="4.808" rx="3.533" ry="4.808" transform="translate(0 6.914) rotate(-78.064)" fill="#1a0e0e"/>
        <path id="路径_116" data-name="路径 116" d="M-89.386,521.763a7.124,7.124,0,0,1-1.473-.156c-2.952-.624-4.965-2.974-4.487-5.239h0a3.771,3.771,0,0,1,2.271-2.621,6.425,6.425,0,0,1,3.953-.354,6.426,6.426,0,0,1,3.471,1.922,3.772,3.772,0,0,1,1.015,3.317,3.768,3.768,0,0,1-2.271,2.621A6.008,6.008,0,0,1-89.386,521.763Zm-4.658-5.12c-.327,1.547,1.226,3.19,3.461,3.663a5.093,5.093,0,0,0,3.128-.264,2.48,2.48,0,0,0,1.518-1.685,2.482,2.482,0,0,0-.706-2.156,5.1,5.1,0,0,0-2.754-1.507,5.085,5.085,0,0,0-3.129.264,2.484,2.484,0,0,0-1.519,1.685Z" transform="translate(95.425 -513.048)" fill="#1b0f0f"/>
      </g>
    </g>
    <path id="路径_117" data-name="路径 117" d="M-138.049,619.308a55.566,55.566,0,0,1-31.384-9.644,1.663,1.663,0,0,1-.44-2.309,1.663,1.663,0,0,1,2.31-.44,52.254,52.254,0,0,0,29.514,9.068,52.262,52.262,0,0,0,29.445-9.021,1.663,1.663,0,0,1,2.309.443,1.663,1.663,0,0,1-.443,2.309A55.576,55.576,0,0,1-138.049,619.308Z" transform="translate(203.15 -500.214)" fill="#231815"/>
    <g id="组_118" data-name="组 118">
      <g id="组_117" data-name="组 117">
        <g id="组_116" data-name="组 116">
          <path id="路径_118" data-name="路径 118" d="M-136.808,487.077s18.4,11.97,21.058,16.181A33.71,33.71,0,0,1-111.1,517c.221,3.546,1.4,13.3-3.4,20.393s-8.5,3.768-9.31,14.186,7.171,10.64,7.171,10.64-9.753-1.773-10.2,11.3,18.091,10.307,22.345,9.421,15.272-5.448,14.782-18.074-7.869-9.435-7.869-16.793,11.97-59.67-14.269-82.529L-114.807,463a60.633,60.633,0,0,0-38.726-13.9c-15.136,0-29.383,5.131-40.033,14.272l-3.034,2.66c-27.1,25.034-12.785,74.685-12.785,82.044s-7.38,4.167-7.869,16.793,10.529,17.187,14.782,18.074,22.789,3.657,22.345-9.421-10.2-11.3-10.2-11.3,7.98-.221,7.171-10.64-4.511-7.093-9.31-14.186-3.625-16.846-3.4-20.393a33.71,33.71,0,0,1,4.655-13.743c2.66-4.211,21.058-16.181,21.058-16.181s3.162-2.272,3.845-2.771" transform="translate(218.932 -447.439)" fill="#724b42"/>
          <path id="路径_119" data-name="路径 119" d="M-113.7,584.635c-4.209,0-8.959-.718-12.121-3.38a10.22,10.22,0,0,1-3.507-8.625c.17-4.994,1.638-8.641,4.364-10.839a9.355,9.355,0,0,1,1.809-1.143c-.2-.185-.4-.384-.593-.6-2.006-2.228-2.863-5.4-2.551-9.435.525-6.759,2.284-8.484,5.119-10.523a15.979,15.979,0,0,0,4.471-4.466c4.1-6.055,3.484-14.384,3.189-18.387-.027-.36-.051-.685-.068-.971a32.2,32.2,0,0,0-4.4-12.959c-1.809-2.863-13.286-10.943-20.558-15.675a1.662,1.662,0,0,1-.487-2.3,1.663,1.663,0,0,1,2.3-.487c1.914,1.246,18.782,12.3,21.557,16.687a35.5,35.5,0,0,1,4.909,14.527c.017.275.04.588.066.934.322,4.376.991,13.482-3.751,20.493a19.1,19.1,0,0,1-5.285,5.3c-2.129,1.531-3.3,2.373-3.744,8.079-.237,3.067.326,5.395,1.676,6.92a6.053,6.053,0,0,0,3.488,1.879c.376.029.608.068.647.076a1.662,1.662,0,0,1,1.356,1.808,1.664,1.664,0,0,1-1.7,1.49,6.276,6.276,0,0,1-.668-.066,6.964,6.964,0,0,0-4.724,1.427c-1.92,1.569-2.962,4.375-3.1,8.339a6.969,6.969,0,0,0,2.325,5.968c4.152,3.5,13.281,2.757,18.02,1.769.571-.119,13.976-3.07,13.46-16.382-.247-6.38-2.281-8.113-4.248-9.789-1.7-1.447-3.622-3.085-3.622-7.07,0-1.228.281-3.419.671-6.452,2.154-16.768,7.2-56.034-14.37-74.822l-2.954-2.538a59.29,59.29,0,0,0-37.643-13.5c-14.7,0-28.529,4.926-38.95,13.871l-3.021,2.648c-21.95,20.278-15.787,57.754-13.155,73.756a57.162,57.162,0,0,1,.936,7.037c0,3.985-1.924,5.623-3.621,7.07-1.968,1.676-4,3.409-4.249,9.789-.515,13.313,12.89,16.263,13.461,16.382,4.739.987,13.867,1.726,18.02-1.769a6.97,6.97,0,0,0,2.324-5.968c-.134-3.964-1.176-6.769-3.1-8.339a6.964,6.964,0,0,0-4.731-1.426,6.229,6.229,0,0,1-.661.066,1.663,1.663,0,0,1-1.7-1.49,1.662,1.662,0,0,1,1.356-1.808c.039-.007.274-.047.654-.076a6.057,6.057,0,0,0,3.48-1.879c1.35-1.526,1.914-3.854,1.676-6.92-.442-5.706-1.615-6.549-3.744-8.079a19.108,19.108,0,0,1-5.285-5.3c-4.743-7.011-4.073-16.118-3.75-20.495.025-.346.048-.659.065-.934a35.5,35.5,0,0,1,4.909-14.527c2.759-4.367,19.459-15.322,21.524-16.666.329-.236,3.162-2.272,3.8-2.742a1.663,1.663,0,0,1,2.323.363,1.663,1.663,0,0,1-.362,2.323c-.685.5-3.855,2.778-3.855,2.778-.021.015-.043.029-.064.044-7.273,4.732-18.75,12.811-20.558,15.675a32.218,32.218,0,0,0-4.4,12.959c-.018.285-.042.61-.068.97-.295,4-.907,12.332,3.189,18.388a16,16,0,0,0,4.472,4.466c2.835,2.038,4.594,3.763,5.119,10.523.313,4.032-.545,7.206-2.55,9.435-.193.215-.392.414-.594.6a9.336,9.336,0,0,1,1.809,1.143c2.726,2.2,4.195,5.845,4.364,10.839a10.218,10.218,0,0,1-3.506,8.625c-6.184,5.2-18.444,2.98-20.838,2.48-6.216-1.3-16.6-6.917-16.105-19.765.3-7.837,3.257-10.354,5.414-12.191,1.529-1.3,2.453-2.09,2.453-4.539a59.752,59.752,0,0,0-.892-6.5c-2.719-16.531-9.086-55.244,14.211-76.766l3.066-2.689c11.037-9.474,25.639-14.685,41.129-14.685a62.639,62.639,0,0,1,39.784,14.282l2.988,2.565c22.916,19.964,17.714,60.466,15.493,77.761-.36,2.8-.644,5.013-.644,6.029,0,2.449.924,3.236,2.453,4.539,2.157,1.837,5.111,4.354,5.415,12.191.5,12.848-9.89,18.469-16.105,19.765A45.158,45.158,0,0,1-113.7,584.635Z" transform="translate(219.77 -446.602)" fill="#231815"/>
        </g>
      </g>
      <path id="路径_120" data-name="路径 120" d="M-65.76,528.981a1.663,1.663,0,0,1-1.567-1.109c-1.237-3.5-4.987-13.026-6.247-15.388a1.663,1.663,0,0,1,.685-2.25,1.664,1.664,0,0,1,2.249.684c1.45,2.718,5.273,12.523,6.448,15.846a1.663,1.663,0,0,1-1.013,2.122A1.663,1.663,0,0,1-65.76,528.981Z" transform="translate(170.857 -467.855)" fill="#231815"/>
      <path id="路径_121" data-name="路径 121" d="M-182.108,528.981a1.672,1.672,0,0,1-.555-.1,1.663,1.663,0,0,1-1.013-2.122c1.175-3.323,5-13.127,6.448-15.846a1.663,1.663,0,0,1,2.249-.684,1.663,1.663,0,0,1,.685,2.25c-1.26,2.363-5.01,11.891-6.247,15.388A1.663,1.663,0,0,1-182.108,528.981Z" transform="translate(207.709 -467.855)" fill="#231815"/>
    </g>
    <g id="组_119" data-name="组 119" transform="translate(51.58 29.109)">
      <path id="路径_122" data-name="路径 122" d="M-138.528,492.877a51.527,51.527,0,0,0-.189,20.951,5.1,5.1,0,0,0,5.913,4.016,38.632,38.632,0,0,1,6.708-.664,36.456,36.456,0,0,1,6.433.6,5.11,5.11,0,0,0,5.944-3.979,65.743,65.743,0,0,0,1.182-9.687,25.685,25.685,0,0,0-1.177-9.962" transform="translate(141.365 -491.215)" fill="#724b42"/>
      <path id="路径_123" data-name="路径 123" d="M-134.539,518.749a6.8,6.8,0,0,1-6.647-5.433,53.125,53.125,0,0,1,.2-21.633,1.661,1.661,0,0,1,1.98-1.267,1.66,1.66,0,0,1,1.267,1.98,49.787,49.787,0,0,0-.183,20.268,3.462,3.462,0,0,0,3.988,2.706,39.765,39.765,0,0,1,7-.69,37.941,37.941,0,0,1,6.729.63,3.435,3.435,0,0,0,4.019-2.676,64.4,64.4,0,0,0,1.15-9.443,24.52,24.52,0,0,0-1.065-9.266,1.664,1.664,0,0,1,.942-2.151,1.658,1.658,0,0,1,2.151.933,27.221,27.221,0,0,1,1.291,10.662,67.679,67.679,0,0,1-1.213,9.933,6.738,6.738,0,0,1-7.868,5.28,34.675,34.675,0,0,0-6.137-.577,36.459,36.459,0,0,0-6.412.637A6.745,6.745,0,0,1-134.539,518.749Z" transform="translate(142.203 -490.377)" fill="#231815"/>
    </g>
    <path id="路径_124" data-name="路径 124" d="M-131.224,550.995" transform="translate(190.105 -481.576)" fill="none" stroke="#231815" stroke-linecap="round" stroke-linejoin="round" stroke-width="5"/>
    <path id="路径_125" data-name="路径 125" d="M-127.046,576.3c-6.547,0-9.971-4.037-10.179-12a2.414,2.414,0,0,1,.7-1.759,2.643,2.643,0,0,1,1.887-.787h15.07a2.759,2.759,0,0,1,1.982.833,2.5,2.5,0,0,1,.71,1.845C-117.186,572.305-120.607,576.3-127.046,576.3Zm-7.514-11.886c.208,6.379,2.53,9.227,7.514,9.227s7.234-2.76,7.507-9.223a.148.148,0,0,0-.031,0Z" transform="translate(192.116 -485.18)"/>
    <g id="组_122" data-name="组 122" transform="translate(80.335 53.413)">
      <g id="组_121" data-name="组 121" transform="translate(0 3.45)">
        <path id="路径_126" data-name="路径 126" d="M-74.817,549.918h-.067a1.663,1.663,0,0,1-1.6-1.727c.345-8.748-5.334-11.437-7.792-12.187-4.583-1.4-9.794-.138-11.613,2.811a1.662,1.662,0,0,1-2.288.543,1.663,1.663,0,0,1-.542-2.288c2.605-4.223,9.376-6.089,15.413-4.245,6.654,2.03,10.446,7.824,10.144,15.5A1.663,1.663,0,0,1-74.817,549.918Z" transform="translate(98.962 -532.113)" fill="#231815"/>
        <g id="组_120" data-name="组 120" transform="translate(0.58 2.247)">
          <ellipse id="椭圆_21" data-name="椭圆 21" cx="9.164" cy="8.389" rx="9.164" ry="8.389" transform="translate(1.246 19.588) rotate(-87.326)" fill="#231815"/>
          <path id="路径_127" data-name="路径 127" d="M-88.094,557.143q-.223,0-.448-.011a9.635,9.635,0,0,1-7-3.554,11.206,11.206,0,0,1-2.535-7.73,11.207,11.207,0,0,1,3.244-7.458,9.631,9.631,0,0,1,7.3-2.886c5.536.258,9.813,5.321,9.534,11.283a11.2,11.2,0,0,1-3.244,7.459A9.657,9.657,0,0,1-88.094,557.143Zm.12-18.325a6.376,6.376,0,0,0-4.514,1.929A7.889,7.889,0,0,0-94.756,546h0a7.892,7.892,0,0,0,1.769,5.445,6.349,6.349,0,0,0,4.6,2.361,6.328,6.328,0,0,0,4.8-1.922,7.886,7.886,0,0,0,2.268-5.257c.193-4.132-2.665-7.634-6.369-7.807C-87.783,538.82-87.878,538.818-87.974,538.818Zm-8.443,7.109h0Z" transform="translate(98.09 -535.493)" fill="#231815"/>
        </g>
        <circle id="椭圆_22" data-name="椭圆 22" cx="2.618" cy="2.618" r="2.618" transform="translate(6.937 4.664)" fill="#fff"/>
      </g>
      <path id="路径_128" data-name="路径 128" d="M-76.718,532.929a1.664,1.664,0,0,1-.36-.039,1.663,1.663,0,0,1-1.265-1.982l.592-2.679a1.664,1.664,0,0,1,1.982-1.265,1.663,1.663,0,0,1,1.265,1.982l-.592,2.678A1.663,1.663,0,0,1-76.718,532.929Z" transform="translate(92.067 -526.924)" fill="#231815"/>
    </g>
    <g id="组_125" data-name="组 125" transform="translate(25.142 54.513)">
      <g id="组_124" data-name="组 124" transform="translate(0 2.351)">
        <path id="路径_129" data-name="路径 129" d="M-180.283,549.919a1.664,1.664,0,0,1-1.66-1.6c-.3-7.674,3.489-13.468,10.144-15.5,6.038-1.84,12.807.023,15.413,4.245a1.663,1.663,0,0,1-.542,2.288,1.662,1.662,0,0,1-2.288-.543c-1.819-2.948-7.028-4.207-11.613-2.811-2.458.75-8.137,3.439-7.791,12.187a1.663,1.663,0,0,1-1.6,1.727Z" transform="translate(181.96 -532.115)" fill="#231815"/>
        <g id="组_123" data-name="组 123" transform="translate(5.136 2.245)">
          <ellipse id="椭圆_23" data-name="椭圆 23" cx="8.389" cy="9.164" rx="8.389" ry="9.164" transform="translate(1.246 2.063) rotate(-2.674)" fill="#231815"/>
          <path id="路径_130" data-name="路径 130" d="M-164.128,557.142a9.656,9.656,0,0,1-6.852-2.9,11.2,11.2,0,0,1-3.244-7.459,11.2,11.2,0,0,1,2.535-7.729,9.637,9.637,0,0,1,7-3.554,9.624,9.624,0,0,1,7.3,2.886,11.207,11.207,0,0,1,3.244,7.459h0a11.206,11.206,0,0,1-2.535,7.729,9.634,9.634,0,0,1-7,3.554C-163.83,557.139-163.979,557.142-164.128,557.142Zm-.12-18.325c-.1,0-.191,0-.287.007a6.35,6.35,0,0,0-4.6,2.361,7.886,7.886,0,0,0-1.769,5.446,7.887,7.887,0,0,0,2.268,5.257,6.342,6.342,0,0,0,4.8,1.922,6.349,6.349,0,0,0,4.6-2.361A7.89,7.89,0,0,0-157.466,546h0a7.887,7.887,0,0,0-2.269-5.257A6.376,6.376,0,0,0-164.248,538.817Z" transform="translate(174.238 -535.492)" fill="#231815"/>
        </g>
        <circle id="椭圆_24" data-name="椭圆 24" cx="2.618" cy="2.618" r="2.618" transform="translate(13.648 4.662)" fill="#fff"/>
      </g>
      <path id="路径_131" data-name="路径 131" d="M-170.232,534.42a1.662,1.662,0,0,1-1.525-1l-1.094-2.515a1.663,1.663,0,0,1,.862-2.188,1.663,1.663,0,0,1,2.187.862l1.094,2.515a1.663,1.663,0,0,1-.861,2.188A1.66,1.66,0,0,1-170.232,534.42Z" transform="translate(178.955 -528.58)" fill="#231815"/>
    </g>
  </g>
</svg>
