<svg xmlns="http://www.w3.org/2000/svg" width="398" height="398" viewBox="0 0 398 398">
  <g id="Group_175" data-name="Group 175" transform="translate(-0.059)">
    <circle id="Ellipse_2" data-name="Ellipse 2" cx="199" cy="199" r="199" transform="translate(0.059)" fill="#fff"/>
    <g id="Group_128" data-name="Group 128" transform="translate(56.419 57.61)">
      <path id="Path_132" data-name="Path 132" d="M-50.71,864.712a23.963,23.963,0,0,1-6.457-.9,3.422,3.422,0,0,1-2.375-4.218,3.428,3.428,0,0,1,4.216-2.376c6.887,1.929,12.582-.9,16.148-3.6,8.811-6.688,14.966-20.315,14.966-33.137,0-20.191-11.1-36.617-24.743-36.617q-.618,0-1.225.044a3.414,3.414,0,0,1-3.658-3.17,3.419,3.419,0,0,1,3.169-3.655q.852-.064,1.714-.063c17.417,0,31.588,19.5,31.588,43.461,0,15.059-7.1,30.565-17.672,38.588A25.761,25.761,0,0,1-50.71,864.712Z" transform="translate(303.323 -649.609)" fill="#231815"/>
      <path id="Path_133" data-name="Path 133" d="M-204.327,864.712A25.754,25.754,0,0,1-220,859.065c-10.57-8.023-17.672-23.529-17.672-38.588,0-23.965,14.17-43.461,31.588-43.461.574,0,1.146.021,1.712.063a3.42,3.42,0,0,1,3.17,3.655,3.393,3.393,0,0,1-3.658,3.17q-.61-.043-1.225-.044c-13.645,0-24.743,16.426-24.743,36.617,0,12.822,6.154,26.449,14.966,33.137,3.566,2.7,9.26,5.533,16.148,3.6a3.428,3.428,0,0,1,4.216,2.376,3.424,3.424,0,0,1-2.376,4.218A23.963,23.963,0,0,1-204.327,864.712Z" transform="translate(237.668 -649.609)" fill="#231815"/>
      <path id="Path_134" data-name="Path 134" d="M-41.238,825.1a3.411,3.411,0,0,1-2.248-.843l-10.24-8.921a3.423,3.423,0,0,1-.333-4.829,3.422,3.422,0,0,1,4.828-.331l10.242,8.922a3.422,3.422,0,0,1,.333,4.828A3.414,3.414,0,0,1-41.238,825.1Z" transform="translate(305.082 -637.689)" fill="#231815"/>
      <path id="Path_135" data-name="Path 135" d="M-221.477,825.1a3.41,3.41,0,0,1-2.582-1.174,3.422,3.422,0,0,1,.333-4.828l10.24-8.922a3.421,3.421,0,0,1,4.829.331,3.423,3.423,0,0,1-.333,4.829l-10.242,8.921A3.4,3.4,0,0,1-221.477,825.1Z" transform="translate(242.378 -637.689)" fill="#231815"/>
      <circle id="Ellipse_25" data-name="Ellipse 25" cx="8.633" cy="8.633" r="8.633" transform="translate(81.291 123.985)" fill="#231815"/>
      <circle id="Ellipse_26" data-name="Ellipse 26" cx="6.043" cy="6.043" r="6.043" transform="translate(61.219 130.891)" fill="#231815"/>
      <g id="Group_126" data-name="Group 126" transform="translate(47.091 179.642)">
        <circle id="Ellipse_27" data-name="Ellipse 27" cx="33.962" cy="33.962" r="33.962" fill="#ea5f3e" opacity="0.33"/>
        <circle id="Ellipse_28" data-name="Ellipse 28" cx="33.962" cy="33.962" r="33.962" transform="translate(123.87)" fill="#ea5f3e" opacity="0.33"/>
      </g>
      <path id="Path_136" data-name="Path 136" d="M-103.021,953.066A115.342,115.342,0,0,1-218.233,837.855,115.341,115.341,0,0,1-103.021,722.643,115.341,115.341,0,0,1,12.19,837.855,115.342,115.342,0,0,1-103.021,953.066Zm0-223.579A108.49,108.49,0,0,0-211.389,837.855,108.49,108.49,0,0,0-103.021,946.222,108.49,108.49,0,0,0,5.346,837.855,108.49,108.49,0,0,0-103.021,729.487Z" transform="translate(244.837 -669.664)" fill="#231815"/>
      <g id="Group_127" data-name="Group 127" transform="translate(0 0)">
        <path id="Path_137" data-name="Path 137" d="M-152.585,774.376c7.078-6.844,20.764-12.776,22.652,0s3.3,39.241,16.044,50.192,31.145,18.708,42.944,18.251,0-19.62,0-19.62,20.292,15.513,42,15.97,24.893.684,34.449-2.738,12.034-9.924,10.618-13,3.538,6.844,10.264,11.293a51.8,51.8,0,0,0,12.565,6.16s14.351-41.408-5.6-81.1-40.584-47.91-50.494-54.754-21.707-10.951-32.561-6.388-5.855.913-5.855.913-24.82-16.883-61.628-12.32-41.528,24.639-41.528,24.639-15.1-4.107-28.786,3.649-47.662,51.561-47.662,93.082,9.437,43.8,14.629,47.91,12.624-2.965,12.624-2.965a93.55,93.55,0,0,0,8.141,5.818c3.893,2.4,15.927-.342,8.139-9.924S-206.5,823.428-191.989,794s22.06-25.766,26.9-24.639C-161.1,770.286-152.585,774.376-152.585,774.376Z" transform="translate(238.59 -683.016)" fill="#2a2827"/>
        <path id="Path_138" data-name="Path 138" d="M-195.284,864.511a10.457,10.457,0,0,1-5.363-1.313c-2.281-1.4-4.64-3.114-6.293-4.361-3.963,2.821-9.941,5.121-14.8,1.28-.445-.352-.925-.687-1.428-1.04-7.641-5.374-14.5-13.208-14.5-49.554,0-42.347,34.309-87.507,49.4-96.059,11.1-6.291,22.883-5.467,28.32-4.6,3-6.353,12.959-20.355,43.26-24.112,36.466-4.509,61.314,11.129,63.8,12.771.731-.279,1.643-.645,2.776-1.121,10.609-4.463,23-2.135,35.832,6.726,1.324.913,2.865,1.863,4.649,2.962,10.989,6.77,29.381,18.1,46.958,53.07,20.37,40.522,6.384,82.016,5.779,83.761a3.427,3.427,0,0,1-4.2,2.164,55.084,55.084,0,0,1-13.491-6.59,32.176,32.176,0,0,1-6.575-6.1c-1.666,2.584-4.932,5.912-11.264,8.179-9.75,3.491-13.305,3.417-33.036,2.994l-2.639-.056c-13.259-.278-25.832-5.757-34.121-10.364.975,3.467,1.294,7.092-.171,9.837-.966,1.81-3.053,4-7.5,4.176-12.812.479-31.87-7.527-45.306-19.076-11.953-10.272-14.636-31.92-16.41-46.245-.275-2.227-.528-4.267-.79-6.041-.543-3.679-2.086-4.2-2.593-4.375-3.155-1.079-9.571,1.767-14.295,6.334a3.428,3.428,0,0,1-3.86.627c-2.276-1.094-8.836-4.082-11.8-4.773-.261-.062-.534-.13-.813-.2-3.622-.912-9.683-2.441-22.238,23.02-10.7,21.71-10.724,38.644-.059,51.767,5.516,6.789,2.844,11.249,1.439,12.852C-188.689,863.414-192.114,864.511-195.284,864.511Zm-11.705-13.463a3.41,3.41,0,0,1,2.142.752,90.578,90.578,0,0,0,7.787,5.57c.981.6,4.249.363,5.3-.83.638-.727-.467-2.621-1.606-4.023-12.526-15.416-12.778-34.751-.767-59.11,13.843-28.078,22.433-28.55,30.05-26.63l.693.171a74.526,74.526,0,0,1,11.129,4.294c5.585-4.677,13.49-8.335,19.479-6.3,2.739.932,6.2,3.4,7.159,9.856.268,1.819.528,3.915.812,6.2,1.645,13.279,4.131,33.347,14.079,41.9,12.057,10.361,29.5,17.85,40.581,17.427.545-.022,1.495-.122,1.727-.56,1.1-2.046-1.5-8.941-4.512-13.849a3.425,3.425,0,0,1,.623-4.33,3.424,3.424,0,0,1,4.369-.183c.194.149,19.7,14.843,40,15.27l2.642.056c19.091.405,22.023.468,30.582-2.6,6-2.149,7.856-5.252,8.376-6.486a2.818,2.818,0,0,0,.286-1.867c-1.476-3.211.558-4.646,1.217-5.009,1.047-.578,3.088-1.113,4.977,1.79,1.2,1.837,4.828,7.423,9.067,10.228a52.65,52.65,0,0,0,8.424,4.525c2.765-10.458,9.434-43.564-6.409-75.079C14.5,729-2.18,718.724-13.223,711.919c-1.788-1.1-3.477-2.144-4.948-3.159-7.54-5.206-18.74-10.485-29.289-6.048-5.693,2.393-9.455,3.976-11.293.721a3.591,3.591,0,0,1-.479-1.707,95.589,95.589,0,0,0-56.616-10.18c-34.05,4.221-38.576,21.848-38.618,22.026a3.424,3.424,0,0,1-1.581,2.156,3.423,3.423,0,0,1-2.649.363c-.13-.034-13.965-3.61-26.2,3.325-13.634,7.729-45.928,50.9-45.928,90.106,0,35.8,6.977,40.708,11.593,43.955.613.43,1.2.842,1.737,1.27,2.348,1.862,7.025-1.711,8.149-2.769A3.436,3.436,0,0,1-206.989,851.048Z" transform="translate(237.668 -683.94)" fill="#231815"/>
      </g>
      <path id="Path_139" data-name="Path 139" d="M-81.362,821.039c-18.619,0-26.437-8.273-27.268-9.216l9.248-8.139-.1-.114c.205.212,5.176,5.15,18.122,5.15,13.472,0,17.784-4.754,17.825-4.8a1.628,1.628,0,0,0-.155.2l9.945,7.269C-54.469,812.376-61.377,821.039-81.362,821.039Z" transform="translate(285.264 -639.814)" fill="#231815" stroke="#707070" stroke-linecap="round" stroke-linejoin="round" stroke-width="1"/>
      <path id="Path_140" data-name="Path 140" d="M-170.054,821.039c-18.618,0-26.437-8.273-27.266-9.216l9.248-8.139-.1-.114c.205.212,5.174,5.15,18.121,5.15,13.472,0,17.784-4.755,17.827-4.8a1.767,1.767,0,0,0-.156.2l9.946,7.269C-143.159,812.376-150.069,821.039-170.054,821.039Z" transform="translate(252.55 -639.814)" fill="#231815" stroke="#707070" stroke-linecap="round" stroke-linejoin="round" stroke-width="1"/>
      <path id="Path_141" data-name="Path 141" d="M-129.238,828.844c-11.854,0-16.7-5.01-17.216-5.581a2.737,2.737,0,0,1,.2-3.866,2.738,2.738,0,0,1,3.841.175c.2.209,3.831,3.8,13.171,3.8,9.872,0,13-3.6,13.033-3.634a2.7,2.7,0,0,1,3.808-.523,2.767,2.767,0,0,1,.531,3.86C-112.306,823.663-116.544,828.844-129.238,828.844Z" transform="translate(271.053 -634.251)" fill="#231815"/>
    </g>
  </g>
</svg>
