<svg xmlns="http://www.w3.org/2000/svg" width="396" height="396" viewBox="0 0 396 396">
  <g id="Group_178" data-name="Group 178" transform="translate(0.13)">
    <circle id="Ellipse_3" data-name="Ellipse 3" cx="198" cy="198" r="198" transform="translate(-0.13)" fill="#fff"/>
    <g id="Group_112" data-name="Group 112" transform="translate(53.248 30.869)">
      <path id="Path_114" data-name="Path 114" d="M-109.687,543.377" transform="translate(271.087 -401.488)" fill="none" stroke="#231815" stroke-linecap="round" stroke-linejoin="round" stroke-width="5"/>
      <g id="Group_112-2" data-name="Group 112" transform="translate(53.234 175.111)">
        <circle id="Ellipse_17" data-name="Ellipse 17" cx="33.177" cy="33.177" r="33.177" fill="#ea5f3e" opacity="0.33"/>
        <circle id="Ellipse_18" data-name="Ellipse 18" cx="33.177" cy="33.177" r="33.177" transform="translate(121.007)" fill="#ea5f3e" opacity="0.33"/>
      </g>
      <g id="Group_115" data-name="Group 115" transform="translate(80.646 97.283)" opacity="0.9">
        <g id="Group_113" data-name="Group 113" transform="translate(0 0)">
          <ellipse id="Ellipse_19" data-name="Ellipse 19" cx="10.601" cy="7.79" rx="10.601" ry="7.79" transform="translate(0 4.385) rotate(-11.936)" fill="#1a0e0e"/>
          <path id="Path_115" data-name="Path 115" d="M-154.118,532.037a13.256,13.256,0,0,1-5.469-1.126,8.311,8.311,0,0,1-5.007-5.778,8.321,8.321,0,0,1,2.239-7.313,14.179,14.179,0,0,1,7.655-4.239,14.163,14.163,0,0,1,8.713.781,8.311,8.311,0,0,1,5.007,5.778,8.318,8.318,0,0,1-2.239,7.312,14.182,14.182,0,0,1-7.653,4.24A15.809,15.809,0,0,1-154.118,532.037Zm2.67-15.87a12.767,12.767,0,0,0-2.646.283,11.225,11.225,0,0,0-6.071,3.322,5.47,5.47,0,0,0-1.559,4.753,5.471,5.471,0,0,0,3.347,3.715,11.236,11.236,0,0,0,6.9.582,11.225,11.225,0,0,0,6.071-3.324,5.466,5.466,0,0,0,1.559-4.752h0a5.471,5.471,0,0,0-3.347-3.715A10.347,10.347,0,0,0-151.449,516.167Z" transform="translate(164.771 -512.822)" fill="#1b0f0f"/>
        </g>
        <g id="Group_114" data-name="Group 114" transform="translate(101.658 0)">
          <ellipse id="Ellipse_20" data-name="Ellipse 20" cx="7.79" cy="10.601" rx="7.79" ry="10.601" transform="translate(0 15.243) rotate(-78.064)" fill="#1a0e0e"/>
          <path id="Path_116" data-name="Path 116" d="M-82.121,532.037a15.71,15.71,0,0,1-3.248-.345c-6.508-1.377-10.946-6.558-9.892-11.552h0a8.314,8.314,0,0,1,5.007-5.778,14.166,14.166,0,0,1,8.715-.781,14.169,14.169,0,0,1,7.653,4.239,8.317,8.317,0,0,1,2.239,7.313,8.308,8.308,0,0,1-5.007,5.778A13.249,13.249,0,0,1-82.121,532.037Zm-10.271-11.29c-.72,3.412,2.7,7.033,7.631,8.076a11.229,11.229,0,0,0,6.9-.582,5.468,5.468,0,0,0,3.347-3.715,5.472,5.472,0,0,0-1.557-4.753,11.235,11.235,0,0,0-6.071-3.322,11.212,11.212,0,0,0-6.9.582,5.477,5.477,0,0,0-3.349,3.715Z" transform="translate(95.436 -512.822)" fill="#1b0f0f"/>
        </g>
      </g>
      <path id="Path_117" data-name="Path 117" d="M-99.36,634.587a122.515,122.515,0,0,1-69.2-21.264,3.667,3.667,0,0,1-.969-5.092,3.667,3.667,0,0,1,5.094-.969A115.213,115.213,0,0,0-99.36,627.256a115.23,115.23,0,0,0,64.922-19.89,3.666,3.666,0,0,1,5.091.977,3.666,3.666,0,0,1-.976,5.092A122.537,122.537,0,0,1-99.36,634.587Z" transform="translate(242.896 -372.003)" fill="#231815"/>
      <g id="Group_118" data-name="Group 118" transform="translate(0 0)">
        <g id="Group_117" data-name="Group 117">
          <g id="Group_116" data-name="Group 116">
            <path id="Path_118" data-name="Path 118" d="M-39.864,532.833S.7,559.224,6.566,568.509s9.773,22.482,10.263,30.3,3.076,29.323-7.5,44.963S-9.42,652.08-11.2,675.051,4.61,698.51,4.61,698.51s-21.5-3.91-22.481,24.925S22.016,746.16,31.4,744.206s33.672-12.012,32.593-39.85-17.349-20.8-17.349-37.027S73.031,535.765,15.179,485.365l-6.535-5.611A133.685,133.685,0,0,0-76.741,449.1c-33.373,0-64.784,11.313-88.266,31.468l-6.69,5.865c-59.746,55.2-28.189,164.67-28.189,180.895s-16.272,9.188-17.349,37.027,23.214,37.895,32.593,39.85,50.246,8.064,49.268-20.771-22.481-24.925-22.481-24.925,17.594-.488,15.811-23.459-9.946-15.64-20.526-31.278-7.992-37.144-7.5-44.963,4.4-21.015,10.263-30.3,46.429-35.676,46.429-35.676,6.972-5.01,8.477-6.11" transform="translate(220.936 -445.437)" fill="#724b42"/>
            <path id="Path_119" data-name="Path 119" d="M14.088,750.943c-9.279,0-19.752-1.583-26.725-7.453-5.4-4.548-8.005-10.946-7.733-19.016.374-11.011,3.611-19.051,9.622-23.9a20.624,20.624,0,0,1,3.988-2.52c-.444-.408-.883-.847-1.308-1.321-4.422-4.913-6.313-11.911-5.624-20.8,1.157-14.9,5.035-18.707,11.287-23.2a35.228,35.228,0,0,0,9.859-9.847c9.033-13.351,7.681-31.715,7.032-40.541-.059-.795-.111-1.51-.151-2.141-.449-7.2-4.2-19.862-9.7-28.573C.644,565.318-24.661,547.5-40.7,537.07A3.665,3.665,0,0,1-41.771,532a3.667,3.667,0,0,1,5.071-1.075c4.221,2.746,41.412,27.109,47.529,36.792,6.36,10.07,10.322,24.019,10.823,32.03.037.605.088,1.3.145,2.06.71,9.649,2.186,29.727-8.271,45.185A42.1,42.1,0,0,1,1.874,658.685c-4.693,3.375-7.28,5.233-8.256,17.814-.523,6.762.72,11.895,3.7,15.258A13.345,13.345,0,0,0,5.005,695.9c.83.063,1.342.151,1.427.167a3.666,3.666,0,0,1-.758,7.271,13.826,13.826,0,0,1-1.472-.146,15.354,15.354,0,0,0-10.416,3.146c-4.234,3.46-6.532,9.646-6.828,18.386-.2,5.786,1.479,10.09,5.126,13.159,9.155,7.706,29.282,6.079,39.73,3.9,1.258-.262,30.816-6.768,29.678-36.121-.544-14.066-5.029-17.887-9.366-21.582-3.743-3.19-7.986-6.8-7.986-15.588,0-2.708.62-7.539,1.479-14.226,4.749-36.971,15.868-123.547-31.684-164.972L7.422,483.7a130.724,130.724,0,0,0-83-29.766c-32.4,0-62.9,10.861-85.879,30.584l-6.661,5.838c-48.4,44.711-34.807,127.338-29,162.62,1.2,7.285,2.064,12.549,2.064,15.516,0,8.785-4.243,12.4-7.985,15.588-4.338,3.695-8.822,7.516-9.367,21.582-1.136,29.353,28.42,35.858,29.68,36.121,10.449,2.177,30.574,3.8,39.73-3.9,3.645-3.069,5.321-7.373,5.124-13.159-.3-8.74-2.594-14.926-6.828-18.386a15.355,15.355,0,0,0-10.43-3.145,13.721,13.721,0,0,1-1.457.145,3.666,3.666,0,0,1-3.746-3.284,3.665,3.665,0,0,1,2.99-3.986c.085-.016.6-.1,1.443-.169a13.355,13.355,0,0,0,7.674-4.142c2.976-3.363,4.22-8.5,3.695-15.258-.975-12.581-3.561-14.439-8.255-17.814a42.13,42.13,0,0,1-11.653-11.693c-10.457-15.459-8.98-35.537-8.269-45.187.056-.762.106-1.453.144-2.058.5-8.013,4.464-21.962,10.823-32.03,6.083-9.63,42.9-33.782,47.457-36.745.724-.521,6.972-5.01,8.386-6.045a3.665,3.665,0,0,1,5.121.8,3.666,3.666,0,0,1-.8,5.123c-1.51,1.1-8.5,6.124-8.5,6.124-.045.034-.094.065-.141.1-16.035,10.433-41.34,28.247-45.328,34.561-5.5,8.709-9.253,21.368-9.7,28.573-.04.629-.092,1.346-.151,2.139-.65,8.826-2,27.19,7.03,40.542a35.268,35.268,0,0,0,9.86,9.847c6.252,4.494,10.13,8.3,11.287,23.2.689,8.891-1.2,15.889-5.623,20.8-.427.474-.865.914-1.309,1.321a20.581,20.581,0,0,1,3.988,2.52c6.011,4.847,9.249,12.888,9.621,23.9.274,8.07-2.327,14.467-7.731,19.016-13.634,11.474-40.666,6.571-45.945,5.467-13.706-2.858-36.607-15.251-35.509-43.579.669-17.279,7.181-22.828,11.938-26.879,3.372-2.874,5.409-4.608,5.409-10.008,0-2.369-.868-7.645-1.966-14.326-6-36.447-20.034-121.8,31.333-169.257l6.76-5.929c24.334-20.889,56.53-32.377,90.683-32.377a138.11,138.11,0,0,1,87.718,31.49l6.589,5.657C69.257,527.766,57.789,617.066,52.891,655.2c-.793,6.176-1.419,11.052-1.419,13.292,0,5.4,2.037,7.134,5.409,10.008,4.756,4.051,11.269,9.6,11.939,26.879,1.1,28.328-21.8,40.721-35.509,43.579A99.554,99.554,0,0,1,14.088,750.943Z" transform="translate(219.77 -446.602)" fill="#231815"/>
          </g>
        </g>
        <path id="Path_120" data-name="Path 120" d="M-56.11,551.8a3.666,3.666,0,0,1-3.456-2.446c-2.727-7.711-10.995-28.719-13.773-33.929a3.667,3.667,0,0,1,1.51-4.96,3.669,3.669,0,0,1,4.959,1.509c3.2,5.994,11.625,27.611,14.216,34.937a3.667,3.667,0,0,1-2.234,4.679A3.67,3.67,0,0,1-56.11,551.8Z" transform="translate(287.831 -417.03)" fill="#231815"/>
        <path id="Path_121" data-name="Path 121" d="M-180.1,551.8a3.684,3.684,0,0,1-1.223-.21,3.667,3.667,0,0,1-2.233-4.679c2.591-7.326,11.02-28.944,14.216-34.937a3.667,3.667,0,0,1,4.959-1.509,3.668,3.668,0,0,1,1.51,4.96c-2.778,5.209-11.046,26.218-13.773,33.929A3.666,3.666,0,0,1-180.1,551.8Z" transform="translate(236.552 -417.03)" fill="#231815"/>
      </g>
      <g id="Group_119" data-name="Group 119" transform="translate(113.726 64.182)">
        <path id="Path_122" data-name="Path 122" d="M-137.115,492.877a113.607,113.607,0,0,0-.416,46.193,11.243,11.243,0,0,0,13.037,8.856,85.177,85.177,0,0,1,14.789-1.463,80.4,80.4,0,0,1,14.184,1.33,11.266,11.266,0,0,0,13.1-8.772,144.947,144.947,0,0,0,2.605-21.359c.721-13.589-2.6-21.965-2.6-21.965" transform="translate(143.37 -489.212)" fill="#724b42"/>
        <path id="Path_123" data-name="Path 123" d="M-125.3,552.934a15,15,0,0,1-14.656-11.98,117.131,117.131,0,0,1,.433-47.7,3.663,3.663,0,0,1,4.366-2.793,3.661,3.661,0,0,1,2.793,4.365,109.773,109.773,0,0,0-.4,44.689,7.634,7.634,0,0,0,8.793,5.967,87.674,87.674,0,0,1,15.44-1.522A83.665,83.665,0,0,1-93.7,545.351a7.573,7.573,0,0,0,8.862-5.9,141.984,141.984,0,0,0,2.535-20.82c.664-12.506-2.317-20.352-2.347-20.431a3.669,3.669,0,0,1,2.078-4.743,3.655,3.655,0,0,1,4.743,2.057c.148.372,3.6,9.282,2.847,23.507a149.222,149.222,0,0,1-2.674,21.9,14.856,14.856,0,0,1-17.348,11.641,76.455,76.455,0,0,0-13.531-1.271,80.4,80.4,0,0,0-14.137,1.4A14.866,14.866,0,0,1-125.3,552.934Z" transform="translate(142.203 -490.377)" fill="#231815"/>
      </g>
      <path id="Path_124" data-name="Path 124" d="M-131.224,550.995" transform="translate(261.047 -397.937)" fill="none" stroke="#231815" stroke-linecap="round" stroke-linejoin="round" stroke-width="5"/>
      <path id="Path_125" data-name="Path 125" d="M-114.781,593.824c-14.434,0-21.985-8.9-22.443-26.46a5.322,5.322,0,0,1,1.537-3.878,5.827,5.827,0,0,1,4.161-1.734H-98.3a6.083,6.083,0,0,1,4.371,1.836,5.522,5.522,0,0,1,1.566,4.067C-93.042,585.02-100.585,593.824-114.781,593.824Zm-16.568-26.208c.459,14.065,5.579,20.343,16.568,20.343s15.949-6.085,16.552-20.336a.324.324,0,0,0-.069-.007Z" transform="translate(258.25 -392.923)"/>
      <g id="Group_122" data-name="Group 122" transform="translate(177.125 117.766)">
        <g id="Group_121" data-name="Group 121" transform="translate(0 7.608)">
          <path id="Path_126" data-name="Path 126" d="M-45.727,571.37c-.05,0-.1,0-.148,0a3.666,3.666,0,0,1-3.517-3.808c.761-19.287-11.76-25.217-17.179-26.87-10.1-3.082-21.594-.3-25.605,6.2a3.665,3.665,0,0,1-5.044,1.2,3.667,3.667,0,0,1-1.195-5.045c5.744-9.312,20.672-13.424,33.983-9.36,14.672,4.476,23.032,17.251,22.365,34.171A3.666,3.666,0,0,1-45.727,571.37Z" transform="translate(98.962 -532.113)" fill="#231815"/>
          <g id="Group_120" data-name="Group 120" transform="translate(1.279 4.955)">
            <ellipse id="Ellipse_21" data-name="Ellipse 21" cx="20.205" cy="18.495" rx="20.205" ry="18.495" transform="translate(2.747 43.188) rotate(-87.326)" fill="#231815"/>
            <path id="Path_127" data-name="Path 127" d="M-76.051,583.227q-.493,0-.987-.023a21.244,21.244,0,0,1-15.434-7.837,24.709,24.709,0,0,1-5.589-17.043,24.709,24.709,0,0,1,7.153-16.445,21.235,21.235,0,0,1,16.1-6.363c12.206.569,21.636,11.731,21.022,24.878a24.7,24.7,0,0,1-7.153,16.446A21.292,21.292,0,0,1-76.051,583.227Zm.265-40.4a14.058,14.058,0,0,0-9.952,4.253,17.4,17.4,0,0,0-5,11.59h0a17.4,17.4,0,0,0,3.9,12.007A14,14,0,0,0-76.7,575.882a13.954,13.954,0,0,0,10.586-4.239,17.388,17.388,0,0,0,5-11.59c.425-9.111-5.875-16.832-14.043-17.214C-75.365,542.828-75.574,542.824-75.785,542.824ZM-94.4,558.5h0Z" transform="translate(98.09 -535.493)" fill="#231815"/>
          </g>
          <circle id="Ellipse_22" data-name="Ellipse 22" cx="5.773" cy="5.773" r="5.773" transform="translate(15.294 10.283)" fill="#fff"/>
        </g>
        <path id="Path_128" data-name="Path 128" d="M-74.712,540.163a3.666,3.666,0,0,1-.793-.087,3.667,3.667,0,0,1-2.79-4.371l1.3-5.906a3.67,3.67,0,0,1,4.369-2.79,3.667,3.667,0,0,1,2.79,4.371l-1.3,5.906A3.667,3.667,0,0,1-74.712,540.163Z" transform="translate(108.555 -526.924)" fill="#231815"/>
      </g>
      <g id="Group_125" data-name="Group 125" transform="translate(55.435 120.193)">
        <g id="Group_124" data-name="Group 124" transform="translate(0 5.184)">
          <path id="Path_129" data-name="Path 129" d="M-178.262,571.369a3.668,3.668,0,0,1-3.661-3.522c-.669-16.92,7.693-29.694,22.365-34.171,13.313-4.057,28.238.05,33.983,9.36a3.667,3.667,0,0,1-1.195,5.045,3.666,3.666,0,0,1-5.044-1.2c-4.011-6.5-15.5-9.276-25.605-6.2-5.419,1.654-17.94,7.583-17.178,26.87a3.667,3.667,0,0,1-3.519,3.808Z" transform="translate(181.96 -532.115)" fill="#231815"/>
          <g id="Group_123" data-name="Group 123" transform="translate(11.323 4.951)">
            <ellipse id="Ellipse_23" data-name="Ellipse 23" cx="18.495" cy="20.205" rx="18.495" ry="20.205" transform="translate(2.747 4.548) rotate(-2.674)" fill="#231815"/>
            <path id="Path_130" data-name="Path 130" d="M-151.948,583.228a21.291,21.291,0,0,1-15.107-6.387,24.7,24.7,0,0,1-7.153-16.446,24.7,24.7,0,0,1,5.589-17.041,21.249,21.249,0,0,1,15.433-7.837,21.219,21.219,0,0,1,16.1,6.363,24.709,24.709,0,0,1,7.153,16.446h0a24.708,24.708,0,0,1-5.589,17.041A21.244,21.244,0,0,1-150.96,583.2Q-151.455,583.228-151.948,583.228Zm-.264-40.4c-.211,0-.421,0-.632.015a14,14,0,0,0-10.143,5.206,17.387,17.387,0,0,0-3.9,12.006,17.389,17.389,0,0,0,5,11.592,13.983,13.983,0,0,0,10.584,4.239,14,14,0,0,0,10.143-5.206,17.4,17.4,0,0,0,3.9-12.008h0a17.39,17.39,0,0,0-5-11.59A14.058,14.058,0,0,0-152.212,542.824Z" transform="translate(174.238 -535.492)" fill="#231815"/>
          </g>
          <circle id="Ellipse_24" data-name="Ellipse 24" cx="5.773" cy="5.773" r="5.773" transform="translate(30.091 10.28)" fill="#fff"/>
        </g>
        <path id="Path_131" data-name="Path 131" d="M-166.91,541.457a3.665,3.665,0,0,1-3.363-2.205l-2.412-5.545a3.667,3.667,0,0,1,1.9-4.824,3.666,3.666,0,0,1,4.822,1.9l2.412,5.545a3.666,3.666,0,0,1-1.9,4.824A3.659,3.659,0,0,1-166.91,541.457Z" transform="translate(186.142 -528.58)" fill="#231815"/>
      </g>
    </g>
  </g>
</svg>
