<svg xmlns="http://www.w3.org/2000/svg" width="1487" height="541" viewBox="0 0 1487 541">
  <g id="组_115" data-name="组 115" transform="translate(-228 -3233)">
    <rect id="矩形_26" data-name="矩形 26" width="1487" height="541" rx="71" transform="translate(228 3233)" fill="rgba(255,255,255,0.5)"/>
    <g id="组_100" data-name="组 100" transform="translate(-6 -1355)">
      <g id="组_90" data-name="组 90" transform="translate(-553.5 19)">
        <text id="SKILLS" transform="translate(959 4681)" fill="#808f85" font-size="65" font-family="SegoeUI, Segoe UI" letter-spacing="0.098em"><tspan x="-108.553" y="0">SKILLS</tspan></text>
        <line id="直线_27" data-name="直线 27" x2="229" transform="translate(844.5 4697.5)" fill="none" stroke="#808f85" stroke-width="3"/>
      </g>
    </g>
    <g id="组_106" data-name="组 106" transform="translate(-6 -1355)">
      <g id="组_104" data-name="组 104">
        <text id="PACKAGING_DESIGN" data-name="PACKAGING DESIGN" transform="translate(477 5006)" fill="#808f85" font-size="30" font-family="SegoeUI-Semilight, Segoe UI" font-weight="300"><tspan x="-132.81" y="0">PACKAGING DESIGN</tspan></text>
        <g id="组_91" data-name="组 91" transform="translate(94 230)">
          <g id="椭圆_16" data-name="椭圆 16" transform="translate(586 4749)" fill="#b0dab7" stroke="#707070" stroke-width="2">
            <circle cx="14.5" cy="14.5" r="14.5" stroke="none"/>
            <circle cx="14.5" cy="14.5" r="13.5" fill="none"/>
          </g>
          <g id="椭圆_16-2" data-name="椭圆 16" transform="translate(635 4749)" fill="#b0dab7" stroke="#707070" stroke-width="2">
            <circle cx="14.5" cy="14.5" r="14.5" stroke="none"/>
            <circle cx="14.5" cy="14.5" r="13.5" fill="none"/>
          </g>
          <g id="椭圆_16-3" data-name="椭圆 16" transform="translate(684 4749)" fill="#b0dab7" stroke="#707070" stroke-width="2">
            <circle cx="14.5" cy="14.5" r="14.5" stroke="none"/>
            <circle cx="14.5" cy="14.5" r="13.5" fill="none"/>
          </g>
          <g id="椭圆_16-4" data-name="椭圆 16" transform="translate(733 4749)" fill="none" stroke="#707070" stroke-width="2">
            <circle cx="14.5" cy="14.5" r="14.5" stroke="none"/>
            <circle cx="14.5" cy="14.5" r="13.5" fill="none"/>
          </g>
          <g id="椭圆_16-5" data-name="椭圆 16" transform="translate(782 4749)" fill="rgba(255,255,255,0)" stroke="#707070" stroke-width="2">
            <circle cx="14.5" cy="14.5" r="14.5" stroke="none"/>
            <circle cx="14.5" cy="14.5" r="13.5" fill="none"/>
          </g>
        </g>
      </g>
      <g id="组_97" data-name="组 97" transform="translate(16 136)">
        <g id="组_95" data-name="组 95" transform="translate(762)">
          <text id="DIGITAL_DESIGN" data-name="DIGITAL DESIGN" transform="translate(409 4775)" fill="#808f85" font-size="30" font-family="SegoeUI-Semilight, Segoe UI" font-weight="300"><tspan x="-105.483" y="0">DIGITAL DESIGN</tspan></text>
          <g id="组_91-2" data-name="组 91">
            <g id="椭圆_16-6" data-name="椭圆 16" transform="translate(586 4749)" fill="#b0dab7" stroke="#707070" stroke-width="2">
              <circle cx="14.5" cy="14.5" r="14.5" stroke="none"/>
              <circle cx="14.5" cy="14.5" r="13.5" fill="none"/>
            </g>
            <g id="椭圆_16-7" data-name="椭圆 16" transform="translate(635 4749)" fill="#b0dab7" stroke="#707070" stroke-width="2">
              <circle cx="14.5" cy="14.5" r="14.5" stroke="none"/>
              <circle cx="14.5" cy="14.5" r="13.5" fill="none"/>
            </g>
            <g id="椭圆_16-8" data-name="椭圆 16" transform="translate(684 4749)" fill="#b0dab7" stroke="#707070" stroke-width="2">
              <circle cx="14.5" cy="14.5" r="14.5" stroke="none"/>
              <circle cx="14.5" cy="14.5" r="13.5" fill="none"/>
            </g>
            <g id="椭圆_16-9" data-name="椭圆 16" transform="translate(733 4749)" fill="none" stroke="#707070" stroke-width="2">
              <circle cx="14.5" cy="14.5" r="14.5" stroke="none"/>
              <circle cx="14.5" cy="14.5" r="13.5" fill="none"/>
            </g>
            <g id="椭圆_16-10" data-name="椭圆 16" transform="translate(782 4749)" fill="rgba(255,255,255,0)" stroke="#707070" stroke-width="2">
              <circle cx="14.5" cy="14.5" r="14.5" stroke="none"/>
              <circle cx="14.5" cy="14.5" r="13.5" fill="none"/>
            </g>
          </g>
        </g>
        <g id="组_107" data-name="组 107" transform="translate(762 -95)">
          <text id="FILM_EDITING" data-name="FILM EDITING" transform="translate(409 4775)" fill="#808f85" font-size="30" font-family="SegoeUI-Semilight, Segoe UI" font-weight="300"><tspan x="-89.019" y="0">FILM EDITING</tspan></text>
          <g id="组_91-3" data-name="组 91">
            <g id="椭圆_16-11" data-name="椭圆 16" transform="translate(586 4749)" fill="#b0dab7" stroke="#707070" stroke-width="2">
              <circle cx="14.5" cy="14.5" r="14.5" stroke="none"/>
              <circle cx="14.5" cy="14.5" r="13.5" fill="none"/>
            </g>
            <g id="椭圆_16-12" data-name="椭圆 16" transform="translate(635 4749)" fill="#b0dab7" stroke="#707070" stroke-width="2">
              <circle cx="14.5" cy="14.5" r="14.5" stroke="none"/>
              <circle cx="14.5" cy="14.5" r="13.5" fill="none"/>
            </g>
            <g id="椭圆_16-13" data-name="椭圆 16" transform="translate(684 4749)" fill="#b0dab7" stroke="#707070" stroke-width="2">
              <circle cx="14.5" cy="14.5" r="14.5" stroke="none"/>
              <circle cx="14.5" cy="14.5" r="13.5" fill="none"/>
            </g>
            <g id="椭圆_16-14" data-name="椭圆 16" transform="translate(733 4749)" fill="#b0dab7" stroke="#707070" stroke-width="2">
              <circle cx="14.5" cy="14.5" r="14.5" stroke="none"/>
              <circle cx="14.5" cy="14.5" r="13.5" fill="none"/>
            </g>
            <g id="椭圆_16-15" data-name="椭圆 16" transform="translate(782 4749)" fill="rgba(255,255,255,0)" stroke="#707070" stroke-width="2">
              <circle cx="14.5" cy="14.5" r="14.5" stroke="none"/>
              <circle cx="14.5" cy="14.5" r="13.5" fill="none"/>
            </g>
          </g>
        </g>
        <g id="组_93" data-name="组 93" transform="translate(762 95)">
          <text id="UI_UX_DESIGN" data-name="UI/UX DESIGN" transform="translate(409 4775)" fill="#808f85" font-size="30" font-family="SegoeUI-Semilight, Segoe UI" font-weight="300"><tspan x="-92.505" y="0">UI/UX DESIGN</tspan></text>
          <g id="组_91-4" data-name="组 91">
            <g id="椭圆_16-16" data-name="椭圆 16" transform="translate(586 4749)" fill="#b0dab7" stroke="#707070" stroke-width="2">
              <circle cx="14.5" cy="14.5" r="14.5" stroke="none"/>
              <circle cx="14.5" cy="14.5" r="13.5" fill="none"/>
            </g>
            <g id="椭圆_16-17" data-name="椭圆 16" transform="translate(635 4749)" fill="#b0dab7" stroke="#707070" stroke-width="2">
              <circle cx="14.5" cy="14.5" r="14.5" stroke="none"/>
              <circle cx="14.5" cy="14.5" r="13.5" fill="none"/>
            </g>
            <g id="椭圆_16-18" data-name="椭圆 16" transform="translate(684 4749)" fill="#b0dab7" stroke="#707070" stroke-width="2">
              <circle cx="14.5" cy="14.5" r="14.5" stroke="none"/>
              <circle cx="14.5" cy="14.5" r="13.5" fill="none"/>
            </g>
            <g id="椭圆_16-19" data-name="椭圆 16" transform="translate(733 4749)" fill="none" stroke="#707070" stroke-width="2">
              <circle cx="14.5" cy="14.5" r="14.5" stroke="none"/>
              <circle cx="14.5" cy="14.5" r="13.5" fill="none"/>
            </g>
            <g id="椭圆_16-20" data-name="椭圆 16" transform="translate(782 4749)" fill="none" stroke="#707070" stroke-width="2">
              <circle cx="14.5" cy="14.5" r="14.5" stroke="none"/>
              <circle cx="14.5" cy="14.5" r="13.5" fill="none"/>
            </g>
          </g>
        </g>
      </g>
      <g id="组_102" data-name="组 102">
        <g id="组_91-5" data-name="组 91" transform="translate(94 41)">
          <g id="椭圆_16-21" data-name="椭圆 16" transform="translate(586 4749)" fill="#b0dab7" stroke="#707070" stroke-width="2">
            <circle cx="14.5" cy="14.5" r="14.5" stroke="none"/>
            <circle cx="14.5" cy="14.5" r="13.5" fill="none"/>
          </g>
          <g id="椭圆_16-22" data-name="椭圆 16" transform="translate(635 4749)" fill="#b0dab7" stroke="#707070" stroke-width="2">
            <circle cx="14.5" cy="14.5" r="14.5" stroke="none"/>
            <circle cx="14.5" cy="14.5" r="13.5" fill="none"/>
          </g>
          <g id="椭圆_16-23" data-name="椭圆 16" transform="translate(684 4749)" fill="#b0dab7" stroke="#707070" stroke-width="2">
            <circle cx="14.5" cy="14.5" r="14.5" stroke="none"/>
            <circle cx="14.5" cy="14.5" r="13.5" fill="none"/>
          </g>
          <g id="椭圆_16-24" data-name="椭圆 16" transform="translate(733 4749)" fill="#b0dab7" stroke="#707070" stroke-width="2">
            <circle cx="14.5" cy="14.5" r="14.5" stroke="none"/>
            <circle cx="14.5" cy="14.5" r="13.5" fill="none"/>
          </g>
          <g id="椭圆_16-25" data-name="椭圆 16" transform="translate(782 4749)" fill="none" stroke="#707070" stroke-width="2">
            <circle cx="14.5" cy="14.5" r="14.5" stroke="none"/>
            <circle cx="14.5" cy="14.5" r="13.5" fill="none"/>
          </g>
        </g>
        <text id="TRADITIONAL_ILLUSTRATION" data-name="TRADITIONAL ILLUSTRATION" transform="translate(479 4816)" fill="#808f85" font-size="30" font-family="SegoeUI-Semilight, Segoe UI" font-weight="300"><tspan x="-188.137" y="0">TRADITIONAL ILLUSTRATION</tspan></text>
      </g>
      <g id="组_103" data-name="组 103">
        <text id="PHOTOGRAPHY" transform="translate(477 4911)" fill="#808f85" font-size="30" font-family="SegoeUI-Semilight, Segoe UI" font-weight="300"><tspan x="-103.03" y="0">PHOTOGRAPHY</tspan></text>
        <g id="组_91-6" data-name="组 91" transform="translate(94 135)">
          <g id="椭圆_16-26" data-name="椭圆 16" transform="translate(586 4749)" fill="#b0dab7" stroke="#707070" stroke-width="2">
            <circle cx="14.5" cy="14.5" r="14.5" stroke="none"/>
            <circle cx="14.5" cy="14.5" r="13.5" fill="none"/>
          </g>
          <g id="椭圆_16-27" data-name="椭圆 16" transform="translate(635 4749)" fill="#b0dab7" stroke="#707070" stroke-width="2">
            <circle cx="14.5" cy="14.5" r="14.5" stroke="none"/>
            <circle cx="14.5" cy="14.5" r="13.5" fill="none"/>
          </g>
          <g id="椭圆_16-28" data-name="椭圆 16" transform="translate(684 4749)" fill="#b0dab7" stroke="#707070" stroke-width="2">
            <circle cx="14.5" cy="14.5" r="14.5" stroke="none"/>
            <circle cx="14.5" cy="14.5" r="13.5" fill="none"/>
          </g>
          <g id="椭圆_16-29" data-name="椭圆 16" transform="translate(733 4749)" fill="#b0dab7" stroke="#707070" stroke-width="2">
            <circle cx="14.5" cy="14.5" r="14.5" stroke="none"/>
            <circle cx="14.5" cy="14.5" r="13.5" fill="none"/>
          </g>
          <g id="椭圆_16-30" data-name="椭圆 16" transform="translate(782 4749)" fill="none" stroke="#707070" stroke-width="2">
            <circle cx="14.5" cy="14.5" r="14.5" stroke="none"/>
            <circle cx="14.5" cy="14.5" r="13.5" fill="none"/>
          </g>
        </g>
      </g>
    </g>
  </g>
</svg>
