<svg xmlns="http://www.w3.org/2000/svg" width="397" height="397" viewBox="0 0 397 397">
  <g id="Group_216" data-name="Group 216" transform="translate(-722.201 -12575.201)">
    <g id="Group_215" data-name="Group 215" transform="translate(722.201 12575.201)">
      <circle id="Ellipse_3" data-name="Ellipse 3" cx="198.5" cy="198.5" r="198.5" fill="#fff"/>
    </g>
    <g id="Layer_2" data-name="Layer 2" transform="translate(775.597 12610.723)">
      <g id="Layer_1" data-name="Layer 1" transform="translate(0 0)">
        <path id="Path_163" data-name="Path 163" d="M122.758,78.572a4.346,4.346,0,0,1-4.23-3.361c-.174-.724-4.636-17.994-27.643-21.935a23.384,23.384,0,0,0-20.283,7.3,4.394,4.394,0,0,1-6.607-5.8,32.221,32.221,0,0,1,28.512-10.2C121.483,49.51,126.9,72.14,127.278,73.125a4.317,4.317,0,0,1-3.245,5.187A3.97,3.97,0,0,1,122.758,78.572Z" transform="translate(119.361 83.867)" fill="#231815"/>
        <ellipse id="Ellipse_32" data-name="Ellipse 32" cx="20.428" cy="21.761" rx="20.428" ry="21.761" transform="translate(187.527 139.172)" fill="#231815"/>
        <path id="Path_164" data-name="Path 164" d="M89.7,98.716a26.078,26.078,0,1,1,24.774-26.078A25.47,25.47,0,0,1,89.7,98.716Zm0-43.464a17.386,17.386,0,1,0,16.082,17.386A16.777,16.777,0,0,0,89.7,55.223Z" transform="translate(118.253 88.324)" fill="#231815"/>
        <circle id="Ellipse_33" data-name="Ellipse 33" cx="7.07" cy="7.07" r="7.07" transform="translate(198.336 141.606)" fill="#fff"/>
        <path id="Path_165" data-name="Path 165" d="M45.185,81.181h-.58a2.9,2.9,0,0,1,.29-5.8,28.02,28.02,0,0,0,11.359-2.434,19.443,19.443,0,0,0,7.07-4.23,2.91,2.91,0,0,1,4.868,3.187c-.435.666-2.463,3.158-9.533,6.23A34.771,34.771,0,0,1,45.185,81.181Z" transform="translate(79.407 127.939)"/>
        <path id="Path_166" data-name="Path 166" d="M72.509,80.759a35.525,35.525,0,0,1-12.923-2.608c-7.157-2.9-9.214-5.361-9.678-6.027a2.906,2.906,0,0,1,4.781-3.3h0a22.631,22.631,0,0,0,7.1,3.912,27.932,27.932,0,0,0,11.388,2.2,2.906,2.906,0,1,1,.435,5.8Z" transform="translate(93.721 128.129)"/>
        <circle id="Ellipse_34" data-name="Ellipse 34" cx="35.93" cy="35.93" r="35.93" transform="translate(44.908 183.65)" fill="#ea5f3e" opacity="0.33"/>
        <circle id="Ellipse_35" data-name="Ellipse 35" cx="35.93" cy="35.93" r="35.93" transform="translate(175.995 183.65)" fill="#ea5f3e" opacity="0.33"/>
        <path id="Path_167" data-name="Path 167" d="M45.729,123.132c14.488-8,53.084-19.153,98.518-19.153a276.518,276.518,0,0,1,94.172,17.386,21.964,21.964,0,0,1,14.024,17.559,442.663,442.663,0,0,1,3.825,44.536c1.507,36.857-21.906,62.24-30.859,74.207S195.274,287.02,202,295.51c9.794,12.315,32.859-8.982,32.859-8.982s-4.462,8.982,5.476,8.982,50.795-22.92,45.811-97.1-15.3-98.2-15.3-98.2A130.392,130.392,0,0,0,18,98.822L16.637,104.1c-2.405,9.446-11.359,36.51-15.212,94.259-4.984,74.178,35.843,97.1,45.927,97.1s5.476-8.983,5.476-8.983,23.181,21.3,32.859,8.983c6.722-8.49-14.488-25.9-23.413-37.843S29.792,220.26,31.3,183.46a443.5,443.5,0,0,1,3.825-44.333,22.022,22.022,0,0,1,7.447-13.619,37.671,37.671,0,0,1,3.158-2.376Z" transform="translate(1.903 1.899)" fill="#2a2827"/>
        <path id="Path_168" data-name="Path 168" d="M212.072,304.191h-1.188a12.691,12.691,0,0,1-9.243-4.9c-6.462-8.142,4.173-19.819,14.488-31.091,3.39-3.709,6.578-7.215,8.9-10.286.927-1.275,2.028-2.666,3.216-4.2,9.881-12.749,28.338-36.278,27.035-68.325-.811-19.993-2.521-35-3.8-44.043a19.182,19.182,0,0,0-12.17-15.27,274.691,274.691,0,0,0-93.158-17.386c-45.811,0-83.885,11.59-97.127,18.805a27.644,27.644,0,0,0-2.9,2,19.124,19.124,0,0,0-6.375,11.793,441.648,441.648,0,0,0-3.651,44.1c-1.3,31.874,17.154,55.518,27.064,68.152,1.188,1.536,2.289,2.9,3.216,4.2,2.318,3.071,5.505,6.578,8.867,10.286C85.563,279.3,96.2,290.978,89.735,299.12a12.691,12.691,0,0,1-9.243,5.071c-7.708.58-16.719-4.9-22.34-9.069a7.128,7.128,0,0,1-.724,1.594,8.982,8.982,0,0,1-8.171,3.564c-5.39,0-15.5-4.636-25.035-14.836C11.587,272.056-2.669,246.384.432,200.08c3.448-51.519,11.156-79.133,14.285-90.926.406-1.507.753-2.9,1.014-3.825l1.3-5.129a.7.7,0,0,1,0-.232,133.289,133.289,0,0,1,258.407,1.217c1.159,2.9,10.692,28.049,15.444,98.895,3.1,46.361-11.156,71.976-23.7,85.363-9.5,10.2-19.617,14.836-25.006,14.836a8.982,8.982,0,0,1-8.287-3.68,7.127,7.127,0,0,1-.724-1.594C227.864,298.975,219.49,304.191,212.072,304.191Zm-65.92-201.18a280.342,280.342,0,0,1,95.186,17.7,24.861,24.861,0,0,1,15.879,19.877c1.3,9.185,2.9,24.4,3.854,44.623,1.391,34.1-17.907,58.734-28.28,71.976-1.188,1.478-2.26,2.9-3.158,4.086-2.492,3.3-5.8,6.9-9.243,10.692-7.418,8.171-17.559,19.327-14.227,23.528a6.954,6.954,0,0,0,5.158,2.724c7.91.609,19.646-8.461,23.471-12a2.9,2.9,0,0,1,4.578,3.419,5.158,5.158,0,0,0-.493,3.854c.377.58,1.623.927,3.361.927,2.9,0,11.59-3.187,20.776-12.981,11.59-12.547,25.122-36.8,22.138-81.133-4.868-72.44-14.952-96.982-15.067-97.214a2.91,2.91,0,0,1,0-.464,127.494,127.494,0,0,0-247.367-1.275h0a1.449,1.449,0,0,1,0,.377c-.232,1.217-.637,2.9-1.188,4.984-.261,1.072-.637,2.376-1.043,3.941-3.216,11.59-10.692,38.828-14.111,89.825-2.9,44.246,10.4,68.5,22.138,81.133,9.185,9.794,17.965,12.981,20.8,12.981,1.739,0,2.9-.348,3.361-.927a5.39,5.39,0,0,0-.522-3.97,2.885,2.885,0,0,1,4.549-3.39c3.854,3.535,15.589,12.6,23.5,12a6.838,6.838,0,0,0,4.984-2.811c3.39-4.259-6.78-15.415-14.2-23.586-3.477-3.8-6.751-7.389-9.243-10.692-.9-1.246-1.97-2.608-3.158-4.086-10.373-13.184-29.613-37.814-28.28-71.918.811-20.283,2.55-35.409,3.854-44.623a24.977,24.977,0,0,1,8.432-15.473,37.668,37.668,0,0,1,3.767-2.579h0C60.528,114.688,98.921,103.011,146.151,103.011Z" transform="translate(-0.002 -0.03)" fill="#231815"/>
        <path id="Path_169" data-name="Path 169" d="M64.658,75.13a2.9,2.9,0,0,1-2.492-4.346c0-.174,4.636-8.693,3.419-23.615a162.908,162.908,0,0,0-3.709-24.774,2.9,2.9,0,1,1,5.592-1.478A163.107,163.107,0,0,1,71.351,46.7c1.391,17.038-3.941,26.571-4.173,26.948A2.9,2.9,0,0,1,64.658,75.13Z" transform="translate(117.132 35.182)" fill="#1b0f0f"/>
        <path id="Path_170" data-name="Path 170" d="M44.955,74.995a2.9,2.9,0,0,1-2.521-1.449c-.232-.377-5.563-9.91-4.173-26.948A167.308,167.308,0,0,1,42.144,20.81a2.906,2.906,0,1,1,5.621,1.478,160.326,160.326,0,0,0-3.738,24.774c-1.217,15.1,3.39,23.528,3.448,23.615a2.9,2.9,0,0,1-2.521,4.317Z" transform="translate(72.161 35.288)" fill="#1b0f0f"/>
        <path id="Path_171" data-name="Path 171" d="M95.115,74.754a2.9,2.9,0,0,1-2.9-2.608,105.243,105.243,0,0,0-2.9-14.111c-2.144-8.113-5.592-19.327-5.621-19.443a2.9,2.9,0,0,1,5.534-1.71s3.535,11.445,5.8,19.675a104.084,104.084,0,0,1,3.129,15.01,2.9,2.9,0,0,1-2.579,3.158Z" transform="translate(158.622 66.185)" fill="#1b0f0f"/>
        <path id="Path_172" data-name="Path 172" d="M14.8,74.754h-.319A2.9,2.9,0,0,1,11.9,71.6a108.516,108.516,0,0,1,3.216-15.039c2.173-8.229,5.65-19.559,5.8-19.675a2.9,2.9,0,0,1,5.534,1.71s-3.477,11.33-5.621,19.443a105.239,105.239,0,0,0-2.9,14.111A2.9,2.9,0,0,1,14.8,74.754Z" transform="translate(22.549 66.186)" fill="#1b0f0f"/>
        <path id="Path_173" data-name="Path 173" d="M116.04,132.755c-41.754,0-78.235-17.125-99.764-46.941a2.892,2.892,0,1,1,4.665-3.419c20.573,28.281,55.228,44.565,95.1,44.565A126.741,126.741,0,0,0,204.446,91.7a2.9,2.9,0,0,1,4.115,4.086,132.594,132.594,0,0,1-92.52,36.973Z" transform="translate(29.82 154.02)" fill="#231815"/>
        <path id="Path_174" data-name="Path 174" d="M20.214,78.4a5.8,5.8,0,0,1-.985,0,4.317,4.317,0,0,1-3.245-5.187c.232-.985,5.8-23.615,34.771-28.541a32.221,32.221,0,0,1,28.512,10.2,4.394,4.394,0,1,1-6.607,5.8,23.384,23.384,0,0,0-20.283-7.3C29.37,57.307,24.908,74.577,24.734,75.33A4.375,4.375,0,0,1,20.214,78.4Z" transform="translate(30.113 84.038)" fill="#231815"/>
        <ellipse id="Ellipse_36" data-name="Ellipse 36" cx="20.428" cy="21.761" rx="20.428" ry="21.761" transform="translate(64.061 139.172)" fill="#231815"/>
        <path id="Path_175" data-name="Path 175" d="M46.238,98.737A26.078,26.078,0,1,1,72.317,72.658,26.078,26.078,0,0,1,46.238,98.737Zm0-43.464A17.386,17.386,0,1,0,63.624,72.658,17.386,17.386,0,0,0,46.238,55.273Z" transform="translate(38.251 88.304)" fill="#231815"/>
        <circle id="Ellipse_37" data-name="Ellipse 37" cx="7.07" cy="7.07" r="7.07" transform="translate(79.969 141.606)" fill="#fff"/>
        <path id="Path_176" data-name="Path 176" d="M60.5,138.928a50.244,50.244,0,1,1,50.244-50.244A50.244,50.244,0,0,1,60.5,138.928Zm0-91.8a41.551,41.551,0,1,0,41.551,41.551A41.551,41.551,0,0,0,60.5,47.133Z" transform="translate(19.465 72.857)"/>
        <path id="Path_177" data-name="Path 177" d="M106.98,138.928a50.244,50.244,0,1,1,50.128-50.244A50.244,50.244,0,0,1,106.98,138.928Zm0-91.8a41.551,41.551,0,1,0,41.436,41.551A41.551,41.551,0,0,0,106.98,47.133Z" transform="translate(107.437 72.857)"/>
        <path id="Path_178" data-name="Path 178" d="M89.071,64.877a3.593,3.593,0,0,1-.956,0l-6.288-1.391a65.544,65.544,0,0,0-28.078,0l-6.317,1.391a4.346,4.346,0,1,1-1.883-8.461L51.866,55a74.7,74.7,0,0,1,31.874,0l6.288,1.42a4.371,4.371,0,1,1-.927,8.693Z" transform="translate(79.361 101.011)"/>
        <g id="Group_214" data-name="Group 214" transform="translate(80.191 87.366)" opacity="0.7">
          <ellipse id="Ellipse_38" data-name="Ellipse 38" cx="11.5" cy="8.451" rx="11.5" ry="8.451" transform="translate(1.712 5.505) rotate(-12.095)" fill="#1a0e0e"/>
          <path id="Path_179" data-name="Path 179" d="M40.494,53.185a15.56,15.56,0,0,1-6.462-1.362A9.852,9.852,0,0,1,30.613,35.6,16.632,16.632,0,0,1,39.6,30.584c7.91-1.652,15.1,1.912,16.429,8.113h0c1.3,6.23-3.854,12.4-11.735,14.082A19.009,19.009,0,0,1,40.494,53.185ZM43.391,36a13.213,13.213,0,0,0-2.579.261,10.9,10.9,0,0,0-5.8,3.187,4.9,4.9,0,0,0-1.391,4,4.781,4.781,0,0,0,2.9,3.1,11.1,11.1,0,0,0,6.578.493c4.549-.956,7.852-4.259,7.244-7.186C49.853,37.538,46.9,36,43.391,36Z" transform="translate(-27.677 -30.181)" fill="#1b0f0f"/>
          <ellipse id="Ellipse_39" data-name="Ellipse 39" cx="8.432" cy="11.474" rx="8.432" ry="11.474" transform="translate(111.425 17.385) rotate(-78.06)" fill="#1a0e0e"/>
          <path id="Path_180" data-name="Path 180" d="M81.394,53.147A19.79,19.79,0,0,1,77.54,52.8C69.658,51.119,64.5,44.947,65.95,38.717h0c1.3-6.2,8.519-9.765,16.4-8.113s13.039,7.852,11.59,14.082C92.868,49.9,87.653,53.147,81.394,53.147Zm-9.91-13.271c-.608,2.9,2.695,6.23,7.273,7.186s8.9-.7,9.533-3.651-2.695-6.23-7.244-7.186S72.121,36.921,71.484,39.876Z" transform="translate(44.487 -30.143)" fill="#1b0f0f"/>
        </g>
      </g>
    </g>
  </g>
</svg>
