<svg xmlns="http://www.w3.org/2000/svg" width="1487" height="541" viewBox="0 0 1487 541">
  <g id="组_116" data-name="组 116" transform="translate(-228 -4588)">
    <rect id="矩形_27" data-name="矩形 27" width="1487" height="541" rx="50" transform="translate(228 4588)" fill="rgba(255,255,255,0.5)"/>
    <g id="组_99" data-name="组 99">
      <g id="组_90" data-name="组 90" transform="translate(-553.5 19)">
        <text id="SKILLS" transform="translate(959 4681)" fill="#808f85" font-size="65" font-family="SegoeUI, Segoe UI" letter-spacing="0.098em"><tspan x="-108.553" y="0">SKILLS</tspan></text>
        <line id="直线_27" data-name="直线 27" x2="229" transform="translate(844.5 4697.5)" fill="none" stroke="#808f85" stroke-width="3"/>
      </g>
      <g id="组_98" data-name="组 98" transform="translate(0 40)">
        <g id="组_92" data-name="组 92" transform="translate(94)">
          <text id="CHARACTER_DESIGN" data-name="CHARACTER DESIGN" transform="translate(409 4775)" fill="#808f85" font-size="30" font-family="SegoeUI-Semilight, Segoe UI" font-weight="300"><tspan x="-134.963" y="0">CHARACTER DESIGN</tspan></text>
          <g id="组_91" data-name="组 91">
            <g id="椭圆_16" data-name="椭圆 16" transform="translate(586 4749)" fill="#b0dab7" stroke="#707070" stroke-width="2">
              <circle cx="14.5" cy="14.5" r="14.5" stroke="none"/>
              <circle cx="14.5" cy="14.5" r="13.5" fill="none"/>
            </g>
            <g id="椭圆_16-2" data-name="椭圆 16" transform="translate(635 4749)" fill="#b0dab7" stroke="#707070" stroke-width="2">
              <circle cx="14.5" cy="14.5" r="14.5" stroke="none"/>
              <circle cx="14.5" cy="14.5" r="13.5" fill="none"/>
            </g>
            <g id="椭圆_16-3" data-name="椭圆 16" transform="translate(684 4749)" fill="#b0dab7" stroke="#707070" stroke-width="2">
              <circle cx="14.5" cy="14.5" r="14.5" stroke="none"/>
              <circle cx="14.5" cy="14.5" r="13.5" fill="none"/>
            </g>
            <g id="椭圆_16-4" data-name="椭圆 16" transform="translate(733 4749)" fill="#b0dab7" stroke="#707070" stroke-width="2">
              <circle cx="14.5" cy="14.5" r="14.5" stroke="none"/>
              <circle cx="14.5" cy="14.5" r="13.5" fill="none"/>
            </g>
            <g id="椭圆_16-5" data-name="椭圆 16" transform="translate(782 4749)" fill="none" stroke="#707070" stroke-width="2">
              <circle cx="14.5" cy="14.5" r="14.5" stroke="none"/>
              <circle cx="14.5" cy="14.5" r="13.5" fill="none"/>
            </g>
          </g>
        </g>
        <g id="组_96" data-name="组 96" transform="translate(94 190)">
          <text id="DIGITAL_ILLUSTRATION" data-name="DIGITAL ILLUSTRATION" transform="translate(409 4775)" fill="#808f85" font-size="30" font-family="SegoeUI-Semilight, Segoe UI" font-weight="300"><tspan x="-148.916" y="0">DIGITAL ILLUSTRATION</tspan></text>
          <g id="组_91-2" data-name="组 91">
            <g id="椭圆_16-6" data-name="椭圆 16" transform="translate(586 4749)" fill="#b0dab7" stroke="#707070" stroke-width="2">
              <circle cx="14.5" cy="14.5" r="14.5" stroke="none"/>
              <circle cx="14.5" cy="14.5" r="13.5" fill="none"/>
            </g>
            <g id="椭圆_16-7" data-name="椭圆 16" transform="translate(635 4749)" fill="#b0dab7" stroke="#707070" stroke-width="2">
              <circle cx="14.5" cy="14.5" r="14.5" stroke="none"/>
              <circle cx="14.5" cy="14.5" r="13.5" fill="none"/>
            </g>
            <g id="椭圆_16-8" data-name="椭圆 16" transform="translate(684 4749)" fill="#b0dab7" stroke="#707070" stroke-width="2">
              <circle cx="14.5" cy="14.5" r="14.5" stroke="none"/>
              <circle cx="14.5" cy="14.5" r="13.5" fill="none"/>
            </g>
            <g id="椭圆_16-9" data-name="椭圆 16" transform="translate(733 4749)" fill="#b0dab7" stroke="#707070" stroke-width="2">
              <circle cx="14.5" cy="14.5" r="14.5" stroke="none"/>
              <circle cx="14.5" cy="14.5" r="13.5" fill="none"/>
            </g>
            <g id="椭圆_16-10" data-name="椭圆 16" transform="translate(782 4749)" fill="rgba(255,255,255,0)" stroke="#707070" stroke-width="2">
              <circle cx="14.5" cy="14.5" r="14.5" stroke="none"/>
              <circle cx="14.5" cy="14.5" r="13.5" fill="none"/>
            </g>
          </g>
        </g>
        <g id="组_97" data-name="组 97" transform="translate(16)">
          <g id="组_95" data-name="组 95" transform="translate(762)">
            <text id="UI_UX_DESIGN" data-name="UI/UX DESIGN" transform="translate(409 4775)" fill="#808f85" font-size="30" font-family="SegoeUI-Semilight, Segoe UI" font-weight="300"><tspan x="-92.505" y="0">UI/UX DESIGN</tspan></text>
            <g id="组_91-3" data-name="组 91">
              <g id="椭圆_16-11" data-name="椭圆 16" transform="translate(586 4749)" fill="#b0dab7" stroke="#707070" stroke-width="2">
                <circle cx="14.5" cy="14.5" r="14.5" stroke="none"/>
                <circle cx="14.5" cy="14.5" r="13.5" fill="none"/>
              </g>
              <g id="椭圆_16-12" data-name="椭圆 16" transform="translate(635 4749)" fill="#b0dab7" stroke="#707070" stroke-width="2">
                <circle cx="14.5" cy="14.5" r="14.5" stroke="none"/>
                <circle cx="14.5" cy="14.5" r="13.5" fill="none"/>
              </g>
              <g id="椭圆_16-13" data-name="椭圆 16" transform="translate(684 4749)" fill="#b0dab7" stroke="#707070" stroke-width="2">
                <circle cx="14.5" cy="14.5" r="14.5" stroke="none"/>
                <circle cx="14.5" cy="14.5" r="13.5" fill="none"/>
              </g>
              <g id="椭圆_16-14" data-name="椭圆 16" transform="translate(733 4749)" fill="none" stroke="#707070" stroke-width="2">
                <circle cx="14.5" cy="14.5" r="14.5" stroke="none"/>
                <circle cx="14.5" cy="14.5" r="13.5" fill="none"/>
              </g>
              <g id="椭圆_16-15" data-name="椭圆 16" transform="translate(782 4749)" fill="rgba(255,255,255,0)" stroke="#707070" stroke-width="2">
                <circle cx="14.5" cy="14.5" r="14.5" stroke="none"/>
                <circle cx="14.5" cy="14.5" r="13.5" fill="none"/>
              </g>
            </g>
          </g>
          <g id="组_93" data-name="组 93" transform="translate(762 95)">
            <text id="WEBSITE_DESIGN" data-name="WEBSITE DESIGN" transform="translate(409 4775)" fill="#808f85" font-size="30" font-family="SegoeUI-Semilight, Segoe UI" font-weight="300"><tspan x="-110.83" y="0">WEBSITE DESIGN</tspan></text>
            <g id="组_91-4" data-name="组 91">
              <g id="椭圆_16-16" data-name="椭圆 16" transform="translate(586 4749)" fill="#b0dab7" stroke="#707070" stroke-width="2">
                <circle cx="14.5" cy="14.5" r="14.5" stroke="none"/>
                <circle cx="14.5" cy="14.5" r="13.5" fill="none"/>
              </g>
              <g id="椭圆_16-17" data-name="椭圆 16" transform="translate(635 4749)" fill="#b0dab7" stroke="#707070" stroke-width="2">
                <circle cx="14.5" cy="14.5" r="14.5" stroke="none"/>
                <circle cx="14.5" cy="14.5" r="13.5" fill="none"/>
              </g>
              <g id="椭圆_16-18" data-name="椭圆 16" transform="translate(684 4749)" fill="#b0dab7" stroke="#707070" stroke-width="2">
                <circle cx="14.5" cy="14.5" r="14.5" stroke="none"/>
                <circle cx="14.5" cy="14.5" r="13.5" fill="none"/>
              </g>
              <g id="椭圆_16-19" data-name="椭圆 16" transform="translate(733 4749)" fill="none" stroke="#707070" stroke-width="2">
                <circle cx="14.5" cy="14.5" r="14.5" stroke="none"/>
                <circle cx="14.5" cy="14.5" r="13.5" fill="none"/>
              </g>
              <g id="椭圆_16-20" data-name="椭圆 16" transform="translate(782 4749)" fill="none" stroke="#707070" stroke-width="2">
                <circle cx="14.5" cy="14.5" r="14.5" stroke="none"/>
                <circle cx="14.5" cy="14.5" r="13.5" fill="none"/>
              </g>
            </g>
          </g>
        </g>
        <g id="组_94" data-name="组 94" transform="translate(94 95)">
          <text id="GRAPHIC_DESIGN" data-name="GRAPHIC DESIGN" transform="translate(409 4775)" fill="#808f85" font-size="30" font-family="SegoeUI-Semilight, Segoe UI" font-weight="300"><tspan x="-114.492" y="0">GRAPHIC DESIGN</tspan></text>
          <g id="组_91-5" data-name="组 91">
            <g id="椭圆_16-21" data-name="椭圆 16" transform="translate(586 4749)" fill="#b0dab7" stroke="#707070" stroke-width="2">
              <circle cx="14.5" cy="14.5" r="14.5" stroke="none"/>
              <circle cx="14.5" cy="14.5" r="13.5" fill="none"/>
            </g>
            <g id="椭圆_16-22" data-name="椭圆 16" transform="translate(635 4749)" fill="#b0dab7" stroke="#707070" stroke-width="2">
              <circle cx="14.5" cy="14.5" r="14.5" stroke="none"/>
              <circle cx="14.5" cy="14.5" r="13.5" fill="none"/>
            </g>
            <g id="椭圆_16-23" data-name="椭圆 16" transform="translate(684 4749)" fill="#b0dab7" stroke="#707070" stroke-width="2">
              <circle cx="14.5" cy="14.5" r="14.5" stroke="none"/>
              <circle cx="14.5" cy="14.5" r="13.5" fill="none"/>
            </g>
            <g id="椭圆_16-24" data-name="椭圆 16" transform="translate(733 4749)" fill="#b0dab7" stroke="#707070" stroke-width="2">
              <circle cx="14.5" cy="14.5" r="14.5" stroke="none"/>
              <circle cx="14.5" cy="14.5" r="13.5" fill="none"/>
            </g>
            <g id="椭圆_16-25" data-name="椭圆 16" transform="translate(782 4749)" fill="none" stroke="#707070" stroke-width="2">
              <circle cx="14.5" cy="14.5" r="14.5" stroke="none"/>
              <circle cx="14.5" cy="14.5" r="13.5" fill="none"/>
            </g>
          </g>
        </g>
      </g>
    </g>
  </g>
</svg>
