<svg xmlns="http://www.w3.org/2000/svg" width="180" height="181" viewBox="0 0 180 181">
  <g id="Group_216" data-name="Group 216" transform="translate(0)">
    <g id="Group_215" data-name="Group 215" transform="translate(0)">
      <ellipse id="Ellipse_3" data-name="Ellipse 3" cx="90" cy="90.5" rx="90" ry="90.5" transform="translate(0)" fill="#fff"/>
    </g>
    <g id="Layer_2" data-name="Layer 2" transform="translate(23.932 16.11)">
      <g id="Layer_1" data-name="Layer 1" transform="translate(0 0)">
        <path id="Path_163" data-name="Path 163" d="M90.049,59.808a1.971,1.971,0,0,1-1.918-1.524c-.079-.328-2.1-8.161-12.537-9.948a10.606,10.606,0,0,0-9.2,3.311,1.994,1.994,0,0,1-3-2.631,14.613,14.613,0,0,1,12.931-4.626c13.142,2.238,15.6,12.5,15.77,12.948a1.958,1.958,0,0,1-1.472,2.353,1.8,1.8,0,0,1-.578.118Z" transform="translate(19.761 13.865)" fill="#231815"/>
        <ellipse id="Ellipse_32" data-name="Ellipse 32" cx="9.265" cy="9.869" rx="9.265" ry="9.869" transform="translate(85.051 63.12)" fill="#231815"/>
        <path id="Path_164" data-name="Path 164" d="M74.736,70.232A11.827,11.827,0,1,1,85.972,58.4,11.552,11.552,0,0,1,74.736,70.232Zm0-19.713A7.885,7.885,0,1,0,82.03,58.4a7.609,7.609,0,0,0-7.294-7.9Z" transform="translate(19.578 14.598)" fill="#231815"/>
        <circle id="Ellipse_33" data-name="Ellipse 33" cx="3.207" cy="3.207" r="3.207" transform="translate(89.953 64.224)" fill="#fff"/>
        <path id="Path_165" data-name="Path 165" d="M43.361,73.681H43.1a1.317,1.317,0,1,1,.132-2.631,12.708,12.708,0,0,0,5.152-1.1,8.818,8.818,0,0,0,3.207-1.918A1.32,1.32,0,0,1,53.8,69.474c-.2.3-1.117,1.432-4.324,2.826A15.77,15.77,0,0,1,43.361,73.681Z" transform="translate(13.147 21.163)"/>
        <path id="Path_166" data-name="Path 166" d="M59.9,73.59a16.112,16.112,0,0,1-5.861-1.183c-3.246-1.315-4.179-2.431-4.389-2.733a1.318,1.318,0,0,1,2.168-1.5h0a10.264,10.264,0,0,0,3.22,1.774,12.668,12.668,0,0,0,5.165,1,1.319,1.319,0,1,1,.2,2.631Z" transform="translate(15.488 21.149)"/>
        <circle id="Ellipse_34" data-name="Ellipse 34" cx="16.296" cy="16.296" r="16.296" transform="translate(20.368 83.293)" fill="#ea5f3e" opacity="0.33"/>
        <circle id="Ellipse_35" data-name="Ellipse 35" cx="16.296" cy="16.296" r="16.296" transform="translate(79.821 83.293)" fill="#ea5f3e" opacity="0.33"/>
        <path id="Path_167" data-name="Path 167" d="M21.289,56.415c6.571-3.628,24.076-8.687,44.682-8.687a125.411,125.411,0,0,1,42.711,7.885,9.961,9.961,0,0,1,6.36,7.964,200.759,200.759,0,0,1,1.735,20.2c.683,16.716-9.935,28.228-14,33.656s-13.667,13.313-10.617,17.163c4.442,5.585,14.9-4.074,14.9-4.074s-2.024,4.074,2.484,4.074,23.037-10.4,20.777-44.039-6.939-44.537-6.939-44.537a59.138,59.138,0,0,0-114.675-.63l-.618,2.394C7,52.067,2.943,64.342,1.2,90.533c-2.26,33.643,16.256,44.039,20.83,44.039s2.484-4.074,2.484-4.074,10.513,9.66,14.9,4.074c3.049-3.851-6.571-11.747-10.619-17.163S14.061,100.466,14.745,83.776A201.14,201.14,0,0,1,16.48,63.669a9.988,9.988,0,0,1,3.377-6.177,17.086,17.086,0,0,1,1.432-1.078Z" transform="translate(0.314 0.292)" fill="#2a2827"/>
        <path id="Path_168" data-name="Path 168" d="M96.184,137.978h-.539a5.756,5.756,0,0,1-4.192-2.222c-2.931-3.693,1.893-8.989,6.571-14.1,1.537-1.682,2.983-3.272,4.036-4.665.42-.578.92-1.209,1.459-1.9C108,109.3,116.371,98.631,115.78,84.1c-.368-9.068-1.143-15.874-1.723-19.975a8.7,8.7,0,0,0-5.52-6.926,124.584,124.584,0,0,0-42.251-7.885c-20.777,0-38.045,5.256-44.051,8.529a12.537,12.537,0,0,0-1.315.907A8.673,8.673,0,0,0,18.029,64.1a200.3,200.3,0,0,0-1.656,20c-.59,14.456,7.78,25.18,12.275,30.91.539.7,1.038,1.315,1.459,1.9,1.051,1.393,2.5,2.983,4.022,4.665,4.679,5.113,9.5,10.41,6.571,14.1a5.756,5.756,0,0,1-4.192,2.3c-3.5.263-7.583-2.222-10.132-4.113a3.233,3.233,0,0,1-.328.723,4.074,4.074,0,0,1-3.706,1.616c-2.445,0-7.03-2.1-11.354-6.729C5.256,123.4-1.209,111.761.2,90.76c1.564-23.366,5.06-35.89,6.479-41.238.184-.683.342-1.315.46-1.735l.59-2.326a.317.317,0,0,1,0-.105,60.452,60.452,0,0,1,117.2.552c.526,1.315,4.849,12.721,7,44.853,1.406,21.026-5.06,32.644-10.749,38.715-4.309,4.626-8.9,6.729-11.341,6.729a4.074,4.074,0,0,1-3.758-1.669,3.232,3.232,0,0,1-.328-.723C103.346,135.613,99.548,137.978,96.184,137.978Zm-29.9-91.243a127.146,127.146,0,0,1,43.171,8.028,11.275,11.275,0,0,1,7.2,9.015c.59,4.166,1.315,11.066,1.748,20.238.631,15.466-8.122,26.638-12.826,32.644-.539.67-1.025,1.315-1.432,1.853-1.13,1.5-2.631,3.129-4.192,4.849-3.364,3.706-7.964,8.766-6.452,10.671a3.154,3.154,0,0,0,2.339,1.235c3.588.276,8.91-3.837,10.645-5.442a1.315,1.315,0,0,1,2.076,1.551,2.339,2.339,0,0,0-.224,1.748c.171.263.736.42,1.524.42,1.315,0,5.257-1.445,9.423-5.887,5.257-5.691,11.394-16.69,10.04-36.8-2.208-32.854-6.781-43.985-6.833-44.09a1.318,1.318,0,0,1,0-.21A57.823,57.823,0,0,0,10.3,45.982h0a.657.657,0,0,1,0,.171c-.105.552-.289,1.315-.539,2.26-.118.486-.289,1.078-.473,1.787-1.459,5.257-4.849,17.61-6.4,40.739-1.315,20.067,4.717,31.067,10.04,36.8,4.166,4.442,8.148,5.887,9.434,5.887a2.021,2.021,0,0,0,1.524-.42,2.445,2.445,0,0,0-.237-1.8,1.308,1.308,0,0,1,2.063-1.538c1.748,1.6,7.07,5.715,10.658,5.442a3.1,3.1,0,0,0,2.26-1.275c1.537-1.932-3.075-6.991-6.44-10.7-1.577-1.723-3.062-3.351-4.192-4.849-.408-.565-.893-1.183-1.432-1.853-4.7-5.979-13.431-17.15-12.826-32.618a203.1,203.1,0,0,1,1.748-20.238,11.328,11.328,0,0,1,3.824-7.018,17.084,17.084,0,0,1,1.708-1.17h0c6.427-3.559,23.839-8.855,45.26-8.855Z" transform="translate(-0.002 -0.029)" fill="#231815"/>
        <path id="Path_169" data-name="Path 169" d="M63.051,44.21a1.315,1.315,0,0,1-1.13-1.971c0-.079,2.1-3.943,1.551-10.71a73.887,73.887,0,0,0-1.682-11.236,1.315,1.315,0,1,1,2.536-.67,73.975,73.975,0,0,1,1.761,11.694c.631,7.727-1.787,12.051-1.893,12.222A1.315,1.315,0,0,1,63.051,44.21Z" transform="translate(19.398 5.821)" fill="#1b0f0f"/>
        <path id="Path_170" data-name="Path 170" d="M41.171,44.2a1.315,1.315,0,0,1-1.143-.657c-.105-.171-2.523-4.495-1.893-12.222a75.881,75.881,0,0,1,1.761-11.7,1.318,1.318,0,0,1,2.549.67,72.712,72.712,0,0,0-1.7,11.236C40.2,38.38,42.287,42.2,42.314,42.242A1.315,1.315,0,0,1,41.17,44.2Z" transform="translate(11.946 5.818)" fill="#1b0f0f"/>
        <path id="Path_171" data-name="Path 171" d="M88.825,53.019a1.315,1.315,0,0,1-1.315-1.183,47.727,47.727,0,0,0-1.315-6.4c-.972-3.68-2.536-8.766-2.549-8.818a1.315,1.315,0,0,1,2.51-.776s1.6,5.191,2.631,8.923A47.2,47.2,0,0,1,90.2,51.574a1.315,1.315,0,0,1-1.17,1.432Z" transform="translate(26.254 10.902)" fill="#1b0f0f"/>
        <path id="Path_172" data-name="Path 172" d="M13.208,53.021h-.145a1.315,1.315,0,0,1-1.171-1.43,49.215,49.215,0,0,1,1.459-6.821c.986-3.732,2.562-8.871,2.631-8.923a1.315,1.315,0,0,1,2.51.776s-1.577,5.139-2.549,8.818a47.73,47.73,0,0,0-1.315,6.4A1.315,1.315,0,0,1,13.208,53.021Z" transform="translate(3.731 10.901)" fill="#1b0f0f"/>
        <path id="Path_173" data-name="Path 173" d="M61.217,104.589c-18.937,0-35.483-7.767-45.247-21.29a1.312,1.312,0,1,1,2.116-1.551c9.331,12.827,25.048,20.212,43.131,20.212a57.482,57.482,0,0,0,40.1-15.992,1.315,1.315,0,1,1,1.866,1.853,60.137,60.137,0,0,1-41.962,16.769Z" transform="translate(4.936 25.475)" fill="#231815"/>
        <path id="Path_174" data-name="Path 174" d="M17.841,59.782a2.628,2.628,0,0,1-.447,0,1.958,1.958,0,0,1-1.472-2.352c.105-.447,2.631-10.71,15.77-12.944a14.613,14.613,0,0,1,12.931,4.626,1.994,1.994,0,0,1-3,2.631,10.606,10.606,0,0,0-9.2-3.311C21.994,50.216,19.97,58.048,19.891,58.39A1.984,1.984,0,0,1,17.841,59.782Z" transform="translate(4.984 13.89)" fill="#231815"/>
        <ellipse id="Ellipse_36" data-name="Ellipse 36" cx="9.265" cy="9.869" rx="9.265" ry="9.869" transform="translate(29.054 63.12)" fill="#231815"/>
        <path id="Path_175" data-name="Path 175" d="M31.988,70.236A11.827,11.827,0,1,1,43.816,58.408,11.827,11.827,0,0,1,31.988,70.236Zm0-19.713a7.885,7.885,0,1,0,7.885,7.885,7.885,7.885,0,0,0-7.885-7.885Z" transform="translate(6.331 14.595)" fill="#231815"/>
        <circle id="Ellipse_37" data-name="Ellipse 37" cx="3.207" cy="3.207" r="3.207" transform="translate(36.269 64.224)" fill="#fff"/>
        <path id="Path_176" data-name="Path 176" d="M33.044,84.015A22.788,22.788,0,1,1,55.831,61.228,22.788,22.788,0,0,1,33.044,84.015Zm0-41.635A18.845,18.845,0,1,0,51.889,61.225,18.845,18.845,0,0,0,33.044,42.38Z" transform="translate(3.224 12.038)"/>
        <path id="Path_177" data-name="Path 177" d="M79.46,84.015A22.788,22.788,0,1,1,102.2,61.228,22.788,22.788,0,0,1,79.46,84.015Zm0-41.635A18.845,18.845,0,1,0,98.253,61.225,18.845,18.845,0,0,0,79.46,42.38Z" transform="translate(17.786 12.038)"/>
        <path id="Path_178" data-name="Path 178" d="M63.255,58.54a1.63,1.63,0,0,1-.434,0l-2.852-.631a29.727,29.727,0,0,0-12.734,0l-2.865.631a1.971,1.971,0,1,1-.854-3.837l2.865-.642a33.879,33.879,0,0,1,14.456,0l2.852.644a1.982,1.982,0,1,1-.42,3.943Z" transform="translate(13.135 16.697)"/>
        <g id="Group_214" data-name="Group 214" transform="translate(36.371 39.624)" opacity="0.7">
          <ellipse id="Ellipse_38" data-name="Ellipse 38" cx="5.216" cy="3.833" rx="5.216" ry="3.833" transform="translate(0.775 2.497) rotate(-12.095)" fill="#1a0e0e"/>
          <path id="Path_179" data-name="Path 179" d="M33.491,40.614A7.057,7.057,0,0,1,30.561,40a4.468,4.468,0,0,1-1.551-7.358,7.543,7.543,0,0,1,4.076-2.275c3.587-.749,6.848.867,7.451,3.68h0c.59,2.826-1.748,5.624-5.322,6.387A8.623,8.623,0,0,1,33.491,40.614Zm1.314-7.794a5.992,5.992,0,0,0-1.17.118,4.944,4.944,0,0,0-2.631,1.445,2.222,2.222,0,0,0-.631,1.814A2.168,2.168,0,0,0,31.69,37.6a5.034,5.034,0,0,0,2.983.224c2.063-.434,3.561-1.932,3.285-3.259C37.736,33.518,36.4,32.82,34.805,32.82Z" transform="translate(-27.68 -30.181)" fill="#1b0f0f"/>
          <ellipse id="Ellipse_39" data-name="Ellipse 39" cx="3.824" cy="5.204" rx="3.824" ry="5.204" transform="translate(50.534 7.885) rotate(-78.06)" fill="#1a0e0e"/>
          <path id="Path_180" data-name="Path 180" d="M72.821,40.608a8.975,8.975,0,0,1-1.748-.157c-3.575-.762-5.914-3.562-5.257-6.387h0c.59-2.812,3.864-4.429,7.438-3.68s5.914,3.561,5.257,6.387C78.025,39.135,75.66,40.608,72.821,40.608Zm-4.495-6.019c-.276,1.315,1.222,2.826,3.3,3.259s4.036-.317,4.324-1.656-1.222-2.826-3.285-3.259-4.048.316-4.337,1.656Z" transform="translate(-15.73 -30.174)" fill="#1b0f0f"/>
        </g>
      </g>
    </g>
  </g>
</svg>
