<svg xmlns="http://www.w3.org/2000/svg" width="66" height="68.788" viewBox="0 0 66 68.788">
  <g id="组_169" data-name="组 169" transform="translate(-2.644)">
    <g id="film-editor" transform="translate(16.858 0)">
      <path id="路径_43" data-name="路径 43" d="M82.709,0a.938.938,0,0,0-.938.938V3.817H78.439V.938a.938.938,0,1,0-1.875,0V9.316H68.036v-6.5A2.816,2.816,0,0,0,65.224,0h-2.93a2.816,2.816,0,0,0-2.813,2.813v6.5H50.954V.938a.938.938,0,1,0-1.875,0V3.817H45.746V.938a.938.938,0,1,0-1.875,0V47.064a.938.938,0,0,0,1.875,0V44.185h3.333v2.879a.938.938,0,0,0,1.875,0V38.686h9.055a.938.938,0,0,0,0-1.875H50.954V11.191h8.528V27.857a.972.972,0,0,0,.068.346.757.757,0,0,0,.093.18l3.336,5a.937.937,0,0,0,1.56,0l3.336-5A.963.963,0,0,0,68.024,28a.927.927,0,0,0,.012-.148V11.191h8.527v25.62H67.509a.938.938,0,1,0,0,1.875h9.055v8.378a.938.938,0,0,0,1.875,0V44.185h3.333v2.879a.938.938,0,0,0,1.875,0V.938A.938.938,0,0,0,82.709,0ZM45.746,36.811V33.187h3.333v3.624Zm3.333-22H45.746V11.191h3.333Zm0,5.5H45.746V16.69h3.333Zm0,5.5H45.746V22.189h3.333Zm0,5.5H45.746V27.688h3.333Zm0-25.62V9.316H45.746V5.692ZM45.746,42.31V38.686h3.333V42.31ZM61.356,7.489h4.8v19.43h-4.8Zm0-4.676a.939.939,0,0,1,.938-.938h2.93a.939.939,0,0,1,.938.938v2.8h-4.8Zm2.4,28.364-1.588-2.382h3.176ZM81.771,11.191v3.624H78.439V11.191h3.333Zm0,9.123H78.439V16.69h3.333Zm0,5.5H78.439V22.189h3.333Zm0,5.5H78.439V27.688h3.333Zm-3.333,1.875h3.333v3.624H78.439Zm3.333-27.5V9.316H78.439V5.692ZM78.439,42.31V38.686h3.333V42.31Z" transform="translate(-43.871)" fill="#808f85" fill-rule="evenodd"/>
      <path id="路径_44" data-name="路径 44" d="M246.939,392.637a.938.938,0,1,0,.938.938A.939.939,0,0,0,246.939,392.637Z" transform="translate(-227.051 -355.826)" fill="#808f85" fill-rule="evenodd"/>
    </g>
    <text id="Film_Editing" data-name="Film Editing" transform="translate(35.644 65.788)" fill="#808f85" font-size="14" font-family="GillSansMT, Gill Sans MT"><tspan x="-32.652" y="0">Film Editing</tspan></text>
    <g id="film-editor-2" data-name="film-editor" transform="translate(16.858 0)">
      <path id="路径_43-2" data-name="路径 43" d="M82.709,0a.938.938,0,0,0-.938.938V3.817H78.439V.938a.938.938,0,1,0-1.875,0V9.316H68.036v-6.5A2.816,2.816,0,0,0,65.224,0h-2.93a2.816,2.816,0,0,0-2.813,2.813v6.5H50.954V.938a.938.938,0,1,0-1.875,0V3.817H45.746V.938a.938.938,0,1,0-1.875,0V47.064a.938.938,0,0,0,1.875,0V44.185h3.333v2.879a.938.938,0,0,0,1.875,0V38.686h9.055a.938.938,0,0,0,0-1.875H50.954V11.191h8.528V27.857a.972.972,0,0,0,.068.346.757.757,0,0,0,.093.18l3.336,5a.937.937,0,0,0,1.56,0l3.336-5A.963.963,0,0,0,68.024,28a.927.927,0,0,0,.012-.148V11.191h8.527v25.62H67.509a.938.938,0,1,0,0,1.875h9.055v8.378a.938.938,0,0,0,1.875,0V44.185h3.333v2.879a.938.938,0,0,0,1.875,0V.938A.938.938,0,0,0,82.709,0ZM45.746,36.811V33.187h3.333v3.624Zm3.333-22H45.746V11.191h3.333Zm0,5.5H45.746V16.69h3.333Zm0,5.5H45.746V22.189h3.333Zm0,5.5H45.746V27.688h3.333Zm0-25.62V9.316H45.746V5.692ZM45.746,42.31V38.686h3.333V42.31ZM61.356,7.489h4.8v19.43h-4.8Zm0-4.676a.939.939,0,0,1,.938-.938h2.93a.939.939,0,0,1,.938.938v2.8h-4.8Zm2.4,28.364-1.588-2.382h3.176ZM81.771,11.191v3.624H78.439V11.191h3.333Zm0,9.123H78.439V16.69h3.333Zm0,5.5H78.439V22.189h3.333Zm0,5.5H78.439V27.688h3.333Zm-3.333,1.875h3.333v3.624H78.439Zm3.333-27.5V9.316H78.439V5.692ZM78.439,42.31V38.686h3.333V42.31Z" transform="translate(-43.871)" fill="#808f85" fill-rule="evenodd"/>
      <path id="路径_44-2" data-name="路径 44" d="M246.939,392.637a.938.938,0,1,0,.938.938A.939.939,0,0,0,246.939,392.637Z" transform="translate(-227.051 -355.826)" fill="#808f85" fill-rule="evenodd"/>
      <path id="路径_75" data-name="路径 75" d="M82.709,0a.938.938,0,0,0-.938.938V3.817H78.439V.938a.938.938,0,1,0-1.875,0V9.316H68.036v-6.5A2.816,2.816,0,0,0,65.224,0h-2.93a2.816,2.816,0,0,0-2.813,2.813v6.5H50.954V.938a.938.938,0,1,0-1.875,0V3.817H45.746V.938a.938.938,0,1,0-1.875,0V47.064a.938.938,0,0,0,1.875,0V44.185h3.333v2.879a.938.938,0,0,0,1.875,0V38.686h9.055a.938.938,0,0,0,0-1.875H50.954V11.191h8.528V27.857a.972.972,0,0,0,.068.346.757.757,0,0,0,.093.18l3.336,5a.937.937,0,0,0,1.56,0l3.336-5A.963.963,0,0,0,68.024,28a.927.927,0,0,0,.012-.148V11.191h8.527v25.62H67.509a.938.938,0,1,0,0,1.875h9.055v8.378a.938.938,0,0,0,1.875,0V44.185h3.333v2.879a.938.938,0,0,0,1.875,0V.938A.938.938,0,0,0,82.709,0ZM45.746,36.811V33.187h3.333v3.624Zm3.333-22H45.746V11.191h3.333Zm0,5.5H45.746V16.69h3.333Zm0,5.5H45.746V22.189h3.333Zm0,5.5H45.746V27.688h3.333Zm0-25.62V9.316H45.746V5.692ZM45.746,42.31V38.686h3.333V42.31ZM61.356,7.489h4.8v19.43h-4.8Zm0-4.676a.939.939,0,0,1,.938-.938h2.93a.939.939,0,0,1,.938.938v2.8h-4.8Zm2.4,28.364-1.588-2.382h3.176ZM81.771,11.191v3.624H78.439V11.191h3.333Zm0,9.123H78.439V16.69h3.333Zm0,5.5H78.439V22.189h3.333Zm0,5.5H78.439V27.688h3.333Zm-3.333,1.875h3.333v3.624H78.439Zm3.333-27.5V9.316H78.439V5.692ZM78.439,42.31V38.686h3.333V42.31Z" transform="translate(-43.871)" fill="#808f85" fill-rule="evenodd"/>
    </g>
  </g>
</svg>
