<svg xmlns="http://www.w3.org/2000/svg" width="82" height="63.016" viewBox="0 0 82 63.016">
  <g id="组_168" data-name="组 168" transform="translate(-3.249)">
    <g id="computer" transform="translate(26.182 0)">
      <path id="路径_31" data-name="路径 31" d="M306.851,346a.851.851,0,1,0,.851.851A.852.852,0,0,0,306.851,346Zm0,0" transform="translate(-279.949 -316.544)" fill="#808f85"/>
      <path id="路径_32" data-name="路径 32" d="M39.331,0H4.257A4.261,4.261,0,0,0,0,4.257V30.307a4.261,4.261,0,0,0,4.257,4.257H17.537V38.48h-.851a4.258,4.258,0,0,0-4.257,4.257.851.851,0,0,0,.851.851H30.307a.851.851,0,0,0,.851-.851A4.261,4.261,0,0,0,26.9,38.48h-.851V34.564H39.331a4.261,4.261,0,0,0,4.257-4.257V4.257A4.261,4.261,0,0,0,39.331,0ZM4.257,1.7H39.331a2.557,2.557,0,0,1,2.554,2.554V26.051H37.969V6.47a.851.851,0,0,0-.851-.851H30.307a.851.851,0,0,0-.851.851v19.58H25.195c-.009-.881-.032-1.749-.069-2.591a54.757,54.757,0,0,0-.665-6.811A4.257,4.257,0,0,0,25.623,11.1L22.673,5.986a.851.851,0,0,0-1.475,0L18.246,11.1a4.256,4.256,0,0,0,.937,5.372,54.041,54.041,0,0,0-.718,6.99c-.038.851-.063,1.72-.072,2.592H14.132V13.281a.847.847,0,0,0-.084-.367s0-.009-.006-.013L10.637,6.089a.852.852,0,0,0-1.523,0L5.709,12.9l-.005.013a.846.846,0,0,0-.084.367v12.77H1.7V4.257A2.557,2.557,0,0,1,4.257,1.7Zm26.9,24.348V7.321h5.108v1.7h-.851a.851.851,0,1,0,0,1.7h.851v2.554h-.851a.851.851,0,1,0,0,1.7h.851v2.554h-.851a.851.851,0,1,0,0,1.7h.851v3.405h-.851a.851.851,0,1,0,0,1.7h.851v1.7Zm-9.223-8.572a4.263,4.263,0,0,0,.919-.1c.158,1.013.39,2.8.527,5.269H20.212c.144-2.463.387-4.283.555-5.329a4.262,4.262,0,0,0,1.168.163Zm0-1.7a2.557,2.557,0,0,1-2.214-3.828l2.214-3.834,2.213,3.833a2.555,2.555,0,0,1-2.213,3.829Zm-1.8,8.572h3.322c.018.559.03,1.128.036,1.7H20.1C20.1,25.48,20.115,24.911,20.134,24.348Zm-9.407,1.7V14.132h1.7V26.051Zm-3.405,0V14.132h1.7V26.051Zm.526-13.621L9.875,8.374,11.9,12.429ZM29.31,41.885H14.277a2.559,2.559,0,0,1,2.409-1.7H26.9a2.558,2.558,0,0,1,2.408,1.7ZM24.348,38.48H19.24V34.564h5.108Zm14.983-5.619H4.257A2.557,2.557,0,0,1,1.7,30.307V27.753H41.885v2.554A2.557,2.557,0,0,1,39.331,32.861Zm0,0" transform="translate(0 0)" fill="#808f85"/>
      <path id="路径_33" data-name="路径 33" d="M211.959,346h-5.108a.851.851,0,0,0,0,1.7h5.108a.851.851,0,1,0,0-1.7Zm0,0" transform="translate(-188.463 -316.544)" fill="#808f85"/>
    </g>
    <text id="Graphic_Design" data-name="Graphic Design" transform="translate(44.249 60.016)" fill="#808f85" font-size="13" font-family="GillSansMT, Gill Sans MT"><tspan x="-40.676" y="0">Graphic Design</tspan></text>
  </g>
</svg>
