<svg xmlns="http://www.w3.org/2000/svg" width="62" height="71.811" viewBox="0 0 62 71.811">
  <g id="组_166" data-name="组 166" transform="translate(-2.095)">
    <g id="wacom" transform="translate(9.368 0)">
      <g id="组_49" data-name="组 49" transform="translate(26.345 10.875)">
        <g id="组_48" data-name="组 48">
          <path id="路径_37" data-name="路径 37" d="M282.6,116.275a.937.937,0,1,0,.275.663A.945.945,0,0,0,282.6,116.275Z" transform="translate(-281 -116)" fill="#808f85"/>
        </g>
      </g>
      <g id="组_51" data-name="组 51" transform="translate(0 10.875)">
        <g id="组_50" data-name="组 50">
          <path id="路径_38" data-name="路径 38" d="M45.189,116h-.75a.938.938,0,1,0,0,1.875h.75a.939.939,0,0,1,.938.938v31.5a.939.939,0,0,1-.938.938H2.813a.939.939,0,0,1-.938-.938v-31.5a.939.939,0,0,1,.938-.938H23.3a.938.938,0,1,0,0-1.875H2.813A2.816,2.816,0,0,0,0,118.813v31.5a2.816,2.816,0,0,0,2.813,2.813H45.189A2.816,2.816,0,0,0,48,150.314v-31.5A2.816,2.816,0,0,0,45.189,116Z" transform="translate(0 -116)" fill="#808f85"/>
        </g>
      </g>
      <g id="组_53" data-name="组 53" transform="translate(37.876 26.251)">
        <g id="组_52" data-name="组 52">
          <path id="路径_39" data-name="路径 39" d="M407.188,280a3.188,3.188,0,1,0,3.188,3.188A3.191,3.191,0,0,0,407.188,280Zm0,4.5a1.313,1.313,0,1,1,1.313-1.313A1.314,1.314,0,0,1,407.188,284.5Z" transform="translate(-404 -280)" fill="#808f85"/>
        </g>
      </g>
      <g id="组_55" data-name="组 55" transform="translate(37.876 15.376)">
        <g id="组_54" data-name="组 54">
          <path id="路径_40" data-name="路径 40" d="M409.438,164h-4.5a.938.938,0,0,0-.938.938v7.125a.938.938,0,0,0,.938.938h4.5a.938.938,0,0,0,.938-.938v-7.125A.938.938,0,0,0,409.438,164Zm-.937,7.125h-2.625v-5.25H408.5Z" transform="translate(-404 -164)" fill="#808f85"/>
        </g>
      </g>
      <g id="组_57" data-name="组 57" transform="translate(37.876 34.501)">
        <g id="组_56" data-name="组 56">
          <path id="路径_41" data-name="路径 41" d="M409.438,368h-4.5a.938.938,0,0,0-.938.938v7.125a.938.938,0,0,0,.938.938h4.5a.938.938,0,0,0,.938-.938v-7.125A.938.938,0,0,0,409.438,368Zm-.937,7.125h-2.625v-5.25H408.5Z" transform="translate(-404 -368)" fill="#808f85"/>
        </g>
      </g>
      <g id="组_59" data-name="组 59" transform="translate(4.5)">
        <g id="组_58" data-name="组 58">
          <path id="路径_42" data-name="路径 42" d="M91.162,3.285,88.152.275a.938.938,0,0,0-1.326,0l-3.68,3.68h0L70.937,16.164h0l-2.8,2.8a3.071,3.071,0,0,0-.559,3.569L66.51,23.6a19.3,19.3,0,0,0-6.256-1.034,12.256,12.256,0,0,0-10.379,5.747V18h16.5a.938.938,0,0,0,0-1.875H48.938a.938.938,0,0,0-.938.938V41.814a.938.938,0,0,0,.938.938H78.564a.938.938,0,0,0,.938-.938V20.938a.938.938,0,0,0-1.875,0V33.5A19.38,19.38,0,0,0,68.4,24.362l.5-.5a3.069,3.069,0,0,0,3.57-.56l2.8-2.8h0L87.481,8.292h0l3.68-3.68A.938.938,0,0,0,91.162,3.285ZM49.875,40.876v-.935c.142.167.29.331.447.488s.32.3.488.447Zm27.725,0H59.953a5.236,5.236,0,0,0,1.238-3.385,3.612,3.612,0,0,0-3.608-3.608,2.592,2.592,0,0,0-2.589,2.59.938.938,0,0,0,1.875,0,.715.715,0,0,1,.714-.714,1.735,1.735,0,0,1,1.733,1.733,3.389,3.389,0,0,1-3.385,3.385,6.063,6.063,0,0,1-6.056-6.056A10.39,10.39,0,0,1,60.254,24.442,17.394,17.394,0,0,1,77.6,40.876Zm-6.458-18.9a1.191,1.191,0,0,1-1.685-1.685L71.6,18.153l1.685,1.685Zm3.468-3.468-1.685-1.685L83.809,5.944l1.685,1.685ZM86.819,6.3,85.134,4.618l2.355-2.354,1.685,1.684Z" transform="translate(-48)" fill="#808f85"/>
        </g>
      </g>
    </g>
    <text id="Illustration" transform="translate(33.095 68.811)" fill="#808f85" font-size="14" font-family="GillSansMT, Gill Sans MT"><tspan x="-30.331" y="0">Illustration</tspan></text>
  </g>
</svg>
