<svg xmlns="http://www.w3.org/2000/svg" width="227.912" height="130.829" viewBox="0 0 227.912 130.829">
  <g id="Layer_7" data-name="Layer 7" transform="translate(0.004 -0.006)">
    <g id="Group_72" data-name="Group 72" transform="translate(216.045 108.249)">
      <path id="Path_88" data-name="Path 88" d="M504.149,274.171a.858.858,0,0,1-.648-1.421c1.541-1.76,2.477-3.073,2.485-3.087a.859.859,0,1,1,1.447.925c-.014.023-.031.045-.047.067-.039.056-1,1.4-2.576,3.224A.859.859,0,0,1,504.149,274.171Z" transform="translate(-503.291 -261.925)"/>
      <g id="Group_70" data-name="Group 70" transform="translate(0.235 0)">
        <path id="Path_89" data-name="Path 89" d="M507.685,260.949s1.288-.5,1.537-3.434a3.8,3.8,0,0,0-2.146-3.825,4.637,4.637,0,0,0-1.738,2.924A3.933,3.933,0,0,0,507.685,260.949Z" transform="translate(-504.675 -253.034)"/>
        <path id="Path_90" data-name="Path 90" d="M506.849,260.721a.713.713,0,0,1-.215-.034,4.579,4.579,0,0,1-2.756-5.024,5.286,5.286,0,0,1,2-3.374.639.639,0,0,1,.635-.073,4.448,4.448,0,0,1,2.52,4.477c-.3,3.245-1.777,3.915-1.945,3.984a.634.634,0,0,1-.236.044Zm-.514-7.13a3.833,3.833,0,0,0-1.176,2.215,3.294,3.294,0,0,0,1.618,3.533,4.322,4.322,0,0,0,.966-2.759,3.121,3.121,0,0,0-1.408-3.006Z" transform="translate(-503.839 -252.162)"/>
      </g>
      <g id="Group_71" data-name="Group 71" transform="translate(3.305 6.243)">
        <path id="Path_91" data-name="Path 91" d="M512.47,270.538s.5,1.288,3.434,1.537a3.816,3.816,0,0,0,3.83-2.146,4.657,4.657,0,0,0-2.928-1.717A3.907,3.907,0,0,0,512.47,270.538Z" transform="translate(-511.834 -267.544)"/>
        <path id="Path_92" data-name="Path 92" d="M515.463,271.9a4.135,4.135,0,0,1-.453-.021c-3.25-.292-3.919-1.771-3.984-1.945a.641.641,0,0,1,0-.429,4.575,4.575,0,0,1,5.024-2.756,5.28,5.28,0,0,1,3.374,2,.648.648,0,0,1,.069.635A4.43,4.43,0,0,1,515.463,271.9Zm-3.1-2.265a4.348,4.348,0,0,0,2.759.966,3.116,3.116,0,0,0,3.006-1.412,3.822,3.822,0,0,0-2.215-1.176,3.327,3.327,0,0,0-3.529,1.623Z" transform="translate(-510.989 -266.707)"/>
      </g>
    </g>
    <path id="Path_181" data-name="Path 181" d="M53.811,232.025l-3.176,14.69a59.966,59.966,0,0,1-1.91,7.319,11.351,11.351,0,0,1-2.189,3.589,9.1,9.1,0,0,1-5.3,2.876,7.527,7.527,0,0,1-5.881-1.172,7.665,7.665,0,0,1-3.082-5.189,11.117,11.117,0,0,1,1.953-8.491,13.458,13.458,0,0,1,3.962-3.709,13.943,13.943,0,0,1,5.112-2.03,3.434,3.434,0,0,1,2.146.215,1.8,1.8,0,0,1,1.043,1.352,1.889,1.889,0,0,1-.562,1.739,4.291,4.291,0,0,1-1.794.79,12.392,12.392,0,0,0-4.907,2.361,7.7,7.7,0,0,0-2.146,3.006,6.436,6.436,0,0,0-.371,3.494,4.155,4.155,0,0,0,1.447,2.73,3.349,3.349,0,0,0,2.756.6A4.413,4.413,0,0,0,44,253.929a22.906,22.906,0,0,0,2.146-6.439l3.176-14.69-3.138.545c-1.483.257-2.31-.138-2.494-1.189a2.009,2.009,0,0,1,.5-1.8,3.583,3.583,0,0,1,2.082-.983l10.569-1.842.429-.073,1.172.06a1.4,1.4,0,0,1,.906,1.2,2.009,2.009,0,0,1-.5,1.8,3.577,3.577,0,0,1-2.082.983Z" transform="translate(-18.322 -129.813)" fill="#040000"/>
    <path id="Path_182" data-name="Path 182" d="M99,235.723a6.322,6.322,0,0,1,2.666-1.314,3.789,3.789,0,0,1,2.67.507,2.829,2.829,0,0,1,1.288,2.069,4.664,4.664,0,0,1-.142,1.816l-1.1,4.477,1.858-.266q2.035-.283,2.237,1.153a1.828,1.828,0,0,1-.5,1.635,3.281,3.281,0,0,1-1.936.833l-3.25.453a2.666,2.666,0,0,1-1.824-.348,1.841,1.841,0,0,1-.906-1.348,4.159,4.159,0,0,1,.168-1.541l.974-3.863a3.154,3.154,0,0,0,.129-1.091c-.086-.614-.541-.859-1.357-.747q-1.647.232-2.391,3.2l-1.189,4.7q-.558,2.233-2.241,2.471a1.653,1.653,0,0,1-1.189-.262,1.34,1.34,0,0,1-.614-.953,3.037,3.037,0,0,1,.094-1.1l.116-.459,4.61-18.334q.605-2.363,2.211-2.576a1.633,1.633,0,0,1,1.2.283,1.446,1.446,0,0,1,.627,1.009,4.612,4.612,0,0,1-.206,1.6Z" transform="translate(-52.7 -128.305)" fill="#040000"/>
    <path id="Path_183" data-name="Path 183" d="M134.3,251.561q.142,1.215,1.97,1.009l4.821-.545c1.359-.154,2.1.247,2.207,1.215a1.853,1.853,0,0,1-.545,1.623,3.282,3.282,0,0,1-1.957.777l-4.593.524a5.5,5.5,0,0,1-4.044-.824,4.953,4.953,0,0,1-1.76-3.55,7.7,7.7,0,0,1,1.511-5.654,6.7,6.7,0,0,1,4.782-2.842,5.09,5.09,0,0,1,3.542.726,3.709,3.709,0,0,1,1.618,2.781,3.524,3.524,0,0,1-1.417,3.434,5.826,5.826,0,0,1-2.883.936Zm.429-3.039,1.782-.2q1.739-.2,1.6-.953c-.094-.571-.5-.815-1.215-.734a2.615,2.615,0,0,0-2.151,1.889Z" transform="translate(-74.386 -138.814)" fill="#040000"/>
    <path id="Path_184" data-name="Path 184" d="M195.281,226.137l1.614,1.8.927.992a10.245,10.245,0,0,1,2.915,6.4,8.641,8.641,0,0,1-1.859,6.01,10.046,10.046,0,0,1-7.727,3.958,8.6,8.6,0,0,1-6.366-1.953,7.967,7.967,0,0,1-2.813-5.833,9.165,9.165,0,0,1,3.327-7.68,6.065,6.065,0,0,1,3.6-1.807,2.062,2.062,0,0,1,1.464.429,1.692,1.692,0,0,1,.635,1.288,2.229,2.229,0,0,1-1.159,1.936l-1.254.859a5.694,5.694,0,0,0-1.756,2.069,4.819,4.819,0,0,0-.6,2.524,4.291,4.291,0,0,0,1.507,3.121,4.622,4.622,0,0,0,3.413,1.06,5.3,5.3,0,0,0,3.778-1.91,5.457,5.457,0,0,0,1.4-4.036,5.2,5.2,0,0,0-.829-2.576,25.2,25.2,0,0,0-3.108-3.459,15.147,15.147,0,0,1-2.4-2.859l-4.4.271q-2.254.137-2.344-1.412a2.069,2.069,0,0,1,.682-1.786,3.593,3.593,0,0,1,2.185-.747l2.79-.172a7.605,7.605,0,0,1,2.618-5.516,9.75,9.75,0,0,1,6.164-2.5,6.589,6.589,0,0,1,4.58,1.24,4.987,4.987,0,0,1,1.979,3.821,5.477,5.477,0,0,1-2.455,5.091,9.694,9.694,0,0,1-4.907,1.288Zm-2.193-3.773,3.912-.241q3.305-.206,3.19-2.125a1.39,1.39,0,0,0-.751-1.163,3.144,3.144,0,0,0-1.829-.348,5.2,5.2,0,0,0-3.134,1.288,3.407,3.407,0,0,0-1.408,2.588Z" transform="translate(-103.849 -122.457)" fill="#040000"/>
    <path id="Path_185" data-name="Path 185" d="M239.771,224.537a6.37,6.37,0,0,1,2.812-.974,3.774,3.774,0,0,1,2.576.829,2.837,2.837,0,0,1,1.043,2.215,4.724,4.724,0,0,1-.365,1.786l-1.644,4.294,1.88-.034c1.369,0,2.065.451,2.078,1.421a1.824,1.824,0,0,1-.7,1.562,3.266,3.266,0,0,1-2.022.588l-3.284.056a2.668,2.668,0,0,1-1.764-.567,1.868,1.868,0,0,1-.734-1.451,4.219,4.219,0,0,1,.378-1.5l1.441-3.713a3.247,3.247,0,0,0,.257-1.071c0-.618-.429-.923-1.254-.91q-1.666.034-2.765,2.889l-1.768,4.52q-.829,2.146-2.528,2.183a1.666,1.666,0,0,1-1.151-.429,1.314,1.314,0,0,1-.489-1.022,2.979,2.979,0,0,1,.227-1.077l.172-.429,6.813-17.635q.889-2.265,2.507-2.292a1.615,1.615,0,0,1,1.159.429,1.412,1.412,0,0,1,.5,1.077,4.5,4.5,0,0,1-.395,1.558Z" transform="translate(-132.279 -122.003)" fill="#040000"/>
    <path id="Path_186" data-name="Path 186" d="M275.187,244.735q0,1.224,1.824,1.254l4.851.077q2.056.03,2.03,1.485a1.832,1.832,0,0,1-.751,1.541,3.263,3.263,0,0,1-2.039.519l-4.619-.073a5.505,5.505,0,0,1-3.906-1.335,4.864,4.864,0,0,1-1.288-3.743,7.7,7.7,0,0,1,2.219-5.392,6.692,6.692,0,0,1,5.1-2.2,5.07,5.07,0,0,1,3.434,1.172A3.706,3.706,0,0,1,283.3,241a3.537,3.537,0,0,1-1.85,3.237,5.8,5.8,0,0,1-2.979.558Zm.833-2.962,1.794.03c1.163,0,1.717-.227,1.717-.738-.021-.579-.391-.859-1.112-.884a2.63,2.63,0,0,0-2.4,1.592Z" transform="translate(-154.835 -135.182)" fill="#040000"/>
    <path id="Path_187" data-name="Path 187" d="M298.218,249.3l-4.7,10.3q-.974,2.146-2.67,2.059a1.611,1.611,0,0,1-1.1-.481,1.37,1.37,0,0,1-.429-1.056,4.773,4.773,0,0,1,.472-1.516l8.683-19.045a2.146,2.146,0,0,1,2.146-1.378,1.841,1.841,0,0,1,1.593,1.047,3.687,3.687,0,0,1,2.837-1.091,3.4,3.4,0,0,1,2.713,1.412,5.271,5.271,0,0,1,.906,3.464,8.927,8.927,0,0,1-2.773,6.439,4.548,4.548,0,0,1-1.717,1.073,7.492,7.492,0,0,1-2.425.206,7.648,7.648,0,0,1-2.284-.326,3.257,3.257,0,0,1-1.254-1.111Zm1.483-3.271a2.462,2.462,0,0,0,.734.962,2.4,2.4,0,0,0,1.159.262,2.145,2.145,0,0,0,1.846-.786,5.889,5.889,0,0,0,1.472-3.533q.071-1.584-1.434-1.647a2.487,2.487,0,0,0-2.443,1.812,3.712,3.712,0,0,0-.146.352Z" transform="translate(-165.125 -135.907)" fill="#040000"/>
    <path id="Path_188" data-name="Path 188" d="M343.638,228.138a6.322,6.322,0,0,1,2.88-.726,3.8,3.8,0,0,1,2.5,1.055,2.826,2.826,0,0,1,.859,2.3,4.786,4.786,0,0,1-.515,1.747l-2.018,4.143,1.872.133q2.056.15,1.949,1.6a1.842,1.842,0,0,1-.837,1.5,3.291,3.291,0,0,1-2.065.429l-3.275-.236a2.658,2.658,0,0,1-1.717-.721,1.833,1.833,0,0,1-.6-1.507,4.053,4.053,0,0,1,.481-1.472l1.764-3.571a3.338,3.338,0,0,0,.352-1.039q.064-.927-1.172-1.017-1.661-.12-3.006,2.632l-2.146,4.349q-1.017,2.067-2.709,1.949a1.67,1.67,0,0,1-1.112-.507,1.331,1.331,0,0,1-.395-1.06,3.071,3.071,0,0,1,.318-1.056l.215-.429,8.336-16.967q1.086-2.177,2.7-2.059a1.625,1.625,0,0,1,1.116.528,1.442,1.442,0,0,1,.4,1.116,4.5,4.5,0,0,1-.532,1.52Z" transform="translate(-191.039 -124.183)" fill="#040000"/>
    <path id="Path_189" data-name="Path 189" d="M378.724,250.876q-.12,1.224,1.717,1.4l4.825.485c1.365.133,2,.687,1.9,1.647a1.837,1.837,0,0,1-.859,1.472,3.275,3.275,0,0,1-2.078.348l-4.6-.472a5.5,5.5,0,0,1-3.782-1.657,4.917,4.917,0,0,1-.97-3.838,7.728,7.728,0,0,1,2.662-5.2,6.7,6.7,0,0,1,5.271-1.768,5.076,5.076,0,0,1,3.31,1.455,3.7,3.7,0,0,1,1,3.061,3.533,3.533,0,0,1-2.112,3.069,5.8,5.8,0,0,1-3.006.3ZM379.8,248l1.79.18c1.159.116,1.747-.086,1.764-.6.026-.577-.318-.9-1.035-.974a2.613,2.613,0,0,0-2.52,1.378Z" transform="translate(-213.934 -138.833)" fill="#040000"/>
    <path id="Path_190" data-name="Path 190" d="M410.321,247.145l-.721,1.288q-.97,1.717-2.172,1.565a1.762,1.762,0,0,1-1.159-.588,1.408,1.408,0,0,1-.348-1.146,4.016,4.016,0,0,1,.515-1.219l2.4-4.293c.579-1.039,1.288-1.5,2.086-1.4a1.378,1.378,0,0,1,1.331,1.322l.069.519a.7.7,0,0,0,.227.519,2.82,2.82,0,0,0,.944.219l3.789.476c1.417.176,2.059.764,1.936,1.756q-.257,2.059-2.949,1.717l-.2.138q-2.883,2.146-3.052,3.486c-.116.9.326,1.4,1.318,1.532l2.044.253q2.056.257,1.876,1.689a1.853,1.853,0,0,1-.914,1.464,3.309,3.309,0,0,1-2.086.3l-3.176-.4a3.47,3.47,0,0,1-2.507-1.451,4.159,4.159,0,0,1-.666-3.027,4.818,4.818,0,0,1,.829-2.146,13.75,13.75,0,0,1,2.275-2.378Z" transform="translate(-231.666 -137.734)" fill="#040000"/>
    <path id="Path_191" data-name="Path 191" d="M447.81,250.157l1.842.283q2.048.318,1.824,1.751a1.82,1.82,0,0,1-.962,1.421,3.269,3.269,0,0,1-2.086.241l-2.177-.335a1.97,1.97,0,0,1-1.679-1.318,3.152,3.152,0,0,1-2.374.7l-2.048-.318a3.648,3.648,0,0,1-2.674-1.67,4.821,4.821,0,0,1-.571-3.434,8.517,8.517,0,0,1,2.988-5.263,6.307,6.307,0,0,1,5.151-1.747,3.863,3.863,0,0,1,2.9,1.885l4.959-8.273q1.288-2.116,2.915-1.863a1.692,1.692,0,0,1,1.107.622,1.438,1.438,0,0,1,.318,1.163,3.3,3.3,0,0,1-.429,1.095l-.262.4Zm-5.92-.829.614.094a1.441,1.441,0,0,0,1.606-.661l1.67-2.8a2.409,2.409,0,0,0,.356-.8,1.039,1.039,0,0,0-.283-.889,1.606,1.606,0,0,0-.974-.5,3.1,3.1,0,0,0-2.576,1.043,4.9,4.9,0,0,0-1.558,2.868A1.264,1.264,0,0,0,441.89,249.329Z" transform="translate(-249.3 -132.512)" fill="#040000"/>
    <path id="Path_192" data-name="Path 192" d="M478.02,259.181l-.429.682a2.253,2.253,0,0,1-2.3,1.228,1.774,1.774,0,0,1-1.1-.674,1.383,1.383,0,0,1-.329-1.146,3.659,3.659,0,0,1,.738-1.408l2.924-3.949a2.331,2.331,0,0,1,2.241-1.2,1.549,1.549,0,0,1,1,.605,1.288,1.288,0,0,1,.271,1.052,4.079,4.079,0,0,1-.21.61,3.718,3.718,0,0,0-.176.614,3.64,3.64,0,0,0,.378,2.211l.687,1.434a6.563,6.563,0,0,1,.712,4.014,4.439,4.439,0,0,1-2.121,3.108,5.5,5.5,0,0,1-4.005.674l-3.361-.609c-1.357-.245-1.953-.859-1.782-1.782a1.838,1.838,0,0,1,1-1.4,3.245,3.245,0,0,1,2.095-.193l1.863.339q2.233.4,2.528-1.219a3.182,3.182,0,0,0-.167-1.472Z" transform="translate(-268.895 -144.211)" fill="#040000"/>
    <g id="Group_72-2" data-name="Group 72-2" transform="translate(105.165 0.006)">
      <path id="Path_88-2" data-name="Path 88-2" d="M266.044,28.222a1.344,1.344,0,0,1-2.177-1.121c.176-3.649.052-6.169.047-6.19a1.343,1.343,0,0,1,2.68-.2c0,.018,0,.037,0,.054,0,.107.133,2.677-.047,6.466A1.361,1.361,0,0,1,266.044,28.222Z" transform="translate(-255.764 -11.114)"/>
      <g id="Group_70-2" data-name="Group 70-2" transform="translate(0)">
        <path id="Path_89-2" data-name="Path 89-2" d="M255.363,10.821s1.073-1.842-1.455-5.709a5.954,5.954,0,0,0-6.327-2.623,7.255,7.255,0,0,0,.7,5.289C251.1,12.293,255.363,10.821,255.363,10.821Z" transform="translate(-246.345 -1.341)"/>
        <path id="Path_90-2" data-name="Path 90-2" d="M254.616,10.276a1.09,1.09,0,0,1-.292.165,7.159,7.159,0,0,1-8.255-3.481,8.237,8.237,0,0,1-.829-6.074,1,1,0,0,1,.712-.7,6.941,6.941,0,0,1,7.427,3.043c2.79,4.263,1.623,6.525,1.483,6.765A.912.912,0,0,1,254.616,10.276Zm-7.551-8.237a6.01,6.01,0,0,0,.708,3.863c1.88,3.006,4.379,2.945,5.413,2.759.077-.618,0-2.035-1.494-4.324a4.877,4.877,0,0,0-4.623-2.292Z" transform="translate(-244.993 -0.006)"/>
      </g>
      <g id="Group_71-2" data-name="Group 71-2" transform="translate(9.899 1.433)">
        <path id="Path_91-2" data-name="Path 91-2" d="M270.618,13.669s1.846,1.077,5.709-1.455A5.941,5.941,0,0,0,278.95,5.89a7.24,7.24,0,0,0-5.267.712C269.15,9.432,270.618,13.669,270.618,13.669Z" transform="translate(-269.388 -4.678)"/>
        <path id="Path_92-2" data-name="Path 92-2" d="M276.127,11.31c-.18.142-.374.283-.579.429-4.263,2.79-6.525,1.623-6.77,1.483a1,1,0,0,1-.429-.541,7.143,7.143,0,0,1,3.477-8.251,8.24,8.24,0,0,1,6.079-.841,1.021,1.021,0,0,1,.7.712,6.95,6.95,0,0,1-2.481,7.009Zm-6.01.227c.622.073,2.039,0,4.318-1.5a4.856,4.856,0,0,0,2.292-4.623,5.943,5.943,0,0,0-3.863.708,5.2,5.2,0,0,0-2.756,5.409Z" transform="translate(-268.053 -3.345)"/>
      </g>
    </g>
    <g id="Group_75" data-name="Group 75" transform="translate(-0.004 108.254)">
      <path id="Path_93" data-name="Path 93" d="M21.113,274.206a.858.858,0,0,1-.648-.3,38.566,38.566,0,0,1-2.576-3.224.859.859,0,1,1,1.4-1s.947,1.331,2.481,3.086a.859.859,0,0,1-.074,1.212l0,0a.879.879,0,0,1-.567.21Z" transform="translate(-10.117 -261.965)"/>
      <g id="Group_73" data-name="Group 73" transform="translate(6.405 0)">
        <path id="Path_94" data-name="Path 94" d="M17.975,260.949s-1.288-.5-1.537-3.434a3.8,3.8,0,0,1,2.146-3.825,4.62,4.62,0,0,1,1.717,2.924A3.9,3.9,0,0,1,17.975,260.949Z" transform="translate(-15.773 -253.039)"/>
        <path id="Path_95" data-name="Path 95" d="M17.119,260.728a.634.634,0,0,1-.236-.041c-.168-.064-1.647-.738-1.945-3.984a4.452,4.452,0,0,1,2.52-4.477.64.64,0,0,1,.631.073,5.276,5.276,0,0,1,2.013,3.374,4.582,4.582,0,0,1-2.759,5.024.691.691,0,0,1-.224.03Zm.515-7.13a3.116,3.116,0,0,0-1.412,3.006,4.361,4.361,0,0,0,.966,2.756,3.311,3.311,0,0,0,1.618-3.529,3.789,3.789,0,0,0-1.172-2.234Z" transform="translate(-14.915 -252.175)"/>
      </g>
      <g id="Group_74" data-name="Group 74" transform="translate(0 6.221)">
        <path id="Path_96" data-name="Path 96" d="M8.772,270.537s-.5,1.288-3.434,1.537a3.812,3.812,0,0,1-3.83-2.146,4.643,4.643,0,0,1,2.928-1.717A3.9,3.9,0,0,1,8.772,270.537Z" transform="translate(-0.859 -267.526)"/>
        <path id="Path_97" data-name="Path 97" d="M4.071,271.875a4.443,4.443,0,0,1-4.022-2.537.639.639,0,0,1,.072-.635,5.266,5.266,0,0,1,3.377-2,4.575,4.575,0,0,1,5.024,2.756.641.641,0,0,1,0,.429c-.064.168-.738,1.653-3.984,1.945a2.531,2.531,0,0,1-.467.039Zm-2.648-2.713a3.117,3.117,0,0,0,3.006,1.408,4.388,4.388,0,0,0,2.759-.962,3.321,3.321,0,0,0-3.533-1.623,3.775,3.775,0,0,0-2.232,1.176Z" transform="translate(0.004 -266.667)"/>
      </g>
    </g>
    <g id="Group_72-3" data-name="Group 72-3" transform="translate(167.133 92.362)">
      <path id="Path_88-3" data-name="Path 88-3" d="M396.605,234.865a.577.577,0,0,1-.707-.4v-.005a.6.6,0,0,1,.039-.4c.691-1.408,1.071-2.425,1.073-2.434a.577.577,0,0,1,1.071.412,24.881,24.881,0,0,1-1.121,2.541.577.577,0,0,1-.355.292Z" transform="translate(-393.076 -224.37)"/>
      <g id="Group_70-3" data-name="Group 70-3" transform="translate(0 0)">
        <path id="Path_89-3" data-name="Path 89-3" d="M394.223,223.564s1.1-.811.592-3.722a3.808,3.808,0,0,0-3.069-3.142,4.644,4.644,0,0,0-.919,3.275A3.942,3.942,0,0,0,394.223,223.564Z" transform="translate(-390.178 -216.036)"/>
        <path id="Path_90-3" data-name="Path 90-3" d="M393.56,223.3a.6.6,0,0,1-.215,0,4.567,4.567,0,0,1-3.966-4.134,5.28,5.28,0,0,1,1.052-3.778.644.644,0,0,1,.6-.232,4.448,4.448,0,0,1,3.593,3.67c.558,3.212-.7,4.242-.859,4.349A.591.591,0,0,1,393.56,223.3Zm-2.347-6.754a3.8,3.8,0,0,0-.562,2.443A3.339,3.339,0,0,0,393.132,222a4.315,4.315,0,0,0,.219-2.919,3.125,3.125,0,0,0-2.146-2.515Z" transform="translate(-389.348 -215.153)"/>
      </g>
      <g id="Group_71-3" data-name="Group 71-3" transform="translate(4.431 4.56)">
        <path id="Path_91-3" data-name="Path 91-3" d="M401.13,230.716s.811,1.1,3.722.588a3.8,3.8,0,0,0,3.142-3.052,4.64,4.64,0,0,0-3.275-.914A3.916,3.916,0,0,0,401.13,230.716Z" transform="translate(-400.503 -226.654)"/>
        <path id="Path_92-3" data-name="Path 92-3" d="M404.576,230.963q-.212.06-.429.1c-3.212.562-4.246-.7-4.353-.859a.664.664,0,0,1-.124-.429,4.569,4.569,0,0,1,4.134-3.966,5.259,5.259,0,0,1,3.778,1.052.644.644,0,0,1,.236.592,4.439,4.439,0,0,1-3.242,3.511ZM401,229.581a4.349,4.349,0,0,0,2.915.215,3.117,3.117,0,0,0,2.515-2.146,3.862,3.862,0,0,0-2.443-.562,3.376,3.376,0,0,0-3.006,2.485Z" transform="translate(-399.67 -225.776)"/>
      </g>
    </g>
    <g id="Group_72-4" data-name="Group 72-4" transform="translate(51.885 92.337)">
      <path id="Path_88-4" data-name="Path 88-4" d="M139.555,234.424c-.717-1.46-1.1-2.494-1.116-2.537a.577.577,0,0,1,1.077-.4s.382,1.026,1.073,2.434a.577.577,0,1,1-1.035.507Z" transform="translate(-130.886 -224.257)"/>
      <g id="Group_70-4" data-name="Group 70-4" transform="translate(7.144 0)">
        <path id="Path_89-4" data-name="Path 89-4" d="M143.133,219.865a4.641,4.641,0,0,0-.914-3.275,3.808,3.808,0,0,0-3.057,3.142c-.507,2.91.592,3.722.592,3.722A3.911,3.911,0,0,0,143.133,219.865Z" transform="translate(-138.379 -215.948)"/>
        <path id="Path_90-4" data-name="Path 90-4" d="M138.509,223.12c-.146-.107-1.4-1.142-.859-4.353a4.438,4.438,0,0,1,3.593-3.665.631.631,0,0,1,.592.232,5.259,5.259,0,0,1,1.052,3.778,4.575,4.575,0,0,1-3.966,4.134.71.71,0,0,1-.215-.021A.662.662,0,0,1,138.509,223.12Zm2.576-6.649a3.117,3.117,0,0,0-2.146,2.52,4.25,4.25,0,0,0,.215,2.919,3.293,3.293,0,0,0,2.481-3.006,3.83,3.83,0,0,0-.558-2.447Z" transform="translate(-137.515 -215.095)"/>
      </g>
      <g id="Group_71-4" data-name="Group 71-4" transform="translate(0 4.555)">
        <path id="Path_91-4" data-name="Path 91-4" d="M125.645,227.228a4.644,4.644,0,0,0-3.275.919,3.807,3.807,0,0,0,3.142,3.05c2.91.507,3.722-.592,3.722-.592A3.91,3.91,0,0,0,125.645,227.228Z" transform="translate(-121.728 -226.562)"/>
        <path id="Path_92-4" data-name="Path 92-4" d="M120.881,227.387a.644.644,0,0,1,.232-.6,5.28,5.28,0,0,1,3.778-1.052,4.575,4.575,0,0,1,4.134,3.966.639.639,0,0,1-.124.429c-.107.146-1.142,1.4-4.353.859-.154-.03-.3-.06-.429-.1A4.443,4.443,0,0,1,120.881,227.387Zm6.8,2.108a3.333,3.333,0,0,0-3.006-2.481,3.83,3.83,0,0,0-2.447.558,3.113,3.113,0,0,0,2.52,2.146,4.232,4.232,0,0,0,2.915-.215Z" transform="translate(-120.874 -225.707)"/>
      </g>
    </g>
    <path id="Path_193" data-name="Path 193" d="M12.246,120.845a3.215,3.215,0,0,1-2.667-1.412c-4.952-7.3-5.86-13.2-3.24-21.042,1.456-4.348,6.708-8.016,10.144-10.022a21.122,21.122,0,0,1-.432-12.287c3.225-12.757,10.775-20.157,22.439-22a50.931,50.931,0,0,1,12.022-.736c.766-4.206,3.506-9.476,10.538-12.684,7.5-3.423,13.438-2.275,16.909-.873,2.735-4.708,9.066-12.948,19.885-12.948a33.4,33.4,0,0,1,19.683,5.986,24.847,24.847,0,0,1,19.711-5.082A29.533,29.533,0,0,1,156.022,39.8c3.428-1.45,9.494-2.765,17.192.75,7.016,3.2,9.758,8.479,10.529,12.687a50.967,50.967,0,0,1,12.03.733c11.655,1.835,19.2,9.236,22.435,22a21.1,21.1,0,0,1-.431,12.289c3.436,2.006,8.687,5.672,10.142,10.021,2.636,7.842,1.73,13.743-3.243,21.044a3.219,3.219,0,0,1-5.322-3.624c4.317-6.342,4.216-10.152,2.46-15.372-.84-2.512-6.247-6.121-9.637-7.772a3.22,3.22,0,0,1-1.246-4.72c.087-.135,2.6-4.087,1.034-10.285-2.577-10.172-8.2-15.8-17.2-17.219-8.617-1.357-11.967-.518-12.579-.325a2.947,2.947,0,0,1-3.352.013,3.284,3.284,0,0,1-1.34-3.394c.09-.644.708-6.717-6.96-10.218-8.232-3.758-13.434.037-13.652.2a3.194,3.194,0,0,1-4.833-1.083c-.044-.085-5.118-9.6-15.9-11.433A18.491,18.491,0,0,0,120,39.231a3.234,3.234,0,0,1-4.71.07c-.229-.231-6.073-6.02-17.45-6.02-10.443,0-15.469,11.981-15.519,12.1a3.225,3.225,0,0,1-4.989,1.307c-.185-.14-5.357-3.936-13.613-.168-7.692,3.51-7.055,9.564-6.956,10.242A3.255,3.255,0,0,1,55.43,60.15a2.951,2.951,0,0,1-3.361-.032c-.612-.193-3.96-1.034-12.575.326-9,1.422-14.631,7.052-17.2,17.214-1.565,6.2.947,10.152,1.055,10.317a3.194,3.194,0,0,1-1.268,4.69c-3.388,1.651-8.8,5.262-9.634,7.767-1.745,5.224-1.844,9.04,2.462,15.384a3.22,3.22,0,0,1-2.662,5.028Zm170.031-60.9" transform="translate(-2.802 -15.316)"/>
    <path id="Path_194" data-name="Path 194" d="M246.719,109.182a21.456,21.456,0,0,0-6.937-5.962,14.134,14.134,0,0,0-4.061-1.64,12.067,12.067,0,0,1-14.273,3.434,14.51,14.51,0,0,1-23.3,0,12.067,12.067,0,0,1-14.273-3.434,14.048,14.048,0,0,0-4.065,1.64,21.36,21.36,0,0,0-6.937,5.962,4.048,4.048,0,0,0,1.537,5.946,13.269,13.269,0,0,0,11.861-.112,32.377,32.377,0,0,0,2.983,13.827c6.07,12.711,16.664,15.08,21.209,15.08,4.846,0,14.8-2.443,20.8-15.08,1.528-3.22,2.2-8.671,2.035-13.835a13.307,13.307,0,0,0,11.882.12,4.057,4.057,0,0,0,1.532-5.946Zm-34.106,27.349-1.657,2.7a1.384,1.384,0,0,1-.3.329v3.323a.859.859,0,1,1-1.717,0v-3.353a1.486,1.486,0,0,1-.3-.329l-1.657-2.674a1.357,1.357,0,0,1,1.159-2.065h3.315a1.357,1.357,0,0,1,1.153,2.065Z" transform="translate(-98.254 -57.971)" fill="#040000"/>
  </g>
</svg>
