<svg xmlns="http://www.w3.org/2000/svg" width="72" height="63.993" viewBox="0 0 72 63.993">
  <g id="组_165" data-name="组 165" transform="translate(-3.97)">
    <g id="camera" transform="translate(16.474 0)">
      <g id="组_36" data-name="组 36" transform="translate(36.751 11.25)">
        <g id="组_35" data-name="组 35">
          <path id="路径_25" data-name="路径 25" d="M392.938,166a.938.938,0,1,0,.938.938A.938.938,0,0,0,392.938,166Z" transform="translate(-392 -166)" fill="#808f85"/>
        </g>
      </g>
      <g id="组_38" data-name="组 38" transform="translate(0 0)">
        <g id="组_37" data-name="组 37">
          <path id="路径_26" data-name="路径 26" d="M45.189,53.5h-10.3L31.92,47.555A2.8,2.8,0,0,0,29.4,46H18.6a2.8,2.8,0,0,0-2.516,1.555L13.109,53.5H11.25v-.938A2.816,2.816,0,0,0,8.438,49.75H6.563A2.816,2.816,0,0,0,3.75,52.563V53.5H2.813A2.816,2.816,0,0,0,0,56.313V82.564a2.816,2.816,0,0,0,2.813,2.813H45.189A2.816,2.816,0,0,0,48,82.564V56.313A2.816,2.816,0,0,0,45.189,53.5ZM17.758,48.394a.933.933,0,0,1,.839-.519H29.4a.933.933,0,0,1,.839.519L32.8,53.5H15.2ZM5.625,52.563a.939.939,0,0,1,.938-.938H8.438a.939.939,0,0,1,.938.938V53.5H5.625Zm-3.75,10.3H13.73A12.206,12.206,0,0,0,13.73,76H1.875ZM24,59.125A10.313,10.313,0,1,1,13.688,69.438,10.318,10.318,0,0,1,24,59.125ZM46.127,82.564a.939.939,0,0,1-.938.938H2.813a.939.939,0,0,1-.938-.938V77.876H15.209a12.18,12.18,0,0,0,17.583,0H46.127Zm0-6.563H34.271a12.19,12.19,0,0,0,0-13.125H46.127Zm0-15H32.792a12.18,12.18,0,0,0-17.583,0H1.875V56.313a.939.939,0,0,1,.938-.938H45.189a.939.939,0,0,1,.938.938Z" transform="translate(0 -46)" fill="#808f85"/>
        </g>
      </g>
      <g id="组_40" data-name="组 40" transform="translate(20.251 3.75)">
        <g id="组_39" data-name="组 39">
          <path id="路径_27" data-name="路径 27" d="M222.563,86h-5.625a.938.938,0,0,0,0,1.875h5.625a.938.938,0,1,0,0-1.875Z" transform="translate(-216 -86)" fill="#808f85"/>
        </g>
      </g>
      <g id="组_42" data-name="组 42" transform="translate(15.563 15)">
        <g id="组_41" data-name="组 41">
          <path id="路径_28" data-name="路径 28" d="M174.438,206a8.438,8.438,0,1,0,8.438,8.438A8.447,8.447,0,0,0,174.438,206Zm0,15A6.563,6.563,0,1,1,181,214.438,6.57,6.57,0,0,1,174.438,221Z" transform="translate(-166 -206)" fill="#808f85"/>
        </g>
      </g>
      <g id="组_44" data-name="组 44" transform="translate(19.313 18.751)">
        <g id="组_43" data-name="组 43">
          <path id="路径_29" data-name="路径 29" d="M210.688,246A4.693,4.693,0,0,0,206,250.688a.938.938,0,1,0,1.875,0,2.816,2.816,0,0,1,2.813-2.813.938.938,0,1,0,0-1.875Z" transform="translate(-206 -246)" fill="#808f85"/>
        </g>
      </g>
      <g id="组_46" data-name="组 46" transform="translate(40.501 11.25)">
        <g id="组_45" data-name="组 45">
          <path id="路径_30" data-name="路径 30" d="M434.813,166h-1.875a.938.938,0,0,0,0,1.875h1.875a.938.938,0,1,0,0-1.875Z" transform="translate(-432 -166)" fill="#808f85"/>
        </g>
      </g>
    </g>
    <text id="Photography" transform="translate(39.97 60.993)" fill="#808f85" font-size="14" font-family="GillSansMT, Gill Sans MT"><tspan x="-35.937" y="0">Photography</tspan></text>
  </g>
</svg>
