<svg xmlns="http://www.w3.org/2000/svg" width="56" height="63.865" viewBox="0 0 56 63.865">
  <g id="组_167" data-name="组 167" transform="translate(-1.725)">
    <g id="layers_1_" data-name="layers (1)" transform="translate(6.272 0)">
      <path id="路径_34" data-name="路径 34" d="M48,19.67a.937.937,0,0,0-.5-.916l-8.781-4.6,8.623-2.665A.938.938,0,0,0,47.5,9.759L30.038.606a.938.938,0,0,0-.712-.066L.66,9.4A.938.938,0,0,0,.5,11.127l6.029,3.161q1.428.748,2.91,1.346L.656,18.4A.937.937,0,0,0,.5,20.121l8.782,4.6L.66,27.389A.937.937,0,0,0,.5,29.115l17.461,9.153a.939.939,0,0,0,.712.065l10.691-3.3a.938.938,0,0,0-.554-1.792L18.49,36.428,3.385,28.51l8.253-2.551,6.324,3.315a.934.934,0,0,0,.712.065l13.175-4.072.009,0,4.319-1.335,8.439,4.424-8.629,2.666a.938.938,0,1,0,.553,1.792l10.8-3.338a.938.938,0,0,0,.159-1.726l-8.782-4.6L47.34,20.48A.938.938,0,0,0,48,19.67Zm-9.514-3.525-7.4,7.4-9.35,2.89L31.914,16.253l4.263-1.318Zm-24.252-.92a10.819,10.819,0,0,0,5.609-3.007,11.2,11.2,0,0,0,4.538,3.748,29.988,29.988,0,0,1-10.148-.741Zm4.2,2.6-6.285,6.285L8.226,22.053l5.126-5.126a32.22,32.22,0,0,0,5.08.9Zm2.51.142c.191,0,.382.007.573.007a31.932,31.932,0,0,0,6.655-.7L20.941,24.5a.94.94,0,0,0-.179.253l-2.54,2.54-4.335-2.272ZM3.385,10.521,29.51,2.447l15.106,7.918-8.624,2.665h0l-5.537,1.711q-1.029.319-2.07.561l-1.967-.576a9.374,9.374,0,0,1-5.624-4.522.937.937,0,0,0-1.561-.127A9,9,0,0,1,12.1,13.556H9.338q-.979-.43-1.937-.93ZM10.3,17.33,6.486,21.141,3.371,19.508Zm25.695,4.695h0l-1.063.329,5.3-5.3,4.393,2.3Zm0,0" transform="translate(0.001 -0.499)" fill="#808f85"/>
      <path id="路径_35" data-name="路径 35" d="M339.418,337.449a.936.936,0,1,0,.664.275A.945.945,0,0,0,339.418,337.449Zm0,0" transform="translate(-316.319 -305.859)" fill="#808f85"/>
    </g>
    <text id="UI_Design" data-name="UI Design" transform="translate(29.725 60.865)" fill="#808f85" font-size="14" font-family="GillSansMT, Gill Sans MT"><tspan x="-27.969" y="0">UI Design</tspan></text>
  </g>
</svg>
