<svg id="facebook" xmlns="http://www.w3.org/2000/svg" width="22.799" height="22.799" viewBox="0 0 22.799 22.799">
  <path id="路径_68" data-name="路径 68" d="M155.835,124.509h0a1.751,1.751,0,0,0-1.751-1.734h-1.605V120.34a1.231,1.231,0,0,1,1.231-1.231h.588a1.575,1.575,0,0,0,1.575-1.575h0a1.575,1.575,0,0,0-1.575-1.575H152.85a3.874,3.874,0,0,0-3.874,3.874v2.942h-1.141a1.751,1.751,0,0,0-1.751,1.751h0a1.751,1.751,0,0,0,1.751,1.751h1.141v6.67h3.5v-6.67h1.605A1.751,1.751,0,0,0,155.835,124.509Z" transform="translate(-139.579 -110.795)" fill="#91c499"/>
  <g id="组_98" data-name="组 98" transform="translate(0 0)">
    <path id="路径_69" data-name="路径 69" d="M138.6,119.719h-3.5a.647.647,0,0,1-.647-.647v-6.023h-.494a2.4,2.4,0,0,1,0-4.8h.494v-2.3a4.525,4.525,0,0,1,4.52-4.52h1.448a2.222,2.222,0,0,1,0,4.443h-.588a.585.585,0,0,0-.584.584v1.788h.959a2.406,2.406,0,0,1,2.4,2.375,2.4,2.4,0,0,1-2.4,2.421h-.959v6.023A.647.647,0,0,1,138.6,119.719Zm-2.856-1.293h2.209V112.4a.647.647,0,0,1,.647-.647h1.605a1.1,1.1,0,0,0,1.1-1.115,1.108,1.108,0,0,0-1.1-1.094H138.6a.647.647,0,0,1-.647-.647v-2.435a1.88,1.88,0,0,1,1.878-1.878h.588a.928.928,0,1,0,0-1.857h-1.448a3.231,3.231,0,0,0-3.227,3.227V108.9a.647.647,0,0,1-.647.647h-1.141a1.1,1.1,0,0,0,0,2.209H135.1a.647.647,0,0,1,.647.647v6.024Z" transform="translate(-125.702 -96.92)" fill="#595959"/>
    <path id="路径_70" data-name="路径 70" d="M210.2,22.8h-1.682a.647.647,0,0,1,0-1.293H210.2a2.251,2.251,0,0,0,2.248-2.248V3.542A2.251,2.251,0,0,0,210.2,1.293h-9.712a.647.647,0,0,1,0-1.293H210.2a3.546,3.546,0,0,1,3.542,3.542V19.257A3.546,3.546,0,0,1,210.2,22.8Z" transform="translate(-190.945 0)" fill="#595959"/>
    <path id="路径_71" data-name="路径 71" d="M12.9,22.8H3.542A3.546,3.546,0,0,1,0,19.257V3.542A3.546,3.546,0,0,1,3.542,0H5A.647.647,0,1,1,5,1.293H3.542A2.251,2.251,0,0,0,1.293,3.542V19.257a2.251,2.251,0,0,0,2.248,2.248H12.9a.647.647,0,1,1,0,1.293Z" transform="translate(0 0)" fill="#595959"/>
  </g>
</svg>
