<svg id="instagram" xmlns="http://www.w3.org/2000/svg" width="22.799" height="22.799" viewBox="0 0 22.799 22.799">
  <g id="组_93" data-name="组 93" transform="translate(0 0)">
    <path id="路径_45" data-name="路径 45" d="M210.2,22.8h-1.682a.647.647,0,1,1,0-1.293H210.2a2.251,2.251,0,0,0,2.248-2.248V3.543A2.251,2.251,0,0,0,210.2,1.294h-9.712a.647.647,0,0,1,0-1.293H210.2a3.546,3.546,0,0,1,3.542,3.542V19.258A3.546,3.546,0,0,1,210.2,22.8Z" transform="translate(-190.945 -0.001)" fill="#595959"/>
    <path id="路径_46" data-name="路径 46" d="M12.9,22.8H3.542A3.546,3.546,0,0,1,0,19.258V3.543A3.546,3.546,0,0,1,3.542,0H5A.647.647,0,1,1,5,1.294H3.542A2.251,2.251,0,0,0,1.293,3.543V19.258a2.251,2.251,0,0,0,2.248,2.248H12.9a.647.647,0,1,1,0,1.293Z" transform="translate(0 -0.001)" fill="#595959"/>
  </g>
  <path id="路径_47" data-name="路径 47" d="M113.522,102.056H104.3a2.242,2.242,0,0,0-2.242,2.242v9.226a2.242,2.242,0,0,0,2.242,2.242h9.226a2.242,2.242,0,0,0,2.242-2.242V104.3A2.242,2.242,0,0,0,113.522,102.056Zm-4.613,10.185a3.33,3.33,0,1,1,3.33-3.33A3.33,3.33,0,0,1,108.909,112.241Z" transform="translate(-97.51 -97.512)" fill="#91c499"/>
  <g id="组_94" data-name="组 94" transform="translate(3.898 3.898)">
    <path id="路径_48" data-name="路径 48" d="M99.648,102.535H90.422a2.892,2.892,0,0,1-2.889-2.889V90.421a2.892,2.892,0,0,1,2.889-2.889h9.226a2.892,2.892,0,0,1,2.889,2.889v9.226A2.892,2.892,0,0,1,99.648,102.535Zm-9.226-13.71a1.6,1.6,0,0,0-1.6,1.6v9.226a1.6,1.6,0,0,0,1.6,1.6h9.226a1.6,1.6,0,0,0,1.6-1.6V90.421a1.6,1.6,0,0,0-1.6-1.6H90.422ZM95.035,99.01a3.977,3.977,0,1,1,3.977-3.977A3.981,3.981,0,0,1,95.035,99.01Zm0-6.66a2.683,2.683,0,1,0,2.683,2.683A2.686,2.686,0,0,0,95.035,92.351Z" transform="translate(-87.533 -87.532)" fill="#595959"/>
    <ellipse id="椭圆_10" data-name="椭圆 10" cx="0.911" cy="0.911" rx="0.911" ry="0.911" transform="translate(10.617 2.517)" fill="#595959"/>
  </g>
</svg>
