<svg id="组_101" data-name="组 101" xmlns="http://www.w3.org/2000/svg" width="22.799" height="22.799" viewBox="0 0 22.799 22.799">
  <g id="instagram" transform="translate(0 0)">
    <g id="组_93" data-name="组 93" transform="translate(0 0)">
      <path id="路径_45" data-name="路径 45" d="M210.2,22.8h-1.682a.647.647,0,1,1,0-1.293H210.2a2.251,2.251,0,0,0,2.248-2.248V3.543A2.251,2.251,0,0,0,210.2,1.294h-9.712a.647.647,0,0,1,0-1.293H210.2a3.546,3.546,0,0,1,3.542,3.542V19.258A3.546,3.546,0,0,1,210.2,22.8Z" transform="translate(-190.945 -0.001)" fill="#595959"/>
      <path id="路径_46" data-name="路径 46" d="M12.9,22.8H3.542A3.546,3.546,0,0,1,0,19.258V3.543A3.546,3.546,0,0,1,3.542,0H5A.647.647,0,1,1,5,1.294H3.542A2.251,2.251,0,0,0,1.293,3.543V19.258a2.251,2.251,0,0,0,2.248,2.248H12.9a.647.647,0,1,1,0,1.293Z" transform="translate(0 -0.001)" fill="#595959"/>
    </g>
  </g>
  <g id="组_100" data-name="组 100" transform="translate(5.163 7.376)">
    <path id="路径_72" data-name="路径 72" d="M1389.8,7688.966h-8.949v-7.931h12.356v7.931H1392" transform="translate(-1380.851 -7681.035)" fill="none" stroke="#595959" stroke-linecap="round" stroke-linejoin="round" stroke-width="2"/>
    <path id="路径_74" data-name="路径 74" d="M1406.45,7681.139l-5.987,4.332-6.308-4.436Z" transform="translate(-1394.05 -7681.035)" fill="#91c499" stroke="#595959" stroke-linecap="round" stroke-linejoin="round" stroke-width="2"/>
  </g>
</svg>
