<svg xmlns="http://www.w3.org/2000/svg" width="135" height="134" viewBox="0 0 135 134">
  <g id="组_144" data-name="组 144" transform="translate(0.375 -0.352)">
    <ellipse id="椭圆_2" data-name="椭圆 2" cx="67.5" cy="67" rx="67.5" ry="67" transform="translate(-0.375 0.352)" fill="#fff"/>
    <g id="组_128" data-name="组 128" transform="translate(19.284 19.641)">
      <path id="路径_132" data-name="路径 132" d="M-56.64,806.667a8.1,8.1,0,0,1-2.183-.3,1.157,1.157,0,0,1-.8-1.426,1.159,1.159,0,0,1,1.425-.8,6.161,6.161,0,0,0,5.46-1.219c2.979-2.261,5.06-6.869,5.06-11.2,0-6.827-3.753-12.38-8.366-12.38q-.209,0-.414.015a1.154,1.154,0,0,1-1.237-1.072,1.156,1.156,0,0,1,1.071-1.236q.288-.022.579-.021c5.889,0,10.68,6.592,10.68,14.694,0,5.091-2.4,10.334-5.975,13.047A8.71,8.71,0,0,1-56.64,806.667Z" transform="translate(142.05 -733.939)" fill="#231815"/>
      <path id="路径_133" data-name="路径 133" d="M-226.4,806.667a8.708,8.708,0,0,1-5.3-1.909c-3.574-2.713-5.975-7.955-5.975-13.047,0-8.1,4.791-14.694,10.68-14.694.194,0,.387.007.579.021a1.156,1.156,0,0,1,1.072,1.236,1.147,1.147,0,0,1-1.237,1.072q-.206-.015-.414-.015c-4.613,0-8.366,5.554-8.366,12.38,0,4.335,2.081,8.943,5.06,11.2a6.16,6.16,0,0,0,5.46,1.219,1.159,1.159,0,0,1,1.425.8,1.158,1.158,0,0,1-.8,1.426A8.1,8.1,0,0,1-226.4,806.667Z" transform="translate(237.668 -733.939)" fill="#231815"/>
      <path id="路径_134" data-name="路径 134" d="M-50.281,814.663a1.153,1.153,0,0,1-.76-.285l-3.462-3.016a1.157,1.157,0,0,1-.112-1.633,1.157,1.157,0,0,1,1.632-.112l3.463,3.017a1.157,1.157,0,0,1,.112,1.632A1.155,1.155,0,0,1-50.281,814.663Z" transform="translate(139.489 -751.298)" fill="#231815"/>
      <path id="路径_135" data-name="路径 135" d="M-223.742,814.662a1.153,1.153,0,0,1-.873-.4,1.157,1.157,0,0,1,.112-1.632l3.462-3.017a1.157,1.157,0,0,1,1.633.112,1.157,1.157,0,0,1-.112,1.633l-3.463,3.016A1.151,1.151,0,0,1-223.742,814.662Z" transform="translate(230.809 -751.298)" fill="#231815"/>
      <ellipse id="椭圆_25" data-name="椭圆 25" cx="2.919" cy="2.919" rx="2.919" ry="2.919" transform="translate(27.485 41.92)" fill="#231815"/>
      <ellipse id="椭圆_26" data-name="椭圆 26" cx="2.043" cy="2.043" rx="2.043" ry="2.043" transform="translate(20.698 44.255)" fill="#231815"/>
      <g id="组_126" data-name="组 126" transform="translate(15.922 60.738)">
        <ellipse id="椭圆_27" data-name="椭圆 27" cx="11.483" cy="11.483" rx="11.483" ry="11.483" fill="#ea5f3e" opacity="0.33"/>
        <ellipse id="椭圆_28" data-name="椭圆 28" cx="11.483" cy="11.483" rx="11.483" ry="11.483" transform="translate(41.881)" fill="#ea5f3e" opacity="0.33"/>
      </g>
      <path id="路径_136" data-name="路径 136" d="M-179.279,800.551A39,39,0,0,1-218.233,761.6a39,39,0,0,1,38.954-38.954A39,39,0,0,1-140.325,761.6,39,39,0,0,1-179.279,800.551Zm0-75.594a36.681,36.681,0,0,0-36.64,36.64,36.681,36.681,0,0,0,36.64,36.64,36.681,36.681,0,0,0,36.64-36.64A36.681,36.681,0,0,0-179.279,724.957Z" transform="translate(227.228 -704.731)" fill="#231815"/>
      <g id="组_127" data-name="组 127" transform="translate(0 0)">
        <path id="路径_137" data-name="路径 137" d="M-207.246,716.175c2.393-2.314,7.021-4.32,7.659,0s1.117,13.268,5.425,16.97,10.531,6.325,14.52,6.171,0-6.634,0-6.634,6.861,5.245,14.2,5.4,8.416.231,11.647-.926,4.069-3.356,3.59-4.4,1.2,2.314,3.47,3.818a17.515,17.515,0,0,0,4.248,2.083s4.852-14-1.895-27.422-13.722-16.2-17.072-18.513-7.339-3.7-11.009-2.16-1.979.309-1.979.309a32.41,32.41,0,0,0-20.837-4.165c-12.445,1.543-14.041,8.331-14.041,8.331a14.138,14.138,0,0,0-9.733,1.234c-4.627,2.623-16.115,17.433-16.115,31.472s3.191,14.81,4.946,16.2,4.268-1,4.268-1a31.616,31.616,0,0,0,2.752,1.967c1.316.81,5.385-.116,2.752-3.355s-5.026-8.794-.119-18.744,7.459-8.712,9.094-8.331A31.216,31.216,0,0,1-207.246,716.175Z" transform="translate(236.325 -685.285)" fill="#2a2827"/>
        <path id="路径_138" data-name="路径 138" d="M-223.338,744.992a3.535,3.535,0,0,1-1.813-.444c-.771-.474-1.569-1.053-2.128-1.475-1.34.954-3.361,1.732-5,.433-.15-.119-.313-.232-.483-.352-2.583-1.817-4.9-4.466-4.9-16.755,0-14.318,11.6-29.587,16.7-32.478a15.007,15.007,0,0,1,9.575-1.555c1.015-2.148,4.382-6.882,14.626-8.153a33.476,33.476,0,0,1,21.572,4.318c.247-.094.555-.218.939-.379,3.587-1.509,7.777-.722,12.115,2.274.448.309.969.63,1.572,1,3.716,2.289,9.934,6.121,15.877,17.943,6.887,13.7,2.159,27.73,1.954,28.32a1.159,1.159,0,0,1-1.419.732,18.627,18.627,0,0,1-4.562-2.228,10.876,10.876,0,0,1-2.223-2.063,7.215,7.215,0,0,1-3.809,2.765c-3.3,1.18-4.5,1.155-11.17,1.012l-.892-.019a25.879,25.879,0,0,1-11.537-3.5,4.594,4.594,0,0,1-.058,3.326,2.77,2.77,0,0,1-2.537,1.412c-4.332.162-10.775-2.545-15.318-6.45-4.041-3.473-4.948-10.792-5.548-15.636-.093-.753-.179-1.443-.267-2.042-.184-1.244-.705-1.421-.877-1.479-1.067-.365-3.236.6-4.833,2.141a1.159,1.159,0,0,1-1.305.212,28.925,28.925,0,0,0-3.99-1.614l-.275-.068c-1.225-.308-3.274-.825-7.519,7.783-3.619,7.34-3.626,13.066-.02,17.5,1.865,2.3.962,3.8.486,4.345A3.938,3.938,0,0,1-223.338,744.992Zm-3.958-4.552a1.153,1.153,0,0,1,.724.254,30.619,30.619,0,0,0,2.633,1.883,1.944,1.944,0,0,0,1.791-.28c.216-.246-.158-.886-.543-1.36-4.235-5.212-4.32-11.75-.259-19.986,4.68-9.493,7.585-9.653,10.16-9l.234.058a25.205,25.205,0,0,1,3.763,1.452c1.888-1.581,4.561-2.818,6.586-2.129a3.729,3.729,0,0,1,2.421,3.332c.091.615.179,1.324.274,2.1.556,4.49,1.4,11.275,4.76,14.165,4.077,3.5,9.974,6.035,13.721,5.892.184-.007.505-.041.584-.189.37-.692-.507-3.023-1.525-4.682a1.158,1.158,0,0,1,.211-1.464,1.158,1.158,0,0,1,1.477-.062c.066.05,6.66,5.018,13.523,5.163l.893.019c6.455.137,7.446.158,10.34-.877a4.44,4.44,0,0,0,2.832-2.193.953.953,0,0,0,.1-.631,1.181,1.181,0,0,1,.411-1.693c.354-.2,1.044-.376,1.683.605a12.687,12.687,0,0,0,3.066,3.458,17.8,17.8,0,0,0,2.848,1.53c.935-3.536,3.19-14.729-2.167-25.385-5.648-11.237-11.29-14.712-15.023-17.013-.6-.373-1.176-.725-1.673-1.068-2.549-1.76-6.336-3.545-9.9-2.045-1.925.809-3.2,1.344-3.818.244a1.215,1.215,0,0,1-.162-.577,32.319,32.319,0,0,0-19.142-3.442c-11.513,1.427-13.043,7.387-13.057,7.447a1.158,1.158,0,0,1-.535.729,1.157,1.157,0,0,1-.9.123,13.077,13.077,0,0,0-8.858,1.124c-4.61,2.613-15.529,17.21-15.529,30.466,0,12.105,2.359,13.764,3.92,14.862.207.145.4.285.587.43.794.629,2.375-.579,2.755-.936A1.162,1.162,0,0,1-227.3,740.44Z" transform="translate(237.668 -683.94)" fill="#231815"/>
      </g>
      <path id="路径_139" data-name="路径 139" d="M-99.411,809.477c-6.3,0-8.938-2.8-9.219-3.116l3.127-2.752-.035-.038c.069.072,1.75,1.741,6.127,1.741,4.555,0,6.013-1.607,6.027-1.624a.546.546,0,0,0-.052.068l3.362,2.458C-90.318,806.547-92.653,809.477-99.411,809.477Z" transform="translate(168.351 -748.203)" fill="#231815" stroke="#707070" stroke-linecap="round" stroke-linejoin="round" stroke-width="1"/>
      <path id="路径_140" data-name="路径 140" d="M-188.1,809.477c-6.295,0-8.938-2.8-9.219-3.116l3.127-2.752-.035-.038c.069.072,1.749,1.741,6.127,1.741,4.555,0,6.013-1.608,6.027-1.624a.592.592,0,0,0-.053.068l3.363,2.458C-179.008,806.547-181.344,809.477-188.1,809.477Z" transform="translate(215.994 -748.203)" fill="#231815" stroke="#707070" stroke-linecap="round" stroke-linejoin="round" stroke-width="1"/>
      <path id="路径_141" data-name="路径 141" d="M-141.1,822.1c-4.008,0-5.647-1.694-5.821-1.887a.925.925,0,0,1,.069-1.307.926.926,0,0,1,1.3.059c.069.071,1.3,1.283,4.453,1.283,3.338,0,4.4-1.216,4.406-1.229a.913.913,0,0,1,1.288-.177.935.935,0,0,1,.18,1.305C-135.373,820.347-136.806,822.1-141.1,822.1Z" transform="translate(189.047 -756.305)" fill="#231815"/>
    </g>
  </g>
</svg>
