<svg id="组_99" data-name="组 99" xmlns="http://www.w3.org/2000/svg" width="22.799" height="22.799" viewBox="0 0 22.799 22.799">
  <g id="instagram" transform="translate(0 0)">
    <g id="组_93" data-name="组 93" transform="translate(0 0)">
      <path id="路径_45" data-name="路径 45" d="M210.2,22.8h-1.682a.647.647,0,1,1,0-1.293H210.2a2.251,2.251,0,0,0,2.248-2.248V3.543A2.251,2.251,0,0,0,210.2,1.294h-9.712a.647.647,0,0,1,0-1.293H210.2a3.546,3.546,0,0,1,3.542,3.542V19.258A3.546,3.546,0,0,1,210.2,22.8Z" transform="translate(-190.945 -0.001)" fill="#595959"/>
      <path id="路径_46" data-name="路径 46" d="M12.9,22.8H3.542A3.546,3.546,0,0,1,0,19.258V3.543A3.546,3.546,0,0,1,3.542,0H5A.647.647,0,1,1,5,1.294H3.542A2.251,2.251,0,0,0,1.293,3.543V19.258a2.251,2.251,0,0,0,2.248,2.248H12.9a.647.647,0,1,1,0,1.293Z" transform="translate(0 -0.001)" fill="#595959"/>
    </g>
  </g>
  <g id="telephone-1" transform="translate(4.836 4.474)">
    <path id="路径_64" data-name="路径 64" d="M35.6,18.36v-.81c-.054-.016-.11-.034-.169-.051a11.362,11.362,0,0,0-2.7-.368,11.391,11.391,0,0,0-2.7.366c-.057.016-.09.031-.143.046l.023.737v.079a1.089,1.089,0,0,1-1.089,1.089H27.634a1.089,1.089,0,0,1-1.089-1.1l0-.319a2.539,2.539,0,0,1,.194-.7,2.611,2.611,0,0,1,.341-.567c1.05-1.339,2.688-1.885,5.651-1.886,4.1,0,5.592,1.8,5.655,1.884a2.6,2.6,0,0,1,.341.568,2.526,2.526,0,0,1,.193.7l0,.319a1.089,1.089,0,0,1-1.089,1.1H36.693A1.089,1.089,0,0,1,35.6,18.36Z" transform="translate(-26.144 -14.476)" fill="#91c499" stroke="#707070" stroke-width="0.5"/>
    <g id="组_97" data-name="组 97" transform="translate(0)">
      <path id="路径_65" data-name="路径 65" d="M23.363,5.375H22.221a1.492,1.492,0,0,1-1.491-1.491V3.377a11.114,11.114,0,0,0-2.467-.319,11.159,11.159,0,0,0-2.436.309l.013.427s0,.008,0,.012v.079A1.492,1.492,0,0,1,14.35,5.375H13.163a1.491,1.491,0,0,1-1.491-1.5l0-.319a.4.4,0,0,1,0-.046,2.961,2.961,0,0,1,.225-.815l0,0a3,3,0,0,1,.392-.652C13.432.591,15.16,0,18.261,0a9.825,9.825,0,0,1,4.523.957,4.608,4.608,0,0,1,1.445,1.078,3,3,0,0,1,.394.657,2.934,2.934,0,0,1,.224.817.415.415,0,0,1,0,.044l0,.319a1.491,1.491,0,0,1-1.491,1.5Zm-5.1-3.12a11.688,11.688,0,0,1,2.811.383l.11.033.061.019a.4.4,0,0,1,.288.385v.81a.689.689,0,0,0,.688.688h1.141a.688.688,0,0,0,.688-.694l0-.3a2.122,2.122,0,0,0-.159-.568,2.205,2.205,0,0,0-.288-.481,3.927,3.927,0,0,0-1.188-.866A9.01,9.01,0,0,0,18.261.8c-2.825,0-4.37.5-5.335,1.732l0,0a2.205,2.205,0,0,0-.287.479,2.151,2.151,0,0,0-.16.567l0,.295a.688.688,0,0,0,.688.694h1.187a.689.689,0,0,0,.688-.688V3.812l-.023-.73a.4.4,0,0,1,.29-.4l.043-.014c.026-.009.059-.021.1-.033A11.7,11.7,0,0,1,18.263,2.255Z" transform="translate(-11.672)" fill="#595959" stroke="#595959" stroke-width="0.5"/>
      <path id="路径_66" data-name="路径 66" d="M54.594,177.151H45.256a1.044,1.044,0,0,1-1.041-1.121l.4-5.364a1.038,1.038,0,0,1,.885-.955l2.168-.372.262-.764a1.044,1.044,0,0,1,.988-.706h2.019a1.044,1.044,0,0,1,.988.706l.262.764,2.168.372a1.038,1.038,0,0,1,.885.955l.4,5.364a1.044,1.044,0,0,1-1.041,1.121Zm-5.678-8.48a.242.242,0,0,0-.229.163l-.339.989a.4.4,0,0,1-.312.266l-2.407.413-.01,0a.24.24,0,0,0-.206.221l-.4,5.364a.242.242,0,0,0,.241.259h9.338a.242.242,0,0,0,.241-.259l-.4-5.364a.24.24,0,0,0-.206-.221l-.01,0-2.407-.413a.4.4,0,0,1-.312-.266l-.339-.989a.242.242,0,0,0-.229-.163H48.915Z" transform="translate(-43.334 -163.34)" fill="#595959" stroke="#595959" stroke-width="0.5"/>
      <path id="路径_67" data-name="路径 67" d="M168.619,271.682a2.422,2.422,0,1,1,0-4.845.4.4,0,1,1,0,.8,1.62,1.62,0,1,0,1.62,1.62,1.6,1.6,0,0,0-.355-1.012.4.4,0,1,1,.626-.5,2.422,2.422,0,0,1-1.891,3.937Z" transform="translate(-162.029 -259.639)" fill="#595959" stroke="#595959" stroke-width="0.5"/>
    </g>
  </g>
</svg>
