<svg xmlns="http://www.w3.org/2000/svg" width="136" height="136" viewBox="0 0 136 136">
  <g id="组_143" data-name="组 143" transform="translate(0.432 -0.38)">
    <circle id="椭圆_3" data-name="椭圆 3" cx="68" cy="68" r="68" transform="translate(-0.432 0.38)" fill="#fff"/>
    <g id="组_112" data-name="组 112" transform="translate(18.279 10.49)">
      <path id="路径_114" data-name="路径 114" d="M-109.687,543.377" transform="translate(165.144 -494.625)" fill="none" stroke="#231815" stroke-linecap="round" stroke-linejoin="round" stroke-width="5"/>
      <g id="组_112-2" data-name="组 112" transform="translate(18.291 60.168)">
        <ellipse id="椭圆_17" data-name="椭圆 17" cx="11.4" cy="11.399" rx="11.4" ry="11.399" fill="#ea5f3e" opacity="0.33"/>
        <ellipse id="椭圆_18" data-name="椭圆 18" cx="11.4" cy="11.399" rx="11.4" ry="11.399" transform="translate(41.578)" fill="#ea5f3e" opacity="0.33"/>
      </g>
      <g id="组_115" data-name="组 115" transform="translate(27.71 33.426)" opacity="0.9">
        <g id="组_113" data-name="组 113" transform="translate(0 0)">
          <ellipse id="椭圆_19" data-name="椭圆 19" cx="3.643" cy="2.677" rx="3.643" ry="2.677" transform="translate(0 1.507) rotate(-11.936)" fill="#1a0e0e"/>
          <path id="路径_115" data-name="路径 115" d="M-161.1,519.7a4.555,4.555,0,0,1-1.879-.387,2.856,2.856,0,0,1-1.72-1.985,2.859,2.859,0,0,1,.769-2.513,4.872,4.872,0,0,1,2.63-1.456,4.866,4.866,0,0,1,2.994.268,2.856,2.856,0,0,1,1.72,1.985,2.858,2.858,0,0,1-.769,2.512,4.873,4.873,0,0,1-2.63,1.457A5.43,5.43,0,0,1-161.1,519.7Zm.917-5.453a4.39,4.39,0,0,0-.909.1,3.857,3.857,0,0,0-2.086,1.141,1.879,1.879,0,0,0-.536,1.633,1.88,1.88,0,0,0,1.15,1.277,3.861,3.861,0,0,0,2.37.2,3.857,3.857,0,0,0,2.086-1.142,1.878,1.878,0,0,0,.536-1.633h0a1.88,1.88,0,0,0-1.15-1.276A3.554,3.554,0,0,0-160.182,514.243Z" transform="translate(164.76 -513.094)" fill="#1b0f0f"/>
        </g>
        <g id="组_114" data-name="组 114" transform="translate(34.929 0)">
          <ellipse id="椭圆_20" data-name="椭圆 20" cx="2.677" cy="3.643" rx="2.677" ry="3.643" transform="translate(0 5.238) rotate(-78.064)" fill="#1a0e0e"/>
          <path id="路径_116" data-name="路径 116" d="M-90.848,519.7a5.4,5.4,0,0,1-1.116-.118c-2.236-.473-3.761-2.253-3.4-3.969h0a2.857,2.857,0,0,1,1.72-1.985,4.867,4.867,0,0,1,2.994-.268,4.869,4.869,0,0,1,2.63,1.456,2.858,2.858,0,0,1,.769,2.513,2.854,2.854,0,0,1-1.72,1.985A4.553,4.553,0,0,1-90.848,519.7Zm-3.529-3.879c-.247,1.172.928,2.417,2.622,2.775a3.859,3.859,0,0,0,2.37-.2,1.879,1.879,0,0,0,1.15-1.277,1.88,1.88,0,0,0-.535-1.633,3.861,3.861,0,0,0-2.086-1.141,3.852,3.852,0,0,0-2.37.2,1.882,1.882,0,0,0-1.151,1.276Z" transform="translate(95.423 -513.094)" fill="#1b0f0f"/>
        </g>
      </g>
      <path id="路径_117" data-name="路径 117" d="M-145.834,616.234a42.1,42.1,0,0,1-23.776-7.306,1.26,1.26,0,0,1-.333-1.75,1.26,1.26,0,0,1,1.75-.333,39.587,39.587,0,0,0,22.359,6.87,39.593,39.593,0,0,0,22.307-6.834,1.26,1.26,0,0,1,1.749.336,1.26,1.26,0,0,1-.336,1.75A42.1,42.1,0,0,1-145.834,616.234Z" transform="translate(195.152 -526.011)" fill="#231815"/>
      <g id="组_118" data-name="组 118" transform="translate(0 0)">
        <g id="组_117" data-name="组 117">
          <g id="组_116" data-name="组 116">
            <path id="路径_118" data-name="路径 118" d="M-156.314,477.871s13.938,9.068,15.953,12.258a25.538,25.538,0,0,1,3.526,10.411c.168,2.687,1.057,10.075-2.578,15.449s-6.441,2.854-7.053,10.747,5.433,8.06,5.433,8.06-7.388-1.344-7.724,8.564,13.705,7.808,16.928,7.137,11.57-4.127,11.2-13.692-5.961-7.148-5.961-12.722,9.068-45.2-10.81-62.522l-2.245-1.928A45.934,45.934,0,0,0-168.984,449.1a46.506,46.506,0,0,0-30.328,10.812l-2.3,2.015c-20.529,18.965-9.685,56.58-9.685,62.155s-5.591,3.157-5.961,12.722,7.976,13.02,11.2,13.692,17.264,2.771,16.928-7.137-7.724-8.564-7.724-8.564,6.045-.168,5.433-8.06-3.418-5.374-7.053-10.747-2.746-12.762-2.578-15.449a25.539,25.539,0,0,1,3.526-10.411c2.015-3.19,15.953-12.258,15.953-12.258s2.4-1.721,2.913-2.1" transform="translate(218.529 -447.842)" fill="#724b42"/>
            <path id="路径_119" data-name="路径 119" d="M-139.417,551.173c-3.188,0-6.787-.544-9.183-2.561a7.742,7.742,0,0,1-2.657-6.534c.128-3.783,1.241-6.546,3.306-8.211a7.086,7.086,0,0,1,1.37-.866c-.153-.14-.3-.291-.449-.454-1.519-1.688-2.169-4.093-1.932-7.148.4-5.12,1.73-6.428,3.878-7.972a12.1,12.1,0,0,0,3.387-3.383c3.1-4.587,2.639-10.9,2.416-13.93-.02-.273-.038-.519-.052-.735a24.394,24.394,0,0,0-3.334-9.818c-1.37-2.169-10.065-8.29-15.575-11.875a1.259,1.259,0,0,1-.369-1.743,1.26,1.26,0,0,1,1.743-.369c1.45.944,14.229,9.315,16.331,12.642a26.891,26.891,0,0,1,3.719,11.005c.013.208.03.445.05.708.244,3.315.751,10.214-2.842,15.525a14.465,14.465,0,0,1-4,4.018c-1.613,1.16-2.5,1.8-2.837,6.121-.18,2.323.247,4.087,1.27,5.243a4.585,4.585,0,0,0,2.643,1.424c.285.022.461.052.49.057a1.259,1.259,0,0,1,1.027,1.37,1.26,1.26,0,0,1-1.288,1.128,4.737,4.737,0,0,1-.506-.05,5.276,5.276,0,0,0-3.579,1.081c-1.455,1.189-2.244,3.314-2.346,6.317a5.28,5.28,0,0,0,1.761,4.521c3.146,2.648,10.061,2.089,13.651,1.34.432-.09,10.588-2.325,10.2-12.411-.187-4.833-1.728-6.146-3.218-7.416a6.249,6.249,0,0,1-2.744-5.356c0-.93.213-2.59.508-4.888,1.632-12.7,5.452-42.45-10.887-56.684l-2.238-1.922a44.916,44.916,0,0,0-28.517-10.228,45.166,45.166,0,0,0-29.508,10.509l-2.289,2.006c-16.628,15.362-11.96,43.753-9.966,55.876a43.3,43.3,0,0,1,.709,5.331,6.25,6.25,0,0,1-2.744,5.356c-1.491,1.27-3.031,2.582-3.219,7.416-.39,10.086,9.765,12.321,10.2,12.411,3.59.748,10.505,1.307,13.651-1.34a5.281,5.281,0,0,0,1.761-4.521c-.1-3-.891-5.128-2.346-6.317a5.277,5.277,0,0,0-3.584-1.081,4.7,4.7,0,0,1-.5.05,1.26,1.26,0,0,1-1.287-1.128,1.259,1.259,0,0,1,1.027-1.37c.029-.006.208-.036.5-.058a4.588,4.588,0,0,0,2.637-1.423c1.023-1.156,1.45-2.919,1.27-5.243-.335-4.323-1.224-4.961-2.836-6.121a14.475,14.475,0,0,1-4-4.018c-3.593-5.312-3.086-12.21-2.841-15.526.019-.262.036-.5.049-.707a26.893,26.893,0,0,1,3.719-11.005c2.09-3.309,14.742-11.607,16.306-12.625.249-.179,2.4-1.721,2.882-2.077a1.26,1.26,0,0,1,1.76.275,1.26,1.26,0,0,1-.275,1.76c-.519.378-2.92,2.1-2.92,2.1l-.048.033c-5.51,3.585-14.2,9.706-15.575,11.875a24.407,24.407,0,0,0-3.334,9.818c-.014.216-.032.462-.052.735-.223,3.033-.687,9.342,2.416,13.93a12.117,12.117,0,0,0,3.388,3.383c2.148,1.544,3.481,2.851,3.878,7.972.237,3.055-.413,5.459-1.932,7.148-.147.163-.3.314-.45.454a7.072,7.072,0,0,1,1.37.866c2.065,1.665,3.178,4.428,3.306,8.211a7.741,7.741,0,0,1-2.656,6.534c-4.685,3.943-13.973,2.258-15.787,1.879-4.709-.982-12.578-5.24-12.2-14.974.23-5.937,2.467-7.844,4.1-9.236,1.159-.987,1.858-1.583,1.858-3.439a45.27,45.27,0,0,0-.676-4.922c-2.06-12.523-6.884-41.852,10.766-58.156l2.323-2.037A47.689,47.689,0,0,1-170.225,446.6a47.454,47.454,0,0,1,30.14,10.82l2.264,1.944c17.36,15.124,13.42,45.807,11.737,58.91-.273,2.122-.488,3.8-.488,4.567,0,1.855.7,2.451,1.858,3.439,1.634,1.392,3.872,3.3,4.1,9.236.377,9.733-7.492,13.992-12.2,14.974A34.206,34.206,0,0,1-139.417,551.173Z" transform="translate(219.77 -446.602)" fill="#231815"/>
          </g>
        </g>
        <path id="路径_120" data-name="路径 120" d="M-67.7,524.388a1.26,1.26,0,0,1-1.187-.84c-.937-2.649-3.778-9.868-4.732-11.658a1.26,1.26,0,0,1,.519-1.7,1.261,1.261,0,0,1,1.7.518c1.1,2.059,3.994,9.487,4.885,12a1.26,1.26,0,0,1-.768,1.607A1.261,1.261,0,0,1-67.7,524.388Z" transform="translate(147.321 -478.081)" fill="#231815"/>
        <path id="路径_121" data-name="路径 121" d="M-182.511,524.388a1.266,1.266,0,0,1-.42-.072,1.26,1.26,0,0,1-.767-1.607c.89-2.517,3.786-9.945,4.885-12a1.26,1.26,0,0,1,1.7-.518,1.26,1.26,0,0,1,.519,1.7c-.955,1.79-3.8,9.008-4.732,11.658A1.26,1.26,0,0,1-182.511,524.388Z" transform="translate(201.906 -478.081)" fill="#231815"/>
      </g>
      <g id="组_119" data-name="组 119" transform="translate(39.076 22.053)">
        <path id="路径_122" data-name="路径 122" d="M-138.813,492.877a39.035,39.035,0,0,0-.143,15.872,3.863,3.863,0,0,0,4.48,3.043,29.271,29.271,0,0,1,5.082-.5,27.624,27.624,0,0,1,4.873.457,3.871,3.871,0,0,0,4.5-3.014,49.8,49.8,0,0,0,.9-7.339,19.459,19.459,0,0,0-.892-7.547" transform="translate(140.962 -491.618)" fill="#724b42"/>
        <path id="路径_123" data-name="路径 123" d="M-136.4,511.871a5.155,5.155,0,0,1-5.036-4.116,40.246,40.246,0,0,1,.149-16.389,1.259,1.259,0,0,1,1.5-.96,1.258,1.258,0,0,1,.96,1.5,37.717,37.717,0,0,0-.139,15.355,2.623,2.623,0,0,0,3.021,2.05,30.126,30.126,0,0,1,5.305-.523,28.751,28.751,0,0,1,5.1.477,2.6,2.6,0,0,0,3.045-2.027,48.784,48.784,0,0,0,.871-7.154,18.576,18.576,0,0,0-.807-7.02,1.261,1.261,0,0,1,.714-1.63,1.256,1.256,0,0,1,1.63.707,20.622,20.622,0,0,1,.978,8.077,51.271,51.271,0,0,1-.919,7.525,5.1,5.1,0,0,1-5.961,4,26.27,26.27,0,0,0-4.649-.437,27.627,27.627,0,0,0-4.857.483A5.1,5.1,0,0,1-136.4,511.871Z" transform="translate(142.203 -490.377)" fill="#231815"/>
      </g>
      <path id="路径_124" data-name="路径 124" d="M-131.224,550.995" transform="translate(175.831 -498.405)" fill="none" stroke="#231815" stroke-linecap="round" stroke-linejoin="round" stroke-width="5"/>
      <path id="路径_125" data-name="路径 125" d="M-129.513,572.772c-4.96,0-7.554-3.058-7.711-9.092a1.829,1.829,0,0,1,.528-1.333,2,2,0,0,1,1.43-.6h11.417a2.09,2.09,0,0,1,1.5.631,1.9,1.9,0,0,1,.538,1.4C-122.044,569.747-124.636,572.772-129.513,572.772Zm-5.693-9c.158,4.833,1.917,6.99,5.693,6.99s5.48-2.091,5.687-6.987l-.024,0Z" transform="translate(178.809 -503.743)"/>
      <g id="组_122" data-name="组 122" transform="translate(60.86 40.464)">
        <g id="组_121" data-name="组 121" transform="translate(0 2.614)">
          <path id="路径_126" data-name="路径 126" d="M-80.67,545.6h-.051a1.26,1.26,0,0,1-1.209-1.308c.261-6.627-4.041-8.664-5.9-9.233-3.472-1.059-7.42-.1-8.8,2.13a1.259,1.259,0,0,1-1.733.411,1.26,1.26,0,0,1-.411-1.733c1.974-3.2,7.1-4.613,11.676-3.216,5.041,1.538,7.914,5.927,7.685,11.741A1.26,1.26,0,0,1-80.67,545.6Z" transform="translate(98.962 -532.113)" fill="#231815"/>
          <g id="组_120" data-name="组 120" transform="translate(0.439 1.703)">
            <ellipse id="椭圆_21" data-name="椭圆 21" cx="6.942" cy="6.355" rx="6.942" ry="6.355" transform="translate(0.944 14.839) rotate(-87.326)" fill="#231815"/>
            <path id="路径_127" data-name="路径 127" d="M-90.517,551.894q-.169,0-.339-.008a7.3,7.3,0,0,1-5.3-2.693,8.49,8.49,0,0,1-1.92-5.856,8.49,8.49,0,0,1,2.458-5.65,7.3,7.3,0,0,1,5.531-2.186c4.194.2,7.434,4.031,7.223,8.548a8.486,8.486,0,0,1-2.458,5.651A7.316,7.316,0,0,1-90.517,551.894Zm.091-13.882a4.83,4.83,0,0,0-3.42,1.461,5.977,5.977,0,0,0-1.718,3.982h0a5.979,5.979,0,0,0,1.34,4.125,4.81,4.81,0,0,0,3.485,1.789,4.8,4.8,0,0,0,3.637-1.456,5.974,5.974,0,0,0,1.718-3.982c.146-3.13-2.019-5.783-4.825-5.915C-90.281,538.013-90.353,538.012-90.426,538.012Zm-6.4,5.385h0Z" transform="translate(98.09 -535.493)" fill="#231815"/>
          </g>
          <ellipse id="椭圆_22" data-name="椭圆 22" cx="1.984" cy="1.984" rx="1.984" ry="1.984" transform="translate(5.255 3.533)" fill="#fff"/>
        </g>
        <path id="路径_128" data-name="路径 128" d="M-77.121,531.473a1.262,1.262,0,0,1-.273-.03,1.26,1.26,0,0,1-.959-1.5l.448-2.029a1.261,1.261,0,0,1,1.5-.959,1.26,1.26,0,0,1,.959,1.5l-.448,2.029A1.26,1.26,0,0,1-77.121,531.473Z" transform="translate(88.75 -526.924)" fill="#231815"/>
      </g>
      <g id="组_125" data-name="组 125" transform="translate(19.047 41.298)">
        <g id="组_124" data-name="组 124" transform="translate(0 1.781)">
          <path id="路径_129" data-name="路径 129" d="M-180.69,545.6a1.26,1.26,0,0,1-1.258-1.21c-.23-5.814,2.643-10.2,7.685-11.741,4.574-1.394,9.7.017,11.676,3.216A1.26,1.26,0,0,1-163,537.6a1.26,1.26,0,0,1-1.733-.411c-1.378-2.233-5.324-3.187-8.8-2.129-1.862.568-6.164,2.606-5.9,9.233a1.26,1.26,0,0,1-1.209,1.308Z" transform="translate(181.96 -532.115)" fill="#231815"/>
          <g id="组_123" data-name="组 123" transform="translate(3.891 1.701)">
            <ellipse id="椭圆_23" data-name="椭圆 23" cx="6.355" cy="6.942" rx="6.355" ry="6.942" transform="translate(0.944 1.563) rotate(-2.674)" fill="#231815"/>
            <path id="路径_130" data-name="路径 130" d="M-166.579,551.894a7.315,7.315,0,0,1-5.191-2.194,8.485,8.485,0,0,1-2.458-5.651,8.487,8.487,0,0,1,1.92-5.855A7.3,7.3,0,0,1-167,535.5a7.291,7.291,0,0,1,5.531,2.186,8.49,8.49,0,0,1,2.458,5.651h0a8.489,8.489,0,0,1-1.92,5.855,7.3,7.3,0,0,1-5.3,2.693Q-166.409,551.894-166.579,551.894Zm-.091-13.882c-.073,0-.145,0-.217.005a4.811,4.811,0,0,0-3.485,1.789,5.974,5.974,0,0,0-1.34,4.125,5.975,5.975,0,0,0,1.718,3.983,4.8,4.8,0,0,0,3.637,1.456,4.809,4.809,0,0,0,3.485-1.789,5.977,5.977,0,0,0,1.34-4.126h0a5.975,5.975,0,0,0-1.719-3.982A4.831,4.831,0,0,0-166.67,538.011Z" transform="translate(174.238 -535.492)" fill="#231815"/>
          </g>
          <ellipse id="椭圆_24" data-name="椭圆 24" cx="1.984" cy="1.984" rx="1.984" ry="1.984" transform="translate(10.339 3.532)" fill="#fff"/>
        </g>
        <path id="路径_131" data-name="路径 131" d="M-170.9,533a1.259,1.259,0,0,1-1.156-.758l-.829-1.905a1.26,1.26,0,0,1,.653-1.657,1.26,1.26,0,0,1,1.657.653l.829,1.905a1.26,1.26,0,0,1-.652,1.657A1.257,1.257,0,0,1-170.9,533Z" transform="translate(177.509 -528.58)" fill="#231815"/>
      </g>
    </g>
  </g>
</svg>
