<svg xmlns="http://www.w3.org/2000/svg" width="136" height="136" viewBox="0 0 136 136">
  <g id="Group_216" data-name="Group 216" transform="translate(-722.201 -12575.201)">
    <g id="Group_215" data-name="Group 215" transform="translate(722.201 12575.201)">
      <circle id="Ellipse_3" data-name="Ellipse 3" cx="68" cy="68" r="68" transform="translate(0)" fill="#fff"/>
    </g>
    <g id="Layer_2" data-name="Layer 2" transform="translate(740.473 12587.356)">
      <g id="Layer_1" data-name="Layer 1" transform="translate(0 0)">
        <path id="Path_163" data-name="Path 163" d="M83.385,55.985a1.487,1.487,0,0,1-1.447-1.15c-.06-.248-1.586-6.157-9.459-7.506a8,8,0,0,0-6.941,2.5,1.5,1.5,0,0,1-2.261-1.985,11.026,11.026,0,0,1,9.757-3.49c9.915,1.688,11.769,9.432,11.9,9.769a1.477,1.477,0,0,1-1.11,1.775,1.359,1.359,0,0,1-.436.089Z" transform="translate(-0.533 -0.399)" fill="#231815"/>
        <ellipse id="Ellipse_32" data-name="Ellipse 32" cx="6.99" cy="7.446" rx="6.99" ry="7.446" transform="translate(64.171 47.624)" fill="#231815"/>
        <path id="Path_164" data-name="Path 164" d="M71.688,64.428A8.924,8.924,0,1,1,80.165,55.5,8.716,8.716,0,0,1,71.688,64.428Zm0-14.873a5.949,5.949,0,1,0,5.5,5.949,5.741,5.741,0,0,0-5.5-5.959Z" transform="translate(-0.527 -0.424)" fill="#231815"/>
        <circle id="Ellipse_33" data-name="Ellipse 33" cx="2.419" cy="2.419" r="2.419" transform="translate(67.869 48.457)" fill="#fff"/>
        <path id="Path_165" data-name="Path 165" d="M42.989,72.153h-.2a.994.994,0,1,1,.1-1.985,9.588,9.588,0,0,0,3.887-.833A6.653,6.653,0,0,0,49.2,67.888a1,1,0,0,1,1.666,1.091c-.149.228-.843,1.081-3.262,2.132A11.9,11.9,0,0,1,42.989,72.153Z" transform="translate(-0.354 -0.593)"/>
        <path id="Path_166" data-name="Path 166" d="M57.336,72.13a12.157,12.157,0,0,1-4.422-.892c-2.449-.992-3.153-1.835-3.312-2.062a.994.994,0,0,1,1.636-1.129h0a7.744,7.744,0,0,0,2.43,1.339,9.558,9.558,0,0,0,3.9.753,1,1,0,0,1,.149,1.985Z" transform="translate(-0.453 -0.649)"/>
        <circle id="Ellipse_34" data-name="Ellipse 34" cx="12.295" cy="12.295" r="12.295" transform="translate(15.367 62.844)" fill="#ea5f3e" opacity="0.33"/>
        <circle id="Ellipse_35" data-name="Ellipse 35" cx="12.295" cy="12.295" r="12.295" transform="translate(60.224 62.844)" fill="#ea5f3e" opacity="0.33"/>
        <path id="Path_167" data-name="Path 167" d="M16.309,42.821c4.958-2.738,18.165-6.554,33.712-6.554a94.623,94.623,0,0,1,32.225,5.949,7.516,7.516,0,0,1,4.8,6.009,151.472,151.472,0,0,1,1.309,15.24c.516,12.612-7.5,21.3-10.56,25.393s-10.312,10.044-8.01,12.95c3.351,4.214,11.244-3.074,11.244-3.074s-1.527,3.074,1.874,3.074,17.382-7.843,15.676-33.227-5.236-33.6-5.236-33.6A44.619,44.619,0,0,0,6.821,34.5l-.466,1.806C5.531,39.54,2.467,48.8,1.149,68.563-.557,93.946,13.414,101.79,16.865,101.79s1.874-3.074,1.874-3.074S26.671,106,29.983,101.79c2.3-2.905-4.958-8.863-8.012-12.95s-11.115-12.783-10.6-25.376a151.76,151.76,0,0,1,1.309-15.171,7.536,7.536,0,0,1,2.548-4.66,12.892,12.892,0,0,1,1.081-.813Z" transform="translate(-0.01 -0.036)" fill="#2a2827"/>
        <path id="Path_168" data-name="Path 168" d="M72.571,104.111h-.407A4.343,4.343,0,0,1,69,102.435C66.79,99.649,70.43,95.653,73.959,91.8c1.16-1.269,2.251-2.469,3.046-3.52.317-.436.694-.912,1.1-1.437,3.381-4.363,9.7-12.414,9.251-23.38-.278-6.841-.863-11.977-1.3-15.071a6.564,6.564,0,0,0-4.165-5.225,94,94,0,0,0-31.878-5.949c-15.676,0-28.7,3.966-33.236,6.435a9.459,9.459,0,0,0-.992.684A6.544,6.544,0,0,0,13.6,48.367a151.125,151.125,0,0,0-1.249,15.091c-.445,10.907,5.87,19,9.261,23.321.407.526.783.992,1.1,1.437.793,1.051,1.884,2.251,3.034,3.52,3.53,3.858,7.17,7.854,4.958,10.64a4.343,4.343,0,0,1-3.163,1.735c-2.638.2-5.721-1.677-7.645-3.1a2.439,2.439,0,0,1-.248.545,3.074,3.074,0,0,1-2.8,1.22c-1.844,0-5.3-1.586-8.567-5.077C3.966,93.115-.912,84.33.149,68.485c1.18-17.629,3.818-27.079,4.888-31.114.139-.516.258-.992.347-1.309l.445-1.755a.24.24,0,0,1,0-.079,45.611,45.611,0,0,1,88.425.416c.4.992,3.659,9.6,5.285,33.841,1.061,15.864-3.818,24.63-8.11,29.211-3.251,3.49-6.713,5.077-8.557,5.077a3.074,3.074,0,0,1-2.836-1.259,2.439,2.439,0,0,1-.248-.545C77.975,102.327,75.109,104.111,72.571,104.111ZM50.014,35.269a95.931,95.931,0,0,1,32.572,6.057,8.507,8.507,0,0,1,5.434,6.8c.445,3.143.992,8.35,1.319,15.27.476,11.669-6.128,20.1-9.677,24.63-.407.506-.773.992-1.081,1.4-.853,1.129-1.985,2.361-3.163,3.659-2.538,2.8-6.009,6.614-4.868,8.051a2.38,2.38,0,0,0,1.765.932c2.707.208,6.723-2.9,8.032-4.106a.992.992,0,0,1,1.567,1.17,1.765,1.765,0,0,0-.169,1.319c.129.2.555.317,1.15.317.992,0,3.966-1.091,7.109-4.442,3.966-4.294,8.6-12.593,7.575-27.763C95.913,43.773,92.462,35.375,92.423,35.3a.994.994,0,0,1,0-.159A43.628,43.628,0,0,0,7.775,34.7h0a.5.5,0,0,1,0,.129c-.079.416-.218.992-.407,1.705-.089.367-.218.813-.357,1.349C5.911,41.85,3.353,51.17,2.183,68.621c-.992,15.141,3.559,23.44,7.575,27.763,3.143,3.351,6.148,4.442,7.118,4.442a1.525,1.525,0,0,0,1.15-.317,1.844,1.844,0,0,0-.179-1.359.987.987,0,0,1,1.557-1.16c1.319,1.21,5.334,4.312,8.042,4.106a2.34,2.34,0,0,0,1.705-.962c1.16-1.457-2.32-5.275-4.859-8.071-1.19-1.3-2.31-2.528-3.163-3.659-.308-.426-.674-.892-1.081-1.4C16.5,83.5,9.915,75.067,10.371,63.4a153.239,153.239,0,0,1,1.319-15.27,8.547,8.547,0,0,1,2.885-5.295,12.889,12.889,0,0,1,1.289-.883h0c4.849-2.686,17.987-6.681,34.149-6.681Z" transform="translate(-0.002 -0.029)" fill="#231815"/>
        <path id="Path_169" data-name="Path 169" d="M62.723,37.91a.992.992,0,0,1-.853-1.487,15.874,15.874,0,0,0,1.17-8.081,55.748,55.748,0,0,0-1.269-8.478.992.992,0,1,1,1.914-.506,55.815,55.815,0,0,1,1.329,8.823c.476,5.83-1.349,9.092-1.428,9.221A.992.992,0,0,1,62.723,37.91Z" transform="translate(-0.516 -0.162)" fill="#1b0f0f"/>
        <path id="Path_170" data-name="Path 170" d="M40.4,37.926a.992.992,0,0,1-.863-.5c-.079-.129-1.9-3.391-1.428-9.221a57.251,57.251,0,0,1,1.329-8.825.994.994,0,1,1,1.923.506,54.861,54.861,0,0,0-1.279,8.478c-.416,5.167,1.16,8.051,1.18,8.081a.992.992,0,0,1-.863,1.477Z" transform="translate(-0.323 -0.187)" fill="#1b0f0f"/>
        <path id="Path_171" data-name="Path 171" d="M87.544,48.591a.992.992,0,0,1-.992-.892,36.011,36.011,0,0,0-.992-4.829c-.734-2.776-1.914-6.614-1.923-6.653a.992.992,0,0,1,1.894-.585s1.21,3.916,1.985,6.733A35.615,35.615,0,0,1,88.585,47.5a.992.992,0,0,1-.883,1.081Z" transform="translate(-0.716 -0.362)" fill="#1b0f0f"/>
        <path id="Path_172" data-name="Path 172" d="M12.884,48.593h-.109a.992.992,0,0,1-.883-1.079,37.133,37.133,0,0,1,1.1-5.146c.744-2.816,1.933-6.693,1.985-6.733a.992.992,0,0,1,1.894.585s-1.19,3.877-1.923,6.653a36.012,36.012,0,0,0-.992,4.829A.992.992,0,0,1,12.884,48.593Z" transform="translate(-0.103 -0.364)" fill="#1b0f0f"/>
        <path id="Path_173" data-name="Path 173" d="M50.046,98.85c-14.288,0-26.772-5.86-34.139-16.063a.99.99,0,1,1,1.6-1.17c7.04,9.678,18.9,15.25,32.543,15.25A43.37,43.37,0,0,0,80.3,84.8a.992.992,0,1,1,1.408,1.4,45.373,45.373,0,0,1-31.66,12.652Z" transform="translate(-0.134 -0.717)" fill="#231815"/>
        <path id="Path_174" data-name="Path 174" d="M17.358,55.989a1.984,1.984,0,0,1-.337,0,1.477,1.477,0,0,1-1.11-1.775c.079-.337,1.985-8.081,11.9-9.767a11.026,11.026,0,0,1,9.757,3.49A1.5,1.5,0,0,1,35.3,49.922a8,8,0,0,0-6.941-2.5c-7.873,1.347-9.4,7.256-9.459,7.514A1.5,1.5,0,0,1,17.358,55.989Z" transform="translate(-0.136 -0.403)" fill="#231815"/>
        <ellipse id="Ellipse_36" data-name="Ellipse 36" cx="6.99" cy="7.446" rx="6.99" ry="7.446" transform="translate(21.921 47.624)" fill="#231815"/>
        <path id="Path_175" data-name="Path 175" d="M29.084,64.428A8.924,8.924,0,1,1,38.008,55.5a8.924,8.924,0,0,1-8.924,8.924Zm0-14.873A5.949,5.949,0,1,0,35.034,55.5a5.949,5.949,0,0,0-5.949-5.949Z" transform="translate(-0.173 -0.424)" fill="#231815"/>
        <circle id="Ellipse_37" data-name="Ellipse 37" cx="2.419" cy="2.419" r="2.419" transform="translate(27.365 48.457)" fill="#fff"/>
        <path id="Path_176" data-name="Path 176" d="M27.449,72.826A17.193,17.193,0,1,1,44.642,55.633,17.193,17.193,0,0,1,27.449,72.826Zm0-31.413A14.219,14.219,0,1,0,41.668,55.631,14.219,14.219,0,0,0,27.449,41.413Z" transform="translate(-0.086 -0.355)"/>
        <path id="Path_177" data-name="Path 177" d="M73.853,72.826A17.193,17.193,0,1,1,91.006,55.633,17.193,17.193,0,0,1,73.853,72.826Zm0-31.413A14.219,14.219,0,1,0,88.032,55.632,14.219,14.219,0,0,0,73.853,41.413Z" transform="translate(-0.481 -0.355)"/>
        <path id="Path_178" data-name="Path 178" d="M58,57.249a1.229,1.229,0,0,1-.327,0l-2.152-.476a22.429,22.429,0,0,0-9.608,0l-2.162.476a1.487,1.487,0,1,1-.644-2.9l2.162-.485a25.562,25.562,0,0,1,10.907,0l2.152.486a1.5,1.5,0,1,1-.317,2.975Z" transform="translate(-0.359 -0.482)"/>
        <g id="Group_214" data-name="Group 214" transform="translate(27.442 29.896)" opacity="0.7">
          <ellipse id="Ellipse_38" data-name="Ellipse 38" cx="3.935" cy="2.892" rx="3.935" ry="2.892" transform="translate(0.585 1.884) rotate(-12.095)" fill="#1a0e0e"/>
          <path id="Path_179" data-name="Path 179" d="M32.065,38.053a5.324,5.324,0,0,1-2.211-.466,3.371,3.371,0,0,1-1.17-5.551,5.691,5.691,0,0,1,3.075-1.716c2.707-.565,5.167.654,5.622,2.776h0c.445,2.132-1.319,4.243-4.016,4.819a6.505,6.505,0,0,1-1.3.139Zm.991-5.881a4.522,4.522,0,0,0-.883.089,3.73,3.73,0,0,0-1.985,1.091,1.677,1.677,0,0,0-.476,1.369,1.636,1.636,0,0,0,.992,1.061,3.8,3.8,0,0,0,2.251.169c1.557-.327,2.687-1.457,2.479-2.459C35.267,32.7,34.257,32.172,33.056,32.172Z" transform="translate(-27.68 -30.181)" fill="#1b0f0f"/>
          <ellipse id="Ellipse_39" data-name="Ellipse 39" cx="2.885" cy="3.926" rx="2.885" ry="3.926" transform="translate(38.128 5.949) rotate(-78.06)" fill="#1a0e0e"/>
          <path id="Path_180" data-name="Path 180" d="M71.074,38.053a6.772,6.772,0,0,1-1.319-.119c-2.7-.575-4.462-2.687-3.966-4.819h0c.445-2.122,2.915-3.342,5.612-2.776s4.462,2.687,3.966,4.819C75,36.942,73.216,38.053,71.074,38.053Zm-3.391-4.541c-.208.992.922,2.132,2.489,2.459s3.046-.24,3.262-1.249-.922-2.132-2.479-2.459-3.054.238-3.272,1.249Z" transform="translate(-28 -30.181)" fill="#1b0f0f"/>
        </g>
      </g>
    </g>
  </g>
</svg>
