<svg id="组_5" data-name="组 5" xmlns="http://www.w3.org/2000/svg" width="300.604" height="118.985" viewBox="0 0 300.604 118.985">
  <path id="联合_1" data-name="联合 1" d="M148.756,118.367l-8.61-9H10a10,10,0,0,1-10-10V10A10,10,0,0,1,10,0H290.6a10,10,0,0,1,10,10V99.366a10,10,0,0,1-10,10H160.256l-8.61,9a2,2,0,0,1-2.891,0Z" fill="#fff"/>
  <g id="left-arrow" transform="translate(146.061 112.349) rotate(-90)">
    <g id="组_2" data-name="组 2" transform="translate(0 0)">
      <path id="路径_1" data-name="路径 1" d="M1.649,4.179,4.774,1.053a.458.458,0,0,0,0-.646L4.5.134a.458.458,0,0,0-.646,0L.133,3.854a.461.461,0,0,0,0,.649L3.851,8.22a.458.458,0,0,0,.646,0l.274-.274a.458.458,0,0,0,0-.646Z" fill="#b0dab7"/>
    </g>
  </g>
</svg>
