<svg id="组_5" data-name="组 5" xmlns="http://www.w3.org/2000/svg" width="605" height="239.928" viewBox="0 0 605 239.928">
  <path id="联合_1" data-name="联合 1" d="M300.128,239l-18.068-18.89H10a10,10,0,0,1-10-10V10A10,10,0,0,1,10,0H595a10,10,0,0,1,10,10V210.111a10,10,0,0,1-10,10H322.533L304.465,239a3,3,0,0,1-4.336,0Z" transform="translate(0 0)" fill="#fff"/>
  <g id="left-arrow" transform="translate(293.964 226.115) rotate(-90)">
    <g id="组_2" data-name="组 2" transform="translate(0 0)">
      <path id="路径_1" data-name="路径 1" d="M3.319,8.41l6.29-6.29a.922.922,0,0,0,0-1.3L9.058.269a.921.921,0,0,0-1.3,0L.268,7.758a.928.928,0,0,0,0,1.305L7.75,16.545a.921.921,0,0,0,1.3,0l.551-.551a.921.921,0,0,0,0-1.3Z" fill="#b0dab7"/>
    </g>
  </g>
</svg>
