<svg xmlns="http://www.w3.org/2000/svg" width="357" height="357" viewBox="0 0 357 357">
  <g id="组_131" data-name="组 131" transform="translate(-1086 -2663)">
    <circle id="椭圆_3" data-name="椭圆 3" cx="178.5" cy="178.5" r="178.5" transform="translate(1086 2663)" fill="#fff"/>
    <g id="组_112" data-name="组 112" transform="translate(1134.032 2690.846)">
      <path id="路径_114" data-name="路径 114" d="M-109.687,543.377" transform="translate(255.279 -415.386)" fill="none" stroke="#231815" stroke-linecap="round" stroke-linejoin="round" stroke-width="5"/>
      <g id="组_112-2" data-name="组 112" transform="translate(48.02 157.96)">
        <circle id="椭圆_17" data-name="椭圆 17" cx="29.927" cy="29.927" r="29.927" fill="#ea5f3e" opacity="0.33"/>
        <circle id="椭圆_18" data-name="椭圆 18" cx="29.927" cy="29.927" r="29.927" transform="translate(109.155)" fill="#ea5f3e" opacity="0.33"/>
      </g>
      <g id="组_115" data-name="组 115" transform="translate(72.747 87.754)" opacity="0.9">
        <g id="组_113" data-name="组 113" transform="translate(0 0)">
          <ellipse id="椭圆_19" data-name="椭圆 19" cx="9.563" cy="7.027" rx="9.563" ry="7.027" transform="translate(0 3.956) rotate(-11.936)" fill="#1a0e0e"/>
          <path id="路径_115" data-name="路径 115" d="M-155.16,530.2a11.958,11.958,0,0,1-4.933-1.016,7.5,7.5,0,0,1-4.517-5.212,7.506,7.506,0,0,1,2.02-6.6,12.79,12.79,0,0,1,6.905-3.824,12.776,12.776,0,0,1,7.86.7,7.5,7.5,0,0,1,4.517,5.212,7.5,7.5,0,0,1-2.02,6.6,12.793,12.793,0,0,1-6.9,3.825A14.257,14.257,0,0,1-155.16,530.2Zm2.408-14.315a11.514,11.514,0,0,0-2.387.255,10.125,10.125,0,0,0-5.477,3,4.934,4.934,0,0,0-1.406,4.288A4.935,4.935,0,0,0-159,526.771a10.135,10.135,0,0,0,6.223.525,10.126,10.126,0,0,0,5.477-3,4.931,4.931,0,0,0,1.406-4.286h0a4.935,4.935,0,0,0-3.019-3.351A9.333,9.333,0,0,0-152.752,515.88Z" transform="translate(164.769 -512.862)" fill="#1b0f0f"/>
        </g>
        <g id="组_114" data-name="组 114" transform="translate(91.701 0)">
          <ellipse id="椭圆_20" data-name="椭圆 20" cx="7.027" cy="9.563" rx="7.027" ry="9.563" transform="translate(0 13.75) rotate(-78.064)" fill="#1a0e0e"/>
          <path id="路径_116" data-name="路径 116" d="M-83.423,530.2a14.173,14.173,0,0,1-2.929-.311c-5.871-1.242-9.874-5.916-8.923-10.42h0a7.5,7.5,0,0,1,4.517-5.212,12.779,12.779,0,0,1,7.861-.7,12.781,12.781,0,0,1,6.9,3.824,7.5,7.5,0,0,1,2.02,6.6,7.494,7.494,0,0,1-4.517,5.212A11.952,11.952,0,0,1-83.423,530.2Zm-9.265-10.184c-.649,3.078,2.437,6.344,6.884,7.285a10.129,10.129,0,0,0,6.221-.525,4.932,4.932,0,0,0,3.019-3.351,4.936,4.936,0,0,0-1.4-4.288,10.135,10.135,0,0,0-5.477-3,10.114,10.114,0,0,0-6.223.525,4.94,4.94,0,0,0-3.021,3.351Z" transform="translate(95.434 -512.862)" fill="#1b0f0f"/>
        </g>
      </g>
      <path id="路径_117" data-name="路径 117" d="M-106.294,631.848a110.515,110.515,0,0,1-62.42-19.181,3.308,3.308,0,0,1-.874-4.593,3.308,3.308,0,0,1,4.595-.874,103.928,103.928,0,0,0,58.7,18.036,103.944,103.944,0,0,0,58.563-17.942,3.307,3.307,0,0,1,4.592.881,3.307,3.307,0,0,1-.881,4.593A110.535,110.535,0,0,1-106.294,631.848Z" transform="translate(235.772 -394.984)" fill="#231815"/>
      <g id="组_118" data-name="组 118" transform="translate(0 0)">
        <g id="组_117" data-name="组 117">
          <g id="组_116" data-name="组 116">
            <path id="路径_118" data-name="路径 118" d="M-57.24,524.631s36.591,23.806,41.882,32.182,8.816,20.28,9.258,27.333,2.775,26.451-6.769,40.559S-29.778,632.2-31.385,652.92s14.263,21.161,14.263,21.161-19.4-3.527-20.279,22.484,35.98,20.5,44.442,18.737,30.374-10.836,29.4-35.947-15.65-18.765-15.65-33.4S44.6,527.276-7.588,481.813l-5.895-5.061A120.592,120.592,0,0,0-90.5,449.1c-30.1,0-58.439,10.2-79.621,28.386l-6.035,5.29c-53.894,49.789-25.428,148.541-25.428,163.177s-14.678,8.289-15.65,33.4,20.94,34.183,29.4,35.947,45.324,7.274,44.442-18.737-20.279-22.484-20.279-22.484,15.871-.441,14.263-21.161-8.972-14.108-18.516-28.214-7.209-33.506-6.769-40.559,3.968-18.956,9.258-27.333,41.882-32.182,41.882-32.182,6.289-4.519,7.647-5.511" transform="translate(220.576 -445.796)" fill="#724b42"/>
            <path id="路径_119" data-name="路径 119" d="M-8.817,721.135c-8.371,0-17.818-1.428-24.108-6.723-4.875-4.1-7.221-9.874-6.975-17.154.337-9.932,3.257-17.185,8.68-21.558a18.6,18.6,0,0,1,3.6-2.273c-.4-.368-.8-.764-1.18-1.192-3.989-4.432-5.695-10.745-5.073-18.765,1.044-13.443,4.542-16.875,10.181-20.928A31.778,31.778,0,0,0-14.8,623.66c8.148-12.043,6.929-28.608,6.343-36.57-.053-.717-.1-1.362-.136-1.931-.4-6.5-3.79-17.917-8.753-25.774-3.6-5.695-26.423-21.764-40.888-31.176a3.306,3.306,0,0,1-.969-4.575,3.308,3.308,0,0,1,4.575-.969c3.808,2.477,37.356,24.454,42.874,33.188,5.737,9.083,9.311,21.666,9.763,28.893.033.546.079,1.169.131,1.858.64,8.7,1.972,26.815-7.461,40.759a37.977,37.977,0,0,1-10.512,10.549c-4.234,3.044-6.567,4.72-7.447,16.069-.472,6.1.649,10.73,3.334,13.764a12.038,12.038,0,0,0,6.938,3.738c.749.057,1.21.136,1.287.151a3.306,3.306,0,0,1,2.7,3.6,3.309,3.309,0,0,1-3.38,2.963,12.482,12.482,0,0,1-1.328-.132,13.85,13.85,0,0,0-9.4,2.838c-3.82,3.121-5.892,8.7-6.159,16.585-.177,5.219,1.334,9.1,4.624,11.87,8.258,6.951,26.414,5.483,35.839,3.518,1.135-.237,27.8-6.1,26.771-32.583-.491-12.689-4.536-16.135-8.449-19.468-3.376-2.878-7.2-6.137-7.2-14.062,0-2.443.559-6.8,1.334-12.833C23.91,600.576,33.94,522.48-8.955,485.112l-5.876-5.047A117.92,117.92,0,0,0-89.7,453.215c-29.229,0-56.741,9.8-77.468,27.589l-6.008,5.266c-43.655,40.332-31.4,114.866-26.163,146.692,1.082,6.572,1.862,11.32,1.862,14,0,7.925-3.827,11.184-7.2,14.062-3.913,3.333-7.958,6.779-8.45,19.468-1.025,26.478,25.637,32.346,26.773,32.583,9.426,1.964,27.579,3.432,35.839-3.518,3.288-2.768,4.8-6.651,4.622-11.87-.267-7.884-2.34-13.464-6.159-16.585a13.852,13.852,0,0,0-9.409-2.837,12.389,12.389,0,0,1-1.315.131,3.307,3.307,0,0,1-3.379-2.963,3.306,3.306,0,0,1,2.7-3.6c.077-.015.545-.094,1.3-.152a12.046,12.046,0,0,0,6.922-3.736c2.685-3.034,3.806-7.664,3.333-13.764-.879-11.349-3.213-13.025-7.446-16.069a38,38,0,0,1-10.512-10.548c-9.433-13.945-8.1-32.056-7.459-40.761.05-.688.1-1.311.13-1.857.452-7.228,4.027-19.811,9.763-28.893,5.487-8.686,38.7-30.473,42.809-33.146.653-.47,6.289-4.519,7.565-5.453a3.306,3.306,0,0,1,4.62.722,3.307,3.307,0,0,1-.721,4.621c-1.362.993-7.667,5.524-7.667,5.524-.041.03-.085.058-.127.087-14.465,9.411-37.291,25.481-40.888,31.176-4.961,7.856-8.347,19.275-8.753,25.774-.036.567-.083,1.214-.136,1.93-.586,7.962-1.8,24.527,6.342,36.571a31.814,31.814,0,0,0,8.894,8.882c5.639,4.054,9.138,7.484,10.181,20.928.622,8.02-1.085,14.333-5.072,18.765-.385.427-.78.824-1.181,1.192a18.564,18.564,0,0,1,3.6,2.273c5.423,4.372,8.343,11.625,8.679,21.558.247,7.279-2.1,13.05-6.974,17.154-12.3,10.35-36.683,5.928-41.445,4.932-12.363-2.578-33.022-13.757-32.031-39.311.6-15.586,6.478-20.592,10.768-24.247,3.042-2.592,4.879-4.157,4.879-9.028,0-2.137-.783-6.9-1.774-12.923-5.408-32.878-18.072-109.875,28.265-152.679l6.1-5.348c21.951-18.843,50.993-29.206,81.8-29.206a124.583,124.583,0,0,1,79.126,28.406l5.944,5.1C40.948,519.817,30.6,600.37,26.185,634.769c-.716,5.571-1.28,9.969-1.28,11.99,0,4.871,1.837,6.436,4.879,9.028,4.29,3.654,10.165,8.66,10.77,24.247.989,25.553-19.669,36.733-32.031,39.311A89.807,89.807,0,0,1-8.817,721.135Z" transform="translate(219.77 -446.602)" fill="#231815"/>
          </g>
        </g>
        <path id="路径_120" data-name="路径 120" d="M-57.84,547.713a3.307,3.307,0,0,1-3.117-2.206c-2.46-6.955-9.918-25.906-12.424-30.606a3.308,3.308,0,0,1,1.362-4.474,3.309,3.309,0,0,1,4.473,1.361c2.883,5.407,10.487,24.906,12.824,31.515a3.308,3.308,0,0,1-2.016,4.22A3.311,3.311,0,0,1-57.84,547.713Z" transform="translate(266.864 -426.14)" fill="#231815"/>
        <path id="路径_121" data-name="路径 121" d="M-180.463,547.713a3.325,3.325,0,0,1-1.1-.189,3.308,3.308,0,0,1-2.014-4.22c2.337-6.609,9.94-26.109,12.824-31.515a3.308,3.308,0,0,1,4.473-1.361,3.309,3.309,0,0,1,1.362,4.474c-2.506,4.7-9.964,23.65-12.424,30.606A3.307,3.307,0,0,1-180.463,547.713Z" transform="translate(231.382 -426.14)" fill="#231815"/>
      </g>
      <g id="组_119" data-name="组 119" transform="translate(102.587 57.895)">
        <path id="路径_122" data-name="路径 122" d="M-137.368,492.877a102.479,102.479,0,0,0-.376,41.669,10.142,10.142,0,0,0,11.76,7.988,76.838,76.838,0,0,1,13.341-1.32,72.519,72.519,0,0,1,12.794,1.2A10.162,10.162,0,0,0-88.027,534.5a130.75,130.75,0,0,0,2.35-19.267c.651-12.258-2.341-19.813-2.341-19.813" transform="translate(143.01 -489.571)" fill="#724b42"/>
        <path id="路径_123" data-name="路径 123" d="M-126.959,546.807A13.533,13.533,0,0,1-140.179,536a105.659,105.659,0,0,1,.39-43.026,3.3,3.3,0,0,1,3.939-2.52,3.3,3.3,0,0,1,2.52,3.937,99.02,99.02,0,0,0-.364,40.312,6.886,6.886,0,0,0,7.931,5.383,79.091,79.091,0,0,1,13.928-1.373,75.465,75.465,0,0,1,13.383,1.253,6.831,6.831,0,0,0,7.994-5.322,128.076,128.076,0,0,0,2.287-18.78c.6-11.281-2.09-18.359-2.117-18.43a3.31,3.31,0,0,1,1.874-4.279,3.3,3.3,0,0,1,4.278,1.856c.134.336,3.25,8.373,2.568,21.2a134.606,134.606,0,0,1-2.412,19.756,13.4,13.4,0,0,1-15.649,10.5,68.972,68.972,0,0,0-12.206-1.147,72.519,72.519,0,0,0-12.752,1.267A13.4,13.4,0,0,1-126.959,546.807Z" transform="translate(142.203 -490.377)" fill="#231815"/>
      </g>
      <path id="路径_124" data-name="路径 124" d="M-131.224,550.995" transform="translate(248.332 -412.929)" fill="none" stroke="#231815" stroke-linecap="round" stroke-linejoin="round" stroke-width="5"/>
      <path id="路径_125" data-name="路径 125" d="M-116.979,590.683c-13.021,0-19.832-8.029-20.244-23.868a4.8,4.8,0,0,1,1.386-3.5,5.257,5.257,0,0,1,3.753-1.565h29.973a5.487,5.487,0,0,1,3.943,1.656,4.981,4.981,0,0,1,1.413,3.669C-97.369,582.741-104.174,590.683-116.979,590.683Zm-14.945-23.641c.414,12.687,5.032,18.351,14.945,18.351s14.387-5.489,14.93-18.344a.289.289,0,0,0-.062-.007Z" transform="translate(246.396 -409.459)"/>
      <g id="组_122" data-name="组 122" transform="translate(159.777 106.232)">
        <g id="组_121" data-name="组 121" transform="translate(0 6.862)">
          <path id="路径_126" data-name="路径 126" d="M-50.941,567.525l-.134,0a3.307,3.307,0,0,1-3.173-3.435c.686-17.4-10.608-22.747-15.5-24.239-9.115-2.78-19.479-.274-23.1,5.591a3.306,3.306,0,0,1-4.55,1.079,3.308,3.308,0,0,1-1.078-4.551c5.182-8.4,18.647-12.109,30.654-8.443,13.235,4.038,20.776,15.561,20.174,30.824A3.307,3.307,0,0,1-50.941,567.525Z" transform="translate(98.962 -532.113)" fill="#231815"/>
          <g id="组_120" data-name="组 120" transform="translate(1.153 4.47)">
            <ellipse id="椭圆_21" data-name="椭圆 21" cx="18.226" cy="16.684" rx="18.226" ry="16.684" transform="translate(2.478 38.958) rotate(-87.326)" fill="#231815"/>
            <path id="路径_127" data-name="路径 127" d="M-78.209,578.552q-.444,0-.89-.021a19.163,19.163,0,0,1-13.923-7.069,22.289,22.289,0,0,1-5.042-15.374,22.289,22.289,0,0,1,6.453-14.834,19.156,19.156,0,0,1,14.52-5.74c11.01.513,19.517,10.582,18.963,22.441a22.277,22.277,0,0,1-6.453,14.835A19.206,19.206,0,0,1-78.209,578.552Zm.239-36.446a12.681,12.681,0,0,0-8.978,3.837A15.692,15.692,0,0,0-91.459,556.4h0a15.7,15.7,0,0,0,3.518,10.831,12.626,12.626,0,0,0,9.148,4.7,12.587,12.587,0,0,0,9.549-3.824,15.685,15.685,0,0,0,4.511-10.455c.384-8.218-5.3-15.183-12.668-15.528C-77.59,542.11-77.78,542.106-77.97,542.106Zm-16.791,14.138h0Z" transform="translate(98.09 -535.493)" fill="#231815"/>
          </g>
          <circle id="椭圆_22" data-name="椭圆 22" cx="5.208" cy="5.208" r="5.208" transform="translate(13.796 9.276)" fill="#fff"/>
        </g>
        <path id="路径_128" data-name="路径 128" d="M-75.072,538.867a3.306,3.306,0,0,1-.716-.078,3.308,3.308,0,0,1-2.517-3.942l1.177-5.327A3.31,3.31,0,0,1-73.186,527a3.308,3.308,0,0,1,2.517,3.943l-1.177,5.327A3.308,3.308,0,0,1-75.072,538.867Z" transform="translate(105.6 -526.924)" fill="#231815"/>
      </g>
      <g id="组_125" data-name="组 125" transform="translate(50.006 108.421)">
        <g id="组_124" data-name="组 124" transform="translate(0 4.676)">
          <path id="路径_129" data-name="路径 129" d="M-178.624,567.524a3.309,3.309,0,0,1-3.3-3.177c-.6-15.262,6.939-26.786,20.174-30.824,12.009-3.659,25.473.045,30.654,8.443a3.308,3.308,0,0,1-1.078,4.551,3.307,3.307,0,0,1-4.55-1.079c-3.619-5.863-13.978-8.368-23.1-5.591-4.888,1.492-16.183,6.84-15.5,24.239a3.308,3.308,0,0,1-3.174,3.435Z" transform="translate(181.96 -532.115)" fill="#231815"/>
          <g id="组_123" data-name="组 123" transform="translate(10.214 4.466)">
            <ellipse id="椭圆_23" data-name="椭圆 23" cx="16.684" cy="18.226" rx="16.684" ry="18.226" transform="translate(2.478 4.103) rotate(-2.674)" fill="#231815"/>
            <path id="路径_130" data-name="路径 130" d="M-154.131,578.552a19.206,19.206,0,0,1-13.628-5.761,22.277,22.277,0,0,1-6.453-14.835,22.281,22.281,0,0,1,5.042-15.372,19.167,19.167,0,0,1,13.921-7.069,19.14,19.14,0,0,1,14.52,5.74,22.289,22.289,0,0,1,6.453,14.835h0a22.288,22.288,0,0,1-5.042,15.372,19.163,19.163,0,0,1-13.923,7.069Q-153.686,578.553-154.131,578.552Zm-.238-36.446c-.19,0-.38,0-.57.013a12.63,12.63,0,0,0-9.15,4.7,15.684,15.684,0,0,0-3.518,10.83A15.686,15.686,0,0,0-163.1,568.1a12.614,12.614,0,0,0,9.548,3.823,12.626,12.626,0,0,0,9.149-4.7A15.691,15.691,0,0,0-140.88,556.4h0a15.687,15.687,0,0,0-4.513-10.455A12.681,12.681,0,0,0-154.369,542.106Z" transform="translate(174.238 -535.492)" fill="#231815"/>
          </g>
          <circle id="椭圆_24" data-name="椭圆 24" cx="5.208" cy="5.208" r="5.208" transform="translate(27.144 9.273)" fill="#fff"/>
        </g>
        <path id="路径_131" data-name="路径 131" d="M-167.505,540.2a3.306,3.306,0,0,1-3.034-1.989l-2.176-5A3.308,3.308,0,0,1-171,528.854a3.307,3.307,0,0,1,4.35,1.714l2.176,5a3.307,3.307,0,0,1-1.713,4.351A3.3,3.3,0,0,1-167.505,540.2Z" transform="translate(184.854 -528.58)" fill="#231815"/>
      </g>
    </g>
  </g>
</svg>
