<svg id="Group_216" data-name="Group 216" xmlns="http://www.w3.org/2000/svg" width="89" height="90" viewBox="0 0 89 90">
  <g id="Group_215" data-name="Group 215" transform="translate(0 0)">
    <ellipse id="Ellipse_3" data-name="Ellipse 3" cx="44.5" cy="45" rx="44.5" ry="45" transform="translate(0 0)" fill="#fff"/>
  </g>
  <g id="Layer_2" data-name="Layer 2" transform="translate(11.658 7.554)">
    <g id="Layer_1" data-name="Layer 1" transform="translate(0 0)">
      <path id="Path_163" data-name="Path 163" d="M76.426,51.992a.982.982,0,0,1-.956-.759c-.039-.164-1.047-4.065-6.245-4.956a5.283,5.283,0,0,0-4.583,1.649.993.993,0,0,1-1.493-1.31,7.28,7.28,0,0,1,6.442-2.3c6.547,1.115,7.77,6.228,7.856,6.45a.975.975,0,0,1-.733,1.172A.9.9,0,0,1,76.426,51.992Z" transform="translate(-21.724 -15.292)" fill="#231815"/>
      <ellipse id="Ellipse_32" data-name="Ellipse 32" cx="4.615" cy="4.916" rx="4.615" ry="4.916" transform="translate(42.368 31.443)" fill="#231815"/>
      <path id="Path_164" data-name="Path 164" d="M68.5,58.368a5.892,5.892,0,1,1,5.6-5.892A5.754,5.754,0,0,1,68.5,58.368Zm0-9.82a3.928,3.928,0,1,0,3.633,3.928A3.79,3.79,0,0,0,68.5,48.542Z" transform="translate(-21.521 -16.11)" fill="#231815"/>
      <circle id="Ellipse_33" data-name="Ellipse 33" cx="1.597" cy="1.597" r="1.597" transform="translate(44.81 31.993)" fill="#fff"/>
      <path id="Path_165" data-name="Path 165" d="M42.6,70.557H42.47a.656.656,0,1,1,.066-1.31A6.331,6.331,0,0,0,45.1,68.7a4.393,4.393,0,0,0,1.6-.956.657.657,0,0,1,1.1.72,4.911,4.911,0,0,1-2.154,1.408A7.857,7.857,0,0,1,42.6,70.557Z" transform="translate(-14.451 -23.31)"/>
      <path id="Path_166" data-name="Path 166" d="M54.654,70.6a8.027,8.027,0,0,1-2.92-.589,4.852,4.852,0,0,1-2.187-1.362.657.657,0,0,1,1.08-.746h0a5.113,5.113,0,0,0,1.6.884,6.31,6.31,0,0,0,2.573.5.657.657,0,0,1,.1,1.31Z" transform="translate(-17.097 -23.41)"/>
      <circle id="Ellipse_34" data-name="Ellipse 34" cx="8.118" cy="8.118" r="8.118" transform="translate(10.146 41.492)" fill="#ea5f3e" opacity="0.33"/>
      <circle id="Ellipse_35" data-name="Ellipse 35" cx="8.118" cy="8.118" r="8.118" transform="translate(39.763 41.492)" fill="#ea5f3e" opacity="0.33"/>
      <path id="Path_167" data-name="Path 167" d="M11.11,28.626C14.383,26.819,23.1,24.3,33.368,24.3a62.474,62.474,0,0,1,21.276,3.928,4.962,4.962,0,0,1,3.168,3.967,100.012,100.012,0,0,1,.864,10.062c.34,8.327-4.949,14.062-6.972,16.766s-6.808,6.632-5.289,8.55c2.213,2.782,7.424-2.029,7.424-2.029s-1.008,2.029,1.237,2.029,11.476-5.178,10.35-21.938-3.457-22.186-3.457-22.186a29.46,29.46,0,0,0-57.126-.314l-.308,1.192C3.993,26.46,1.97,32.575,1.1,45.622-.026,62.381,9.2,67.56,11.476,67.56s1.237-2.03,1.237-2.03,5.237,4.812,7.424,2.03c1.519-1.918-3.273-5.852-5.29-8.55s-7.339-8.44-7-16.754A100.2,100.2,0,0,1,8.714,32.24,4.975,4.975,0,0,1,10.4,29.163a8.512,8.512,0,0,1,.713-.537Z" transform="translate(-0.348 -0.378)" fill="#2a2827"/>
      <path id="Path_168" data-name="Path 168" d="M47.915,68.749h-.268a2.867,2.867,0,0,1-2.088-1.107c-1.46-1.84.943-4.478,3.273-7.024.766-.838,1.486-1.63,2.011-2.324.209-.288.458-.6.727-.949,2.232-2.88,6.4-8.2,6.108-15.437-.183-4.517-.57-7.908-.859-9.951a4.334,4.334,0,0,0-2.75-3.45,62.062,62.062,0,0,0-21.047-3.928c-10.35,0-18.952,2.619-21.944,4.249a6.245,6.245,0,0,0-.655.452,4.321,4.321,0,0,0-1.44,2.664,99.779,99.779,0,0,0-.825,9.964c-.294,7.2,3.876,12.543,6.115,15.4.268.347.517.655.727.949.524.694,1.244,1.486,2,2.324,2.331,2.547,4.734,5.186,3.274,7.025a2.867,2.867,0,0,1-2.088,1.146c-1.741.131-3.777-1.107-5.047-2.049a1.61,1.61,0,0,1-.164.36,2.029,2.029,0,0,1-1.846.805c-1.218,0-3.5-1.047-5.656-3.352C2.619,61.488-.6,55.688.1,45.227A98.176,98.176,0,0,1,3.326,24.684c.092-.34.17-.655.229-.864l.294-1.159a.158.158,0,0,1,0-.052,30.114,30.114,0,0,1,58.382.275c.262.655,2.416,6.337,3.489,22.343.7,10.474-2.52,16.262-5.355,19.286-2.146,2.3-4.432,3.352-5.65,3.352a2.029,2.029,0,0,1-1.872-.831,1.61,1.61,0,0,1-.164-.36C51.483,67.57,49.591,68.749,47.915,68.749ZM33.022,23.3a63.338,63.338,0,0,1,21.505,4,5.617,5.617,0,0,1,3.588,4.491c.294,2.075.655,5.513.871,10.082.314,7.7-4.046,13.27-6.389,16.262-.268.334-.511.655-.713.923-.563.746-1.31,1.559-2.088,2.416-1.676,1.846-3.967,4.367-3.214,5.316a1.571,1.571,0,0,0,1.165.615c1.787.138,4.439-1.912,5.3-2.711a.655.655,0,0,1,1.034.772,1.165,1.165,0,0,0-.111.871c.085.131.367.209.759.209.655,0,2.619-.72,4.694-2.933,2.619-2.835,5.676-8.314,5-18.33-1.1-16.366-3.378-21.911-3.4-21.964a.658.658,0,0,1,0-.1,28.8,28.8,0,0,0-55.888-.288h0a.327.327,0,0,1,0,.085c-.052.275-.144.655-.268,1.126-.059.242-.144.537-.236.89C3.9,27.641,2.214,33.795,1.442,45.317c-.655,10,2.35,15.476,5,18.33,2.075,2.213,4.059,2.933,4.7,2.933a1.007,1.007,0,0,0,.759-.209,1.218,1.218,0,0,0-.118-.9.652.652,0,0,1,1.028-.766c.871.8,3.522,2.847,5.309,2.711a1.545,1.545,0,0,0,1.126-.635c.766-.962-1.532-3.483-3.208-5.329-.786-.859-1.525-1.669-2.088-2.416-.2-.282-.445-.589-.713-.923-2.344-2.979-6.69-8.543-6.389-16.249a101.174,101.174,0,0,1,.871-10.082,5.643,5.643,0,0,1,1.905-3.5,8.511,8.511,0,0,1,.851-.583h0c3.2-1.773,11.876-4.411,22.546-4.411Z" transform="translate(-0.002 -0.029)" fill="#231815"/>
      <path id="Path_169" data-name="Path 169" d="M62.381,31.332a.655.655,0,0,1-.563-.982,10.481,10.481,0,0,0,.772-5.335,36.805,36.805,0,0,0-.838-5.6.655.655,0,1,1,1.263-.334,36.849,36.849,0,0,1,.877,5.825A11.062,11.062,0,0,1,62.951,31,.655.655,0,0,1,62.381,31.332Z" transform="translate(-21.309 -6.408)" fill="#1b0f0f"/>
      <path id="Path_170" data-name="Path 170" d="M39.595,31.374a.655.655,0,0,1-.57-.327,11.065,11.065,0,0,1-.943-6.088,37.8,37.8,0,0,1,.877-5.826.657.657,0,1,1,1.27.334,36.223,36.223,0,0,0-.845,5.6,10.068,10.068,0,0,0,.779,5.335.655.655,0,0,1-.57.975Z" transform="translate(-13.134 -6.458)" fill="#1b0f0f"/>
      <path id="Path_171" data-name="Path 171" d="M86.205,43.966a.655.655,0,0,1-.655-.589,23.782,23.782,0,0,0-.655-3.188c-.484-1.833-1.263-4.367-1.27-4.393a.655.655,0,0,1,1.25-.386s.8,2.586,1.31,4.445a23.516,23.516,0,0,1,.707,3.391.655.655,0,0,1-.583.713Z" transform="translate(-28.878 -12.124)" fill="#1b0f0f"/>
      <path id="Path_172" data-name="Path 172" d="M12.545,43.969h-.072a.655.655,0,0,1-.583-.713,24.516,24.516,0,0,1,.727-3.4c.491-1.859,1.277-4.419,1.31-4.445a.655.655,0,0,1,1.25.386s-.786,2.56-1.27,4.393a23.777,23.777,0,0,0-.655,3.188A.655.655,0,0,1,12.545,43.969Z" transform="translate(-4.107 -12.127)" fill="#1b0f0f"/>
      <path id="Path_173" data-name="Path 173" d="M38.383,92.857c-9.434,0-17.676-3.869-22.54-10.605a.653.653,0,1,1,1.054-.772c4.648,6.39,12.478,10.069,21.486,10.069a28.635,28.635,0,0,0,19.973-7.966.655.655,0,1,1,.93.923,29.957,29.957,0,0,1-20.9,8.353Z" transform="translate(-5.428 -28.066)" fill="#231815"/>
      <path id="Path_174" data-name="Path 174" d="M16.853,52.028a1.311,1.311,0,0,1-.223,0,.975.975,0,0,1-.733-1.172c.052-.223,1.31-5.335,7.856-6.448a7.28,7.28,0,0,1,6.442,2.3.993.993,0,0,1-1.493,1.31,5.283,5.283,0,0,0-4.583-1.649c-5.2.889-6.206,4.791-6.245,4.961A.988.988,0,0,1,16.853,52.028Z" transform="translate(-5.482 -15.328)" fill="#231815"/>
      <ellipse id="Ellipse_36" data-name="Ellipse 36" cx="4.615" cy="4.916" rx="4.615" ry="4.916" transform="translate(14.473 31.443)" fill="#231815"/>
      <path id="Path_175" data-name="Path 175" d="M26.053,58.365a5.892,5.892,0,1,1,5.892-5.892,5.892,5.892,0,0,1-5.892,5.892Zm0-9.82a3.928,3.928,0,1,0,3.928,3.928,3.928,3.928,0,0,0-3.928-3.928Z" transform="translate(-6.964 -16.106)" fill="#231815"/>
      <circle id="Ellipse_37" data-name="Ellipse 37" cx="1.597" cy="1.597" r="1.597" transform="translate(18.068 31.993)" fill="#fff"/>
      <path id="Path_176" data-name="Path 176" d="M21.608,61.143A11.352,11.352,0,1,1,32.959,49.792,11.352,11.352,0,0,1,21.608,61.143Zm0-20.74A9.388,9.388,0,1,0,31,49.791,9.388,9.388,0,0,0,21.608,40.4Z" transform="translate(-3.541 -13.294)"/>
      <path id="Path_177" data-name="Path 177" d="M68,61.143A11.352,11.352,0,1,1,79.323,49.792,11.352,11.352,0,0,1,68,61.143ZM68,40.4a9.388,9.388,0,1,0,9.362,9.388A9.388,9.388,0,0,0,68,40.4Z" transform="translate(-19.554 -13.294)"/>
      <path id="Path_178" data-name="Path 178" d="M52.5,55.9a.812.812,0,0,1-.216,0l-1.421-.314a14.809,14.809,0,0,0-6.344,0L43.1,55.9a.982.982,0,1,1-.425-1.912l1.427-.32a16.877,16.877,0,0,1,7.2,0l1.421.321a.988.988,0,1,1-.209,1.964Z" transform="translate(-14.449 -18.421)"/>
      <g id="Group_214" data-name="Group 214" transform="translate(18.118 19.739)" opacity="0.7">
        <ellipse id="Ellipse_38" data-name="Ellipse 38" cx="2.598" cy="1.909" rx="2.598" ry="1.909" transform="translate(0.386 1.244) rotate(-12.095)" fill="#1a0e0e"/>
        <path id="Path_179" data-name="Path 179" d="M30.575,35.378a3.516,3.516,0,0,1-1.46-.308,2.226,2.226,0,0,1-.772-3.665,3.758,3.758,0,0,1,2.03-1.133c1.787-.373,3.412.432,3.712,1.833h0c.294,1.408-.871,2.8-2.651,3.182A4.3,4.3,0,0,1,30.575,35.378Zm.655-3.883a2.985,2.985,0,0,0-.583.059,2.463,2.463,0,0,0-1.31.72,1.107,1.107,0,0,0-.314.9,1.08,1.08,0,0,0,.655.7,2.508,2.508,0,0,0,1.486.111c1.028-.216,1.774-.962,1.637-1.624C32.689,31.843,32.022,31.5,31.229,31.5Z" transform="translate(-27.68 -30.181)" fill="#1b0f0f"/>
        <ellipse id="Ellipse_39" data-name="Ellipse 39" cx="1.905" cy="2.592" rx="1.905" ry="2.592" transform="translate(25.174 3.928) rotate(-78.06)" fill="#1a0e0e"/>
        <path id="Path_180" data-name="Path 180" d="M69.25,35.385a4.47,4.47,0,0,1-.871-.078c-1.781-.38-2.946-1.774-2.619-3.182h0c.294-1.4,1.925-2.206,3.705-1.833s2.946,1.774,2.619,3.182A2.685,2.685,0,0,1,69.25,35.385Zm-2.239-3c-.137.655.609,1.408,1.643,1.624s2.011-.158,2.154-.825-.609-1.408-1.637-1.624S67.155,31.719,67.011,32.387Z" transform="translate(-40.811 -30.188)" fill="#1b0f0f"/>
      </g>
    </g>
  </g>
</svg>
