<svg xmlns="http://www.w3.org/2000/svg" width="89" height="90" viewBox="0 0 89 90">
  <g id="组_293" data-name="组 293" transform="translate(-116 -478)">
    <ellipse id="椭圆_3" data-name="椭圆 3" cx="44.5" cy="45" rx="44.5" ry="45" transform="translate(116 478)" fill="#fff"/>
    <path id="路径_114" data-name="路径 114" d="M-109.687,543.377" transform="translate(273.891 -26.446)" fill="none" stroke="#231815" stroke-linecap="round" stroke-linejoin="round" stroke-width="5"/>
    <g id="组_112" data-name="组 112" transform="translate(139.828 524.418)">
      <circle id="椭圆_17" data-name="椭圆 17" cx="7.477" cy="7.477" r="7.477" fill="#ea5f3e" opacity="0.33"/>
      <circle id="椭圆_18" data-name="椭圆 18" cx="7.477" cy="7.477" r="7.477" transform="translate(27.269)" fill="#ea5f3e" opacity="0.33"/>
    </g>
    <g id="组_115" data-name="组 115" transform="translate(146.006 506.879)" opacity="0.9">
      <g id="组_113" data-name="组 113" transform="translate(0 0)">
        <ellipse id="椭圆_19" data-name="椭圆 19" cx="2.389" cy="1.756" rx="2.389" ry="1.756" transform="translate(0 0.988) rotate(-11.936)" fill="#1a0e0e"/>
        <path id="路径_115" data-name="路径 115" d="M-162.357,517.473a2.988,2.988,0,0,1-1.232-.254,1.873,1.873,0,0,1-1.128-1.3,1.875,1.875,0,0,1,.5-1.648,3.2,3.2,0,0,1,1.725-.955,3.191,3.191,0,0,1,1.964.176,1.873,1.873,0,0,1,1.128,1.3,1.875,1.875,0,0,1-.5,1.648,3.2,3.2,0,0,1-1.725.956A3.56,3.56,0,0,1-162.357,517.473Zm.6-3.576a2.879,2.879,0,0,0-.6.064,2.529,2.529,0,0,0-1.368.749,1.232,1.232,0,0,0-.351,1.071,1.233,1.233,0,0,0,.754.837,2.532,2.532,0,0,0,1.555.131,2.529,2.529,0,0,0,1.368-.749,1.232,1.232,0,0,0,.351-1.071h0a1.233,1.233,0,0,0-.754-.837A2.331,2.331,0,0,0-161.756,513.9Z" transform="translate(164.758 -513.143)" fill="#1b0f0f"/>
      </g>
      <g id="组_114" data-name="组 114" transform="translate(22.909 0)">
        <ellipse id="椭圆_20" data-name="椭圆 20" cx="1.756" cy="2.389" rx="1.756" ry="2.389" transform="translate(0 3.435) rotate(-78.064)" fill="#1a0e0e"/>
        <path id="路径_116" data-name="路径 116" d="M-92.42,517.473a3.542,3.542,0,0,1-.732-.078c-1.467-.31-2.467-1.478-2.229-2.6h0a1.874,1.874,0,0,1,1.128-1.3,3.192,3.192,0,0,1,1.964-.176,3.193,3.193,0,0,1,1.725.955,1.874,1.874,0,0,1,.5,1.648,1.872,1.872,0,0,1-1.128,1.3A2.986,2.986,0,0,1-92.42,517.473Zm-2.314-2.544c-.162.769.609,1.585,1.72,1.82a2.53,2.53,0,0,0,1.554-.131,1.232,1.232,0,0,0,.754-.837,1.233,1.233,0,0,0-.351-1.071,2.532,2.532,0,0,0-1.368-.749,2.527,2.527,0,0,0-1.555.131,1.234,1.234,0,0,0-.755.837Z" transform="translate(95.42 -513.143)" fill="#1b0f0f"/>
      </g>
    </g>
    <path id="路径_117" data-name="路径 117" d="M-154.206,612.928a27.609,27.609,0,0,1-15.594-4.792.826.826,0,0,1-.218-1.148.826.826,0,0,1,1.148-.218,25.963,25.963,0,0,0,14.664,4.506,25.968,25.968,0,0,0,14.63-4.482.826.826,0,0,1,1.147.22.826.826,0,0,1-.22,1.148A27.614,27.614,0,0,1-154.206,612.928Z" transform="translate(314.384 -68.797)" fill="#231815"/>
    <g id="组_118" data-name="组 118" transform="translate(127.832 484.957)">
      <g id="组_117" data-name="组 117">
        <g id="组_116" data-name="组 116">
          <path id="路径_118" data-name="路径 118" d="M-177.291,467.97s9.141,5.947,10.463,8.04a16.75,16.75,0,0,1,2.313,6.828c.11,1.762.693,6.608-1.691,10.132s-4.224,1.872-4.626,7.049,3.563,5.286,3.563,5.286-4.846-.881-5.066,5.617,8.989,5.121,11.1,4.681,7.588-2.707,7.345-8.98-3.91-4.688-3.91-8.344,5.947-29.648-7.09-41.006l-1.473-1.264A30.127,30.127,0,0,0-185.6,449.1a30.5,30.5,0,0,0-19.891,7.092L-207,457.514c-13.464,12.438-6.352,37.109-6.352,40.765s-3.667,2.071-3.91,8.344,5.231,8.54,7.345,8.98,11.323,1.817,11.1-4.681-5.066-5.617-5.066-5.617,3.965-.11,3.563-5.286-2.241-3.524-4.626-7.049-1.8-8.37-1.691-10.132a16.749,16.749,0,0,1,2.313-6.828c1.322-2.092,10.463-8.04,10.463-8.04s1.571-1.129,1.91-1.377" transform="translate(218.096 -448.275)" fill="#724b42"/>
          <path id="路径_119" data-name="路径 119" d="M-167.069,515.186c-2.091,0-4.451-.357-6.023-1.679a5.078,5.078,0,0,1-1.743-4.285c.084-2.481.814-4.293,2.168-5.385a4.649,4.649,0,0,1,.9-.568c-.1-.092-.2-.191-.295-.3a6.052,6.052,0,0,1-1.267-4.688c.261-3.358,1.135-4.216,2.543-5.228a7.94,7.94,0,0,0,2.222-2.219c2.036-3.009,1.731-7.147,1.585-9.136-.013-.179-.025-.34-.034-.482a16,16,0,0,0-2.187-6.439c-.9-1.423-6.6-5.437-10.215-7.788a.826.826,0,0,1-.242-1.143.826.826,0,0,1,1.143-.242c.951.619,9.332,6.109,10.711,8.291a17.636,17.636,0,0,1,2.439,7.218c.008.136.02.292.033.464.16,2.174.493,6.7-1.864,10.182a9.486,9.486,0,0,1-2.626,2.635c-1.058.761-1.64,1.179-1.861,4.014a4.527,4.527,0,0,0,.833,3.438,3.007,3.007,0,0,0,1.733.934c.187.014.3.034.322.038a.826.826,0,0,1,.674.9.827.827,0,0,1-.845.74,3.14,3.14,0,0,1-.332-.033,3.46,3.46,0,0,0-2.347.709c-.954.78-1.472,2.174-1.539,4.143a3.463,3.463,0,0,0,1.155,2.965c2.063,1.737,6.6,1.37,8.953.879.283-.059,6.944-1.525,6.688-8.14-.123-3.17-1.133-4.031-2.111-4.864a4.1,4.1,0,0,1-1.8-3.513c0-.61.14-1.7.333-3.206,1.07-8.331,3.576-27.842-7.14-37.177l-1.468-1.261a29.459,29.459,0,0,0-18.7-6.708,29.623,29.623,0,0,0-19.353,6.892l-1.5,1.316c-10.906,10.076-7.844,28.7-6.536,36.647a28.4,28.4,0,0,1,.465,3.5,4.1,4.1,0,0,1-1.8,3.513c-.978.833-1.988,1.694-2.111,4.864-.256,6.615,6.4,8.081,6.688,8.14,2.355.491,6.89.857,8.953-.879a3.463,3.463,0,0,0,1.155-2.965c-.067-1.969-.584-3.363-1.539-4.143a3.46,3.46,0,0,0-2.351-.709,3.117,3.117,0,0,1-.328.033.826.826,0,0,1-.844-.74.826.826,0,0,1,.674-.9c.019,0,.136-.023.325-.038a3.009,3.009,0,0,0,1.729-.933,4.526,4.526,0,0,0,.833-3.438c-.22-2.835-.8-3.254-1.86-4.014a9.494,9.494,0,0,1-2.626-2.635c-2.356-3.484-2.024-8.008-1.863-10.183.013-.172.024-.327.032-.464a17.639,17.639,0,0,1,2.439-7.218c1.371-2.17,9.669-7.613,10.695-8.281.163-.117,1.571-1.129,1.89-1.362a.826.826,0,0,1,1.154.18.826.826,0,0,1-.18,1.154c-.34.248-1.915,1.38-1.915,1.38l-.032.022c-3.614,2.351-9.316,6.366-10.215,7.788a16.008,16.008,0,0,0-2.187,6.439c-.009.142-.021.3-.034.482-.146,1.989-.451,6.127,1.584,9.136a7.949,7.949,0,0,0,2.222,2.219c1.409,1.013,2.283,1.87,2.543,5.228a6.054,6.054,0,0,1-1.267,4.688c-.1.107-.195.206-.3.3a4.639,4.639,0,0,1,.9.568c1.355,1.092,2.084,2.9,2.168,5.385a5.077,5.077,0,0,1-1.742,4.285c-3.072,2.586-9.164,1.481-10.354,1.232-3.089-.644-8.25-3.437-8-9.821.151-3.894,1.618-5.144,2.69-6.057a2.505,2.505,0,0,0,1.219-2.255,29.688,29.688,0,0,0-.443-3.228c-1.351-8.214-4.515-27.449,7.061-38.143l1.523-1.336a31.278,31.278,0,0,1,20.436-7.3,31.123,31.123,0,0,1,19.767,7.1l1.485,1.275c11.386,9.919,8.8,30.043,7.7,38.637-.179,1.392-.32,2.491-.32,3a2.505,2.505,0,0,0,1.219,2.255c1.072.913,2.539,2.163,2.69,6.057.247,6.384-4.914,9.177-8,9.821A22.438,22.438,0,0,1-167.069,515.186Z" transform="translate(219.77 -446.602)" fill="#231815"/>
        </g>
      </g>
      <path id="路径_120" data-name="路径 120" d="M-69.79,519.45a.826.826,0,0,1-.779-.551c-.615-1.738-2.478-6.472-3.1-7.646a.826.826,0,0,1,.34-1.118.827.827,0,0,1,1.117.34c.72,1.351,2.62,6.222,3.2,7.873a.826.826,0,0,1-.5,1.054A.826.826,0,0,1-69.79,519.45Z" transform="translate(122.009 -489.079)" fill="#231815"/>
      <path id="路径_121" data-name="路径 121" d="M-182.944,519.45a.831.831,0,0,1-.276-.047.827.827,0,0,1-.5-1.054c.584-1.651,2.483-6.523,3.2-7.873a.826.826,0,0,1,1.117-.34.826.826,0,0,1,.34,1.118c-.626,1.174-2.489,5.908-3.1,7.646A.826.826,0,0,1-182.944,519.45Z" transform="translate(195.665 -489.079)" fill="#231815"/>
    </g>
    <g id="组_119" data-name="组 119" transform="translate(153.46 499.42)">
      <path id="路径_122" data-name="路径 122" d="M-139.118,492.877a25.6,25.6,0,0,0-.094,10.41,2.534,2.534,0,0,0,2.938,2,19.193,19.193,0,0,1,3.333-.33,18.114,18.114,0,0,1,3.2.3,2.539,2.539,0,0,0,2.953-1.977,32.665,32.665,0,0,0,.587-4.813,12.763,12.763,0,0,0-.585-4.95" transform="translate(140.528 -492.051)" fill="#724b42"/>
      <path id="路径_123" data-name="路径 123" d="M-138.395,504.474a3.381,3.381,0,0,1-3.3-2.7,26.4,26.4,0,0,1,.1-10.749.826.826,0,0,1,.984-.629.825.825,0,0,1,.629.984,24.737,24.737,0,0,0-.091,10.071A1.72,1.72,0,0,0-138.1,502.8a19.753,19.753,0,0,1,3.48-.343,18.852,18.852,0,0,1,3.343.313,1.707,1.707,0,0,0,2-1.33,32,32,0,0,0,.571-4.692,12.184,12.184,0,0,0-.529-4.6.827.827,0,0,1,.468-1.069.824.824,0,0,1,1.069.464,13.525,13.525,0,0,1,.642,5.3,33.629,33.629,0,0,1-.6,4.936,3.348,3.348,0,0,1-3.909,2.623,17.225,17.225,0,0,0-3.049-.286,18.114,18.114,0,0,0-3.186.317A3.354,3.354,0,0,1-138.395,504.474Z" transform="translate(142.203 -490.377)" fill="#231815"/>
    </g>
    <path id="路径_124" data-name="路径 124" d="M-131.224,550.995" transform="translate(288.312 -31.547)" fill="none" stroke="#231815" stroke-linecap="round" stroke-linejoin="round" stroke-width="5"/>
    <path id="路径_125" data-name="路径 125" d="M-132.167,568.98c-3.253,0-4.954-2.006-5.058-5.963a1.2,1.2,0,0,1,.346-.874,1.313,1.313,0,0,1,.938-.391h7.488a1.371,1.371,0,0,1,.985.414,1.245,1.245,0,0,1,.353.917C-127.268,567-128.968,568.98-132.167,568.98Zm-3.734-5.906c.1,3.169,1.257,4.584,3.734,4.584s3.594-1.371,3.73-4.583l-.016,0Z" transform="translate(292.33 -38.749)"/>
    <g id="组_122" data-name="组 122" transform="translate(167.748 511.495)">
      <g id="组_121" data-name="组 121" transform="translate(0 1.714)">
        <path id="路径_126" data-name="路径 126" d="M-86.965,540.96H-87a.826.826,0,0,1-.793-.858c.171-4.347-2.65-5.683-3.871-6.055-2.277-.694-4.866-.068-5.77,1.4a.826.826,0,0,1-1.137.27.826.826,0,0,1-.269-1.137c1.295-2.1,4.658-3.025,7.658-2.109,3.306,1.009,5.19,3.888,5.04,7.7A.826.826,0,0,1-86.965,540.96Z" transform="translate(98.962 -532.113)" fill="#231815"/>
        <g id="组_120" data-name="组 120" transform="translate(0.288 1.117)">
          <ellipse id="椭圆_21" data-name="椭圆 21" cx="4.553" cy="4.168" rx="4.553" ry="4.168" transform="translate(0.619 9.733) rotate(-87.326)" fill="#231815"/>
          <path id="路径_127" data-name="路径 127" d="M-93.123,546.25q-.111,0-.222-.005a4.787,4.787,0,0,1-3.478-1.766,5.568,5.568,0,0,1-1.26-3.841,5.568,5.568,0,0,1,1.612-3.706,4.786,4.786,0,0,1,3.628-1.434,5.2,5.2,0,0,1,4.737,5.606,5.565,5.565,0,0,1-1.612,3.706A4.8,4.8,0,0,1-93.123,546.25Zm.06-9.1a3.168,3.168,0,0,0-2.243.959,3.92,3.92,0,0,0-1.127,2.612h0a3.921,3.921,0,0,0,.879,2.706,3.155,3.155,0,0,0,2.285,1.173,3.144,3.144,0,0,0,2.386-.955,3.918,3.918,0,0,0,1.127-2.612,3.555,3.555,0,0,0-3.165-3.879C-92.968,537.146-93.016,537.145-93.063,537.145Zm-4.195,3.532h0Z" transform="translate(98.09 -535.493)" fill="#231815"/>
        </g>
        <circle id="椭圆_22" data-name="椭圆 22" cx="1.301" cy="1.301" r="1.301" transform="translate(3.447 2.317)" fill="#fff"/>
      </g>
      <path id="路径_128" data-name="路径 128" d="M-77.555,529.908a.825.825,0,0,1-.179-.02.826.826,0,0,1-.629-.985l.294-1.331a.827.827,0,0,1,.985-.629.826.826,0,0,1,.629.985l-.294,1.331A.826.826,0,0,1-77.555,529.908Z" transform="translate(85.182 -526.924)" fill="#231815"/>
    </g>
    <g id="组_125" data-name="组 125" transform="translate(140.324 512.042)">
      <g id="组_124" data-name="组 124" transform="translate(0 1.168)">
        <path id="路径_129" data-name="路径 129" d="M-181.127,540.961a.827.827,0,0,1-.825-.794c-.151-3.813,1.734-6.692,5.04-7.7,3-.914,6.364.011,7.658,2.109a.826.826,0,0,1-.269,1.137.826.826,0,0,1-1.137-.27c-.9-1.465-3.492-2.09-5.77-1.4-1.221.373-4.043,1.709-3.871,6.055a.826.826,0,0,1-.793.858Z" transform="translate(181.96 -532.115)" fill="#231815"/>
        <g id="组_123" data-name="组 123" transform="translate(2.552 1.116)">
          <ellipse id="椭圆_23" data-name="椭圆 23" cx="4.168" cy="4.553" rx="4.168" ry="4.553" transform="translate(0.619 1.025) rotate(-2.674)" fill="#231815"/>
          <path id="路径_130" data-name="路径 130" d="M-169.215,546.249a4.8,4.8,0,0,1-3.4-1.439,5.565,5.565,0,0,1-1.612-3.706,5.567,5.567,0,0,1,1.259-3.84,4.789,4.789,0,0,1,3.478-1.766,4.782,4.782,0,0,1,3.628,1.434,5.568,5.568,0,0,1,1.612,3.706h0a5.568,5.568,0,0,1-1.259,3.84,4.787,4.787,0,0,1-3.478,1.766C-169.066,546.248-169.141,546.249-169.215,546.249Zm-.059-9.1c-.048,0-.095,0-.142,0a3.155,3.155,0,0,0-2.286,1.173,3.918,3.918,0,0,0-.879,2.706,3.919,3.919,0,0,0,1.127,2.612,3.151,3.151,0,0,0,2.385.955,3.154,3.154,0,0,0,2.286-1.173,3.92,3.92,0,0,0,.879-2.706h0a3.919,3.919,0,0,0-1.127-2.612A3.168,3.168,0,0,0-169.274,537.144Z" transform="translate(174.238 -535.492)" fill="#231815"/>
        </g>
        <circle id="椭圆_24" data-name="椭圆 24" cx="1.301" cy="1.301" r="1.301" transform="translate(6.781 2.317)" fill="#fff"/>
      </g>
      <path id="路径_131" data-name="路径 131" d="M-171.62,531.482a.826.826,0,0,1-.758-.5l-.544-1.25a.826.826,0,0,1,.428-1.087.826.826,0,0,1,1.087.428l.544,1.25a.826.826,0,0,1-.428,1.087A.824.824,0,0,1-171.62,531.482Z" transform="translate(175.954 -528.58)" fill="#231815"/>
    </g>
  </g>
</svg>
